<svg width="48" height="48" viewBox="0 0 48 48" fill="none" xmlns="http://www.w3.org/2000/svg">
<path d="M25.5 18C25.5 17.1716 24.8284 16.5 24 16.5C23.1716 16.5 22.5 17.1716 22.5 18L22.5 22.5H18C17.1716 22.5 16.5 23.1716 16.5 24C16.5 24.8285 17.1716 25.5 18 25.5H22.5V30C22.5 30.8284 23.1716 31.5 24 31.5C24.8284 31.5 25.5 30.8284 25.5 30L25.5 25.5H30C30.8284 25.5 31.5 24.8285 31.5 24C31.5 23.1716 30.8284 22.5 30 22.5H25.5V18Z" fill="white"/>
<path fill-rule="evenodd" clip-rule="evenodd" d="M24 2.5C12.1259 2.5 2.5 12.1259 2.5 24C2.5 35.8741 12.1259 45.5 24 45.5C35.8741 45.5 45.5 35.8741 45.5 24C45.5 12.1259 35.8741 2.5 24 2.5ZM5.5 24C5.5 13.7827 13.7827 5.5 24 5.5C34.2173 5.5 42.5 13.7827 42.5 24C42.5 34.2173 34.2173 42.5 24 42.5C13.7827 42.5 5.5 34.2173 5.5 24Z" fill="white"/>
</svg>
