<svg width="430" height="258" viewBox="0 0 430 258" fill="none" xmlns="http://www.w3.org/2000/svg">
<line y1="-0.547074" x2="430" y2="-0.547074" transform="matrix(1 0 0 -1 0.5 177.111)" stroke="url(#paint0_linear_1_19720)" stroke-opacity="0.03" stroke-width="1.09415"/>
<line y1="-0.547074" x2="430" y2="-0.547074" transform="matrix(1 0 0 -1 0.5 89.5799)" stroke="url(#paint1_linear_1_19720)" stroke-opacity="0.03" stroke-width="1.09415"/>
<line y1="-0.547074" x2="430" y2="-0.547074" transform="matrix(1 0 0 -1 0.5 2.04805)" stroke="url(#paint2_linear_1_19720)" stroke-opacity="0.03" stroke-width="1.09415"/>
<line y1="-0.547074" x2="561.298" y2="-0.547074" transform="matrix(-6.04117e-08 -1 -1 3.16277e-08 13.6298 257.297)" stroke="url(#paint3_linear_1_19720)" stroke-opacity="0.03" stroke-width="1.09415"/>
<line y1="-0.547074" x2="561.298" y2="-0.547074" transform="matrix(-6.04117e-08 -1 -1 3.16277e-08 101.161 257.297)" stroke="url(#paint4_linear_1_19720)" stroke-opacity="0.03" stroke-width="1.09415"/>
<line y1="-0.547074" x2="541.603" y2="-0.547074" transform="matrix(-6.39334e-08 -1 -1 2.98856e-08 188.693 257.297)" stroke="url(#paint5_linear_1_19720)" stroke-opacity="0.03" stroke-width="1.09415"/>
<line y1="-0.547074" x2="561.298" y2="-0.547074" transform="matrix(-4.41404e-08 -1 -1 4.32866e-08 276.225 257.297)" stroke="url(#paint6_linear_1_19720)" stroke-opacity="0.03" stroke-width="1.09415"/>
<line y1="-0.547074" x2="561.298" y2="-0.547074" transform="matrix(-4.41404e-08 -1 -1 4.32866e-08 363.757 257.297)" stroke="url(#paint7_linear_1_19720)" stroke-opacity="0.03" stroke-width="1.09415"/>
<defs>
<linearGradient id="paint0_linear_1_19720" x1="215" y1="0" x2="215" y2="1" gradientUnits="userSpaceOnUse">
<stop stop-color="white"/>
<stop offset="1" stop-color="white" stop-opacity="0"/>
</linearGradient>
<linearGradient id="paint1_linear_1_19720" x1="215" y1="0" x2="215" y2="1" gradientUnits="userSpaceOnUse">
<stop stop-color="white"/>
<stop offset="1" stop-color="white" stop-opacity="0"/>
</linearGradient>
<linearGradient id="paint2_linear_1_19720" x1="215" y1="0" x2="215" y2="1" gradientUnits="userSpaceOnUse">
<stop stop-color="white"/>
<stop offset="1" stop-color="white" stop-opacity="0"/>
</linearGradient>
<linearGradient id="paint3_linear_1_19720" x1="280.649" y1="0" x2="280.649" y2="1" gradientUnits="userSpaceOnUse">
<stop stop-color="white"/>
<stop offset="1" stop-color="white" stop-opacity="0"/>
</linearGradient>
<linearGradient id="paint4_linear_1_19720" x1="280.649" y1="0" x2="280.649" y2="1" gradientUnits="userSpaceOnUse">
<stop stop-color="white"/>
<stop offset="1" stop-color="white" stop-opacity="0"/>
</linearGradient>
<linearGradient id="paint5_linear_1_19720" x1="270.802" y1="0" x2="270.802" y2="1" gradientUnits="userSpaceOnUse">
<stop stop-color="white"/>
<stop offset="1" stop-color="white" stop-opacity="0"/>
</linearGradient>
<linearGradient id="paint6_linear_1_19720" x1="280.649" y1="0" x2="280.649" y2="1" gradientUnits="userSpaceOnUse">
<stop stop-color="white"/>
<stop offset="1" stop-color="white" stop-opacity="0"/>
</linearGradient>
<linearGradient id="paint7_linear_1_19720" x1="280.649" y1="0" x2="280.649" y2="1" gradientUnits="userSpaceOnUse">
<stop stop-color="white"/>
<stop offset="1" stop-color="white" stop-opacity="0"/>
</linearGradient>
</defs>
</svg>
