<svg width="20" height="20" viewBox="0 0 20 20" fill="none" xmlns="http://www.w3.org/2000/svg">
<path fill-rule="evenodd" clip-rule="evenodd" d="M9.99996 18.3334C6.07159 18.3334 4.1074 18.3334 2.88701 17.113C1.66663 15.8926 1.66663 13.9284 1.66663 10C1.66663 6.07165 1.66663 4.10746 2.88701 2.88708C4.1074 1.66669 6.07159 1.66669 9.99996 1.66669C13.9283 1.66669 15.8925 1.66669 17.1129 2.88708C18.3333 4.10746 18.3333 6.07165 18.3333 10C18.3333 13.9284 18.3333 15.8926 17.1129 17.113C15.8925 18.3334 13.9283 18.3334 9.99996 18.3334ZM13.3586 7.47475C13.6026 7.71882 13.6026 8.11455 13.3586 8.35863L9.1919 12.5253C8.94782 12.7694 8.55209 12.7694 8.30802 12.5253L6.64135 10.8586C6.39727 10.6146 6.39727 10.2188 6.64135 9.97474C6.88543 9.73067 7.28116 9.73067 7.52523 9.97474L8.74996 11.1995L12.4747 7.47475C12.7188 7.23067 13.1145 7.23067 13.3586 7.47475Z" fill="url(#paint0_linear_1_19846)"/>
<defs>
<linearGradient id="paint0_linear_1_19846" x1="11.0689" y1="8.67426" x2="19.9179" y2="11.2794" gradientUnits="userSpaceOnUse">
<stop stop-color="#E345C4"/>
<stop offset="1" stop-color="#D86EC3"/>
</linearGradient>
</defs>
</svg>
