<svg width="398" height="398" viewBox="0 0 398 398" fill="none" xmlns="http://www.w3.org/2000/svg">
<path d="M340.561 86.6602H195.354C189.899 86.6602 185.476 91.0829 185.476 96.5385V223.946C185.476 229.402 189.899 233.825 195.354 233.825H340.561C346.016 233.825 350.439 229.402 350.439 223.946V96.5385C350.439 91.0829 346.016 86.6602 340.561 86.6602Z" fill="#272727"/>
<path d="M340.561 234.421H195.355C189.576 234.421 184.879 229.725 184.879 223.946V96.5459C184.879 90.7669 189.576 86.0705 195.355 86.0705H340.561C346.34 86.0705 351.036 90.7669 351.036 96.5459V223.946C351.036 229.725 346.34 234.421 340.561 234.421ZM195.355 87.2565C190.236 87.2565 186.073 91.4196 186.073 96.5379V223.938C186.073 229.056 190.236 233.219 195.355 233.219H340.561C345.679 233.219 349.842 229.056 349.842 223.938V96.5459C349.842 91.4276 345.679 87.2645 340.561 87.2645H195.355V87.2565Z" fill="#231F20"/>
<path d="M201.658 105.469C203.768 105.469 205.479 103.758 205.479 101.648C205.479 99.5379 203.768 97.8273 201.658 97.8273C199.548 97.8273 197.837 99.5379 197.837 101.648C197.837 103.758 199.548 105.469 201.658 105.469Z" fill="#EC78D5"/>
<path d="M201.658 106.073C199.223 106.073 197.24 104.091 197.24 101.655C197.24 99.2196 199.223 97.2376 201.658 97.2376C204.094 97.2376 206.076 99.2196 206.076 101.655C206.076 104.091 204.094 106.073 201.658 106.073ZM201.658 98.4236C199.875 98.4236 198.434 99.8724 198.434 101.647C198.434 103.423 199.883 104.871 201.658 104.871C203.433 104.871 204.882 103.423 204.882 101.647C204.882 99.8724 203.433 98.4236 201.658 98.4236Z" fill="#231F20"/>
<path d="M215.143 105.469C217.253 105.469 218.963 103.758 218.963 101.648C218.963 99.5379 217.253 97.8273 215.143 97.8273C213.032 97.8273 211.322 99.5379 211.322 101.648C211.322 103.758 213.032 105.469 215.143 105.469Z" fill="white"/>
<path d="M215.143 106.073C212.707 106.073 210.725 104.091 210.725 101.655C210.725 99.2196 212.707 97.2376 215.143 97.2376C217.578 97.2376 219.56 99.2196 219.56 101.655C219.56 104.091 217.578 106.073 215.143 106.073ZM215.143 98.4236C213.36 98.4236 211.919 99.8724 211.919 101.647C211.919 103.423 213.368 104.871 215.143 104.871C216.918 104.871 218.366 103.423 218.366 101.647C218.366 99.8724 216.918 98.4236 215.143 98.4236Z" fill="#231F20"/>
<path d="M228.635 105.469C230.745 105.469 232.456 103.758 232.456 101.648C232.456 99.5379 230.745 97.8273 228.635 97.8273C226.525 97.8273 224.814 99.5379 224.814 101.648C224.814 103.758 226.525 105.469 228.635 105.469Z" fill="#515151"/>
<path d="M228.635 106.073C226.199 106.073 224.217 104.091 224.217 101.655C224.217 99.2196 226.199 97.2376 228.635 97.2376C231.071 97.2376 233.053 99.2196 233.053 101.655C233.053 104.091 231.071 106.073 228.635 106.073ZM228.635 98.4236C226.852 98.4236 225.411 99.8724 225.411 101.647C225.411 103.423 226.86 104.871 228.635 104.871C230.41 104.871 231.859 103.423 231.859 101.647C231.859 99.8724 230.41 98.4236 228.635 98.4236Z" fill="#231F20"/>
<path d="M237.431 193.746C237.431 198.379 235.728 202.613 232.902 205.853C229.527 209.745 224.528 212.205 218.964 212.205C213.4 212.205 208.353 209.714 204.986 205.781C202.192 202.55 200.505 198.339 200.505 193.746C200.505 183.549 208.767 175.287 218.964 175.287C229.161 175.287 237.431 183.549 237.431 193.746Z" fill="white"/>
<path d="M218.964 212.802C213.408 212.802 208.147 210.382 204.533 206.171C201.556 202.716 199.908 198.307 199.908 193.745C199.908 183.238 208.457 174.689 218.964 174.689C229.471 174.689 238.028 183.238 238.028 193.745C238.028 198.346 236.365 202.78 233.348 206.243C229.734 210.414 224.488 212.802 218.956 212.802H218.964ZM218.964 175.883C209.118 175.883 201.102 183.899 201.102 193.745C201.102 198.02 202.638 202.159 205.432 205.391C208.815 209.339 213.75 211.608 218.964 211.608C224.178 211.608 229.065 209.371 232.448 205.463C235.274 202.223 236.834 198.06 236.834 193.745C236.834 183.899 228.819 175.883 218.964 175.883Z" fill="#231F20"/>
<path d="M328.104 126.253H253.176C251.462 126.253 250.072 127.643 250.072 129.358C250.072 131.072 251.462 132.462 253.176 132.462H328.104C329.818 132.462 331.208 131.072 331.208 129.358C331.208 127.643 329.818 126.253 328.104 126.253Z" fill="white"/>
<path d="M328.104 133.059H253.176C251.138 133.059 249.475 131.395 249.475 129.357C249.475 127.319 251.138 125.656 253.176 125.656H328.104C330.141 125.656 331.805 127.319 331.805 129.357C331.805 131.395 330.141 133.059 328.104 133.059ZM253.176 126.85C251.791 126.85 250.669 127.972 250.669 129.357C250.669 130.742 251.791 131.865 253.176 131.865H328.104C329.489 131.865 330.611 130.742 330.611 129.357C330.611 127.972 329.489 126.85 328.104 126.85H253.176Z" fill="#231F20"/>
<path d="M290.787 140.7H253.176C251.461 140.7 250.072 142.09 250.072 143.805C250.072 145.519 251.461 146.909 253.176 146.909H290.787C292.501 146.909 293.891 145.519 293.891 143.805C293.891 142.09 292.501 140.7 290.787 140.7Z" fill="white"/>
<path d="M290.779 147.507H253.168C251.13 147.507 249.466 145.843 249.466 143.805C249.466 141.767 251.13 140.104 253.168 140.104H290.779C292.816 140.104 294.48 141.767 294.48 143.805C294.48 145.843 292.816 147.507 290.779 147.507ZM253.176 141.298C251.791 141.298 250.668 142.42 250.668 143.805C250.668 145.19 251.791 146.313 253.176 146.313H290.787C292.172 146.313 293.294 145.19 293.294 143.805C293.294 142.42 292.172 141.298 290.787 141.298H253.176Z" fill="#231F20"/>
<path d="M328.104 183.423H253.176C251.462 183.423 250.072 184.813 250.072 186.528C250.072 188.242 251.462 189.632 253.176 189.632H328.104C329.818 189.632 331.208 188.242 331.208 186.528C331.208 184.813 329.818 183.423 328.104 183.423Z" fill="white"/>
<path d="M328.104 190.229H253.176C251.138 190.229 249.475 188.565 249.475 186.527C249.475 184.489 251.138 182.826 253.176 182.826H328.104C330.141 182.826 331.805 184.489 331.805 186.527C331.805 188.565 330.141 190.229 328.104 190.229ZM253.176 184.02C251.791 184.02 250.669 185.142 250.669 186.527C250.669 187.912 251.791 189.035 253.176 189.035H328.104C329.489 189.035 330.611 187.912 330.611 186.527C330.611 185.142 329.489 184.02 328.104 184.02H253.176Z" fill="#231F20"/>
<path d="M290.788 197.861H253.177C251.462 197.861 250.072 199.251 250.072 200.965C250.072 202.68 251.462 204.07 253.177 204.07H290.788C292.502 204.07 293.892 202.68 293.892 200.965C293.892 199.251 292.502 197.861 290.788 197.861Z" fill="white"/>
<path d="M290.779 204.666H253.168C251.131 204.666 249.467 203.003 249.467 200.965C249.467 198.927 251.131 197.263 253.168 197.263H290.779C292.817 197.263 294.481 198.927 294.481 200.965C294.481 203.003 292.817 204.666 290.779 204.666ZM253.176 198.457C251.791 198.457 250.669 199.58 250.669 200.965C250.669 202.35 251.791 203.472 253.176 203.472H290.787C292.172 203.472 293.295 202.35 293.295 200.965C293.295 199.58 292.172 198.457 290.787 198.457H253.176Z" fill="#231F20"/>
<path d="M232.902 205.846C229.527 209.738 224.528 212.198 218.964 212.198C213.4 212.198 208.353 209.706 204.986 205.774C205.01 204.819 205.392 197.838 209.627 195.625C211.744 194.518 213.917 194.065 215.636 193.89C215.788 193.874 215.931 193.858 216.074 193.85C216.83 193.794 217.475 193.778 217.969 193.802C218.518 193.81 218.868 193.842 218.948 193.85C219.027 193.842 219.393 193.81 219.99 193.802C220.484 193.786 221.121 193.794 221.869 193.858L222.203 193.882C223.923 194.057 226.12 194.518 228.269 195.633C232.607 197.901 232.902 205.201 232.917 205.846H232.902Z" fill="#EC78D5"/>
<path d="M218.963 212.802C213.407 212.802 208.146 210.382 204.532 206.172C204.436 206.06 204.381 205.917 204.389 205.766C204.413 204.93 204.739 197.511 209.348 195.107C211.195 194.144 213.288 193.539 215.565 193.3C215.756 193.276 215.891 193.26 216.034 193.252C216.894 193.181 217.57 193.189 217.984 193.205C218.462 193.205 218.796 193.236 218.94 193.252C219.091 193.236 219.449 193.213 219.974 193.205C220.571 193.181 221.232 193.205 221.909 193.268L222.235 193.292C224.559 193.531 226.669 194.144 228.531 195.107C233.148 197.519 233.483 204.993 233.506 205.837C233.506 205.988 233.459 206.132 233.363 206.243C229.749 210.414 224.504 212.802 218.971 212.802H218.963ZM205.591 205.567C208.974 209.403 213.829 211.6 218.963 211.6C224.098 211.6 228.913 209.427 232.296 205.63C232.225 204.333 231.707 198.108 227.974 196.158C226.247 195.266 224.281 194.701 222.124 194.478L221.805 194.454C221.176 194.399 220.555 194.375 219.998 194.399C219.425 194.407 219.067 194.438 218.995 194.446C218.955 194.446 218.908 194.446 218.868 194.446C218.796 194.446 218.47 194.407 217.945 194.399C217.555 194.383 216.934 194.383 216.106 194.446C215.978 194.446 215.859 194.47 215.732 194.478C213.543 194.709 211.6 195.266 209.889 196.158C206.172 198.092 205.646 204.269 205.583 205.559L205.591 205.567Z" fill="#231F20"/>
<path d="M221.113 197.614C220.158 199.086 218.972 199.015 218.972 199.015C218.972 199.015 217.778 199.086 216.823 197.614C215.876 196.157 216.091 193.395 216.091 193.395L218.972 194.024L221.846 193.395C221.846 193.395 222.068 196.157 221.113 197.614Z" fill="white"/>
<path d="M218.988 199.613C218.988 199.613 218.948 199.613 218.94 199.613C218.948 199.613 217.459 199.684 216.321 197.941C215.278 196.333 215.485 193.467 215.493 193.348C215.509 193.173 215.597 193.022 215.732 192.918C215.867 192.815 216.05 192.775 216.218 192.815L218.972 193.42L221.718 192.815C221.885 192.775 222.06 192.815 222.204 192.918C222.339 193.022 222.426 193.181 222.442 193.348C222.45 193.467 222.673 196.333 221.614 197.941C220.58 199.525 219.258 199.613 218.988 199.613ZM216.671 194.128C216.671 195.067 216.807 196.476 217.324 197.288C218.064 198.426 218.916 198.411 218.948 198.419C219.027 198.426 219.871 198.419 220.612 197.288C221.137 196.476 221.264 195.067 221.264 194.128L219.091 194.606C219.004 194.622 218.916 194.622 218.836 194.606L216.655 194.128H216.671Z" fill="#231F20"/>
<path d="M224.791 188.437C224.791 188.437 227.068 179.856 220.787 181.695C215.167 178.623 210.447 180.716 212.548 187.474C214.021 192.218 224.791 188.437 224.791 188.437Z" fill="#231F20"/>
<path d="M217.261 190.459C216.003 190.459 214.801 190.284 213.854 189.806C212.914 189.329 212.286 188.604 211.983 187.657C210.67 183.43 212.063 181.496 213.01 180.716C214.777 179.267 217.706 179.395 220.866 181.058C222.506 180.629 223.772 180.836 224.639 181.679C226.661 183.653 225.427 188.39 225.38 188.589C225.332 188.78 225.189 188.931 224.998 189.002C224.775 189.082 220.787 190.459 217.268 190.459H217.261ZM216.106 180.915C215.167 180.915 214.355 181.154 213.766 181.639C212.532 182.65 212.301 184.664 213.121 187.299C213.32 187.944 213.734 188.413 214.387 188.74C217.157 190.133 222.912 188.421 224.289 187.976C224.6 186.599 224.966 183.669 223.796 182.539C223.223 181.982 222.267 181.894 220.954 182.276C220.803 182.324 220.636 182.3 220.5 182.228C218.916 181.361 217.38 180.923 216.106 180.923V180.915Z" fill="#231F20"/>
<path d="M224.791 186.615C224.791 186.615 224.456 192.808 221.44 194.432C220.898 194.727 219.943 195.467 218.964 195.451C217.81 195.435 216.616 194.615 216.019 194.209C213.01 192.148 213.01 186.615 213.01 186.615C213.965 185.788 214.865 185.7 215.685 186.018C217.778 186.822 220.023 186.822 222.116 186.018C222.936 185.7 223.836 185.788 224.791 186.615Z" fill="white"/>
<path d="M218.988 196.048H218.964C217.635 196.033 216.329 195.133 215.7 194.703C212.453 192.482 212.421 186.855 212.421 186.616C212.421 186.441 212.493 186.282 212.628 186.162C213.655 185.271 214.793 185.024 215.907 185.454C217.866 186.202 219.943 186.202 221.909 185.454C223.032 185.024 224.162 185.271 225.189 186.162C225.324 186.282 225.404 186.465 225.396 186.648C225.38 186.91 225.006 193.199 221.734 194.958C221.631 195.014 221.511 195.085 221.384 195.165C220.811 195.515 219.943 196.048 218.996 196.048H218.988ZM213.615 186.894C213.663 188.001 214.013 192.1 216.361 193.716C216.902 194.09 218.009 194.847 218.972 194.854H218.988C219.593 194.854 220.262 194.449 220.747 194.146C220.898 194.051 221.042 193.971 221.161 193.899C223.485 192.65 224.058 188.096 224.17 186.879C223.557 186.425 222.968 186.321 222.331 186.568C220.086 187.428 217.714 187.428 215.47 186.568C214.833 186.321 214.236 186.425 213.615 186.887V186.894Z" fill="#231F20"/>
<path d="M237.431 139.515C237.431 143.383 236.237 146.981 234.191 149.95C230.864 154.798 225.284 157.974 218.964 157.974C213.519 157.974 208.624 155.618 205.249 151.861C202.304 148.589 200.505 144.259 200.505 139.515C200.505 129.318 208.767 121.047 218.964 121.047C229.161 121.047 237.431 129.318 237.431 139.515Z" fill="white"/>
<path d="M218.963 158.57C213.567 158.57 208.409 156.27 204.803 152.258C201.643 148.748 199.907 144.218 199.907 139.514C199.907 128.999 208.456 120.45 218.963 120.45C229.471 120.45 238.028 128.999 238.028 139.514C238.028 143.383 236.873 147.108 234.684 150.284C231.126 155.474 225.244 158.57 218.963 158.57ZM218.963 121.644C209.117 121.644 201.101 129.66 201.101 139.514C201.101 143.924 202.733 148.167 205.686 151.454C209.069 155.219 213.901 157.376 218.956 157.376C224.846 157.376 230.354 154.471 233.689 149.607C235.743 146.63 236.826 143.136 236.826 139.514C236.826 129.66 228.81 121.644 218.956 121.644H218.963Z" fill="#231F20"/>
<path d="M234.191 149.95C230.863 154.798 225.283 157.974 218.963 157.974C213.518 157.974 208.623 155.617 205.248 151.86C206.88 147.339 210.701 140.199 218.82 139.307C226.199 138.503 231.333 144.903 234.191 149.95Z" fill="#EC78D5"/>
<path d="M218.963 158.57C213.566 158.57 208.408 156.27 204.802 152.258C204.659 152.091 204.611 151.86 204.683 151.653C206.283 147.219 210.231 139.641 218.748 138.71C226.35 137.882 231.62 144.202 234.7 149.655C234.812 149.854 234.804 150.101 234.676 150.284C231.118 155.474 225.236 158.57 218.955 158.57H218.963ZM205.933 151.717C209.3 155.315 214.028 157.368 218.963 157.368C224.726 157.368 230.131 154.59 233.482 149.91C230.553 144.847 225.682 139.14 218.884 139.888C211.218 140.732 207.509 147.506 205.933 151.717Z" fill="#231F20"/>
<path d="M212.747 136.019C215.7 137.166 215.047 140.779 215.047 140.779C215.047 140.779 214.88 143.08 218 144.226C220.094 144.998 222.601 140.453 222.601 140.453C222.601 140.453 227.688 131.259 224.734 126.826C223.262 124.613 216.973 123.777 215.214 127.152C213.24 130.925 211.274 135.446 212.755 136.019H212.747Z" fill="white"/>
<path d="M218.494 144.911C218.263 144.911 218.024 144.871 217.794 144.783C214.291 143.494 214.442 140.843 214.45 140.732C214.482 140.541 214.984 137.524 212.532 136.569C212.174 136.425 211.911 136.155 211.768 135.773C211.593 135.295 211.044 133.846 214.689 126.873C215.485 125.353 217.181 124.422 219.362 124.302C221.829 124.167 224.305 125.09 225.236 126.491C228.357 131.172 223.342 140.35 223.127 140.74C222.872 141.201 220.763 144.911 218.502 144.911H218.494ZM219.808 125.488C219.672 125.488 219.545 125.488 219.41 125.496C218.383 125.552 216.544 125.878 215.732 127.431C212.58 133.464 212.747 135.024 212.874 135.359C212.906 135.446 212.938 135.454 212.954 135.462C215.652 136.513 215.883 139.466 215.621 140.883C215.621 140.883 215.565 142.698 218.192 143.661C219.402 144.107 221.32 141.496 222.06 140.159C222.108 140.071 226.94 131.228 224.217 127.152C223.573 126.181 221.678 125.48 219.792 125.48L219.808 125.488Z" fill="#231F20"/>
<path d="M212.747 136.02C212.747 136.02 216.687 137.166 218.82 137.501C220.953 137.835 222.267 135.367 222.267 135.367C222.267 135.367 223.938 135.885 224.567 134.874C226.7 131.427 223.747 131.427 223.747 131.427" fill="white"/>
<path d="M219.218 138.129C219.059 138.129 218.9 138.113 218.725 138.089C216.576 137.755 212.739 136.64 212.572 136.593C212.253 136.497 212.07 136.171 212.166 135.852C212.261 135.534 212.588 135.359 212.906 135.446C212.946 135.454 216.83 136.593 218.908 136.911C220.587 137.174 221.726 135.104 221.734 135.088C221.869 134.833 222.163 134.714 222.434 134.802C222.753 134.897 223.748 135.064 224.05 134.563C224.647 133.6 224.87 132.828 224.655 132.445C224.44 132.047 223.74 132.032 223.732 132.032C223.405 132.032 223.135 131.761 223.143 131.435C223.143 131.108 223.405 130.838 223.74 130.838C224.257 130.838 225.252 131.052 225.698 131.864C226.143 132.668 225.937 133.791 225.061 135.2C224.496 136.115 223.357 136.195 222.538 136.051C222.06 136.752 220.906 138.137 219.21 138.137L219.218 138.129Z" fill="#231F20"/>
<path d="M216.544 125.647C216.544 125.647 218.43 122.559 220.946 123.761C223.461 124.963 224.201 126.252 224.201 126.252C224.201 126.252 219.306 124.119 216.544 125.647Z" fill="#231F20"/>
<path d="M224.209 126.849C224.13 126.849 224.05 126.833 223.971 126.801C223.923 126.785 219.314 124.803 216.838 126.172C216.6 126.308 216.305 126.26 216.122 126.061C215.931 125.862 215.899 125.567 216.042 125.337C216.791 124.111 218.844 122.089 221.216 123.219C223.875 124.493 224.695 125.894 224.735 125.95C224.862 126.172 224.83 126.451 224.663 126.642C224.544 126.769 224.384 126.841 224.217 126.841L224.209 126.849ZM219.059 124.501C219.959 124.501 220.858 124.636 221.67 124.819C221.384 124.644 221.057 124.469 220.699 124.302C219.839 123.888 219.059 124.119 218.446 124.525C218.653 124.509 218.86 124.501 219.067 124.501H219.059Z" fill="#231F20"/>
<path d="M168.791 318.471L151.597 318.949L124.151 319.721L74.8153 321.09C74.8153 321.09 61.2833 274.261 55.6397 237.637C55.2337 234.971 43.9385 232.439 43.6758 229.892C56.6187 205.901 59.548 199.262 67.9379 187.505C75.7466 176.592 119.352 178.94 119.352 178.94C119.352 178.94 148.62 172.262 156.883 186.327C165.153 200.384 168.791 318.463 168.791 318.463V318.471Z" fill="#EC78D5"/>
<path d="M156.151 184.807L177.038 243.138H149.059L156.151 184.807Z" fill="#EC78D5"/>
<path d="M151.598 318.949L124.151 319.721L103.989 186.606L137.516 188.142L151.598 318.949Z" fill="#231F20"/>
<path d="M95.1211 92.647C82.7831 86.3825 67.6671 88.3168 57.8444 98.4658C50.6724 105.877 47.7909 117.482 51.6117 127.074C55.5121 136.849 65.9716 142.62 76.2877 141.776C86.2377 140.964 95.535 131.118 99.7538 122.656C104.856 112.444 107.395 98.8876 95.1211 92.647Z" fill="#231F20"/>
<path d="M77.4183 111.679C71.0742 118.795 68.8454 129.35 71.7826 138.417C72.5866 140.9 73.8522 143.399 76.081 144.761C80.3158 147.348 85.832 144.761 89.5653 141.513C95.6786 136.188 100.025 129.079 103.105 121.589C105.31 116.224 108.136 104.388 100.017 102.636C91.8976 100.885 82.457 106.011 77.4104 111.679H77.4183Z" fill="white"/>
<path d="M79.9417 146.408C78.493 146.408 77.0761 146.066 75.7707 145.27C73.7568 144.036 72.2683 141.855 71.2176 138.599C68.2087 129.31 70.4693 118.588 76.9726 111.281C82.2581 105.351 91.9135 100.28 100.152 102.055C102.333 102.525 103.941 103.711 104.92 105.573C107.165 109.832 105.645 116.988 103.663 121.82C100.168 130.313 95.5513 137.095 89.9633 141.967C87.1853 144.378 83.468 146.416 79.9417 146.416V146.408ZM77.8641 112.077C71.6315 119.066 69.4663 129.334 72.3479 138.233C73.311 141.21 74.6324 143.176 76.3916 144.251C80.3397 146.663 85.5774 144.187 89.1753 141.067C94.6279 136.315 99.1253 129.692 102.556 121.366C104.076 117.673 106.058 110.302 103.862 106.131C103.042 104.57 101.744 103.623 99.8974 103.225C92.1126 101.546 82.9187 106.409 77.8562 112.077H77.8641Z" fill="#231F20"/>
<path d="M125.401 167.519C123.769 169.191 122.519 171.34 120.657 172.86C113.978 178.353 104.299 179.642 96.1478 176.745C76.7015 169.812 74.2976 148.471 75.7542 130.672C76.3433 123.421 79.5432 108.066 90.0265 114.124C86.954 112.348 97.5089 103.696 99.0532 102.812C110.508 96.2693 124.294 101.515 132.708 110.542C137.142 115.286 142.507 121.542 145.691 127.234C149.432 133.928 147.681 144.037 144.489 150.564C142.021 155.627 138.105 159.949 133.377 163.014C131.172 164.447 128.195 165.107 126.221 166.763C125.926 167.002 125.663 167.257 125.393 167.535V167.511L125.401 167.519Z" fill="#231F20"/>
<path d="M133.504 124.885C133.504 124.885 141.671 144.602 144.409 156.995C146.439 166.436 132.143 168.904 132.143 168.904L136.895 190.22C136.895 190.22 139.418 201.102 125.687 202.399C111.956 203.697 104.8 193.182 104.8 193.182L94.5557 154.321C94.5557 154.321 107.753 142.238 103.304 128.451C103.304 128.451 111.972 132.367 121.134 131.301C130.296 130.234 133.496 124.885 133.496 124.885H133.504Z" fill="white"/>
<path d="M123.395 203.108C110.993 203.108 104.378 193.628 104.315 193.524C104.275 193.468 104.251 193.405 104.227 193.341L93.9826 154.48C93.9269 154.265 93.9906 154.035 94.1577 153.891C94.2851 153.772 107.013 141.896 102.739 128.65C102.667 128.427 102.739 128.181 102.906 128.021C103.081 127.862 103.336 127.822 103.551 127.926C103.638 127.966 112.187 131.763 121.07 130.728C129.795 129.717 132.963 124.646 132.995 124.599C133.114 124.408 133.313 124.296 133.552 124.312C133.775 124.328 133.974 124.471 134.061 124.678C134.141 124.877 142.276 144.586 144.998 156.884C145.5 159.201 145.11 161.318 143.852 163.181C141.066 167.304 134.849 168.952 132.859 169.389L137.484 190.109C137.524 190.284 138.479 194.575 135.844 198.237C133.878 200.959 130.487 202.567 125.759 203.013C124.955 203.092 124.167 203.124 123.403 203.124L123.395 203.108ZM105.357 192.927C106.05 193.874 113.055 202.997 125.64 201.803C130.002 201.389 133.106 199.948 134.865 197.528C137.189 194.312 136.33 190.396 136.322 190.356L131.57 169.039C131.538 168.88 131.57 168.713 131.657 168.578C131.745 168.442 131.888 168.347 132.055 168.323C132.135 168.307 139.904 166.914 142.881 162.496C143.948 160.912 144.274 159.105 143.844 157.123C141.488 146.489 135.04 130.226 133.369 126.095C131.992 127.727 128.37 131.07 121.23 131.898C113.875 132.75 106.934 130.497 104.243 129.47C107.379 141.856 97.0472 152.729 95.2482 154.504L105.373 192.919L105.357 192.927Z" fill="#231F20"/>
<path d="M101.307 149.912C101.307 149.912 91.4122 136.587 86.079 147.572C80.7538 158.564 93.84 166.365 100.224 164.025C100.224 164.025 101.513 168.204 105.804 169.239" fill="white"/>
<path d="M105.804 169.835C105.756 169.835 105.708 169.835 105.66 169.819C102.023 168.944 100.407 166.015 99.8656 164.765C96.0288 165.816 90.624 163.873 87.2808 160.172C85.3465 158.031 82.5446 153.509 85.5455 147.317C86.9385 144.435 88.7852 142.867 91.0379 142.66C96.2438 142.174 101.561 149.259 101.792 149.561C101.991 149.824 101.935 150.198 101.665 150.397C101.402 150.596 101.028 150.54 100.829 150.278C100.781 150.206 95.6866 143.424 91.1494 143.854C89.3504 144.021 87.8221 145.366 86.6201 147.842C83.9217 153.406 86.4291 157.458 88.1644 159.376C91.3245 162.87 96.6418 164.709 100.017 163.475C100.168 163.42 100.335 163.428 100.486 163.499C100.63 163.571 100.741 163.698 100.789 163.857C100.805 163.897 102.047 167.726 105.939 168.665C106.257 168.745 106.456 169.063 106.377 169.382C106.313 169.652 106.066 169.835 105.796 169.835H105.804Z" fill="#231F20"/>
<path d="M132.127 168.903C132.127 168.903 121.071 172.883 114.154 172.652C114.154 172.652 125.035 187.847 135.845 185.356L132.135 168.903H132.127Z" fill="#231F20"/>
<path d="M133.425 186.224C129.445 186.224 125.051 184.242 120.561 180.398C116.486 176.903 113.787 173.162 113.676 173.003C113.541 172.82 113.525 172.573 113.636 172.374C113.74 172.175 113.954 172.048 114.185 172.055C120.927 172.262 131.833 168.378 131.936 168.338C132.095 168.282 132.278 168.298 132.422 168.378C132.573 168.458 132.676 168.601 132.716 168.768L136.426 185.221C136.497 185.54 136.298 185.858 135.98 185.938C135.152 186.129 134.3 186.224 133.425 186.224ZM115.363 173.257C117.887 176.418 126.563 186.344 135.12 184.895L131.689 169.691C129.373 170.487 121.357 173.082 115.363 173.257Z" fill="#231F20"/>
<path d="M118.661 144.741C119.571 144.486 119.946 142.985 119.498 141.39C119.05 139.794 117.949 138.707 117.039 138.963C116.129 139.218 115.755 140.719 116.203 142.315C116.651 143.91 117.751 144.997 118.661 144.741Z" fill="#231F20"/>
<path d="M134.908 141.214C135.818 140.959 136.193 139.458 135.745 137.863C135.297 136.267 134.196 135.18 133.286 135.436C132.376 135.691 132.002 137.192 132.449 138.788C132.897 140.383 133.998 141.47 134.908 141.214Z" fill="#231F20"/>
<path d="M145.947 301.653L164.605 241.293L238.147 224.951L240.83 227.633L217.356 285.311L148.629 304.336L145.947 301.653Z" fill="white"/>
<path d="M148.629 304.932C148.47 304.932 148.318 304.868 148.207 304.757L145.524 302.074C145.365 301.915 145.31 301.684 145.373 301.477L164.031 241.117C164.095 240.91 164.262 240.759 164.469 240.711L238.02 224.369C238.219 224.321 238.426 224.385 238.569 224.528L241.251 227.211C241.419 227.378 241.474 227.632 241.379 227.855L217.905 285.534C217.833 285.709 217.69 285.836 217.515 285.884L148.788 304.908C148.732 304.924 148.685 304.932 148.629 304.932ZM146.623 301.485L148.804 303.666L216.91 284.809L240.129 227.768L237.956 225.595L165.066 241.793L146.615 301.477L146.623 301.485Z" fill="#231F20"/>
<path d="M148.628 304.335L167.286 243.975L240.829 227.633L220.037 287.993L148.628 304.335Z" fill="white"/>
<path d="M148.628 304.933C148.461 304.933 148.302 304.869 148.19 304.742C148.047 304.582 147.991 304.36 148.055 304.161L166.713 243.8C166.777 243.593 166.944 243.442 167.151 243.394L240.701 227.052C240.916 227.004 241.131 227.076 241.274 227.235C241.418 227.394 241.466 227.625 241.394 227.824L220.602 288.185C220.539 288.384 220.372 288.527 220.173 288.575L148.763 304.917C148.716 304.925 148.676 304.933 148.628 304.933ZM167.756 244.484L149.512 303.524L219.591 287.484L239.929 228.445L167.764 244.484H167.756Z" fill="#231F20"/>
<path d="M53.3787 233.094C53.3787 233.094 27.6202 284.213 42.7362 300.627C57.8522 317.04 137.492 299.679 137.492 299.679C151.247 296.941 166.084 292.109 169.945 276.587C170.438 274.597 170.478 272.09 168.759 270.976C167.875 270.418 166.769 270.403 165.726 270.458C162.264 270.633 158.833 271.35 155.593 272.584C155.617 270.498 155.657 268.42 155.689 266.319C148.063 272.767 139.076 279.859 129.11 281.554C122.543 282.677 115.634 282.78 108.995 283.306C97.4134 284.213 84.0008 277.423 72.419 278.211C72.419 278.211 79.0816 263.087 84.6376 247.303" fill="white"/>
<path d="M72.3553 308.299C56.8253 308.299 46.7559 305.872 42.2983 301.032C27.0788 284.507 51.7866 234.924 52.8453 232.823C52.9966 232.528 53.3548 232.409 53.6493 232.56C53.9438 232.711 54.0632 233.069 53.912 233.364C53.6572 233.873 28.5036 284.308 43.1739 300.228C57.892 316.204 136.569 299.273 137.365 299.098C151.088 296.367 165.607 291.544 169.364 276.443C169.587 275.56 170.16 272.599 168.432 271.484C167.676 271.007 166.657 271.015 165.758 271.055C162.359 271.222 159.008 271.93 155.8 273.14C155.617 273.212 155.41 273.188 155.243 273.068C155.084 272.957 154.988 272.766 154.988 272.575C155.004 271.54 155.02 270.505 155.036 269.47C155.044 268.858 155.052 268.237 155.068 267.616C147.553 273.912 138.813 280.511 129.206 282.143C124.533 282.939 119.646 283.233 114.925 283.512C112.983 283.623 110.977 283.743 109.035 283.902C103.097 284.372 96.6492 282.835 90.4086 281.347C84.359 279.906 78.1024 278.425 72.4588 278.808C72.2598 278.823 72.0528 278.728 71.9254 278.553C71.806 278.386 71.7822 278.163 71.8697 277.972C71.9334 277.821 78.588 262.689 84.0724 247.103C84.1838 246.792 84.5261 246.625 84.8366 246.737C85.147 246.848 85.3142 247.19 85.2027 247.501C80.4665 260.969 74.8547 274.095 73.3582 277.566C78.9302 277.391 84.9002 278.808 90.6951 280.185C96.8482 281.649 103.216 283.162 108.955 282.708C110.906 282.557 112.919 282.437 114.862 282.318C119.55 282.039 124.398 281.753 129.015 280.965C138.758 279.309 147.697 272.296 155.306 265.857C155.482 265.705 155.736 265.674 155.943 265.769C156.158 265.865 156.286 266.08 156.286 266.318C156.27 267.377 156.254 268.428 156.238 269.478C156.23 270.227 156.214 270.967 156.206 271.715C159.278 270.641 162.47 270.012 165.702 269.853C166.856 269.789 168.074 269.829 169.085 270.465C171.425 271.97 170.876 275.345 170.534 276.722C166.618 292.467 151.701 297.45 137.619 300.252C137.428 300.292 117.441 304.622 95.8532 306.89C86.9937 307.822 79.1531 308.283 72.3632 308.283L72.3553 308.299Z" fill="#231F20"/>
<path d="M232.599 258.564C232.599 258.564 223.143 251.472 222.354 254.624C221.566 257.776 216.44 273.147 219.202 275.121C221.964 277.095 225.507 276.697 227.871 274.333C230.235 271.969 232.599 258.572 232.599 258.572V258.564Z" fill="white"/>
<path d="M223.063 276.975C221.606 276.975 220.141 276.522 218.852 275.606C216.655 274.038 218.159 266.986 221.097 256.884C221.399 255.834 221.646 254.99 221.773 254.48C221.917 253.915 222.267 253.525 222.784 253.334C225.26 252.459 231.691 257.139 232.957 258.086C233.14 258.222 233.228 258.444 233.188 258.667C232.941 260.06 230.72 272.319 228.293 274.747C226.82 276.219 224.949 276.967 223.063 276.967V276.975ZM223.556 254.409C223.413 254.409 223.294 254.425 223.182 254.464C223.063 254.504 222.975 254.576 222.927 254.775C222.8 255.3 222.545 256.152 222.235 257.227C221.081 261.191 217.578 273.242 219.537 274.643C222.004 276.402 225.252 276.108 227.441 273.919C229.216 272.144 231.222 262.759 231.938 258.834C229.224 256.844 225.212 254.417 223.548 254.417L223.556 254.409Z" fill="#231F20"/>
<path d="M160.091 237.032C160.027 237.032 159.964 237.024 159.9 237C159.589 236.897 159.414 236.555 159.526 236.244C159.558 236.141 163.012 225.713 162.264 221.972C161.5 218.159 155.681 206.872 155.617 206.76C155.466 206.466 155.578 206.108 155.872 205.956C156.167 205.805 156.525 205.917 156.676 206.211C156.923 206.681 162.638 217.761 163.434 221.741C164.246 225.793 160.807 236.189 160.656 236.626C160.569 236.873 160.338 237.032 160.091 237.032Z" fill="#231F20"/>
<path d="M130.934 153.437C130.711 153.437 130.504 153.317 130.401 153.11C130.249 152.816 130.369 152.458 130.663 152.306C131.666 151.805 133.64 150.444 133.322 149.481C132.924 148.287 128.968 143.94 126.564 141.481C126.333 141.242 126.341 140.868 126.572 140.637C126.811 140.406 127.185 140.414 127.416 140.645C128.068 141.314 133.839 147.252 134.452 149.099C135.185 151.295 131.611 153.166 131.197 153.365C131.109 153.405 131.022 153.429 130.934 153.429V153.437Z" fill="#231F20"/>
<path d="M121.939 156.836C121.939 156.836 125.004 162.424 133.003 159.336Z" fill="white"/>
<path d="M128.506 160.864C123.531 160.864 121.437 157.179 121.414 157.131C121.254 156.844 121.358 156.478 121.652 156.319C121.939 156.16 122.305 156.263 122.464 156.558C122.584 156.773 125.41 161.644 132.788 158.795C133.099 158.675 133.441 158.826 133.561 159.137C133.68 159.447 133.529 159.79 133.218 159.909C131.427 160.602 129.859 160.872 128.506 160.872V160.864Z" fill="#231F20"/>
</svg>
