<svg width="32" height="32" viewBox="0 0 32 32" fill="none" xmlns="http://www.w3.org/2000/svg">
<path d="M19.9785 7.88393C21.4129 6.44404 23.5109 6.4138 24.6724 7.57978C25.836 8.74795 25.8047 10.8592 24.3694 12.3001L21.9456 14.7333C21.6533 15.0268 21.6542 15.5016 21.9476 15.794C22.2411 16.0863 22.716 16.0854 23.0083 15.7919L25.4321 13.3587C27.3434 11.4399 27.5834 8.37662 25.7351 6.52117C23.8846 4.66352 20.8281 4.90563 18.9158 6.82533L14.0682 11.6918C12.1569 13.6105 11.9169 16.6739 13.7652 18.5293C14.0575 18.8228 14.5324 18.8237 14.8258 18.5314C15.1193 18.239 15.1202 17.7642 14.8279 17.4707C13.6642 16.3025 13.6956 14.1913 15.1309 12.7504L19.9785 7.88393Z" fill="white"/>
<path d="M18.7351 13.4707C18.4428 13.1772 17.9679 13.1763 17.6744 13.4687C17.381 13.761 17.3801 14.2359 17.6724 14.5293C18.836 15.6975 18.8047 17.8087 17.3694 19.2496L12.5218 24.1161C11.0875 25.556 8.98937 25.5862 7.82791 24.4202C6.66424 23.2521 6.69559 21.1408 8.13089 19.6999L10.5547 17.2667C10.8471 16.9732 10.8461 16.4983 10.5527 16.206C10.2592 15.9137 9.78434 15.9146 9.49202 16.2081L7.06818 18.6413C5.15688 20.56 4.91692 23.6234 6.76519 25.4788C8.61567 27.3365 11.6722 27.0944 13.5845 25.1747L18.4321 20.3082C20.3434 18.3895 20.5834 15.3262 18.7351 13.4707Z" fill="white"/>
</svg>
