<svg width="398" height="398" viewBox="0 0 398 398" fill="none" xmlns="http://www.w3.org/2000/svg">
<path d="M379.772 301.764H14.9649C14.6465 301.764 14.4077 301.525 14.4077 301.207C14.4077 300.888 14.6465 300.649 14.9649 300.649H379.772C380.09 300.649 380.329 300.888 380.329 301.207C380.329 301.445 380.09 301.764 379.772 301.764Z" fill="#D1D3D4"/>
<path d="M65.272 127.121C64.874 127.041 64.7148 126.803 64.7148 126.484L65.67 119.718C65.67 119.479 65.9088 119.241 66.2272 119.241H85.0924C85.4108 119.241 85.6496 119.479 85.6496 119.798C85.6496 120.116 85.4108 120.355 85.0924 120.355H66.7048L65.7496 126.643C65.7496 126.962 65.5108 127.121 65.272 127.121Z" fill="#474141"/>
<path d="M54.4461 128.713C54.2869 128.713 54.0481 128.633 53.9685 128.474C52.8541 126.564 51.6601 124.733 50.3865 122.982C49.5905 122.902 44.9737 122.902 40.8345 123.061C40.5161 123.061 40.2773 122.823 40.2773 122.504C40.2773 122.186 40.5161 121.947 40.8345 121.947C47.1229 121.788 50.5457 121.788 50.9437 122.027C51.1029 122.106 51.5805 122.345 55.0033 127.917C55.1625 128.156 55.0829 128.474 54.8441 128.713C54.8441 128.713 54.8441 128.713 54.7645 128.713C54.6849 128.713 54.5257 128.713 54.4461 128.713Z" fill="#474141"/>
<path d="M72.9134 151.399H62.9634V178.542H72.9134V151.399Z" fill="#474141"/>
<path d="M72.9134 179.02H62.9634C62.7246 179.02 62.4858 178.781 62.4858 178.542V151.399C62.4858 151.16 62.7246 150.921 62.9634 150.921H72.9134C73.1522 150.921 73.391 151.16 73.391 151.399V178.542C73.391 178.781 73.1522 179.02 72.9134 179.02ZM63.441 178.065H72.4358V151.956H63.441V178.065Z" fill="#474141"/>
<path d="M36.5362 311.156C36.4566 311.156 36.377 311.156 36.2974 311.156C35.6606 310.997 35.2626 310.44 35.4218 309.882L61.849 178.304C62.0082 177.667 62.5654 177.269 63.2022 177.428C63.839 177.587 64.237 178.144 64.0778 178.702L37.6506 310.201C37.4914 310.758 37.0934 311.156 36.5362 311.156Z" fill="#474141"/>
<path d="M99.3409 311.156C98.7837 311.156 98.3857 310.758 98.2265 310.28L71.7993 178.781C71.6401 178.144 72.0381 177.587 72.6749 177.428C73.3117 177.269 73.8689 177.667 74.0281 178.304L100.455 309.803C100.614 310.44 100.216 310.997 99.5797 311.076C99.5001 311.156 99.4205 311.156 99.3409 311.156Z" fill="#474141"/>
<path d="M67.8986 311.156C67.2618 311.156 66.7842 310.679 66.7842 310.042V178.543C66.7842 177.906 67.2618 177.428 67.8986 177.428C68.5354 177.428 69.013 177.906 69.013 178.543V310.042C69.013 310.599 68.5354 311.156 67.8986 311.156Z" fill="#474141"/>
<path d="M78.0876 149.329H57.71V161.667H78.0876V149.329Z" fill="#474141"/>
<path d="M78.1672 162.145H57.71C57.4712 162.145 57.2324 161.906 57.2324 161.667V149.329C57.2324 149.09 57.4712 148.851 57.71 148.851H78.0876C78.3264 148.851 78.5652 149.09 78.5652 149.329V161.587C78.6448 161.826 78.406 162.065 78.1672 162.145ZM58.2672 161.11H77.6896V149.727H58.1876L58.2672 161.11Z" fill="#474141"/>
<path d="M88.7538 126.245H43.7798V150.921H88.7538V126.245Z" fill="#EC78D5"/>
<path d="M88.7539 151.479H43.7799C43.4615 151.479 43.2227 151.24 43.2227 150.921V126.245C43.2227 125.927 43.4615 125.688 43.7799 125.688H88.7539C89.0723 125.688 89.3111 125.927 89.3111 126.245V150.921C89.3111 151.24 89.0723 151.479 88.7539 151.479ZM44.3371 150.364H88.1967V126.803H44.3371V150.364Z" fill="#474141"/>
<path d="M100.137 130.623H88.7539V146.623H100.137V130.623Z" fill="#474141"/>
<path d="M100.137 147.1H88.754C88.5152 147.1 88.2764 146.861 88.2764 146.623V130.623C88.2764 130.384 88.5152 130.145 88.754 130.145H100.137C100.376 130.145 100.614 130.384 100.614 130.623V146.623C100.694 146.861 100.455 147.1 100.137 147.1ZM89.2316 146.145H99.6592V131.101H89.2316V146.145Z" fill="#474141"/>
<path d="M112.156 151.16L100.137 146.623V130.623L112.156 126.086V151.16Z" fill="#EC78D5"/>
<path d="M112.156 151.717C112.076 151.717 111.997 151.717 111.997 151.638L99.9773 147.101C99.7385 147.021 99.5793 146.782 99.6589 146.623V130.623C99.6589 130.385 99.8181 130.225 99.9773 130.146L111.997 125.609C112.315 125.529 112.634 125.688 112.713 125.927C112.713 126.007 112.713 126.086 112.713 126.086V151.16C112.713 151.479 112.474 151.717 112.156 151.717ZM100.694 146.225L111.599 150.285V126.882L100.694 130.942V146.225Z" fill="#474141"/>
<path d="M43.7005 129.031H37.8101V146.623H43.7005V129.031Z" fill="#474141"/>
<path d="M43.7796 147.1H37.8096C37.5708 147.1 37.332 146.861 37.332 146.623V129.031C37.332 128.792 37.5708 128.553 37.8096 128.553H43.7796C44.0184 128.553 44.2572 128.792 44.2572 129.031V146.623C44.2572 146.861 44.0184 147.1 43.7796 147.1ZM38.3668 146.145H43.302V129.509H38.3668V146.145Z" fill="#474141"/>
<path d="M72.1969 117.569H90.5049C91.2213 117.569 91.8581 118.206 91.8581 118.922V120.036C91.8581 120.753 91.2213 121.39 90.5049 121.39H72.1969C71.4805 121.39 70.8438 120.753 70.8438 120.036V118.922C70.8438 118.206 71.4805 117.569 72.1969 117.569Z" fill="#474141"/>
<path d="M89.9478 121.947H72.7542C71.401 121.947 70.3662 120.832 70.3662 119.559C70.3662 118.285 71.4806 117.171 72.7542 117.171H89.9478C91.301 117.171 92.3358 118.285 92.3358 119.559C92.3358 120.832 91.301 121.947 89.9478 121.947ZM72.7542 118.126C71.9582 118.206 71.401 118.842 71.401 119.638C71.4806 120.355 72.0378 120.912 72.7542 120.992H89.9478C90.7438 120.912 91.301 120.275 91.301 119.479C91.2214 118.763 90.6642 118.206 89.9478 118.126H72.7542Z" fill="#474141"/>
<path d="M54.2072 136.275H81.5896V153.946H54.2072C51.262 153.946 48.874 151.558 48.874 148.613V141.688C48.874 138.742 51.262 136.354 54.2072 136.275Z" fill="#EC78D5"/>
<path d="M81.6693 154.583H56.3565C51.8989 154.583 48.3169 151.001 48.3169 146.543V143.757C48.3169 139.299 51.8989 135.717 56.3565 135.717H81.5897C81.9081 135.717 82.1469 135.956 82.1469 136.275V154.025C82.1469 154.344 81.9081 154.583 81.6693 154.583ZM56.3565 136.911C52.5357 136.911 49.4313 140.016 49.4313 143.837V146.623C49.4313 150.443 52.5357 153.548 56.3565 153.548H81.0325V136.911H56.3565Z" fill="#474141"/>
<path d="M68.615 131.181H51.5806C51.2622 131.181 51.0234 130.942 51.0234 130.623C51.0234 130.305 51.2622 130.066 51.5806 130.066H68.615C68.9334 130.066 69.1722 130.305 69.1722 130.623C69.1722 130.862 68.9334 131.101 68.615 131.181Z" fill="#474141"/>
<path d="M337.981 310.201H227.974C224.153 310.281 220.969 307.177 220.969 303.356C220.969 303.197 220.969 303.037 220.969 302.799L232.034 92.9729C232.272 88.8337 235.695 85.6497 239.834 85.5701H349.842C353.662 85.4905 356.846 88.5949 356.846 92.4157C356.846 92.5749 356.846 92.7341 356.846 92.9729L345.782 302.878C345.464 306.938 342.12 310.122 337.981 310.201Z" fill="#231F20"/>
<path d="M337.981 310.679H227.974C223.835 310.679 220.492 307.416 220.492 303.276C220.492 303.117 220.492 302.878 220.492 302.719L231.556 92.8936C231.795 88.5156 235.456 85.0928 239.834 85.0132H349.842C353.981 85.0132 357.324 88.2768 357.324 92.416C357.324 92.5752 357.324 92.814 357.324 92.9732L346.26 302.878C346.021 307.256 342.359 310.679 337.981 310.679ZM239.755 86.048C235.855 86.1276 232.67 89.0728 232.432 92.9732L221.367 302.878C221.129 306.46 223.835 309.485 227.417 309.724C227.576 309.724 227.735 309.724 227.894 309.724H337.902C341.802 309.644 344.986 306.699 345.225 302.799L356.289 92.9732C356.528 89.3912 353.822 86.3664 350.24 86.1276C350.08 86.1276 349.921 86.1276 349.762 86.1276L239.755 86.048Z" fill="#231F20"/>
<path d="M329.862 309.803H219.775C215.955 309.883 212.771 306.779 212.771 302.958C212.771 302.799 212.771 302.639 212.771 302.401L223.835 92.5749C224.074 88.4357 227.497 85.2517 231.636 85.1721H341.643C345.464 85.0925 348.648 88.1969 348.648 92.0177C348.648 92.1769 348.648 92.3361 348.648 92.5749L337.583 302.48C337.345 306.619 333.922 309.803 329.862 309.803Z" fill="white"/>
<path d="M329.862 310.36H219.775C215.636 310.44 212.213 307.097 212.213 302.958C212.213 302.798 212.213 302.56 212.213 302.4L223.278 92.5749C223.517 88.1173 227.178 84.6945 231.636 84.6149H341.643C345.782 84.5353 349.205 87.8785 349.205 92.0177C349.205 92.1769 349.205 92.4157 349.205 92.5749L338.141 302.48C337.902 306.858 334.24 310.36 329.862 310.36ZM231.636 85.7293C227.815 85.8089 224.631 88.7541 224.392 92.5749L213.328 302.48C213.089 305.982 215.716 309.007 219.218 309.246C219.377 309.246 219.537 309.246 219.775 309.246H329.783C333.603 309.166 336.787 306.221 337.026 302.4L348.091 92.4953C348.329 88.9929 345.703 85.9681 342.2 85.7293C342.041 85.7293 341.882 85.7293 341.643 85.7293H231.636Z" fill="#231F20"/>
<path d="M288.709 93.61H268.013C267.694 93.61 267.456 93.3712 267.456 93.0528C267.456 92.7344 267.694 92.4956 268.013 92.4956H288.709C289.027 92.4956 289.266 92.7344 289.266 93.0528C289.266 93.3712 288.948 93.61 288.709 93.61Z" fill="#D1D3D4"/>
<path d="M295.315 93.61H291.733C291.415 93.61 291.176 93.3712 291.176 93.0528C291.176 92.7344 291.415 92.4956 291.733 92.4956H295.315C295.634 92.4956 295.873 92.7344 295.873 93.0528C295.952 93.3712 295.634 93.61 295.315 93.61Z" fill="#D1D3D4"/>
<path d="M350.877 135.718C350.558 135.718 350.319 135.4 350.319 135.161L351.434 113.43C351.434 113.112 351.673 112.873 351.991 112.873H352.071C352.389 112.873 352.628 113.192 352.628 113.43L351.513 135.161C351.434 135.48 351.195 135.718 350.877 135.718Z" fill="#D1D3D4"/>
<path d="M272.709 304.63C268.491 304.709 265.068 301.366 264.988 297.147C264.988 296.908 264.988 296.749 264.988 296.51C265.307 291.973 269.048 288.471 273.505 288.471C277.724 288.391 281.147 291.814 281.227 295.953C281.227 296.192 281.227 296.351 281.227 296.59C280.988 301.048 277.247 304.63 272.709 304.63ZM273.665 289.506C269.764 289.585 266.501 292.61 266.262 296.51C266.023 300.092 268.65 303.197 272.232 303.436C272.391 303.436 272.63 303.436 272.789 303.436C276.689 303.356 279.953 300.331 280.192 296.431C280.431 292.849 277.804 289.744 274.222 289.506C273.983 289.506 273.824 289.506 273.665 289.506Z" fill="#D1D3D4"/>
<path d="M330.579 284.809H219.775L230.919 99.7391H341.643L330.579 284.809Z" fill="white"/>
<path d="M330.579 285.366H219.775C219.616 285.366 219.457 285.287 219.377 285.207C219.298 285.127 219.218 284.968 219.218 284.809L230.362 99.8186C230.362 99.5002 230.601 99.2614 230.919 99.2614H341.643C341.802 99.2614 341.961 99.341 342.041 99.4206C342.121 99.5002 342.2 99.6594 342.2 99.8186L331.136 284.809C331.136 285.127 330.897 285.366 330.579 285.366ZM220.412 284.252H330.021L341.086 100.376H231.397L220.412 284.252Z" fill="#231F20"/>
<path d="M337.663 165.727H226.939L230.919 99.7391H341.643L337.663 165.727Z" fill="#EC78D5"/>
<path d="M337.663 166.284H226.94C226.78 166.284 226.621 166.205 226.542 166.125C226.462 166.046 226.382 165.887 226.382 165.727L230.362 99.7389C230.362 99.4205 230.601 99.1817 230.92 99.1817H341.643C341.802 99.1817 341.962 99.2613 342.041 99.3409C342.121 99.4205 342.2 99.5797 342.2 99.7389L338.22 165.727C338.22 166.046 337.982 166.284 337.663 166.284ZM227.576 165.17H337.186L341.086 100.296H231.477L227.576 165.17Z" fill="#231F20"/>
<path d="M273.665 146.942L275.336 119.48L296.271 133.25L273.665 146.942Z" fill="white"/>
<path d="M244.074 190.626C246.976 187.81 247.17 183.302 244.506 180.557C241.843 177.812 237.331 177.871 234.428 180.687C231.526 183.504 231.333 188.012 233.996 190.757C236.66 193.501 241.172 193.443 244.074 190.626Z" fill="#D1D3D4"/>
<path d="M239.131 273.229C242.033 270.413 242.226 265.904 239.563 263.16C236.899 260.415 232.387 260.474 229.485 263.29C226.583 266.107 226.389 270.615 229.053 273.36C231.716 276.104 236.228 276.046 239.131 273.229Z" fill="#D1D3D4"/>
<path d="M313.146 182.762H255.754C255.436 182.762 255.197 182.523 255.197 182.205C255.197 181.886 255.436 181.647 255.754 181.647H313.146C313.464 181.647 313.703 181.886 313.703 182.205C313.703 182.523 313.464 182.762 313.146 182.762Z" fill="#D1D3D4"/>
<path d="M301.445 189.607H255.357C255.038 189.607 254.799 189.369 254.799 189.05C254.799 188.732 255.038 188.493 255.357 188.493H301.525C301.843 188.493 302.082 188.732 302.082 189.05C302.002 189.369 301.763 189.607 301.445 189.607Z" fill="#D1D3D4"/>
<path d="M330.658 182.523H328.111L328.27 180.055H330.738L330.658 182.523Z" fill="#D1D3D4"/>
<path d="M330.419 186.662H327.872L328.031 184.194H330.499L330.419 186.662Z" fill="#D1D3D4"/>
<path d="M330.18 190.801H327.633L327.792 188.254H330.26L330.18 190.801Z" fill="#D1D3D4"/>
<path d="M337.504 169.548H226.701L226.939 165.727H337.663L337.504 169.548Z" fill="white"/>
<path d="M337.504 170.105H226.701C226.542 170.105 226.382 170.026 226.303 169.946C226.223 169.866 226.144 169.707 226.144 169.548L226.382 165.727C226.382 165.409 226.621 165.17 226.94 165.17H337.663C337.822 165.17 337.982 165.25 338.061 165.329C338.141 165.409 338.22 165.568 338.22 165.727L337.982 169.548C337.982 169.866 337.822 170.105 337.504 170.105ZM227.338 168.991H336.947L337.106 166.284H227.497L227.338 168.991Z" fill="#231F20"/>
<path d="M268.172 169.548H226.701L226.939 165.727H268.331L268.172 169.548Z" fill="#231F20"/>
<path d="M268.172 170.026H226.78C226.621 170.026 226.542 169.946 226.382 169.866C226.303 169.787 226.223 169.628 226.223 169.468L226.462 165.648C226.462 165.409 226.701 165.17 226.94 165.17H268.332C268.491 165.17 268.57 165.25 268.73 165.329C268.809 165.409 268.889 165.568 268.889 165.727L268.65 169.548C268.57 169.787 268.411 170.026 268.172 170.026ZM227.258 169.07H267.695L267.854 166.284H227.417L227.258 169.07Z" fill="#231F20"/>
<path d="M335.673 200.512H224.87C224.551 200.512 224.312 200.274 224.312 199.955C224.312 199.637 224.551 199.398 224.87 199.398H335.593C335.912 199.398 336.151 199.637 336.151 199.955C336.23 200.274 335.991 200.512 335.673 200.512Z" fill="#231F20"/>
<path d="M242.119 224.335C245.021 221.518 245.215 217.01 242.551 214.265C239.888 211.521 235.376 211.579 232.473 214.396C229.571 217.212 229.377 221.72 232.041 224.465C234.704 227.21 239.216 227.151 242.119 224.335Z" fill="#D1D3D4"/>
<path d="M327.395 216.432H251.377C251.058 216.432 250.819 216.194 250.819 215.875C250.819 215.557 251.058 215.318 251.377 215.318H327.315C327.633 215.318 327.872 215.557 327.872 215.875C327.952 216.194 327.713 216.432 327.395 216.432Z" fill="#D1D3D4"/>
<path d="M318.32 223.358H250.979C250.66 223.358 250.421 223.119 250.421 222.801C250.421 222.482 250.66 222.243 250.979 222.243H318.32C318.639 222.243 318.877 222.482 318.877 222.801C318.877 223.119 318.639 223.358 318.32 223.358Z" fill="#D1D3D4"/>
<path d="M240.753 246.791C243.655 243.974 243.849 239.466 241.185 236.721C238.521 233.977 234.009 234.035 231.107 236.852C228.205 239.668 228.011 244.176 230.675 246.921C233.338 249.665 237.85 249.607 240.753 246.791Z" fill="#D1D3D4"/>
<path d="M317.365 238.88H250.024C249.705 238.88 249.466 238.641 249.466 238.323C249.466 238.004 249.705 237.765 250.024 237.765H317.365C317.684 237.765 317.922 238.004 317.922 238.323C317.922 238.641 317.684 238.88 317.365 238.88Z" fill="#D1D3D4"/>
<path d="M300.092 245.884H249.626C249.307 245.884 249.068 245.646 249.068 245.327C249.068 245.009 249.307 244.77 249.626 244.77H300.092C300.41 244.77 300.649 245.009 300.649 245.327C300.649 245.646 300.41 245.884 300.092 245.884Z" fill="#D1D3D4"/>
<path d="M314.022 275.416H254.958C251.297 275.496 248.272 272.55 248.272 268.889C248.272 268.65 248.272 268.491 248.272 268.252C248.511 264.272 251.854 261.168 255.834 261.088H314.897C318.559 261.008 321.584 263.954 321.584 267.615C321.584 267.854 321.584 268.013 321.584 268.252C321.345 272.232 318.002 275.336 314.022 275.416Z" fill="#D1D3D4"/>
<path d="M177.269 105.311C177.03 107.142 177.667 108.893 178.941 110.246C178.782 108.734 179.339 107.222 180.453 106.187C181.568 105.311 182.841 104.754 184.274 104.595C184.035 105.391 183.876 106.266 183.876 107.142C183.876 108.018 184.354 108.814 185.07 109.212C185.627 109.45 186.264 109.45 186.821 109.291C189.368 108.814 191.836 107.858 194.383 108.018C196.93 108.177 199.716 109.61 200.433 112.316C201.627 112.873 202.502 113.828 202.9 115.102C203.776 117.251 204.015 119.719 203.537 121.948C203.139 123.699 202.423 125.291 201.468 126.803C200.114 129.35 198.124 131.579 195.657 133.171C194.622 133.808 193.428 134.206 192.234 134.206C187.936 133.967 183.558 128.714 180.453 125.768C177.19 122.584 175.12 118.366 174.563 113.908C174.404 110.724 175.12 107.381 177.269 105.311Z" fill="white"/>
<path d="M192.552 134.604H192.314C188.572 134.445 184.911 130.703 181.886 127.758C181.249 127.121 180.692 126.564 180.135 126.007C176.792 122.743 174.642 118.445 174.085 113.828C173.767 110.167 174.802 106.823 176.792 104.913C177.03 104.674 177.349 104.674 177.588 104.913C177.667 105.072 177.747 105.231 177.747 105.391C177.588 106.505 177.826 107.619 178.384 108.654C178.622 107.54 179.18 106.505 180.055 105.789C181.249 104.833 182.682 104.197 184.194 104.037C184.354 104.037 184.592 104.117 184.672 104.197C184.831 104.356 184.831 104.515 184.831 104.674C184.592 105.47 184.433 106.266 184.513 107.062C184.513 107.699 184.831 108.336 185.388 108.734C185.866 108.893 186.344 108.893 186.821 108.734C187.538 108.575 188.254 108.415 188.97 108.256C190.722 107.699 192.632 107.46 194.463 107.46C197.01 107.54 200.035 108.973 200.99 111.918C202.184 112.555 203.139 113.669 203.537 114.943C204.492 117.251 204.731 119.719 204.174 122.186C203.696 123.937 202.98 125.689 202.025 127.201C200.194 130.305 198.204 132.455 196.055 133.728C195.02 134.285 193.746 134.683 192.552 134.604ZM176.712 106.744C175.438 108.813 174.961 111.201 175.279 113.589C175.836 117.967 177.826 122.027 180.931 125.131C181.488 125.689 182.045 126.246 182.682 126.883C185.548 129.748 189.05 133.251 192.314 133.41C193.428 133.41 194.463 133.091 195.418 132.455C197.408 131.261 199.239 129.271 200.99 126.325C201.945 124.893 202.582 123.301 202.98 121.629C203.458 119.4 203.219 117.171 202.423 115.102C202.104 114.306 201.388 113.032 200.274 112.634C200.114 112.555 199.955 112.475 199.955 112.236C199.239 109.689 196.612 108.415 194.383 108.336C192.632 108.336 190.881 108.654 189.209 109.132C188.493 109.291 187.697 109.53 186.98 109.609C186.264 109.848 185.548 109.769 184.831 109.53C183.956 108.973 183.398 108.017 183.319 106.983C183.319 106.346 183.319 105.709 183.478 105.072C182.443 105.311 181.568 105.709 180.772 106.425C179.737 107.301 179.259 108.654 179.418 110.007C179.418 110.246 179.339 110.485 179.1 110.565C178.861 110.644 178.622 110.644 178.463 110.485C177.428 109.609 176.792 108.256 176.712 106.744Z" fill="#231F20"/>
<path d="M204.413 198.602C204.413 198.602 204.413 213.726 204.891 225.587C205.368 237.447 201.707 301.684 201.707 301.684L190.165 302.003L181.568 225.507L166.603 302.958L151.957 301.764C151.957 301.764 159.678 205.448 159.996 195.179L204.413 198.602Z" fill="#231F20"/>
<path d="M166.603 303.356L151.877 302.162C151.718 302.162 151.638 302.082 151.558 302.003C151.479 301.923 151.399 301.764 151.479 301.605C151.558 300.65 159.2 205.209 159.518 195.02C159.518 194.861 159.598 194.782 159.678 194.702C159.757 194.622 159.916 194.543 160.076 194.543L204.492 198.045C204.731 198.045 204.97 198.284 204.97 198.523C204.97 198.682 204.97 213.726 205.448 225.507C205.925 237.288 202.264 301.048 202.264 301.605C202.264 301.844 202.025 302.082 201.786 302.082L190.244 302.48C190.005 302.48 189.766 302.321 189.766 302.082L181.488 228.691L167.08 302.958C167.08 303.197 166.842 303.356 166.603 303.356ZM152.514 301.207L166.284 302.321L181.17 225.348C181.249 225.109 181.408 224.95 181.647 224.95C181.886 224.95 182.125 225.109 182.125 225.348L190.722 301.446L201.308 301.207C201.627 295.476 204.97 236.81 204.492 225.587C204.015 215 204.015 201.627 204.015 199.08L160.553 195.578C159.996 207.677 153.071 293.884 152.514 301.207Z" fill="#231F20"/>
<path d="M201.707 301.684C201.707 301.684 212.771 309.246 210.94 310.042C209.109 310.838 189.448 310.042 189.448 310.042L190.165 302.002" fill="white"/>
<path d="M204.413 310.918C198.522 310.918 190.801 310.6 189.527 310.6C189.209 310.6 188.97 310.361 188.97 310.042L189.687 302.003C189.687 301.684 190.005 301.445 190.323 301.525C190.642 301.525 190.881 301.844 190.801 302.162L190.164 309.644C197.487 309.963 208.631 310.122 210.621 309.724C209.985 308.61 205.527 305.107 201.467 302.321C201.229 302.162 201.229 301.764 201.388 301.525C201.547 301.286 201.865 301.286 202.104 301.366C205.766 303.913 211.975 308.371 211.815 309.963C211.815 310.281 211.577 310.52 211.258 310.679C210.542 310.838 207.756 310.918 204.413 310.918Z" fill="#231F20"/>
<path d="M166.603 302.878C166.603 302.878 166.125 309.564 165.17 309.644C164.215 309.724 140.813 310.838 141.768 309.405C142.723 307.972 151.877 301.684 151.877 301.684" fill="white"/>
<path d="M149.807 310.759C145.429 310.759 141.688 310.52 141.29 309.883C141.131 309.644 141.131 309.326 141.29 309.167C142.325 307.654 150.603 301.923 151.558 301.286C151.797 301.127 152.115 301.127 152.354 301.366C152.513 301.605 152.513 301.923 152.275 302.162C152.275 302.162 152.195 302.162 152.195 302.241C148.931 304.47 144.076 307.973 142.563 309.405C145.827 310.042 162.702 309.405 165.011 309.246C165.409 308.689 165.886 305.585 166.045 302.958C166.045 302.639 166.364 302.401 166.682 302.48C167.001 302.56 167.239 302.799 167.16 303.117C166.682 310.281 165.647 310.361 165.249 310.44C165.17 310.201 156.653 310.759 149.807 310.759Z" fill="#231F20"/>
<path d="M167.16 141.609C167.16 141.609 174.642 135.241 188.095 137.231C195.02 138.266 199 137.947 205.527 143.201L204.413 198.602C204.413 198.602 172.175 203.299 158.085 196.294L167.16 141.609Z" fill="#EC78D5"/>
<path d="M182.204 137.39L180.851 144.952C180.851 144.952 181.169 148.613 186.503 148.295C191.836 147.977 193.189 144.713 193.189 144.713L195.259 130.544C195.259 130.544 193.189 126.325 195.816 118.445C195.816 118.445 186.901 120.833 179.577 118.445C179.577 118.445 177.747 127.599 177.587 131.659C177.428 135.718 182.204 137.39 182.204 137.39Z" fill="white"/>
<path d="M185.866 148.932C180.692 148.932 180.214 145.111 180.214 145.031V144.872L181.488 137.708C180.214 137.151 176.712 135.241 176.871 131.579C177.03 127.519 178.781 118.684 178.861 118.286C178.861 118.127 179.02 117.967 179.1 117.888C179.259 117.808 179.418 117.808 179.577 117.808C186.662 120.117 195.418 117.808 195.497 117.808C195.657 117.729 195.895 117.808 196.055 117.967C196.214 118.127 196.214 118.365 196.134 118.525C193.587 126.087 195.497 130.146 195.577 130.226C195.657 130.305 195.657 130.465 195.657 130.544L193.587 144.793C193.587 144.872 193.587 144.872 193.507 144.952C193.428 145.111 191.915 148.613 186.343 148.932H185.866ZM181.329 144.952C181.408 145.429 182.045 147.977 186.423 147.738C190.96 147.499 192.393 144.952 192.632 144.554L194.622 130.544C194.303 129.669 192.95 125.848 194.94 119.082C192.473 119.639 185.866 120.753 179.896 119.002C179.498 121.072 178.145 128.156 178.065 131.499C177.985 135.081 182.363 136.753 182.363 136.753C182.602 136.833 182.761 137.071 182.682 137.39L181.329 144.952Z" fill="#231F20"/>
<path d="M192.871 129.669C193.189 129.032 193.667 128.475 194.303 128.156C194.94 127.838 195.577 127.679 196.214 127.599C196.612 127.519 196.93 127.519 197.328 127.599C197.567 127.679 197.806 127.838 197.965 127.997C198.443 128.395 198.841 128.873 198.92 129.509C199 129.987 198.92 130.544 198.681 130.942C198.522 131.42 198.283 131.977 197.965 132.375C196.691 134.206 194.224 134.763 192.313 133.489C192.313 133.489 192.313 133.489 192.234 133.489" fill="white"/>
<path d="M194.702 134.763C193.746 134.763 192.871 134.524 192.075 133.967C191.836 133.808 191.677 133.489 191.836 133.171C191.995 132.932 192.314 132.773 192.632 132.932C192.632 132.932 192.712 132.932 192.712 133.012C194.304 134.126 196.532 133.728 197.567 132.136C197.567 132.136 197.567 132.136 197.567 132.057C197.806 131.659 198.045 131.181 198.204 130.703C198.363 130.305 198.443 129.907 198.363 129.509C198.204 129.032 197.965 128.634 197.567 128.315C197.408 128.156 197.249 128.077 197.09 127.997C196.771 127.917 196.532 127.917 196.214 127.997C195.577 128.077 195.02 128.236 194.463 128.475C193.906 128.793 193.508 129.191 193.269 129.748C193.11 130.067 192.791 130.146 192.552 130.067C192.234 129.907 192.154 129.589 192.314 129.35C192.632 128.554 193.269 127.917 193.985 127.519C194.622 127.201 195.338 126.962 196.134 126.883C196.612 126.803 197.01 126.803 197.488 126.883C197.806 126.962 198.124 127.201 198.363 127.36C199 127.838 199.398 128.475 199.557 129.191C199.637 129.748 199.557 130.385 199.318 130.942C199.159 131.499 198.92 132.057 198.602 132.534C197.886 133.569 196.851 134.285 195.657 134.524C195.259 134.683 195.02 134.763 194.702 134.763Z" fill="#231F20"/>
<path d="M182.125 125.131C182.125 125.131 178.622 128.475 179.1 129.271C179.578 130.067 181.408 130.067 181.408 130.067" fill="white"/>
<path d="M181.249 130.624C180.692 130.624 179.1 130.544 178.543 129.589C178.065 128.793 179.18 127.201 181.647 124.733C181.886 124.494 182.204 124.494 182.443 124.733C182.682 124.972 182.682 125.29 182.443 125.529C180.931 126.962 179.578 128.634 179.498 129.111C179.657 129.35 180.612 129.509 181.249 129.509C181.568 129.509 181.806 129.748 181.806 130.066C181.806 130.385 181.568 130.624 181.249 130.624Z" fill="#231F20"/>
<path d="M188.015 123.619C188.015 123.619 186.901 121.47 185.07 123.062Z" fill="white"/>
<path d="M188.015 124.176C187.776 124.176 187.617 124.096 187.538 123.858C187.299 123.46 186.98 123.221 186.582 123.062C186.184 123.062 185.786 123.221 185.468 123.539C185.229 123.698 184.831 123.619 184.672 123.38C184.592 123.221 184.592 122.982 184.672 122.743C185.229 122.186 185.946 121.947 186.742 122.027C187.458 122.266 188.095 122.743 188.493 123.46C188.652 123.698 188.493 124.096 188.254 124.176C188.174 124.176 188.095 124.256 188.015 124.176Z" fill="#231F20"/>
<path d="M182.523 122.743C182.523 122.743 182.045 121.39 180.055 122.664Z" fill="white"/>
<path d="M182.523 123.301C182.284 123.301 182.045 123.142 181.965 122.903C181.886 122.823 181.806 122.744 181.727 122.664C181.567 122.584 181.169 122.584 180.294 123.062C180.055 123.221 179.657 123.142 179.498 122.903C179.339 122.664 179.418 122.266 179.657 122.107C180.294 121.55 181.249 121.39 182.045 121.55C182.523 121.709 182.841 122.107 183 122.505C183.08 122.823 182.921 123.142 182.682 123.221L182.523 123.301Z" fill="#231F20"/>
<path d="M182.204 137.39C182.204 137.39 186.184 138.027 188.174 137.231C188.174 137.231 185.945 141.529 181.488 141.927L182.204 137.39Z" fill="#231F20"/>
<path d="M181.408 142.564C181.249 142.564 181.09 142.484 181.01 142.405C180.851 142.246 180.851 142.086 180.851 141.927L181.567 137.39C181.647 137.072 181.886 136.912 182.204 136.912C182.204 136.912 186.025 137.47 187.856 136.753C188.095 136.674 188.333 136.753 188.493 136.912C188.652 137.072 188.652 137.31 188.572 137.549C188.493 137.629 186.264 142.007 181.408 142.564ZM182.602 138.027L182.045 141.29C183.955 140.813 185.627 139.698 186.821 138.106C185.468 138.266 184.035 138.186 182.602 138.027Z" fill="#231F20"/>
<path d="M155.299 140.813L154.742 149.807L147.26 150.444L148.295 135.798C148.295 135.798 156.175 133.091 157.051 133.33C157.926 133.569 155.299 140.813 155.299 140.813Z" fill="white"/>
<path d="M147.26 151.001C146.941 151.001 146.703 150.763 146.703 150.444C146.703 150.444 146.703 150.444 146.703 150.365L147.737 135.718C147.737 135.479 147.897 135.32 148.056 135.241C151.081 134.206 156.255 132.455 157.21 132.773C157.449 132.853 157.608 133.012 157.687 133.171C158.165 134.206 156.732 138.345 155.857 140.813L155.299 149.728C155.299 149.967 155.061 150.205 154.822 150.205L147.26 151.001ZM148.852 136.196L147.897 149.807L154.265 149.25L154.822 140.733C154.822 140.654 154.822 140.654 154.822 140.574C155.777 137.947 156.732 134.843 156.732 133.887C154.026 134.524 151.399 135.32 148.852 136.196Z" fill="#231F20"/>
<path d="M163.897 132.932C163.897 132.932 162.941 135.161 161.509 135.479C160.076 135.798 156.971 134.285 156.653 134.524C156.335 134.763 148.136 140.812 147.34 141.051C146.544 141.29 145.111 139.3 144.474 136.992C144.474 136.992 152.434 131.579 152.912 131.022C153.389 130.464 154.026 127.042 154.822 125.768L163.897 132.932Z" fill="white"/>
<path d="M147.26 141.529C146.066 141.529 144.553 139.3 143.917 137.071C143.837 136.833 143.917 136.594 144.155 136.435C147.18 134.365 152.115 130.942 152.513 130.544C152.832 129.907 153.071 129.191 153.23 128.475C153.469 127.36 153.867 126.325 154.344 125.37C154.424 125.211 154.583 125.131 154.742 125.131C154.901 125.131 155.061 125.131 155.22 125.211L164.294 132.375C164.533 132.534 164.533 132.773 164.453 133.012C164.374 133.251 163.339 135.479 161.667 135.877C160.633 136.196 159.041 135.639 157.847 135.241C157.528 135.161 157.051 135.002 156.891 134.922L155.061 136.196C149.807 140.017 147.976 141.29 147.499 141.37C147.419 141.529 147.339 141.529 147.26 141.529ZM145.111 137.151C145.747 139.061 146.862 140.415 147.26 140.415C147.817 140.176 152.275 136.992 154.344 135.4C155.857 134.285 156.255 134.047 156.334 133.967C156.653 133.808 157.13 133.887 158.085 134.285C159.041 134.683 160.553 135.081 161.269 134.922C161.986 134.763 162.782 133.728 163.1 133.012L154.901 126.564C154.583 127.281 154.344 128.077 154.185 128.873C154.026 129.748 153.707 130.624 153.23 131.34C152.832 131.897 146.941 135.877 145.111 137.151Z" fill="#231F20"/>
<path d="M155.22 127.758C155.3 128.315 155.141 128.952 154.902 129.43C154.424 130.226 152.514 131.34 152.514 131.34L151.161 128.554L153.867 126.644L155.22 127.758Z" fill="#231F20"/>
<path d="M152.514 131.897C152.434 131.897 152.434 131.897 152.355 131.897C152.195 131.818 152.116 131.738 152.036 131.579L150.683 128.793C150.524 128.554 150.603 128.236 150.842 128.077L153.549 126.166C153.787 126.007 154.026 126.007 154.265 126.166L155.698 127.36C155.777 127.44 155.857 127.599 155.857 127.679C155.937 128.395 155.777 129.111 155.459 129.748C154.981 130.624 153.151 131.659 152.832 131.818C152.673 131.818 152.593 131.897 152.514 131.897ZM151.797 128.713L152.673 130.544C153.31 130.226 153.867 129.748 154.345 129.191C154.504 128.873 154.583 128.475 154.583 128.077L153.708 127.36L151.797 128.713Z" fill="#231F20"/>
<path d="M146.623 135.479C146.623 135.479 145.907 133.171 147.18 133.012C147.18 132.375 147.738 131.897 148.454 131.897C148.613 131.897 148.852 131.977 149.011 132.056C149.011 132.056 149.409 130.385 150.762 130.703C152.116 131.022 153.15 134.206 152.991 135.002C152.832 135.798 151.797 135.32 151.24 134.524C151.24 134.524 151.956 135.798 151.479 136.116C150.842 136.594 150.126 135.718 149.568 135.081C149.568 135.081 150.364 136.594 149.17 136.673C148.215 136.753 147.34 134.842 147.34 134.842L146.623 135.479Z" fill="white"/>
<path d="M148.932 137.39C148.056 137.39 147.34 136.514 147.021 135.877L146.942 135.957C146.782 136.037 146.623 136.116 146.464 136.037C146.305 135.957 146.146 135.877 146.146 135.718C146.066 135.4 145.668 134.047 146.225 133.171C146.384 132.932 146.544 132.773 146.782 132.693C146.942 132.295 147.18 131.897 147.578 131.659C147.897 131.499 148.295 131.42 148.693 131.499C148.852 131.101 149.17 130.703 149.568 130.465C149.966 130.226 150.444 130.146 150.922 130.305C152.593 130.783 153.787 134.285 153.548 135.32C153.469 135.718 153.15 136.037 152.752 136.116C152.593 136.116 152.354 136.116 152.195 136.116C152.195 136.355 152.036 136.594 151.797 136.833C151.32 137.151 150.762 137.151 150.285 136.833V136.912C150.046 137.31 149.648 137.549 149.25 137.549L148.932 137.39ZM147.26 134.524C147.34 134.524 147.34 134.524 147.419 134.524C147.578 134.604 147.738 134.683 147.738 134.843C148.056 135.559 148.693 136.355 149.011 136.355C149.091 136.355 149.091 136.355 149.17 136.275C149.17 136.037 149.091 135.798 149.011 135.559C148.852 135.32 148.932 135.002 149.17 134.843C149.409 134.683 149.728 134.683 149.887 134.922L149.966 135.081C150.285 135.4 150.762 135.877 150.922 135.877C150.842 135.559 150.762 135.241 150.603 135.002C150.444 134.763 150.603 134.365 150.842 134.285C151.081 134.126 151.399 134.206 151.558 134.445C151.877 134.843 152.275 135.081 152.354 135.081C152.434 134.524 151.479 131.659 150.444 131.42C150.285 131.34 150.126 131.42 149.966 131.499C149.648 131.738 149.489 132.057 149.409 132.375C149.33 132.534 149.25 132.693 149.091 132.773C148.932 132.853 148.772 132.853 148.613 132.773C148.374 132.693 148.136 132.614 147.976 132.693C147.817 132.853 147.658 133.012 147.658 133.251C147.578 133.489 147.419 133.649 147.18 133.728C147.101 133.728 147.021 133.728 147.021 133.808C146.942 134.047 146.862 134.365 146.942 134.683C147.021 134.524 147.18 134.524 147.26 134.524Z" fill="#231F20"/>
<path d="M152.513 128.634C152.513 128.634 153.309 127.36 154.105 128.475C154.901 129.589 155.857 131.818 154.503 131.977C153.15 132.136 152.115 129.828 152.513 128.634Z" fill="white"/>
<path d="M154.265 132.614C153.708 132.614 153.15 132.295 152.832 131.897C152.036 130.942 151.718 129.748 151.956 128.475L152.036 128.395C152.275 127.917 152.752 127.599 153.31 127.519C153.787 127.519 154.265 127.838 154.504 128.236C154.663 128.475 156.096 130.624 155.538 131.897C155.379 132.295 154.981 132.614 154.504 132.693C154.504 132.614 154.344 132.614 154.265 132.614ZM152.991 128.873C152.912 129.669 153.15 130.544 153.708 131.181C153.867 131.42 154.106 131.499 154.344 131.499C154.504 131.499 154.504 131.42 154.504 131.42C154.663 131.022 154.185 129.828 153.548 128.873C153.389 128.713 153.31 128.634 153.31 128.634C153.23 128.554 153.071 128.713 152.991 128.873Z" fill="#231F20"/>
<path d="M155.299 140.813C155.299 140.813 157.289 136.674 157.369 135.878C157.528 134.604 157.21 132.614 156.095 132.375C154.981 132.136 152.434 131.738 152.832 132.853C153.23 133.967 155.459 134.047 155.459 134.047C155.459 134.047 153.946 135.559 154.185 137.151" fill="white"/>
<path d="M155.3 141.37C155.22 141.37 155.14 141.37 155.061 141.29C154.822 141.131 154.663 140.813 154.822 140.574C155.618 139.061 156.255 137.469 156.812 135.877C156.971 134.604 156.653 133.091 155.936 132.932C155.14 132.693 154.265 132.614 153.389 132.773C153.628 133.251 154.742 133.489 155.459 133.569C155.698 133.569 155.857 133.728 155.936 133.967C156.016 134.206 155.936 134.365 155.777 134.524C155.379 134.922 154.504 136.116 154.663 137.151C154.742 137.469 154.504 137.708 154.185 137.788C153.867 137.867 153.628 137.629 153.548 137.31C153.469 136.355 153.787 135.32 154.344 134.524C153.469 134.445 152.673 133.887 152.275 133.091C152.116 132.773 152.195 132.295 152.434 132.057C153.31 131.101 156.096 131.897 156.175 131.897C157.688 132.295 158.006 134.683 157.847 136.037C157.767 136.833 156.175 140.096 155.698 141.131C155.618 141.211 155.459 141.29 155.3 141.37Z" fill="#231F20"/>
<path d="M140.096 124.972C140.096 124.972 149.33 124.097 153.071 126.246C154.026 126.803 154.902 127.44 155.777 128.156C157.847 129.748 159.757 131.579 161.19 132.534C164.135 134.524 167.001 134.922 168.991 131.738C170.663 129.032 169.707 127.758 167.479 125.37C166.364 124.176 164.056 122.186 161.986 120.037C160.792 118.843 159.757 117.49 159.041 115.977C157.369 112.395 157.847 106.903 157.847 106.903L140.096 124.972Z" fill="white"/>
<path d="M165.329 134.604C163.737 134.524 162.145 133.967 160.871 132.932C159.837 132.136 158.802 131.34 157.767 130.465C156.971 129.828 156.175 129.111 155.379 128.475C154.503 127.838 153.628 127.201 152.752 126.644C149.17 124.574 140.255 125.45 140.175 125.45C139.937 125.45 139.698 125.37 139.618 125.131C139.539 124.893 139.539 124.654 139.698 124.495L157.369 106.425C157.608 106.187 157.926 106.187 158.165 106.425C158.324 106.505 158.324 106.744 158.324 106.903C158.324 106.983 157.847 112.316 159.518 115.659C160.235 117.092 161.269 118.445 162.384 119.639C163.498 120.913 164.772 122.027 165.886 123.062C166.682 123.778 167.399 124.415 167.876 124.972C170.185 127.44 171.379 128.952 169.468 132.057C168.831 133.33 167.637 134.206 166.284 134.524C165.886 134.604 165.568 134.604 165.329 134.604ZM144.394 124.256C147.339 124.256 151.16 124.574 153.309 125.768C154.265 126.325 155.22 126.962 156.095 127.679C156.971 128.315 157.767 129.032 158.563 129.669C159.518 130.544 160.473 131.34 161.508 132.057C163.259 133.251 164.772 133.728 166.045 133.41C167.08 133.091 167.956 132.375 168.513 131.42C169.946 129.111 169.309 128.156 167.001 125.689C166.523 125.211 165.886 124.574 165.09 123.858C163.976 122.823 162.702 121.629 161.508 120.355C160.235 119.082 159.2 117.649 158.404 116.057C157.21 113.51 157.051 110.087 157.051 108.177L141.449 124.176C142.245 124.256 143.28 124.176 144.394 124.256Z" fill="#231F20"/>
<path d="M155.22 127.758C157.29 129.35 159.678 131.42 161.111 132.534C164.374 135.002 166.444 135.241 168.593 132.216C170.742 129.191 169.548 127.758 167.319 125.37C166.205 124.176 163.897 122.266 161.827 120.037C161.509 121.868 160.713 123.619 159.439 125.052C158.404 126.405 156.892 127.36 155.22 127.758Z" fill="#231F20"/>
<path d="M165.329 135.002C164.056 135.002 162.702 134.365 160.872 133.012C160.076 132.455 159.041 131.5 157.847 130.624C156.892 129.828 155.857 128.952 154.902 128.236C154.663 128.077 154.583 127.679 154.822 127.44C154.902 127.36 155.061 127.281 155.14 127.201C156.732 126.803 158.086 125.928 159.12 124.734C160.314 123.38 161.11 121.788 161.349 120.037C161.349 119.798 161.508 119.639 161.747 119.56C161.986 119.48 162.225 119.56 162.384 119.719C163.498 120.992 164.772 122.107 165.886 123.142C166.682 123.858 167.399 124.495 167.876 125.052C170.185 127.52 171.697 129.112 169.23 132.534C168.195 133.967 167.16 134.763 165.966 134.922C165.648 134.922 165.488 135.002 165.329 135.002ZM156.414 127.997C157.13 128.554 157.847 129.112 158.484 129.748C159.598 130.704 160.712 131.579 161.429 132.136C163.26 133.49 164.533 134.047 165.648 133.888C166.523 133.728 167.319 133.171 168.115 131.977C170.026 129.271 169.15 128.236 166.921 125.928C166.444 125.45 165.807 124.813 165.011 124.017C164.215 123.221 163.18 122.266 162.225 121.311C161.747 122.823 160.951 124.256 159.916 125.53C159.041 126.564 157.847 127.44 156.414 127.997Z" fill="#231F20"/>
<path d="M137.549 124.176C139.618 126.007 144.155 124.495 148.613 120.753C149.727 119.798 150.842 118.763 151.797 117.649C152.752 116.535 153.707 115.42 154.503 114.226C157.767 109.371 158.881 104.674 156.812 102.764C154.265 100.455 147.897 103.401 142.563 109.291C137.23 115.181 134.922 121.868 137.549 124.176Z" fill="white"/>
<path d="M139.857 125.529C138.902 125.609 137.867 125.211 137.151 124.574C135.718 123.301 135.479 120.913 136.514 117.888C137.788 114.545 139.618 111.52 142.086 108.893C147.658 102.605 154.344 99.739 157.13 102.286C159.359 104.276 158.484 109.211 154.981 114.465C153.31 116.933 151.24 119.241 148.932 121.151C145.588 124.017 142.325 125.529 139.857 125.529ZM154.424 102.525C151.479 102.525 146.862 105.311 142.882 109.689C140.574 112.157 138.743 115.102 137.549 118.286C136.673 120.833 136.832 122.823 137.867 123.778C139.618 125.37 143.917 123.937 148.215 120.355C149.33 119.4 150.444 118.365 151.399 117.251C152.354 116.216 153.23 115.022 154.026 113.828C157.21 109.132 158.165 104.754 156.414 103.082C155.936 102.684 155.22 102.445 154.424 102.525Z" fill="#231F20"/>
<path d="M144.952 116.137L148.613 120.754C149.728 119.798 150.842 118.764 151.797 117.649C152.752 116.535 153.708 115.42 154.504 114.226L149.17 110.963L144.952 116.137Z" fill="#231F20"/>
<path d="M148.613 121.311C148.374 121.311 148.295 121.231 148.135 121.072L144.474 116.455C144.315 116.216 144.315 115.978 144.474 115.739L148.772 110.485C148.931 110.246 149.25 110.246 149.489 110.406L154.822 113.669C154.981 113.749 155.061 113.908 155.061 113.988C155.061 114.147 155.061 114.306 154.981 114.386C153.309 116.853 151.24 119.162 148.931 121.072C148.852 121.311 148.693 121.311 148.613 121.311ZM145.668 116.137L148.693 119.958C149.648 119.082 150.523 118.206 151.399 117.251C152.195 116.296 152.991 115.341 153.707 114.306L149.329 111.6L145.668 116.137Z" fill="#231F20"/>
<path d="M148.29 114.516C149.462 113.089 149.861 111.48 149.182 110.922C148.502 110.364 147.001 111.068 145.829 112.495C144.658 113.922 144.258 115.531 144.938 116.089C145.617 116.647 147.118 115.943 148.29 114.516Z" fill="#231F20"/>
<path d="M145.509 116.933C145.19 116.933 144.872 116.853 144.553 116.614C143.598 115.818 143.996 113.987 145.429 112.236C145.986 111.52 146.703 110.963 147.499 110.565C148.215 110.007 149.25 110.087 149.807 110.803C150.205 111.281 150.285 111.997 149.966 112.555C149.727 113.43 149.25 114.226 148.693 114.943C148.135 115.659 147.419 116.216 146.623 116.614C146.305 116.853 145.907 116.933 145.509 116.933ZM148.693 111.361C148.454 111.361 148.215 111.44 148.056 111.52C147.419 111.838 146.862 112.316 146.384 112.953C145.27 114.306 145.111 115.579 145.349 115.818C145.429 115.898 145.827 115.898 146.225 115.659C147.499 114.943 148.533 113.749 148.931 112.316C149.091 111.838 149.011 111.52 148.852 111.44C148.852 111.361 148.772 111.361 148.693 111.361Z" fill="#231F20"/>
<path d="M149.409 135.798C149.25 135.798 149.011 135.718 148.931 135.559C148.613 135.082 148.295 134.604 147.897 134.285C147.658 134.047 147.658 133.728 147.817 133.489C147.976 133.251 148.374 133.251 148.613 133.41C149.091 133.888 149.568 134.445 149.887 135.002C150.046 135.241 149.966 135.559 149.727 135.798C149.727 135.798 149.727 135.798 149.648 135.798C149.648 135.798 149.568 135.878 149.409 135.798Z" fill="#231F20"/>
<path d="M151.161 135.241C150.922 135.241 150.683 135.082 150.603 134.763C150.444 134.206 150.126 133.649 149.569 133.33C149.33 133.171 149.25 132.773 149.489 132.534C149.648 132.296 150.046 132.216 150.285 132.455C151.001 133.012 151.479 133.728 151.718 134.604C151.797 134.922 151.559 135.161 151.32 135.241H151.161Z" fill="#231F20"/>
<path d="M147.26 135.639C147.101 135.639 146.942 135.559 146.783 135.4L146.385 134.843C146.225 134.604 146.305 134.206 146.544 134.047C146.783 133.888 147.181 133.967 147.34 134.206L147.738 134.763C147.897 135.002 147.897 135.4 147.579 135.559C147.499 135.559 147.419 135.639 147.26 135.639Z" fill="#231F20"/>
<path d="M181.965 135.559C182.273 135.559 182.523 134.668 182.523 133.569C182.523 132.47 182.273 131.579 181.965 131.579C181.658 131.579 181.408 132.47 181.408 133.569C181.408 134.668 181.658 135.559 181.965 135.559Z" fill="#231F20"/>
<path d="M167.16 141.609L157.847 160.633V143.042L144.952 144.236C144.952 144.236 133.251 189.13 142.484 191.279C155.937 194.384 172.095 162.703 172.095 162.703L167.16 141.609Z" fill="#EC78D5"/>
<path d="M156.335 171.697C156.016 171.697 155.777 171.379 155.777 171.14L157.29 143.041C157.29 142.723 157.529 142.484 157.847 142.484C158.165 142.484 158.404 142.802 158.404 143.041L156.892 171.14C156.892 171.538 156.653 171.697 156.335 171.697Z" fill="#231F20"/>
<path d="M158.961 191.916H158.881C158.563 191.836 158.404 191.597 158.404 191.279L165.249 149.887L166.364 150.046L159.518 191.438C159.439 191.677 159.2 191.916 158.961 191.916Z" fill="#231F20"/>
<path d="M194.143 196.249L191.145 216.647L222.254 221.219L225.251 200.821L194.143 196.249Z" fill="white"/>
<path d="M222.243 221.766H222.163L191.04 217.149C190.881 217.149 190.801 217.069 190.642 216.91C190.562 216.831 190.483 216.671 190.562 216.512L193.587 196.135C193.667 195.816 193.905 195.657 194.224 195.657L225.347 200.274C225.507 200.274 225.586 200.353 225.745 200.513C225.825 200.592 225.905 200.751 225.825 200.911L222.88 221.288C222.8 221.527 222.561 221.766 222.243 221.766ZM191.756 216.194L221.765 220.572L224.631 201.309L194.622 196.931L191.756 216.194Z" fill="#231F20"/>
<path d="M208.233 201.707C207.835 203.697 207.278 205.687 206.721 207.597C206.164 208.871 202.263 213.806 202.502 215.08C202.741 216.353 204.651 216.592 204.651 216.592C204.651 216.592 202.502 220.254 204.174 220.97C205.845 221.686 210.223 222.96 211.338 220.97C212.452 218.98 215.716 204.254 215.716 204.254L208.233 201.707Z" fill="white"/>
<path d="M208.791 222.562C207.119 222.482 205.448 222.084 203.935 221.447C203.537 221.288 203.219 220.89 203.06 220.492C202.741 219.457 203.378 217.786 203.856 216.91C202.98 216.671 202.264 216.034 201.945 215.159C201.707 214.204 202.901 212.293 204.811 209.507C205.289 208.791 205.766 208.074 206.164 207.358C206.801 205.448 207.279 203.537 207.677 201.547C207.677 201.388 207.836 201.229 207.915 201.149C208.075 201.07 208.234 201.07 208.393 201.149L215.875 203.696C216.114 203.776 216.273 204.094 216.273 204.333C216.114 204.97 213.01 219.218 211.895 221.208C211.259 222.243 210.065 222.562 208.791 222.562ZM208.632 202.423C208.234 204.254 207.756 206.084 207.199 207.836C206.721 208.632 206.244 209.428 205.687 210.144C204.811 211.497 202.901 214.283 202.98 214.92C203.139 215.796 204.652 216.034 204.731 216.034C204.891 216.034 205.05 216.194 205.129 216.353C205.209 216.512 205.209 216.751 205.129 216.91C204.572 217.786 203.856 219.457 204.095 220.174C204.095 220.333 204.254 220.412 204.333 220.412C206.085 221.129 209.905 222.164 210.781 220.651C211.657 219.139 213.965 208.95 215 204.572L208.632 202.423Z" fill="#231F20"/>
<path d="M205.527 143.201C205.527 143.201 219.457 160.235 222.8 170.663C226.144 181.09 216.353 206.881 216.353 206.881L205.527 205.448L208.234 177.11C206.005 171.14 199 160.554 199 160.554L205.527 143.201Z" fill="#EC78D5"/>
<path d="M186.025 148.375L182.841 149.967L184.433 152.514L176.712 181.886L181.408 187.618L185.946 181.727L186.344 152.992L187.776 151.32L186.025 148.375Z" fill="#231F20"/>
<path d="M181.409 188.175C181.249 188.175 181.09 188.095 181.011 187.936L176.314 182.205C176.235 182.045 176.155 181.886 176.235 181.727L183.876 152.593L182.364 150.285C182.284 150.126 182.284 149.967 182.284 149.807C182.364 149.648 182.443 149.489 182.603 149.489L185.787 147.897C186.025 147.738 186.344 147.817 186.503 148.136L188.254 151.081C188.413 151.32 188.334 151.559 188.175 151.718L186.901 153.23L186.503 181.727C186.503 181.807 186.503 181.966 186.423 182.045L181.966 187.936C181.727 188.095 181.568 188.175 181.409 188.175ZM177.349 181.807L181.409 186.742L185.389 181.568L185.787 152.991C185.787 152.832 185.866 152.753 185.946 152.673L187.14 151.32L185.866 149.171L183.717 150.285L184.991 152.275C185.07 152.434 185.07 152.593 185.07 152.753L177.349 181.807Z" fill="#231F20"/>
<path d="M208.233 177.747C207.995 177.747 207.835 177.588 207.756 177.429C206.482 174.643 197.647 159.041 197.567 158.882C197.408 158.643 197.567 158.245 197.806 158.165C198.045 158.086 198.363 158.165 198.522 158.404C198.92 159.041 207.437 174.245 208.711 177.031C208.87 177.269 208.711 177.667 208.472 177.747C208.472 177.747 208.393 177.747 208.233 177.747Z" fill="#231F20"/>
<path d="M365.045 257.346C365.125 255.674 364.807 254.003 364.011 252.49C363.374 251.376 362.339 250.58 361.861 249.386C360.906 247.396 361.623 245.088 361.384 242.938C361.225 241.108 360.349 239.436 359.075 238.162C357.961 237.048 356.528 236.252 355.414 235.058C353.663 233.068 353.105 230.362 352.15 227.894C350.717 224.471 348.25 221.526 345.066 219.536C346.976 223.436 342.598 228.372 344.588 232.192C345.225 233.386 346.419 234.262 346.897 235.615C348.011 238.72 344.27 242.142 345.464 245.247C346.101 246.759 347.693 247.714 348.489 249.147C349.523 251.137 348.727 253.525 348.807 255.754C348.887 258.858 350.797 261.565 353.026 263.714C354.459 265.067 355.971 266.182 357.483 267.376C359.314 268.808 360.031 270.321 361.623 268.012C363.772 264.908 364.966 261.167 365.045 257.346Z" fill="#231F20"/>
<path d="M367.036 259.097C366.478 256.709 366.08 254.162 367.036 251.854C368.15 249.307 370.856 247.476 371.175 244.769C371.414 242.939 370.458 241.108 370.856 239.357C371.254 237.605 372.687 236.332 373.881 235.058C376.667 232.033 378.259 228.133 378.578 223.994C380.329 226.302 382.08 228.611 383.035 231.317C383.99 234.023 383.99 237.207 382.398 239.595C381.921 240.153 381.523 240.789 381.284 241.426C380.727 243.177 382.239 244.849 383.035 246.521C383.99 248.431 383.752 250.739 382.478 252.491C380.886 254.481 377.861 255.197 377.065 257.585C376.906 258.461 376.747 259.416 376.826 260.291C376.508 263.555 374.2 266.261 371.095 267.137C369.264 267.615 369.264 266.819 368.946 265.306C368.389 263.237 367.593 261.247 367.036 259.097Z" fill="#231F20"/>
<path d="M361.145 241.983C359.792 237.367 359.314 232.591 357.881 228.053C356.687 224.471 355.255 221.049 353.503 217.626L359.155 220.014C360.986 220.81 362.976 221.685 363.851 223.437C365.364 226.541 362.657 230.521 364.249 233.546C364.807 234.66 365.841 235.377 366.478 236.332C368.15 238.72 367.911 241.904 366.956 244.69C366.558 245.884 364.807 251.933 363.294 250.262C362.657 249.545 362.657 247.078 362.339 246.123C362.021 244.769 361.543 243.416 361.145 241.983Z" fill="#231F20"/>
<path d="M364.17 302.877C363.056 295.395 359.474 268.968 359.474 268.729L360.588 268.57C360.588 268.809 364.17 295.236 365.284 302.718L364.17 302.877Z" fill="#231F20"/>
<path d="M365.603 309.882H364.488C364.568 300.967 368.309 266.978 370.458 264.59L371.254 265.386C369.662 267.137 365.682 300.012 365.603 309.882Z" fill="#231F20"/>
<path d="M367.513 308.21L366.399 308.131C367.274 288.947 363.215 248.67 363.135 248.272L364.25 248.192C364.329 248.59 368.389 288.947 367.513 308.21Z" fill="#231F20"/>
<path d="M354.458 281.385H375.632L374.12 305.425C373.881 309.564 370.777 312.827 367.035 312.827H362.976C359.235 312.827 356.21 309.643 355.891 305.425L354.458 281.385Z" fill="white"/>
<path d="M367.115 313.384H362.976C358.996 313.384 355.653 309.882 355.334 305.424L353.822 281.385C353.822 281.067 354.061 280.828 354.379 280.748C354.379 280.748 354.379 280.748 354.459 280.748H375.632C375.791 280.748 375.951 280.828 376.03 280.908C376.11 280.987 376.189 281.146 376.189 281.306L374.677 305.345C374.438 309.882 371.095 313.384 367.115 313.384ZM355.095 281.942L356.528 305.345C356.767 309.166 359.633 312.19 362.976 312.19H367.035C370.458 312.19 373.244 309.166 373.483 305.345L374.916 281.942H355.095Z" fill="#231F20"/>
</svg>
