<svg width="16" height="16" viewBox="0 0 16 16" fill="none" xmlns="http://www.w3.org/2000/svg">
<g clip-path="url(#clip0_1_18109)">
<path fill-rule="evenodd" clip-rule="evenodd" d="M9.83743 1.74764C11.0565 0.528577 13.033 0.528577 14.2521 1.74764C15.4711 2.96671 15.4711 4.9432 14.2521 6.16227L7.92852 12.4858C7.56724 12.8471 7.35457 13.0598 7.11797 13.2443C6.83911 13.4618 6.53738 13.6483 6.21811 13.8005C5.94725 13.9296 5.6619 14.0247 5.17716 14.1862L2.95642 14.9265L2.4217 15.1047C1.98799 15.2493 1.50982 15.1364 1.18656 14.8131C0.863288 14.4899 0.750409 14.0117 0.894979 13.578L1.81346 10.8226C1.97502 10.3378 2.07013 10.0525 2.19922 9.78158C2.35137 9.46232 2.53785 9.16059 2.75536 8.88172C2.93991 8.64512 3.1526 8.43245 3.51392 8.07115L9.83743 1.74764ZM2.93335 13.8801L4.82769 13.2486C5.3551 13.0728 5.57919 12.9972 5.7879 12.8978C6.04159 12.7768 6.28136 12.6287 6.50295 12.4558C6.68526 12.3136 6.85309 12.147 7.2462 11.7539L12.2925 6.70759C11.7668 6.52215 11.0894 6.17843 10.4554 5.54435C9.82127 4.91027 9.47755 4.23294 9.29211 3.70718L4.24579 8.7535C3.85268 9.1466 3.68607 9.31444 3.54388 9.49674C3.37103 9.71834 3.22285 9.95811 3.10194 10.2118C3.00248 10.4205 2.92687 10.6446 2.75107 11.172L2.11962 13.0663L2.93335 13.8801ZM10.1032 2.89604C10.126 3.01268 10.1646 3.17124 10.2289 3.35659C10.3737 3.77389 10.6471 4.32193 11.1625 4.83724C11.6778 5.35255 12.2258 5.62603 12.6431 5.77081C12.8285 5.83512 12.987 5.87365 13.1037 5.89645L13.5449 5.45516C14.3735 4.62662 14.3735 3.28329 13.5449 2.45475C12.7164 1.62621 11.3731 1.62621 10.5445 2.45475L10.1032 2.89604Z" fill="white"/>
</g>
<defs>
<clipPath id="clip0_1_18109">
<rect width="16" height="16" fill="white"/>
</clipPath>
</defs>
</svg>
