<svg width="20" height="20" viewBox="0 0 20 20" fill="none" xmlns="http://www.w3.org/2000/svg">
<path fill-rule="evenodd" clip-rule="evenodd" d="M8.28634 2.70834H11.7137C13.2452 2.70833 14.4582 2.70832 15.4075 2.83596C16.3846 2.96731 17.1753 3.24408 17.799 3.86771C18.4226 4.49135 18.6994 5.28214 18.8307 6.25916C18.9584 7.2085 18.9584 8.42153 18.9584 9.953V10.047C18.9584 11.5785 18.9584 12.7915 18.8307 13.7409C18.6994 14.7179 18.4226 15.5087 17.799 16.1323C17.1753 16.7559 16.3846 17.0327 15.4075 17.1641C14.4582 17.2917 13.2452 17.2917 11.7137 17.2917H8.28635C6.75488 17.2917 5.54185 17.2917 4.5925 17.1641C3.61548 17.0327 2.82469 16.7559 2.20106 16.1323C1.57742 15.5087 1.30066 14.7179 1.1693 13.7409C1.04166 12.7915 1.04167 11.5785 1.04169 10.047V9.953C1.04167 8.42153 1.04166 7.2085 1.1693 6.25916C1.30066 5.28214 1.57742 4.49135 2.20106 3.86771C2.82469 3.24408 3.61548 2.96731 4.5925 2.83596C5.54185 2.70832 6.75487 2.70833 8.28634 2.70834ZM4.75906 4.07481C3.92065 4.18753 3.43761 4.39892 3.08494 4.7516C2.73227 5.10427 2.52087 5.58731 2.40815 6.42572C2.29301 7.2821 2.29169 8.41099 2.29169 10C2.29169 11.589 2.29301 12.7179 2.40815 13.5743C2.52087 14.4127 2.73227 14.8958 3.08494 15.2484C3.43761 15.6011 3.92065 15.8125 4.75906 15.9252C5.61545 16.0404 6.74434 16.0417 8.33335 16.0417H11.6667C13.2557 16.0417 14.3846 16.0404 15.241 15.9252C16.0794 15.8125 16.5624 15.6011 16.9151 15.2484C17.2678 14.8958 17.4792 14.4127 17.5919 13.5743C17.707 12.7179 17.7084 11.589 17.7084 10C17.7084 8.41099 17.707 7.2821 17.5919 6.42572C17.4792 5.58731 17.2678 5.10427 16.9151 4.7516C16.5624 4.39892 16.0794 4.18753 15.241 4.07481C14.3846 3.95967 13.2557 3.95834 11.6667 3.95834H8.33335C6.74434 3.95834 5.61545 3.95967 4.75906 4.07481ZM4.51988 6.26656C4.74086 6.00139 5.13496 5.96556 5.40014 6.18654L7.19922 7.68577C7.97668 8.33366 8.51646 8.78202 8.97217 9.07512C9.41331 9.35884 9.71246 9.45407 10 9.45407C10.2876 9.45407 10.5867 9.35884 11.0279 9.07512C11.4836 8.78202 12.0234 8.33366 12.8008 7.68577L14.5999 6.18654C14.8651 5.96556 15.2592 6.00139 15.4802 6.26656C15.7011 6.53174 15.6653 6.92584 15.4001 7.14682L13.5697 8.67216C12.8311 9.2877 12.2324 9.78661 11.704 10.1264C11.1536 10.4805 10.6176 10.7041 10 10.7041C9.38246 10.7041 8.84642 10.4804 8.296 10.1264C7.76762 9.78661 7.16895 9.28771 6.43032 8.67216L4.59991 7.14682C4.33473 6.92584 4.2989 6.53174 4.51988 6.26656Z" fill="white" fill-opacity="0.5"/>
</svg>
