<svg width="398" height="398" viewBox="0 0 398 398" fill="none" xmlns="http://www.w3.org/2000/svg">
<path d="M58.9043 150.922L63.0435 167.718L52.8547 171.698C52.8547 171.698 47.3623 154.664 50.1483 152.912C52.9343 151.161 58.9043 150.922 58.9043 150.922Z" fill="white"/>
<path d="M52.7748 172.175C52.6952 172.175 52.6156 172.175 52.536 172.096C52.3768 172.016 52.2972 171.937 52.2972 171.777C51.342 168.912 46.8844 154.265 49.8296 152.435C52.7748 150.604 58.5856 150.365 58.8244 150.365C59.0632 150.365 59.302 150.524 59.302 150.763L63.4412 167.479C63.5208 167.718 63.3616 167.957 63.1228 168.036L52.934 172.016C52.8544 172.016 52.7748 172.016 52.7748 172.016V172.175ZM58.506 151.479C57.1528 151.559 52.6156 151.957 50.3868 153.39C48.7152 154.425 50.944 164.215 53.1728 171.061L62.4064 167.399L58.506 151.479Z" fill="#231F20"/>
<path d="M93.9283 254.482C93.9283 254.482 87.7991 251.298 87.3215 250.502C85.7295 248.353 83.9783 246.443 81.9883 244.691C80.3963 243.418 81.4311 238.96 81.1127 237.209C80.2371 232.831 77.6103 236.572 77.2123 238.96C77.0531 240.154 76.8143 241.428 76.6551 242.622C76.6551 242.781 76.5755 242.94 76.4959 243.02C76.3367 243.099 76.1775 243.02 76.0979 242.94C69.6503 240.393 67.1827 254.243 70.7647 257.666C73.6303 260.373 93.3711 266.502 93.3711 266.502L93.9283 254.482Z" fill="white"/>
<path d="M93.2914 266.979C93.2118 266.979 93.2118 266.979 93.1322 266.979C92.3362 266.74 73.2322 260.77 70.3666 257.984C67.6602 255.437 68.2174 248.273 70.5258 244.612C71.9586 242.303 73.9486 241.587 76.1774 242.383L76.7346 238.721C76.9734 237.05 78.3266 234.502 79.7594 234.502C80.635 234.502 81.2718 235.298 81.5902 236.89C81.6698 237.766 81.7494 238.642 81.6698 239.517C81.5902 241.268 81.5106 243.418 82.3066 244.134C84.2966 245.965 86.1274 247.955 87.7194 250.104C88.0378 250.582 91.2218 252.412 94.0874 253.925C94.2466 254.004 94.3262 254.164 94.3262 254.402L93.769 266.422C93.769 266.581 93.6894 266.74 93.5302 266.82C93.5302 266.979 93.371 266.979 93.2914 266.979ZM74.5058 243.099C73.1526 243.179 71.9586 243.975 71.4014 245.169C69.1726 248.751 68.9338 255.278 71.083 257.268C73.2322 259.258 85.8886 263.636 92.8934 265.785L93.4506 254.721C91.4606 253.686 87.401 251.457 86.9234 250.661C85.411 248.592 83.6598 246.681 81.7494 245.01C80.4758 244.054 80.635 241.666 80.7146 239.597C80.7942 238.801 80.7942 238.005 80.7146 237.209C80.4758 236.015 80.0778 235.617 79.9186 235.617C79.2818 235.617 78.0878 237.368 77.849 239.04L77.2918 242.701C77.2918 243.02 77.1326 243.258 76.8938 243.418C76.655 243.577 76.3366 243.577 76.0182 243.418C75.5406 243.258 75.063 243.179 74.5058 243.099Z" fill="#231F20"/>
<path d="M131.42 158.644C136.673 159.042 141.21 162.464 142.962 167.4C144.315 171.3 143.996 175.996 147.021 178.862C148.852 180.534 151.399 181.17 153.787 180.534C156.175 179.897 158.245 178.464 159.598 176.394C160.792 181.409 158.961 186.583 154.822 189.608C151.24 192.155 146.544 192.633 142.245 191.598C137.947 190.563 134.126 188.255 130.783 185.469C125.211 181.011 121.47 175.519 120.037 168.514C118.684 162.146 125.529 158.325 131.42 158.644Z" fill="white"/>
<path d="M146.464 192.712C145.031 192.712 143.599 192.553 142.166 192.235C138.425 191.359 134.604 189.29 130.465 186.026C124.574 181.33 120.992 175.678 119.559 168.753C119.002 166.365 119.639 163.897 121.231 162.066C123.46 159.519 127.44 158.007 131.42 158.246C136.833 158.644 141.529 162.226 143.439 167.32C143.917 168.673 144.235 170.106 144.474 171.459C145.031 174.166 145.509 176.792 147.34 178.544C149.091 180.056 151.479 180.693 153.708 180.136C155.937 179.578 157.927 178.146 159.2 176.235C159.28 176.076 159.519 175.996 159.678 175.996C159.837 175.996 159.996 176.156 160.076 176.315C161.35 181.489 159.439 186.902 155.141 190.086C152.593 191.916 149.569 192.792 146.464 192.712ZM130.624 159.121C127.281 159.121 123.858 160.474 121.947 162.624C120.515 164.216 119.957 166.444 120.435 168.514C121.788 175.2 125.291 180.613 131.022 185.23C135.002 188.414 138.743 190.404 142.325 191.28C146.783 192.314 151.32 191.598 154.504 189.369C158.166 186.663 159.996 182.126 159.28 177.668C157.847 179.34 155.937 180.613 153.787 181.091C151.24 181.728 148.534 181.011 146.544 179.26C144.474 177.27 143.917 174.404 143.36 171.618C143.121 170.265 142.803 168.912 142.405 167.559C140.653 162.783 136.275 159.519 131.261 159.121C131.101 159.201 130.863 159.201 130.624 159.121Z" fill="#231F20"/>
<path d="M126.564 169.469C125.131 167.718 123.3 166.524 121.151 165.887C119.559 165.569 117.888 165.648 116.296 166.206C115.102 166.444 114.146 167.161 113.51 168.196C113.032 169.31 113.43 170.663 113.908 171.778C115.579 175.678 120.992 184.354 126.166 183.638C133.33 182.683 129.27 172.494 126.564 169.469Z" fill="#231F20"/>
<path d="M125.609 184.116C120.435 184.116 115.261 175.997 113.43 171.857C112.953 170.743 112.475 169.231 113.032 167.877C113.51 166.843 114.465 166.126 116.137 165.649C117.808 165.091 119.559 165.012 121.231 165.33C123.141 165.808 125.052 167.002 126.883 169.071C128.713 171.141 131.738 177.27 130.305 181.091C129.669 182.842 128.077 183.957 126.246 184.036C126.007 184.116 125.768 184.116 125.609 184.116ZM119.4 166.126C118.365 166.126 117.41 166.285 116.455 166.604C115.42 166.843 114.545 167.4 113.987 168.355C113.51 169.39 113.987 170.584 114.385 171.539C116.057 175.439 121.311 183.718 126.087 183.161C127.519 183.081 128.873 182.205 129.35 180.852C130.544 177.589 127.997 171.857 126.166 169.788C124.415 167.877 122.743 166.763 120.992 166.365C120.515 166.126 119.957 166.126 119.4 166.126Z" fill="#231F20"/>
<path d="M162.703 296.829L163.658 312.988H112.236L109.609 290.302L162.703 296.829Z" fill="#231F20"/>
<path d="M163.658 313.466H112.236C111.997 313.466 111.759 313.306 111.759 313.068L109.132 290.382C109.132 290.222 109.132 290.063 109.291 289.984C109.371 289.904 109.53 289.824 109.689 289.824L162.862 296.352C163.101 296.352 163.26 296.59 163.26 296.829L164.135 313.068C164.135 313.227 163.897 313.466 163.658 313.466ZM112.714 312.51H163.18L162.305 297.227L110.167 290.859L112.714 312.51Z" fill="#231F20"/>
<path d="M132.852 215.717C132.852 215.717 154.026 221.607 159.2 230.522C164.374 239.438 165.727 299.854 165.727 299.854C165.727 299.854 128.076 305.426 108.893 296.75C108.893 296.75 104.515 272.79 101.172 256.233C99.5795 248.353 100.216 237.766 99.8183 237.368C98.7835 236.254 64.4759 216.274 62.2471 212.772C60.0183 209.269 50.3867 169.31 50.3867 169.31L63.0431 162.862C63.0431 162.862 76.5751 198.682 78.8835 201.707C81.1919 204.732 109.609 218.901 109.609 218.901L132.852 215.717Z" fill="#EC78D5"/>
<path d="M66.2275 142.246L66.3867 142.485C66.8643 143.042 67.6603 143.201 68.2175 142.803C68.7747 142.326 68.9339 141.53 68.4563 140.893C68.3767 140.813 68.3767 140.734 68.2971 140.654C60.0983 129.43 61.6107 119.321 65.6703 113.67C68.5359 109.69 72.7547 107.779 76.0979 108.894C79.4411 110.008 81.5107 112.714 81.9883 116.933C82.2271 119.082 82.1475 121.232 81.7495 123.381C81.5903 124.097 82.0679 124.814 82.8639 124.893C83.5007 124.973 84.2171 124.575 84.3763 123.938C85.4907 119.082 85.4111 109.132 76.9735 106.346C72.5159 104.834 67.1031 107.142 63.5211 112.078C58.9839 118.605 57.2327 129.908 66.2275 142.246Z" fill="white"/>
<path d="M67.501 143.52C67.4214 143.52 67.3418 143.52 67.2622 143.52C66.7846 143.44 66.3866 143.201 66.0682 142.803L65.909 142.564C56.755 129.988 58.5062 118.446 63.2822 111.918C67.0234 106.824 72.5954 104.436 77.2918 105.948C86.0478 108.894 86.207 119.082 85.013 124.097C84.6946 125.052 83.7394 125.61 82.7842 125.371C81.9086 125.132 81.3514 124.256 81.5106 123.301C81.9086 121.232 81.9882 119.162 81.7494 117.013C81.2718 113.033 79.3614 110.486 76.1774 109.371C72.9934 108.257 69.093 110.167 66.307 113.988C62.327 119.48 60.8942 129.351 68.9338 140.336C69.0134 140.415 69.093 140.495 69.1726 140.654C69.7298 141.45 69.491 142.564 68.695 143.122C68.297 143.44 67.899 143.599 67.501 143.52ZM66.6254 141.928L66.7846 142.166C67.0234 142.564 67.5806 142.644 67.9786 142.326C68.3766 142.007 68.4562 141.53 68.1378 141.132L67.9786 140.893C59.6206 129.43 61.133 119.162 65.3518 113.351C68.3766 109.212 72.7546 107.222 76.3366 108.336C79.9186 109.451 82.0678 112.396 82.625 116.774C82.8638 119.003 82.7842 121.232 82.3862 123.381C82.3066 123.858 82.5454 124.256 83.023 124.336C83.5006 124.416 83.8986 124.177 83.9782 123.699C85.0926 119.003 85.013 109.371 76.8938 106.665C72.675 105.232 67.501 107.461 63.9986 112.237C59.4614 118.684 57.7102 129.749 66.6254 141.928Z" fill="#231F20"/>
<path d="M72.6749 151.161C81.6697 163.579 92.9729 165.33 100.535 162.862C106.346 160.952 110.166 156.574 110.166 151.877C110.087 142.962 100.694 139.858 95.6793 139.46C94.9629 139.38 94.3261 139.937 94.2465 140.654C94.1669 141.37 94.7241 142.007 95.4405 142.087C97.5897 142.325 99.6593 142.883 101.649 143.838C105.47 145.669 107.46 148.375 107.46 151.957C107.46 155.539 104.356 158.882 99.6593 160.395C92.9729 162.544 82.9433 160.872 74.8241 149.649L74.6649 149.41C74.1873 148.853 73.3913 148.693 72.8341 149.091C72.2769 149.569 72.1177 150.365 72.5953 151.002L72.6749 151.161Z" fill="white"/>
<path d="M94.4056 164.295C87.4804 164.295 79.202 160.952 72.2768 151.4L72.1176 151.161C71.7992 150.763 71.7196 150.286 71.7992 149.808C71.9584 148.853 72.9136 148.137 73.8688 148.296C74.3464 148.375 74.7444 148.614 75.0628 149.012L75.1424 149.171C83.2616 160.315 93.0524 161.987 99.5 159.838C103.958 158.405 106.982 155.141 106.903 151.878C106.823 148.614 104.992 145.908 101.331 144.236C99.4204 143.361 97.3508 142.803 95.2812 142.565C94.2464 142.485 93.53 141.609 93.6096 140.575C93.6892 139.54 94.5648 138.823 95.5996 138.903C100.694 139.381 110.405 142.565 110.564 151.798C110.644 156.733 106.584 161.35 100.614 163.261C98.6244 163.977 96.4752 164.295 94.4056 164.295ZM73.0728 150.843C81.988 163.022 92.9728 164.773 100.376 162.385C105.948 160.554 109.689 156.335 109.609 151.878C109.53 143.361 100.376 140.336 95.5996 139.938C95.122 139.938 94.724 140.256 94.724 140.734C94.724 141.211 95.0424 141.609 95.52 141.609C97.7488 141.848 99.898 142.485 101.888 143.361C105.868 145.271 107.938 148.137 108.017 151.878C108.097 155.619 104.833 159.201 99.898 160.793C93.0524 163.022 82.8636 161.35 74.5056 149.888L74.3464 149.649C74.1076 149.251 73.5504 149.171 73.1524 149.49C72.9932 149.649 72.834 149.808 72.834 150.047C72.834 150.286 72.834 150.525 72.9932 150.684L73.0728 150.843Z" fill="#231F20"/>
<path d="M31.9991 159.519L45.7699 178.464C46.2475 179.181 47.2027 179.34 47.8395 178.862C48.2375 178.544 48.4763 178.066 48.4763 177.589V166.604L48.3967 166.524L72.4359 149.012L68.1375 143.122L44.1779 160.554L44.0983 160.475L33.5911 157.131C32.7951 156.893 31.9195 157.37 31.7603 158.166C31.6807 158.644 31.7603 159.121 31.9991 159.519Z" fill="white"/>
<path d="M46.9641 179.499C46.3273 179.499 45.7701 179.18 45.3721 178.703L31.6013 159.758C30.9645 158.882 31.1237 157.609 32.0789 156.972C32.5565 156.574 33.2729 156.494 33.8301 156.654L44.1781 159.917L67.8989 142.644C67.9785 142.564 68.1377 142.564 68.2969 142.564C68.4561 142.564 68.5357 142.644 68.6153 142.724L72.9137 148.614C73.0729 148.853 72.9933 149.171 72.8341 149.33L49.1929 166.524L49.0337 177.509C49.0337 178.384 48.4765 179.101 47.6805 179.419C47.4417 179.499 47.2029 179.499 46.9641 179.499ZM33.1933 157.609C32.8749 157.609 32.5565 157.768 32.3973 158.007C32.1585 158.325 32.1585 158.882 32.3973 159.201L46.1681 178.146C46.4865 178.623 47.1233 178.703 47.6009 178.384C47.8397 178.225 47.9989 177.907 47.9989 177.588L48.0785 166.683C47.9989 166.524 48.0785 166.285 48.2377 166.126L71.7993 149.012L68.0581 143.918L44.5761 161.032C44.4965 161.111 44.3373 161.111 44.1781 161.111C44.0985 161.111 44.0189 161.032 43.9393 160.952L33.5913 157.688C33.4321 157.609 33.3525 157.609 33.1933 157.609Z" fill="#231F20"/>
<path d="M65.3515 153.947L61.2919 148.375C56.5955 141.927 58.0283 132.853 64.4759 128.077L85.7291 112.635L106.903 141.689L85.6495 157.131C79.2019 161.907 70.1275 160.474 65.3515 153.947Z" fill="white"/>
<path d="M77.8488 159.041C76.8936 159.041 75.9384 158.962 74.9036 158.803C64.874 157.211 57.9488 147.738 59.5408 137.709C60.3368 132.853 62.9636 128.555 66.9436 125.689L85.3312 112.237C85.4108 112.157 85.57 112.157 85.7292 112.157C85.8884 112.157 85.968 112.237 86.0476 112.316L107.221 141.37C107.301 141.45 107.301 141.609 107.301 141.768C107.301 141.927 107.221 142.007 107.142 142.087L88.6744 155.539C85.57 157.768 81.7492 159.041 77.8488 159.041ZM85.57 113.351L67.5008 126.485C59.7 132.216 58.0284 143.121 63.68 150.922C69.4112 158.723 80.3164 160.395 88.1172 154.743L106.107 141.609L85.57 113.351Z" fill="#231F20"/>
<path d="M92.177 130.147L82.7842 133.251L77.053 125.212V135.082L67.6602 138.187L77.053 141.211V151.082L82.8638 143.042L92.177 146.147L86.3662 138.107L92.177 130.147Z" fill="white"/>
<path d="M77.0527 151.559C76.9731 151.559 76.9731 151.559 76.8935 151.559C76.6547 151.48 76.5751 151.321 76.5751 151.082V141.53L67.5007 138.585C67.2619 138.505 67.1027 138.187 67.1823 137.948C67.2619 137.789 67.3415 137.709 67.5007 137.629L76.4955 134.684V125.212C76.4955 124.973 76.6547 124.814 76.8139 124.734C77.0527 124.655 77.2119 124.734 77.3711 124.893L82.9431 132.535L91.9379 129.59C92.1767 129.51 92.3359 129.59 92.4951 129.749C92.6543 129.908 92.6543 130.147 92.4951 130.306L86.9231 138.027L92.4951 145.669C92.6543 145.828 92.6543 146.067 92.4951 146.226C92.3359 146.385 92.1767 146.465 91.9379 146.385L82.9431 143.44L77.3711 151.161C77.2915 151.48 77.1323 151.559 77.0527 151.559ZM69.2519 138.187L77.2119 140.734C77.4507 140.813 77.5303 140.973 77.5303 141.211V149.569L82.4655 142.803C82.6247 142.644 82.7839 142.565 83.0227 142.644L90.9827 145.191L85.9679 138.425C85.8087 138.266 85.8087 138.027 85.9679 137.868L90.9031 131.102L82.9431 133.649C82.7043 133.729 82.5451 133.649 82.3859 133.49L77.4507 126.724V135.082C77.4507 135.321 77.2915 135.48 77.1323 135.56L69.1723 138.107L69.2519 138.187Z" fill="#231F20"/>
<path d="M125.529 173.688C125.131 173.051 124.654 172.494 124.256 171.937C120.355 166.842 113.908 166.763 108.495 169.389C107.38 169.867 106.266 170.743 106.186 171.937C103.878 171.141 101.172 172.414 99.6593 174.325C94.7241 180.613 95.6793 189.847 98.0673 196.931C98.5449 198.603 99.3409 200.115 100.455 201.468C101.57 202.662 103.002 203.617 104.594 204.175C115.181 208.553 129.907 203.219 131.181 190.722C131.818 184.832 129.032 178.543 125.529 173.688Z" fill="white"/>
<path d="M112.475 206.165C109.689 206.165 106.983 205.687 104.435 204.573C102.843 203.936 101.331 202.981 100.137 201.707C99.0226 200.274 98.147 198.682 97.6694 197.011C96.157 192.633 93.2914 181.568 99.341 173.927C100.774 172.175 103.321 170.663 105.868 171.22C106.346 170.106 107.221 169.31 108.336 168.912C113.351 166.524 120.276 165.967 124.654 171.618C125.052 172.175 125.529 172.733 125.927 173.369C128.395 176.872 132.375 183.797 131.659 190.722C131.101 195.976 128.077 200.593 123.539 203.219C120.196 205.13 116.375 206.165 112.475 206.165ZM104.754 172.096C102.923 172.175 101.251 173.131 100.137 174.563C94.4058 181.807 97.1918 192.473 98.6246 196.692C99.1022 198.284 99.8186 199.797 100.853 201.07C101.968 202.185 103.321 203.06 104.754 203.617C110.724 206.005 117.41 205.448 122.982 202.264C127.281 199.797 130.146 195.419 130.624 190.563C131.34 183.956 127.44 177.27 125.052 173.847C124.654 173.29 124.256 172.733 123.778 172.175C119.798 166.922 113.351 167.479 108.654 169.787C107.779 170.185 106.744 170.902 106.664 171.857C106.664 172.096 106.425 172.335 106.107 172.335C106.027 172.335 106.027 172.335 105.948 172.335C105.709 172.255 105.231 172.175 104.754 172.096Z" fill="#231F20"/>
<path d="M111.122 206.961L112.793 216.911C112.793 216.911 116.057 222.005 122.266 219.299C128.475 216.592 128.554 211.737 128.554 211.737L125.211 193.349C125.052 192.553 121.788 190.245 121.072 189.767C119.241 188.414 117.171 187.3 115.022 186.424C113.987 186.106 113.032 185.628 112.077 185.15C109.689 183.718 108.177 181.25 108.017 178.464C108.415 180.693 107.858 183.001 106.425 184.752C105.47 185.946 104.117 186.822 103.321 188.175C101.729 190.484 102.605 192.394 103.082 194.782C103.639 197.568 103.48 200.354 104.356 203.06C105.868 207.916 111.042 206.961 111.122 206.961Z" fill="white"/>
<path d="M118.763 220.572C116.216 220.493 113.828 219.219 112.395 217.15C112.395 217.07 112.316 217.07 112.316 216.99L110.724 207.438C107.221 207.598 104.833 206.085 103.878 203.14C103.401 201.548 103.162 199.876 103.082 198.205C103.003 197.09 102.843 195.896 102.605 194.782C102.525 194.384 102.445 194.066 102.366 193.747C101.888 191.837 101.49 190.006 102.923 187.857C103.48 187.14 104.037 186.424 104.754 185.867C105.231 185.389 105.709 184.912 106.107 184.434C107.142 183.081 107.699 181.409 107.699 179.658C107.619 179.26 107.619 178.862 107.54 178.464C107.54 178.225 107.699 177.986 108.017 177.986C108.256 177.986 108.495 178.146 108.575 178.384C108.654 178.782 108.734 179.18 108.734 179.658C109.132 181.807 110.485 183.718 112.395 184.832C113.112 185.23 113.828 185.548 114.545 185.787L115.261 186.026C117.49 186.902 119.559 188.016 121.47 189.449L121.629 189.608C124.893 191.996 125.609 192.792 125.768 193.349C125.768 193.508 129.111 211.737 129.111 211.737C129.111 212.055 129.032 216.99 122.584 219.856C121.311 220.254 120.037 220.493 118.763 220.572ZM113.271 216.672C113.749 217.309 116.694 221.13 122.107 218.742C127.997 216.194 128.077 211.816 128.077 211.657C126.803 204.891 124.733 193.349 124.733 193.349C124.654 193.19 124.176 192.474 120.992 190.245L120.753 190.086C118.923 188.732 116.933 187.618 114.783 186.822L114.147 186.583C113.351 186.344 112.555 185.946 111.838 185.548C110.326 184.673 109.132 183.399 108.415 181.887C108.097 183.081 107.54 184.116 106.823 185.071C106.346 185.628 105.868 186.106 105.391 186.583C104.754 187.14 104.197 187.777 103.719 188.414C102.525 190.165 102.843 191.678 103.321 193.588C103.401 193.906 103.48 194.304 103.56 194.702C103.799 195.896 103.958 197.09 104.037 198.205C104.117 199.797 104.435 201.389 104.833 202.901C105.629 205.448 107.699 206.722 110.883 206.483C111.042 206.483 111.201 206.483 111.361 206.563C111.52 206.642 111.599 206.802 111.599 206.881L113.271 216.672Z" fill="#231F20"/>
<path d="M121.311 193.668C121.39 192.712 121.709 191.837 122.345 191.12C122.982 190.484 123.619 189.926 124.415 189.528C124.813 189.29 125.291 189.13 125.768 189.051C126.087 189.051 126.405 189.13 126.723 189.21C127.519 189.449 128.156 189.926 128.634 190.563C128.952 191.12 129.032 191.757 129.032 192.394C129.032 193.11 129.032 193.827 128.873 194.464C128.236 197.329 125.37 199.08 122.584 198.364H122.505" fill="white"/>
<path d="M123.778 199.08C123.301 199.08 122.823 199.001 122.425 198.921C122.186 198.841 121.947 198.603 122.027 198.364C122.107 198.125 122.345 197.886 122.584 197.966H122.664C125.211 198.603 127.838 197.011 128.395 194.463C128.554 193.827 128.554 193.19 128.554 192.553C128.554 191.996 128.475 191.439 128.236 190.961C127.838 190.404 127.281 190.006 126.644 189.847C126.405 189.767 126.087 189.687 125.848 189.687C125.45 189.767 125.052 189.926 124.733 190.085C124.017 190.483 123.38 190.961 122.743 191.518C122.186 192.155 121.868 192.951 121.788 193.747C121.788 193.986 121.549 194.225 121.231 194.225C120.992 194.225 120.753 193.986 120.753 193.667C120.833 192.633 121.231 191.598 121.947 190.802C122.584 190.085 123.301 189.528 124.176 189.13C124.654 188.812 125.131 188.653 125.689 188.573C126.087 188.573 126.485 188.653 126.883 188.732C127.758 188.971 128.554 189.528 129.032 190.324C129.35 190.961 129.509 191.677 129.509 192.394C129.589 193.11 129.509 193.906 129.35 194.623C128.793 197.249 126.485 199.08 123.778 199.08Z" fill="#231F20"/>
<path d="M110.883 190.324C110.883 190.324 108.177 195.976 109.132 196.692C110.087 197.409 112.316 196.533 112.316 196.533" fill="white"/>
<path d="M110.246 197.488C109.769 197.488 109.211 197.329 108.813 197.09C107.699 196.215 109.371 192.314 110.485 190.085C110.565 189.847 110.883 189.767 111.122 189.847C111.361 189.926 111.44 190.245 111.361 190.483C110.087 193.11 109.211 195.896 109.45 196.294C110.007 196.692 111.44 196.294 112.077 196.055C112.316 195.976 112.634 196.055 112.714 196.294C112.793 196.533 112.714 196.851 112.475 196.931C111.759 197.329 111.042 197.488 110.246 197.488Z" fill="#231F20"/>
<path d="M115.292 189.563C115.763 189.455 116.026 188.846 115.878 188.203C115.731 187.561 115.229 187.127 114.758 187.236C114.286 187.344 114.024 187.953 114.172 188.595C114.319 189.238 114.821 189.671 115.292 189.563Z" fill="#231F20"/>
<path d="M107.177 191.119C107.658 191.073 107.998 190.504 107.937 189.848C107.875 189.191 107.434 188.696 106.953 188.741C106.471 188.787 106.131 189.356 106.193 190.012C106.255 190.669 106.695 191.164 107.177 191.119Z" fill="#231F20"/>
<path d="M111.122 206.961C111.122 206.961 117.569 207.359 120.833 204.652C120.833 204.652 118.206 213.727 112.236 213.806L111.122 206.961Z" fill="#231F20"/>
<path d="M112.316 214.284C112.077 214.284 111.838 214.125 111.838 213.886L110.724 207.041C110.724 206.881 110.724 206.722 110.803 206.643C110.883 206.563 111.042 206.483 111.201 206.483C111.281 206.483 117.49 206.881 120.594 204.334C120.753 204.175 120.992 204.175 121.151 204.334C121.31 204.493 121.39 204.653 121.31 204.891C121.231 205.21 118.524 214.205 112.316 214.284ZM111.758 207.439L112.714 213.249C116.614 212.851 119.002 208.235 119.957 205.847C117.092 207.359 113.191 207.439 111.758 207.439Z" fill="#231F20"/>
<path d="M110.644 217.309L111.122 222.642L132.852 215.717L130.464 210.861L110.644 217.309Z" fill="white"/>
<path d="M111.122 223.12C111.042 223.12 110.963 223.12 110.883 223.04C110.724 222.961 110.644 222.801 110.644 222.642L110.087 217.389C110.087 217.15 110.167 216.911 110.405 216.911L130.305 210.463C130.544 210.384 130.783 210.463 130.942 210.702L133.33 215.558C133.489 215.797 133.33 216.115 133.091 216.195C133.091 216.195 133.091 216.195 133.012 216.195L111.281 223.04C111.281 223.12 111.201 223.12 111.122 223.12ZM111.122 217.707L111.52 222.005L132.136 215.478L130.226 211.498L111.122 217.707Z" fill="#231F20"/>
<path d="M123.539 301.127C123.3 301.127 123.141 300.968 123.062 300.809C119.002 290.7 118.763 222.96 118.763 220.095C118.763 219.856 119.002 219.617 119.241 219.617C119.48 219.617 119.718 219.856 119.718 220.095C119.718 220.811 119.957 290.541 123.937 300.491C124.017 300.729 123.937 301.048 123.698 301.127C123.619 301.127 123.619 301.127 123.539 301.127Z" fill="#231F20"/>
<path d="M59.5411 146.067C61.0535 148.534 61.6903 151.4 61.3719 154.345C61.3719 154.664 61.2923 154.982 60.9739 155.141C60.7351 155.221 60.4963 155.221 60.3371 155.062C59.5411 154.743 58.9043 154.027 58.6655 153.151C58.6655 154.027 58.9839 154.823 58.9839 155.698C58.9839 156.574 58.4267 157.529 57.5511 157.529C56.8347 157.529 56.3571 156.892 55.9591 156.335C56.1183 156.972 56.1183 157.609 55.9591 158.166C55.7999 158.803 55.3223 159.28 54.6855 159.36C53.8895 159.36 53.3323 158.564 52.9343 157.848C53.7303 158.644 53.1731 160.156 52.1383 160.554C51.0239 160.872 49.8299 160.554 49.0339 159.758C47.2827 158.166 46.8051 155.539 47.2031 153.151C47.5215 150.843 48.6359 148.614 50.4667 147.102C51.8199 145.987 53.4915 145.43 55.2427 145.43C56.8347 145.51 58.5859 144.554 59.5411 146.067Z" fill="white"/>
<path d="M51.5014 161.191C50.5462 161.111 49.591 160.793 48.8746 160.077C47.203 158.564 46.407 155.937 46.8846 153.072C47.203 150.604 48.397 148.375 50.3074 146.704C51.7402 145.51 53.4914 144.953 55.3222 144.953C55.7202 144.953 56.1182 144.873 56.5958 144.793C57.7102 144.634 59.143 144.316 60.0186 145.749C61.531 148.296 62.2474 151.321 61.929 154.266C61.929 154.743 61.6902 155.221 61.2922 155.46C60.9738 155.619 60.5758 155.619 60.2574 155.46C60.0186 155.38 59.7798 155.221 59.541 155.062C59.541 155.221 59.541 155.46 59.541 155.619C59.541 156.733 58.8246 157.927 57.6306 157.927C57.3122 157.927 56.9142 157.848 56.6754 157.609C56.6754 157.848 56.5958 158.007 56.5958 158.246C56.4366 159.121 55.7202 159.679 54.8446 159.758C54.5262 159.758 54.1282 159.679 53.8894 159.44C53.6506 160.077 53.173 160.634 52.6158 160.873C52.2178 161.111 51.8994 161.191 51.5014 161.191ZM55.3222 145.987C53.7302 145.987 52.1382 146.465 50.9442 147.5C49.2726 149.012 48.1582 151.002 47.9194 153.231C47.5214 155.778 48.1582 158.087 49.591 159.36C50.2278 160.077 51.2626 160.315 52.2178 160.077C52.6158 159.838 52.9342 159.44 53.0138 159.042C53.0138 158.883 53.0138 158.723 53.0138 158.564C52.8546 158.325 52.775 158.166 52.6954 158.007C52.6158 157.768 52.6158 157.529 52.8546 157.37C53.0138 157.211 53.3322 157.211 53.4914 157.45C53.7302 157.609 53.8098 157.848 53.969 158.166C54.2874 158.644 54.6058 158.883 54.9242 158.803C55.2426 158.723 55.6406 158.405 55.7202 158.007C55.7998 157.45 55.7998 156.893 55.6406 156.335C55.561 156.097 55.6406 155.778 55.959 155.699C56.1978 155.619 56.5162 155.699 56.5958 156.017C56.9142 156.495 57.3122 156.972 57.7898 156.972C58.2674 156.972 58.6654 156.256 58.6654 155.619C58.6654 155.221 58.5858 154.823 58.5062 154.425C58.4266 153.947 58.347 153.549 58.347 153.072C58.347 152.833 58.5858 152.594 58.8246 152.594C59.0634 152.594 59.2226 152.753 59.3022 152.992C59.4614 153.709 60.0186 154.266 60.6554 154.584C60.735 154.664 60.8146 154.664 60.8942 154.664C60.8942 154.664 60.9738 154.584 60.9738 154.266C61.2126 151.48 60.5758 148.694 59.143 146.306C58.6654 145.51 57.949 145.589 56.755 145.828C56.357 145.908 55.8794 145.987 55.3222 145.987Z" fill="#231F20"/>
<path d="M110.485 204.573C110.326 204.573 110.167 204.573 110.007 204.493C107.699 203.777 108.336 199.717 108.415 199.24C108.415 199.001 108.654 198.842 108.893 198.842C113.112 198.682 113.112 198.762 113.351 199.08C113.589 199.558 112.873 202.662 111.838 203.856C111.52 204.334 111.042 204.652 110.485 204.573ZM109.371 199.797C109.211 200.991 109.211 203.22 110.326 203.538C110.485 203.618 110.724 203.538 110.803 203.458C111.599 202.822 112.157 200.672 112.316 199.797C111.759 199.797 110.565 199.797 109.371 199.797Z" fill="#231F20"/>
<path d="M146.385 245.965C146.385 245.965 137.469 261.885 135.798 264.989C134.126 268.094 91.9382 250.741 91.9382 250.741L90.187 268.094C90.187 268.094 147.499 298.421 149.807 291.496C152.116 284.571 162.225 243.577 162.225 243.577" fill="#EC78D5"/>
<path d="M134.604 265.626C127.121 265.626 99.4206 255.039 95.9978 253.686C95.759 253.606 95.5998 253.288 95.6794 253.049C95.759 252.81 96.0774 252.651 96.3162 252.731C110.405 258.143 132.455 265.785 135.479 264.432C139.539 262.681 144.633 250.582 144.713 250.502C144.793 250.263 145.111 250.104 145.35 250.183C145.589 250.263 145.748 250.582 145.668 250.82V250.9C145.429 251.378 140.415 263.477 135.957 265.387C135.559 265.546 135.081 265.626 134.604 265.626Z" fill="#231F20"/>
<path d="M144.952 293.088C138.743 293.088 101.809 273.666 97.4308 271.357C97.192 271.198 97.1124 270.959 97.192 270.72C97.3512 270.482 97.59 270.402 97.8288 270.482C115.022 279.556 141.848 292.77 145.032 292.053C148.216 291.337 155.3 276.372 159.28 266.581C159.36 266.342 159.678 266.183 159.917 266.342C160.156 266.502 160.315 266.74 160.156 266.979C159.121 269.526 149.887 291.974 145.191 293.008C145.191 293.088 145.032 293.168 144.952 293.088Z" fill="#231F20"/>
<path d="M348.329 133.488C348.727 134.762 348.887 136.035 348.807 137.389C348.807 140.732 348.011 143.995 346.339 146.861C344.986 149.169 341.723 152.751 338.698 152.751C335.912 152.672 336.071 151.637 336.549 149.249C337.026 146.861 337.583 141.209 338.618 138.981C340.29 135.319 340.688 131.259 341.723 127.439C344.429 128.473 347.374 130.782 348.329 133.488Z" fill="white"/>
<path d="M338.857 153.229C337.504 153.229 336.708 152.99 336.31 152.433C335.673 151.637 335.912 150.523 336.151 149.09C336.31 148.374 336.469 147.418 336.549 146.384C336.947 143.757 337.424 140.414 338.22 138.742C339.176 136.354 339.892 133.886 340.37 131.339C340.688 129.986 340.927 128.633 341.325 127.28C341.404 127.12 341.484 127.041 341.564 126.961C341.723 126.882 341.802 126.882 341.962 126.961C344.429 127.996 347.613 130.304 348.807 133.409C349.205 134.682 349.444 136.115 349.364 137.468C349.364 140.891 348.489 144.234 346.817 147.18C345.384 149.568 342.041 153.229 338.857 153.229ZM342.121 128.076C341.802 129.19 341.564 130.384 341.325 131.578C340.847 134.205 340.131 136.752 339.096 139.22C338.38 140.732 337.902 143.996 337.504 146.622C337.345 147.737 337.186 148.692 337.026 149.408C336.788 150.682 336.628 151.558 336.947 151.876C337.265 152.194 337.743 152.274 338.698 152.354C341.245 152.354 344.509 149.09 345.862 146.702C347.454 143.916 348.25 140.732 348.25 137.468C348.33 136.195 348.17 135.001 347.772 133.807C346.897 131.26 344.35 129.19 342.121 128.076Z" fill="#231F20"/>
<path d="M259.735 299.136V314.18L311.316 312.986L311.156 284.251L259.735 299.136Z" fill="#231F20"/>
<path d="M259.734 314.738C259.575 314.738 259.496 314.658 259.416 314.578C259.336 314.499 259.257 314.34 259.257 314.26V299.216C259.257 298.977 259.416 298.818 259.655 298.738L311.076 283.773C311.236 283.694 311.395 283.773 311.474 283.853C311.634 283.932 311.634 284.092 311.634 284.251L311.793 312.986C311.793 313.225 311.554 313.464 311.315 313.464L259.734 314.738ZM260.212 299.534V313.703L310.838 312.509L310.678 284.888L260.212 299.534Z" fill="#231F20"/>
<path d="M300.092 303.355C300.092 303.355 303.594 305.583 304.152 305.345C304.709 305.106 307.813 303.991 309.007 304.071C310.201 304.151 310.997 304.469 312.589 306.141C314.181 307.812 315.534 308.529 314.261 310.2C314.261 310.2 316.649 310.598 314.659 313.305C312.669 316.011 310.679 318.001 309.485 318.16C308.291 318.319 291.336 309.563 291.336 309.563L300.092 303.355Z" fill="white"/>
<path d="M309.644 318.718C308.132 318.718 295.157 312.111 291.177 310.041C291.018 309.962 290.938 309.802 290.938 309.643C290.938 309.484 291.018 309.325 291.177 309.245L299.933 303.036C300.092 302.957 300.331 302.957 300.49 303.036C301.684 303.832 302.878 304.469 304.231 305.026L304.868 304.788C306.221 304.23 307.654 303.912 309.166 303.673C310.599 303.673 311.554 304.23 313.146 305.902C313.385 306.22 313.704 306.459 313.942 306.698C314.977 307.733 315.932 308.688 315.216 310.041C315.614 310.2 315.853 310.519 316.012 310.917C316.33 311.633 316.092 312.588 315.296 313.703C313.942 315.454 311.475 318.558 309.644 318.718ZM292.291 309.564C298.739 312.827 308.53 317.683 309.564 317.762C310.52 317.683 312.43 315.852 314.42 313.146C314.977 312.35 315.216 311.713 315.057 311.315C314.898 311.076 314.659 310.837 314.34 310.758C314.181 310.758 314.022 310.598 313.942 310.439C313.863 310.28 313.942 310.121 314.022 309.962C314.738 309.006 314.42 308.608 313.226 307.335C312.987 307.096 312.669 306.778 312.43 306.539C310.918 304.947 310.201 304.628 309.166 304.628C307.813 304.867 306.54 305.186 305.266 305.663L304.47 305.902C303.913 306.061 302.48 305.424 300.251 303.992L292.291 309.564Z" fill="#231F20"/>
<path d="M276.212 214.362C276.212 214.362 256.312 223.596 252.571 233.148C248.829 242.7 257.187 302.638 257.187 302.638C257.187 302.638 295.316 302.161 312.828 290.539C312.828 290.539 314.101 234.819 314.977 233.466C315.853 232.113 337.424 185.626 339.175 181.806C340.927 177.985 351.354 140.812 351.354 140.812L337.504 139.299C337.504 139.299 325.245 171.856 323.494 175.119C321.743 178.383 299.773 213.725 299.773 213.725L276.212 214.362Z" fill="#EC78D5"/>
<path d="M337.663 117.25L337.424 117.409C336.788 117.807 335.992 117.568 335.594 116.932C335.275 116.374 335.355 115.738 335.832 115.26C335.912 115.18 335.992 115.18 336.071 115.101C347.056 106.663 348.489 96.554 346.101 89.9472C344.429 85.3304 340.927 82.3056 337.424 82.3852C333.922 82.4648 331.136 84.5344 329.464 88.4348C328.589 90.4248 328.111 92.4944 327.952 94.6436C327.952 95.36 327.315 95.9968 326.599 95.9968C325.882 95.9968 325.246 95.36 325.246 94.6436C325.246 94.564 325.246 94.564 325.246 94.4844C325.564 89.4696 328.43 79.9972 337.265 79.6788C341.962 79.5196 346.499 83.2608 348.568 88.992C351.195 96.554 349.762 107.857 337.663 117.25Z" fill="white"/>
<path d="M336.628 118.205C336.549 118.205 336.469 118.205 336.39 118.205C335.912 118.126 335.514 117.887 335.196 117.489C334.559 116.693 334.718 115.578 335.514 114.941C335.594 114.862 335.594 114.862 335.673 114.782C346.499 106.424 347.932 96.5539 345.623 90.1063C344.031 85.6487 340.768 82.7831 337.424 82.9423C334.081 83.1015 331.534 85.0119 329.942 88.6735C329.146 90.5839 328.589 92.6535 328.43 94.7231C328.35 95.7579 327.474 96.4743 326.519 96.4743C325.484 96.3947 324.768 95.5987 324.768 94.5639C325.086 89.4695 328.032 79.5991 337.265 79.2807C342.121 79.1215 346.897 82.9423 349.046 88.9123C351.752 96.5539 350.32 108.096 337.982 117.648L337.743 117.807C337.424 118.126 337.026 118.205 336.628 118.205ZM337.584 81.9075C341.245 81.9075 344.827 85.0119 346.499 89.7879C348.887 96.5539 347.534 106.822 336.31 115.499L336.23 115.578L336.071 115.658C335.673 115.976 335.673 116.454 335.912 116.852C336.23 117.25 336.708 117.25 337.106 117.011L337.345 116.852C349.285 107.618 350.718 96.5539 348.091 89.2307C346.101 83.7383 341.802 80.0767 337.265 80.2359C328.748 80.5543 325.962 89.7879 325.723 94.5639C325.723 95.0415 326.042 95.4395 326.519 95.4395C326.997 95.4395 327.395 95.1211 327.395 94.6435C327.554 92.4147 328.111 90.2655 328.987 88.1959C330.738 84.1363 333.604 81.9871 337.345 81.8279L337.584 81.9075Z" fill="#231F20"/>
<path d="M328.987 123.936C316.887 133.329 305.505 131.896 298.978 127.438C293.963 124.016 291.495 118.682 292.848 114.145C295.395 105.628 305.346 105.23 310.201 106.265C310.918 106.424 311.395 107.14 311.236 107.857C311.077 108.573 310.36 109.051 309.644 108.892C307.495 108.494 305.345 108.494 303.196 108.812C298.977 109.449 296.351 111.518 295.316 114.941C294.281 118.364 296.351 122.424 300.41 125.21C306.221 129.19 316.33 130.304 327.315 121.866L327.554 121.707C328.111 121.23 328.987 121.389 329.464 121.946C329.942 122.503 329.783 123.379 329.226 123.856L328.987 123.936Z" fill="white"/>
<path d="M310.758 131.419C306.46 131.498 302.241 130.225 298.739 127.837C293.565 124.255 291.018 118.762 292.371 113.986C295.077 105.151 305.266 104.753 310.281 105.708C311.236 105.947 311.873 106.902 311.634 107.857C311.395 108.812 310.52 109.449 309.564 109.29C307.495 108.971 305.346 108.892 303.276 109.21C299.296 109.847 296.749 111.757 295.794 115.021C294.838 118.285 296.828 122.105 300.729 124.732C306.38 128.553 316.251 129.747 326.997 121.389L327.236 121.23C328.032 120.593 329.226 120.752 329.862 121.548C330.499 122.344 330.34 123.538 329.544 124.175L329.385 124.334C322.698 129.429 316.33 131.419 310.758 131.419ZM306.142 106.345C301.286 106.345 295.157 108.016 293.246 114.305C291.973 118.603 294.361 123.697 299.216 127.041C305.584 131.419 316.728 132.772 328.668 123.618L328.828 123.459C328.987 123.299 329.146 123.14 329.146 122.901C329.146 122.663 329.146 122.424 328.987 122.265C328.748 121.867 328.27 121.787 327.872 122.105C327.872 122.105 327.793 122.105 327.793 122.185L327.634 122.344C316.33 131.021 306.062 129.827 300.092 125.767C295.873 122.901 293.724 118.523 294.838 114.941C295.953 111.359 298.739 109.131 303.117 108.494C305.346 108.175 307.574 108.175 309.724 108.573C310.122 108.653 310.599 108.414 310.679 108.016V107.937C310.758 107.459 310.44 107.061 310.042 106.981C308.768 106.504 307.495 106.424 306.142 106.345Z" fill="#231F20"/>
<path d="M365.682 143.359L347.215 157.687C346.578 158.244 345.623 158.085 345.066 157.448C344.748 157.05 344.668 156.572 344.827 156.095L347.852 145.508L347.932 145.428L329.862 121.946L335.594 117.489L353.742 140.891L353.822 140.811L364.807 140.573C365.603 140.573 366.319 141.209 366.319 142.005C366.24 142.563 366.08 143.04 365.682 143.359Z" fill="white"/>
<path d="M346.26 158.483C345.862 158.483 345.464 158.324 345.146 158.164C344.429 157.687 344.111 156.811 344.35 155.936L347.374 145.508L329.464 122.344C329.385 122.265 329.385 122.106 329.385 121.946C329.385 121.787 329.464 121.708 329.544 121.628L335.275 117.17C335.514 117.011 335.832 117.011 335.992 117.25L353.902 140.414L364.727 140.175C365.603 140.175 366.399 140.652 366.638 141.528C366.956 142.324 366.638 143.279 366.001 143.757L347.534 158.085C347.136 158.324 346.738 158.483 346.26 158.483ZM348.25 145.747L345.225 156.174C345.066 156.572 345.225 157.05 345.623 157.289C345.942 157.528 346.499 157.528 346.817 157.289L365.284 142.961C365.603 142.722 365.762 142.244 365.603 141.846C365.444 141.448 365.046 141.13 364.648 141.13L353.742 141.369C353.663 141.369 353.583 141.369 353.504 141.369C353.344 141.369 353.265 141.289 353.106 141.21L335.275 118.205L330.34 122.026L348.17 145.03C348.409 145.269 348.409 145.588 348.25 145.747Z" fill="#231F20"/>
<path d="M298.818 105.39L327.236 83.4199L343.315 104.196C348.17 110.564 347.056 119.638 340.688 124.573L335.196 128.792C328.828 133.648 319.753 132.533 314.818 126.165L298.818 105.39Z" fill="white"/>
<path d="M326.997 130.862C326.201 130.862 325.405 130.782 324.609 130.702C319.753 130.066 315.375 127.598 312.35 123.698L298.42 105.628C298.341 105.549 298.341 105.39 298.341 105.23C298.341 105.071 298.42 104.992 298.5 104.912L326.917 82.9424C327.156 82.7832 327.474 82.7832 327.634 83.022L341.564 101.012C347.772 109.051 346.34 120.673 338.3 126.882C335.116 129.508 331.136 130.862 326.997 130.862ZM299.535 105.39L313.146 123.061C319.037 130.702 330.022 132.056 337.663 126.165C345.305 120.275 346.658 109.29 340.847 101.648L327.156 84.0568L299.535 105.39Z" fill="#231F20"/>
<path d="M316.091 98.3849L324.29 103.877L332.091 97.9073L329.305 107.38L337.424 112.872L327.554 113.19L324.847 122.663L321.504 113.35L311.634 113.668L319.435 107.618L316.091 98.3849Z" fill="white"/>
<path d="M324.847 123.14C324.609 123.14 324.449 122.981 324.37 122.822L321.186 113.907L311.713 114.225C311.475 114.225 311.315 114.066 311.236 113.907C311.156 113.668 311.236 113.509 311.395 113.349L318.877 107.539L315.693 98.6234C315.614 98.3846 315.693 98.2254 315.853 98.0662C316.012 97.907 316.251 97.907 316.41 98.0662L324.29 103.399L331.852 97.5886C332.011 97.4294 332.25 97.4294 332.409 97.5886C332.569 97.7478 332.648 97.907 332.569 98.1458L329.862 107.22L337.743 112.553C337.902 112.713 337.981 112.872 337.902 113.111C337.822 113.349 337.663 113.429 337.424 113.429L327.952 113.747L325.245 122.822C325.245 122.981 325.086 123.14 324.847 123.14ZM321.504 112.872C321.743 112.872 321.902 113.031 321.982 113.19L324.768 121.071L327.156 113.031C327.235 112.792 327.395 112.713 327.633 112.713L335.991 112.474L329.066 107.777C328.907 107.618 328.827 107.459 328.907 107.22L331.215 99.1806L324.609 104.275C324.449 104.434 324.211 104.434 324.051 104.275L317.126 99.5786L319.912 107.459C319.992 107.698 319.912 107.857 319.753 108.016L313.146 113.111L321.504 112.872Z" fill="#231F20"/>
<path d="M277.326 171.856C279.635 168.751 282.978 166.204 286.321 166.204C288.789 166.204 291.416 167.876 291.973 170.264C293.883 167.159 298.022 166.124 301.127 168.035C302.321 168.91 303.276 170.104 303.913 171.458C306.858 177.428 304.868 184.671 306.221 191.278C306.46 192.472 307.176 193.905 308.37 193.746C308.928 195.099 307.813 196.691 306.38 197.089C304.948 197.407 303.435 197.168 302.082 196.532C300.808 195.895 299.376 195.338 297.943 195.099C294.759 194.701 291.575 196.372 288.47 197.009C284.809 197.726 281.068 198.283 277.406 198.92C275.496 199.238 273.585 199.556 271.754 199.079C269.526 198.442 267.774 196.691 267.138 194.462C267.536 194.94 268.252 195.099 268.809 194.701C269.367 194.382 269.765 193.905 270.003 193.268C271.834 190.164 273.028 186.661 273.506 183.079C273.665 181.089 273.904 179.179 274.381 177.268C275.098 175.278 276.053 173.448 277.326 171.856Z" fill="white"/>
<path d="M273.983 199.795C273.187 199.795 272.471 199.716 271.675 199.477C269.287 198.76 267.376 196.93 266.66 194.542C266.58 194.303 266.739 194.064 266.899 193.984C267.137 193.905 267.376 193.984 267.535 194.144C267.774 194.382 268.252 194.462 268.57 194.223C269.048 193.905 269.366 193.507 269.605 193.029C271.436 189.925 272.63 186.502 273.107 183C273.187 182.442 273.267 181.806 273.267 181.248C273.346 179.816 273.585 178.462 273.903 177.109C274.54 175.119 275.495 173.209 276.769 171.617C279.555 167.955 282.978 165.806 286.082 165.806H286.162C288.629 165.806 290.858 167.159 291.973 169.308C293.007 168.114 294.361 167.239 295.873 166.92C297.704 166.443 299.694 166.761 301.286 167.796C302.559 168.751 303.594 169.945 304.231 171.378C306.062 175.04 306.062 179.258 306.062 183.238C305.982 185.945 306.141 188.572 306.619 191.278C306.778 192.154 307.415 193.427 308.211 193.348C308.45 193.348 308.689 193.427 308.768 193.666C309.007 194.382 309.007 195.178 308.609 195.815C308.131 196.691 307.335 197.407 306.38 197.726C304.709 198.203 302.957 197.646 301.763 197.089L300.888 196.691C299.853 196.213 298.818 195.815 297.704 195.656C295.714 195.417 293.565 196.054 291.575 196.691C290.54 197.009 289.505 197.328 288.391 197.566C285.923 198.044 283.455 198.442 280.988 198.84C279.794 198.999 278.52 199.238 277.326 199.477C276.132 199.716 274.938 199.875 273.665 199.875L273.983 199.795ZM268.093 195.338C268.889 196.93 270.321 198.044 271.993 198.522C273.744 198.999 275.734 198.681 277.485 198.362C278.679 198.124 279.953 197.964 281.147 197.726C283.535 197.328 286.082 196.93 288.47 196.452C289.505 196.213 290.54 195.974 291.575 195.576C293.724 194.94 295.873 194.223 298.102 194.462C299.296 194.621 300.49 195.019 301.525 195.576L302.321 195.895C303.515 196.532 304.947 196.691 306.301 196.452C307.017 196.213 307.574 195.736 307.893 195.099C308.052 194.78 308.131 194.382 308.052 194.064C306.858 193.984 306.062 192.631 305.743 191.198C305.266 188.492 305.107 185.706 305.186 183C305.186 178.94 305.186 175.04 303.435 171.537C302.878 170.264 301.923 169.149 300.808 168.353C297.943 166.602 294.122 167.478 292.371 170.343C292.291 170.502 292.052 170.582 291.893 170.582C291.654 170.582 291.495 170.423 291.495 170.184C291.017 168.114 288.789 166.522 286.321 166.443C283.455 166.443 280.271 168.433 277.724 171.856C276.53 173.448 275.575 175.199 275.018 177.03C274.699 178.303 274.461 179.656 274.381 181.01C274.301 181.646 274.301 182.204 274.222 182.761C273.744 186.422 272.471 190.004 270.64 193.188C270.321 193.825 269.844 194.382 269.207 194.78C268.889 195.338 268.491 195.417 268.093 195.338Z" fill="#231F20"/>
<path d="M296.271 202.183V212.292C296.271 212.292 293.883 217.864 287.276 216.113C280.67 214.362 279.874 209.665 279.874 209.665C279.874 209.665 280.192 191.039 280.192 190.959C280.192 190.641 282.262 188.81 282.5 188.333C283.535 186.263 283.854 183.716 284.65 181.487C285.048 180.373 285.446 179.338 286.003 178.303C286.958 176.631 288.789 175.119 290.699 175.597C292.45 176.074 293.246 178.064 293.565 179.815C294.202 178.383 295.714 177.427 297.226 177.666C298.42 177.825 300.649 179.815 301.127 180.691C301.684 181.646 301.525 183.557 301.684 184.671C302.241 188.731 302.878 193.188 302.321 197.327C301.684 202.263 296.351 202.183 296.271 202.183Z" fill="white"/>
<path d="M289.664 216.989C288.789 216.989 287.993 216.83 287.117 216.67C280.271 214.919 279.396 209.984 279.316 209.825C279.237 209.666 279.635 191.198 279.714 191.039C279.714 190.721 279.953 190.482 280.988 189.368C281.386 188.97 281.704 188.572 282.102 188.174C282.659 186.9 283.137 185.547 283.376 184.194C283.615 183.238 283.853 182.283 284.172 181.328C284.57 180.214 285.047 179.099 285.605 178.064C286.639 176.154 288.709 174.562 290.779 175.119C292.53 175.597 293.326 177.189 293.724 178.542C294.599 177.507 295.953 177.03 297.306 177.189C298.739 177.428 301.047 179.497 301.525 180.452C301.923 181.408 302.082 182.442 302.082 183.477C302.082 183.875 302.082 184.273 302.161 184.592L302.241 185.547C302.719 189.447 303.276 193.507 302.719 197.407C302.321 200.432 300.171 202.342 296.669 202.74V212.372C296.669 212.452 296.669 212.531 296.669 212.531C295.316 215.158 292.609 216.909 289.664 216.989ZM280.669 191.119C280.669 192.233 280.431 201.706 280.271 209.745C280.271 209.825 281.147 214.123 287.276 215.715C293.007 217.228 295.316 212.929 295.634 212.213V202.183C295.634 202.024 295.714 201.865 295.793 201.785C295.953 201.706 296.112 201.626 296.191 201.626C299.375 201.387 301.286 199.795 301.604 197.089C302.161 193.348 301.604 189.368 301.127 185.547L301.047 184.592C301.047 184.273 300.967 183.875 300.967 183.398C300.967 182.522 300.808 181.646 300.569 180.771C300.171 179.975 298.022 178.224 297.067 178.064C295.714 177.905 294.44 178.622 293.883 179.895C293.803 180.134 293.485 180.293 293.246 180.214C293.087 180.134 292.928 179.975 292.928 179.816C292.769 179.02 292.291 176.472 290.381 175.995C288.789 175.517 287.117 176.95 286.321 178.462C285.764 179.497 285.366 180.532 284.968 181.567C284.649 182.442 284.411 183.398 284.172 184.273C283.853 185.706 283.376 187.139 282.819 188.412C282.421 188.97 282.023 189.447 281.545 189.845C281.227 190.402 280.749 190.88 280.669 191.119Z" fill="#231F20"/>
<path d="M284.092 190.721C283.853 189.845 283.376 188.97 282.659 188.412C281.943 187.855 281.147 187.457 280.351 187.218C279.953 186.98 279.475 186.9 278.918 186.98C278.6 187.059 278.281 187.139 277.963 187.298C277.247 187.616 276.689 188.253 276.371 188.97C276.212 189.606 276.132 190.243 276.291 190.88C276.371 191.596 276.53 192.233 276.769 192.95C277.883 195.656 280.908 196.93 283.615 195.815H283.694" fill="white"/>
<path d="M281.625 196.531C279.316 196.531 277.167 195.099 276.291 192.949C276.053 192.233 275.814 191.517 275.814 190.8C275.655 190.084 275.734 189.367 275.973 188.651C276.371 187.775 277.008 187.139 277.804 186.741C278.122 186.502 278.52 186.422 278.918 186.343C279.475 186.343 280.033 186.422 280.51 186.661C281.386 186.979 282.261 187.377 282.978 187.935C283.774 188.571 284.331 189.527 284.57 190.561C284.649 190.8 284.49 191.119 284.251 191.198C284.013 191.278 283.694 191.119 283.615 190.88V190.8C283.455 190.004 282.978 189.288 282.341 188.731C281.704 188.253 280.988 187.855 280.192 187.616C279.794 187.457 279.396 187.377 278.998 187.377C278.679 187.377 278.441 187.537 278.202 187.616C277.565 187.935 277.087 188.412 276.769 189.049C276.61 189.606 276.61 190.163 276.689 190.721C276.769 191.357 276.928 191.994 277.167 192.631C278.202 195.099 280.988 196.213 283.376 195.258C283.615 195.178 283.933 195.258 284.013 195.497C284.092 195.735 284.013 196.054 283.774 196.133C283.057 196.452 282.261 196.611 281.625 196.531Z" fill="#231F20"/>
<path d="M293.803 185.786C293.803 185.786 297.385 190.88 296.589 191.835C295.793 192.79 293.485 192.233 293.485 192.233" fill="white"/>
<path d="M294.918 192.79C294.361 192.79 293.883 192.711 293.406 192.631C293.167 192.551 293.008 192.233 293.087 191.994C293.167 191.755 293.405 191.676 293.644 191.676C294.281 191.835 295.873 191.994 296.271 191.437C296.43 190.959 295.157 188.412 293.485 186.024C293.326 185.785 293.485 185.467 293.724 185.387C293.883 185.308 294.122 185.308 294.281 185.467C295.714 187.537 297.943 191.039 296.988 192.153C296.43 192.631 295.634 192.87 294.918 192.79Z" fill="#231F20"/>
<path d="M290.779 183.194C290.819 182.535 290.459 181.978 289.977 181.949C289.494 181.92 289.07 182.431 289.031 183.089C288.991 183.747 289.351 184.304 289.834 184.333C290.316 184.362 290.74 183.852 290.779 183.194Z" fill="#231F20"/>
<path d="M298.431 185.871C298.914 185.838 299.269 185.279 299.225 184.621C299.181 183.963 298.754 183.456 298.272 183.488C297.789 183.52 297.434 184.08 297.478 184.738C297.522 185.396 297.949 185.903 298.431 185.871Z" fill="#231F20"/>
<path d="M294.042 195.895C292.052 195.895 289.346 195.576 287.674 194.143C287.436 193.984 287.436 193.666 287.595 193.427C287.754 193.188 288.072 193.188 288.311 193.347C291.018 195.576 296.669 194.701 296.669 194.701C296.908 194.701 297.147 194.86 297.226 195.178C297.226 195.417 297.067 195.656 296.828 195.735C295.873 195.815 294.918 195.895 294.042 195.895Z" fill="#231F20"/>
<path d="M296.271 202.183C296.271 202.183 289.983 203.616 286.242 201.467C286.242 201.467 290.301 209.984 296.192 209.108L296.271 202.183Z" fill="#231F20"/>
<path d="M295.395 209.666C289.744 209.666 286.002 202.024 285.843 201.706C285.764 201.546 285.764 201.308 285.923 201.148C286.082 200.989 286.321 200.989 286.48 201.069C289.982 203.059 296.032 201.706 296.112 201.706C296.271 201.706 296.43 201.706 296.51 201.785C296.589 201.865 296.669 202.024 296.669 202.183V209.108C296.669 209.347 296.51 209.586 296.271 209.586C296.032 209.666 295.714 209.666 295.395 209.666ZM287.435 202.502C288.788 204.651 291.813 208.87 295.793 208.631V202.74C294.281 203.059 290.46 203.536 287.435 202.502Z" fill="#231F20"/>
<path d="M298.42 212.372L298.739 217.705L276.212 214.362L277.804 209.188L298.42 212.372Z" fill="white"/>
<path d="M298.739 218.183L276.132 214.919C275.894 214.84 275.655 214.601 275.734 214.362V214.282L277.326 209.108C277.406 208.87 277.645 208.71 277.884 208.79L298.5 211.974C298.739 211.974 298.898 212.213 298.898 212.452L299.216 217.705C299.216 217.864 299.137 218.024 299.057 218.103C299.057 218.183 298.898 218.183 298.739 218.183ZM276.849 213.964L298.261 217.068L298.022 212.77L278.202 209.666L276.849 213.964Z" fill="#231F20"/>
<path d="M267.694 246.361C267.694 246.361 272.55 280.589 274.779 283.455C277.008 286.32 302.798 303.434 302.798 303.434L293.564 312.111C293.564 312.111 263.157 305.663 259.734 299.216C256.312 292.768 251.695 246.6 251.695 246.6" fill="#EC78D5"/>
<path d="M299.057 297.146H298.977C298.738 297.066 298.579 296.828 298.579 296.589C300.967 286.161 289.982 217.228 289.903 216.591C289.903 216.352 290.062 216.113 290.301 216.034C290.54 215.954 290.858 216.193 290.858 216.432C291.336 219.297 301.922 286.161 299.534 296.828C299.455 296.987 299.296 297.146 299.057 297.146Z" fill="#231F20"/>
<path d="M302.798 303.912C302.719 303.912 302.639 303.912 302.56 303.832C299.774 302.24 275.575 287.833 274.302 283.534C273.028 279.236 267.774 237.685 267.536 235.854C267.536 235.615 267.695 235.376 268.013 235.297C268.252 235.297 268.491 235.456 268.57 235.695C268.65 236.093 274.063 279.077 275.336 283.216C276.292 286.559 295.714 298.579 303.117 302.957C303.356 303.116 303.435 303.434 303.276 303.673C303.117 303.832 302.958 303.912 302.798 303.912Z" fill="#231F20"/>
<path d="M343.474 123.538C341.325 125.528 339.892 128.075 339.414 130.941C339.335 131.259 339.335 131.578 339.574 131.817C339.733 131.976 339.972 131.976 340.21 131.976C341.086 131.896 341.882 131.339 342.28 130.623C342.041 131.419 341.484 132.135 341.245 132.931C341.006 133.727 341.245 134.841 342.121 135.08C342.837 135.16 343.474 134.921 343.952 134.364C343.633 134.921 343.474 135.478 343.394 136.115C343.315 136.752 343.713 137.389 344.27 137.627C345.066 137.866 345.782 137.229 346.34 136.672C345.384 137.229 345.464 138.821 346.34 139.538C347.295 140.175 348.489 140.175 349.524 139.617C351.673 138.583 352.787 136.195 353.106 133.807C353.504 131.498 352.946 129.11 351.673 127.12C350.717 125.687 349.285 124.653 347.613 124.255C346.26 123.697 344.827 122.265 343.474 123.538Z" fill="white"/>
<path d="M347.931 140.493C347.294 140.493 346.578 140.334 346.1 139.936C345.543 139.458 345.225 138.822 345.225 138.105C344.906 138.185 344.508 138.185 344.19 138.105C343.394 137.787 342.916 136.991 342.916 136.115C342.916 135.876 342.916 135.717 342.996 135.478C342.678 135.558 342.28 135.558 341.961 135.478C340.847 135.16 340.449 133.807 340.767 132.772C340.847 132.613 340.847 132.374 340.926 132.215C340.688 132.294 340.369 132.374 340.13 132.374C339.732 132.454 339.414 132.374 339.096 132.135C338.777 131.737 338.698 131.26 338.777 130.782C339.334 127.837 340.847 125.13 342.996 123.14C344.19 122.026 345.464 122.663 346.578 123.14C346.976 123.3 347.294 123.459 347.692 123.618C349.444 124.096 351.036 125.21 352.07 126.722C353.424 128.792 353.981 131.339 353.583 133.807C353.185 136.672 351.752 138.981 349.682 140.016C349.205 140.254 348.568 140.414 347.931 140.493ZM346.339 137.389C346.26 137.548 346.26 137.707 346.26 137.866C346.18 138.344 346.419 138.822 346.737 139.14C347.533 139.618 348.568 139.618 349.444 139.14C351.195 138.264 352.468 136.274 352.787 133.727C353.105 131.498 352.707 129.27 351.434 127.359C350.558 126.006 349.205 125.051 347.613 124.653C347.135 124.494 346.737 124.334 346.339 124.096C345.225 123.538 344.588 123.3 343.872 123.936C341.802 125.847 340.449 128.314 339.892 131.021C339.812 131.339 339.892 131.419 339.892 131.419C339.971 131.419 340.051 131.419 340.13 131.419C340.847 131.339 341.484 130.941 341.882 130.304C342.041 130.066 342.28 129.986 342.518 130.145C342.757 130.225 342.837 130.464 342.837 130.702C342.678 131.1 342.518 131.578 342.28 131.976C342.12 132.294 341.961 132.692 341.802 133.09C341.643 133.727 341.802 134.444 342.28 134.603C342.757 134.762 343.235 134.364 343.712 133.966C343.872 133.807 344.11 133.807 344.349 133.966C344.508 134.125 344.588 134.364 344.508 134.603C344.19 135.08 344.031 135.638 344.031 136.195C344.031 136.593 344.19 136.991 344.588 137.23C344.906 137.309 345.225 137.23 345.702 136.832C345.862 136.593 346.1 136.434 346.339 136.274C346.578 136.195 346.817 136.195 346.976 136.434C347.135 136.593 347.135 136.911 346.896 137.07C346.658 137.15 346.498 137.309 346.339 137.389Z" fill="#231F20"/>
<path d="M239.119 281.785L240.233 314.182H181.17L183.24 279.715L239.119 281.785Z" fill="#231F20"/>
<path d="M240.233 314.739H181.17C181.011 314.739 180.931 314.659 180.852 314.58C180.772 314.5 180.692 314.341 180.692 314.182L182.762 279.715C182.762 279.476 183.001 279.237 183.24 279.237L239.119 281.307C239.358 281.307 239.596 281.546 239.596 281.785L240.711 314.182C240.711 314.341 240.631 314.421 240.552 314.58C240.472 314.659 240.392 314.739 240.233 314.739ZM181.727 313.704H239.756L238.641 282.262L183.717 280.193L181.727 313.704Z" fill="#231F20"/>
<path d="M241.586 210.782L241.268 210.941V210.861V210.782C241.268 210.782 222.96 203.379 218.821 201.787C218.662 201.707 218.582 201.707 218.423 201.628L218.184 201.548C217.786 201.468 217.468 201.389 217.07 201.389C216.91 201.389 216.751 201.389 216.592 201.389C216.274 201.389 215.955 201.389 215.557 201.309C214.522 201.309 213.169 201.309 211.736 201.309C209.746 201.309 207.438 201.389 205.368 201.548C203.776 201.628 202.264 201.707 200.99 201.787C200.433 201.866 199.876 201.866 199.319 201.866C199.239 201.866 199.239 201.866 199.239 201.866C198.602 201.946 198.045 201.946 197.647 201.946L197.09 202.026C196.612 202.105 196.294 202.105 196.294 202.105C196.294 202.105 182.284 209.508 181.488 210.861C181.25 211.259 169.548 217.229 168.832 281.864H192.473C192.712 283.695 193.826 285.287 195.418 286.242C205.289 285.367 215.159 283.854 224.87 281.864H239.198L239.278 278.521C244.372 277.168 248.273 275.815 249.706 274.621C255.755 269.606 241.586 210.782 241.586 210.782ZM189.767 269.606C189.767 269.526 189.846 269.526 189.926 269.686C189.846 269.686 189.767 269.686 189.767 269.606Z" fill="#EC78D5"/>
<path d="M181.408 260.929C181.249 260.929 181.09 260.85 181.01 260.691C179.02 257.109 171.856 255.835 171.777 255.835C171.538 255.755 171.299 255.517 171.379 255.278C171.458 255.039 171.697 254.8 171.936 254.88C172.254 254.959 179.657 256.233 181.806 260.213C181.966 260.452 181.886 260.77 181.647 260.85C181.568 260.929 181.488 260.929 181.408 260.929Z" fill="#231F20"/>
<path d="M189.926 269.686C189.846 269.686 189.767 269.686 189.767 269.606C189.767 269.526 189.846 269.606 189.926 269.686Z" fill="#EC78D5"/>
<path d="M184.036 270.402C183.717 270.322 183.478 270.084 183.558 269.845L190.802 218.503C190.802 218.264 191.12 218.025 191.359 218.105C191.597 218.184 191.836 218.423 191.757 218.662L184.513 270.004C184.513 270.243 184.354 270.402 184.036 270.402Z" fill="#231F20"/>
<path d="M222.402 177.031C223.358 174.802 223.676 171.857 224.074 169.549C224.392 167.797 225.109 164.932 224.313 163.181C223.756 162.066 222.004 160.952 220.89 160.315C220.333 155.857 216.194 153.151 212.054 152.992C209.507 152.992 207.04 153.39 204.652 154.265C202.264 155.061 199.796 156.017 198.522 158.166C198.284 158.643 198.045 159.121 197.726 159.519C197.328 159.917 196.771 160.235 196.294 160.554C193.03 162.703 193.348 165.648 193.746 168.991C194.224 172.573 195.418 176.155 195.816 179.658C199.955 179.897 204.174 180.295 208.313 180.215C211.577 180.215 220.651 180.931 222.402 177.031Z" fill="white"/>
<path d="M211.657 180.772C211.02 180.772 210.383 180.772 209.905 180.772C209.428 180.772 208.711 180.772 208.313 180.772C204.891 180.852 201.468 180.613 198.125 180.374L195.737 180.215C195.498 180.215 195.259 179.976 195.259 179.738C195.02 177.907 194.702 175.996 194.224 174.245C193.826 172.574 193.428 170.822 193.189 169.071C192.791 165.648 192.393 162.464 195.896 160.156L196.294 159.917C196.612 159.758 196.931 159.519 197.249 159.201C197.488 158.962 197.647 158.644 197.806 158.325L198.045 157.848C199.319 155.619 201.866 154.504 204.413 153.708C206.801 152.833 209.428 152.355 211.975 152.355C216.114 152.594 220.572 155.221 221.288 159.917C222.243 160.474 224.074 161.589 224.711 162.862C225.427 164.454 225.029 166.683 224.711 168.514C224.631 168.832 224.552 169.151 224.552 169.469C224.472 169.947 224.393 170.345 224.313 170.822C224.074 172.972 223.597 175.121 222.801 177.111C221.368 180.374 215.875 180.772 211.657 180.772ZM208.632 179.738H209.826C213.567 179.817 220.492 179.897 221.925 176.792C222.641 174.882 223.119 172.812 223.358 170.743C223.437 170.265 223.517 169.788 223.597 169.39C223.676 169.071 223.676 168.753 223.756 168.434C224.074 166.842 224.472 164.614 223.835 163.34C223.437 162.464 221.925 161.43 220.651 160.713C220.492 160.634 220.413 160.474 220.413 160.315C219.935 156.017 215.796 153.629 211.975 153.39C209.507 153.39 207.04 153.788 204.731 154.664C202.343 155.46 200.035 156.415 198.921 158.325L198.682 158.723C198.523 159.121 198.284 159.44 198.045 159.758C197.727 160.076 197.329 160.395 196.851 160.634L196.533 160.872C193.508 162.862 193.826 165.489 194.224 168.832C194.463 170.504 194.861 172.255 195.179 173.847C195.577 175.598 195.975 177.27 196.214 179.021L198.204 179.18C201.468 179.419 204.97 179.658 208.313 179.578L208.632 179.738Z" fill="#231F20"/>
<path d="M200.194 177.588C199.637 173.051 192.155 171.698 192.314 177.031C192.314 178.862 192.951 180.693 194.145 182.125C195.418 183.558 197.329 184.115 199.16 183.479" fill="white"/>
<path d="M197.727 184.195C196.214 184.195 194.781 183.558 193.826 182.444C192.553 180.931 191.836 179.021 191.836 177.031C191.757 174.325 193.428 173.21 195.02 173.051C197.727 172.892 200.194 174.802 200.592 177.509C200.592 177.747 200.433 177.986 200.115 178.066C199.876 178.066 199.637 177.907 199.557 177.668C199.159 175.519 197.249 173.927 195.02 174.086C193.508 174.165 192.632 175.28 192.712 177.031C192.712 178.782 193.269 180.454 194.383 181.807C195.498 183.081 197.249 183.558 198.841 183.081C199.08 183.001 199.398 183.081 199.478 183.319C199.557 183.558 199.478 183.877 199.239 183.956C198.761 184.115 198.204 184.195 197.727 184.195Z" fill="#231F20"/>
<path d="M216.433 177.588C216.99 173.051 224.472 171.698 224.313 177.031C224.313 178.862 223.676 180.693 222.482 182.125C221.209 183.558 219.298 184.115 217.467 183.479" fill="white"/>
<path d="M218.9 184.195C218.343 184.195 217.786 184.115 217.308 183.877C217.069 183.797 216.91 183.479 217.069 183.24C217.229 183.001 217.467 182.842 217.706 183.001C219.298 183.479 221.049 183.001 222.164 181.727C223.278 180.374 223.835 178.703 223.835 176.951C223.915 175.2 223.039 174.165 221.527 174.006C219.298 173.847 217.388 175.439 216.99 177.588C216.91 177.827 216.671 178.066 216.433 177.986C216.194 177.986 215.955 177.668 216.035 177.429C216.433 174.723 218.9 172.812 221.607 172.971C223.199 173.131 224.95 174.245 224.791 176.951C224.791 178.941 224.074 180.852 222.801 182.364C221.766 183.558 220.413 184.195 218.9 184.195Z" fill="#231F20"/>
<path d="M199.637 200.274C199.637 200.274 203.06 202.025 209.03 202.264C215 202.503 215.955 200.831 215.955 200.831L215.796 197.647L215.478 190.245L215.159 183.399L201.627 182.921L200.99 188.493L200.831 190.324L199.637 200.274Z" fill="white"/>
<path d="M209.985 202.742C209.667 202.742 209.348 202.742 208.95 202.742C202.98 202.503 199.478 200.831 199.398 200.752C199.239 200.672 199.08 200.433 199.159 200.274L201.149 182.921C201.149 182.683 201.388 182.444 201.627 182.444L215.159 182.921C215.398 182.921 215.637 183.16 215.637 183.399L216.433 200.831C216.433 200.911 216.433 200.991 216.353 201.15C216.273 201.229 215.239 202.742 209.985 202.742ZM200.115 199.956C202.901 201.07 205.925 201.707 208.95 201.707C213.567 201.866 215 200.911 215.318 200.593L214.602 183.877L201.945 183.399L200.115 199.956Z" fill="#231F20"/>
<path d="M200.751 190.324C201.866 191.996 203.299 193.429 205.05 194.384C207.915 196.055 212.214 198.045 215.716 197.647L215.398 190.245C212.771 190.483 210.144 190.404 207.597 190.006C205.289 189.847 203.06 189.289 200.911 188.493L200.751 190.324Z" fill="#231F20"/>
<path d="M214.761 198.205C211.02 198.205 207.04 196.135 204.811 194.862C202.98 193.827 201.468 192.394 200.354 190.643C200.274 190.563 200.274 190.484 200.274 190.324L200.433 188.494C200.433 188.334 200.513 188.175 200.672 188.096C200.831 188.016 200.99 188.016 201.15 188.096C203.219 188.892 205.448 189.449 207.677 189.608C210.224 190.006 212.771 190.086 215.398 189.847C215.557 189.847 215.637 189.847 215.796 189.926C215.876 190.006 215.955 190.165 215.955 190.245L216.274 197.648C216.274 197.886 216.114 198.125 215.876 198.125C215.478 198.205 215.08 198.205 214.761 198.205ZM201.229 190.245C202.264 191.757 203.617 193.11 205.289 193.986C207.04 195.021 211.498 197.409 215.239 197.25L214.92 190.882C212.453 191.041 209.985 190.961 207.518 190.643C205.368 190.484 203.299 190.006 201.309 189.369L201.229 190.245Z" fill="#231F20"/>
<path d="M220.174 165.33L219.617 181.728C219.617 182.444 219.537 183.16 219.298 183.797C218.184 188.573 213.806 191.916 208.871 191.757L207.677 191.678C203.06 191.518 199.159 188.334 197.965 183.877C197.727 182.922 197.647 181.966 197.647 180.932L198.204 164.454C198.204 164.454 200.751 167.798 208.075 167.718C212.293 167.957 216.353 167.081 220.174 165.33Z" fill="white"/>
<path d="M209.269 192.314H208.871L207.677 192.235C201.707 191.996 197.01 186.981 197.169 181.011L197.727 164.614C197.727 164.375 197.886 164.216 198.045 164.136C198.284 164.056 198.443 164.136 198.602 164.295C198.602 164.295 201.07 167.4 207.915 167.4H208.075C212.134 167.4 216.194 166.604 219.855 164.932C220.015 164.852 220.174 164.852 220.333 164.932C220.492 165.012 220.572 165.171 220.572 165.41L220.015 181.807C219.855 187.618 215.079 192.314 209.269 192.314ZM198.682 165.728L198.125 181.011C197.965 186.424 202.184 191.041 207.677 191.2L208.871 191.28C214.283 191.439 218.9 187.22 219.059 181.728L219.617 166.126C215.955 167.638 212.055 168.355 208.075 168.355C202.901 168.355 200.035 166.763 198.682 165.728Z" fill="#231F20"/>
<path d="M208.711 174.563C208.711 174.563 212.134 182.046 210.622 182.205C209.109 182.364 206.96 181.25 206.96 181.25" fill="white"/>
<path d="M210.383 182.683C209.109 182.603 207.915 182.205 206.801 181.648C206.562 181.489 206.482 181.25 206.562 181.011C206.642 180.772 206.96 180.693 207.199 180.773C208.234 181.33 209.348 181.648 210.462 181.728C210.701 181.091 209.666 177.907 208.234 174.723C208.154 174.484 208.234 174.166 208.472 174.086C208.711 174.006 209.03 174.086 209.109 174.325C209.985 176.315 211.975 181.011 211.258 182.285C211.099 182.524 210.86 182.683 210.622 182.683H210.383Z" fill="#231F20"/>
<path d="M204.334 171.857C204.732 171.857 205.05 172.574 205.05 173.449C205.05 174.325 204.732 175.041 204.334 175.041C203.936 175.041 203.617 174.325 203.617 173.449C203.617 172.574 203.936 171.857 204.334 171.857Z" fill="#231F20"/>
<path d="M213.806 175.041C214.201 175.041 214.522 174.328 214.522 173.449C214.522 172.57 214.201 171.857 213.806 171.857C213.41 171.857 213.089 172.57 213.089 173.449C213.089 174.328 213.41 175.041 213.806 175.041Z" fill="#231F20"/>
<path d="M220.174 197.727H196.294V202.901H220.174V197.727Z" fill="white"/>
<path d="M220.174 203.379H196.294C196.055 203.379 195.816 203.14 195.816 202.901V197.727C195.816 197.488 196.055 197.249 196.294 197.249H220.174C220.413 197.249 220.652 197.488 220.652 197.727V202.901C220.652 203.14 220.413 203.379 220.174 203.379ZM196.772 202.423H219.696V198.205H196.772V202.423Z" fill="#231F20"/>
<path d="M189.926 269.686C189.846 269.686 189.767 269.686 189.767 269.606C189.767 269.526 189.846 269.606 189.926 269.686Z" fill="#EC78D5"/>
<path d="M193.428 274.939C193.189 274.939 192.951 274.7 192.951 274.461C192.951 274.223 193.11 274.063 193.349 273.984C210.224 269.049 228.611 262.999 229.407 261.407C230.203 259.576 229.009 236.174 228.054 220.811C228.054 220.572 228.213 220.333 228.532 220.254C228.771 220.254 229.009 220.413 229.089 220.731C229.328 224.632 231.557 259.178 230.363 261.725C229.169 264.273 199.557 273.108 193.667 274.859C193.508 274.939 193.508 274.939 193.428 274.939Z" fill="#231F20"/>
<path d="M173.687 236.174H173.369C172.493 236.253 171.777 235.617 171.697 234.821C171.618 234.025 172.254 233.229 173.05 233.149C173.13 233.149 173.289 233.149 173.369 233.149C189.209 231.477 196.692 222.562 198.363 214.682C199.557 209.189 197.965 204.095 194.463 202.105C190.96 200.115 187.06 200.433 183.08 203.219C181.09 204.652 179.259 206.403 177.826 208.393C177.349 209.11 176.394 209.269 175.677 208.791C174.961 208.314 174.802 207.359 175.279 206.642C178.543 201.946 187.06 194.463 195.975 199.478C200.672 202.105 202.821 208.553 201.388 215.319C199.478 224.313 191.199 234.423 173.687 236.174Z" fill="white"/>
<path d="M173.21 236.731C172.095 236.651 171.299 235.617 171.379 234.502C171.459 233.627 172.095 232.91 172.971 232.751C173.051 232.751 173.13 232.751 173.21 232.751C188.891 231.159 196.214 222.323 197.806 214.682C198.921 209.349 197.488 204.493 194.145 202.662C190.801 200.831 187.06 201.07 183.319 203.777C181.329 205.209 179.578 206.881 178.145 208.791C177.508 209.667 176.235 209.906 175.359 209.269C174.483 208.632 174.245 207.359 174.881 206.483C178.225 201.707 187.06 193.986 196.214 199.16C201.07 201.946 203.378 208.553 201.866 215.557C199.955 224.632 191.518 234.98 173.767 236.811H173.449L173.21 236.731ZM189.767 200.354C191.518 200.354 193.189 200.831 194.622 201.707C198.363 203.856 200.035 209.11 198.761 214.841C197.09 222.881 189.448 232.035 173.369 233.706H173.21H173.13C172.573 233.706 172.095 234.263 172.095 234.821C172.175 235.378 172.653 235.776 173.21 235.776H173.528C190.722 234.025 198.841 224.075 200.751 215.319C202.184 208.712 200.115 202.583 195.577 199.956C187.06 195.1 178.782 202.423 175.598 206.961C175.279 207.438 175.359 208.075 175.837 208.393C176.314 208.712 176.951 208.632 177.269 208.155C178.782 206.085 180.613 204.334 182.682 202.901C184.831 201.309 187.299 200.433 189.767 200.354Z" fill="#231F20"/>
<path d="M161.19 237.527C143.678 239.358 133.569 231.159 129.907 222.801C127.042 216.433 127.917 209.747 131.897 206.165C139.539 199.399 149.409 205.05 153.549 208.951C154.185 209.508 154.185 210.463 153.628 211.1C153.071 211.737 152.116 211.737 151.479 211.179C149.648 209.508 147.499 208.155 145.27 207.199C140.813 205.289 136.992 205.687 133.887 208.473C130.783 211.259 130.385 216.433 132.614 221.607C135.877 228.93 144.952 236.174 160.792 234.582H161.111C161.907 234.502 162.703 235.059 162.782 235.935C162.862 236.731 162.305 237.527 161.429 237.607L161.19 237.527Z" fill="white"/>
<path d="M156.414 238.244C141.609 238.244 132.773 230.602 129.43 222.96C126.485 216.354 127.36 209.428 131.579 205.767C139.459 198.762 149.648 204.573 153.947 208.553C154.743 209.349 154.822 210.622 154.026 211.418C153.23 212.214 151.957 212.294 151.161 211.498C149.33 209.906 147.34 208.553 145.111 207.598C140.813 205.767 137.151 206.165 134.285 208.792C131.42 211.418 130.942 216.354 133.171 221.368C136.355 228.532 145.27 235.617 160.872 234.025H161.19C162.305 233.866 163.26 234.662 163.419 235.776C163.499 236.333 163.339 236.811 163.021 237.288C162.703 237.686 162.225 238.005 161.668 238.005H161.349C159.678 238.164 158.086 238.244 156.414 238.244ZM140.096 203.458C137.151 203.458 134.365 204.493 132.216 206.483C128.315 209.906 127.599 216.354 130.305 222.562C133.887 230.682 143.917 238.801 161.111 237.05H161.429C161.668 237.05 161.986 236.89 162.145 236.652C162.305 236.413 162.384 236.174 162.384 235.856C162.305 235.298 161.827 234.9 161.27 234.98H161.031C144.872 236.652 135.559 229.249 132.216 221.766C129.828 216.433 130.385 210.941 133.569 208.075C136.753 205.21 140.813 204.812 145.429 206.722C147.738 207.757 149.887 209.11 151.797 210.782C152.195 211.18 152.912 211.1 153.23 210.622C153.549 210.224 153.549 209.588 153.151 209.269C150.524 206.722 145.429 203.458 140.096 203.458Z" fill="#231F20"/>
<path d="M185.229 278.521L158.563 281.307C157.608 281.387 156.733 280.67 156.653 279.795C156.573 279.238 156.812 278.68 157.21 278.362L166.523 269.924H166.603L163.101 236.174L171.379 235.298L174.881 269.049H175.041L185.946 275.417C186.742 275.894 186.981 277.009 186.503 277.805C186.264 278.203 185.787 278.442 185.229 278.521Z" fill="white"/>
<path d="M158.404 281.785C157.21 281.785 156.175 280.75 156.175 279.556C156.175 278.919 156.414 278.362 156.892 277.964L166.125 269.606L162.702 236.174C162.702 236.015 162.702 235.935 162.782 235.776C162.862 235.696 163.021 235.617 163.1 235.696L171.379 234.821C171.618 234.821 171.856 234.98 171.936 235.219L175.438 268.651L186.184 275.019C187.06 275.496 187.458 276.452 187.219 277.407C187.06 278.362 186.264 279.078 185.309 279.158L158.643 281.864H158.404V281.785ZM166.842 270.243L157.608 278.68C157.13 279.158 157.051 279.954 157.528 280.432C157.767 280.75 158.165 280.909 158.563 280.83L185.229 278.044C185.946 277.964 186.423 277.407 186.344 276.69C186.344 276.292 186.105 275.974 185.707 275.735L174.961 269.447C174.881 269.447 174.722 269.367 174.642 269.367C174.563 269.288 174.483 269.128 174.483 269.049L171.06 235.776L163.737 236.572L167.16 269.845C167.16 270.004 167.001 270.243 166.842 270.243Z" fill="#231F20"/>
<path d="M143.042 201.15L184.036 196.931L187.14 226.861C188.095 236.015 181.409 244.134 172.334 245.089L164.454 245.885C155.3 246.84 147.181 240.154 146.226 231.08L143.042 201.15Z" fill="white"/>
<path d="M166.205 246.124C155.38 246.124 146.385 237.925 145.27 227.179L142.564 201.23C142.564 201.07 142.564 200.991 142.644 200.911C142.723 200.832 142.882 200.752 142.962 200.752L183.876 196.533C184.115 196.533 184.354 196.692 184.434 197.011L187.14 223.04C188.334 234.582 179.896 244.93 168.354 246.204C167.638 246.124 166.922 246.124 166.205 246.124ZM143.599 201.628L146.226 227.1C147.34 238.164 157.21 246.124 168.275 245.01C179.339 243.895 187.299 234.025 186.185 222.96L183.558 197.488L143.599 201.628Z" fill="#231F20"/>
<path d="M164.136 204.811L168.752 215.159L179.976 213.965L171.538 221.527L176.155 231.875L166.364 226.224L157.927 233.706L160.315 222.721L150.524 216.99L161.748 215.876L164.136 204.811Z" fill="white"/>
<path d="M157.926 234.263C157.847 234.263 157.767 234.263 157.688 234.184C157.528 234.104 157.369 233.865 157.449 233.627L159.757 222.96L150.285 217.468C150.126 217.388 149.966 217.149 150.046 216.911C150.126 216.672 150.285 216.513 150.444 216.513L161.349 215.398L163.658 204.732C163.737 204.493 163.896 204.334 164.056 204.334C164.294 204.334 164.454 204.413 164.533 204.652L168.991 214.682L179.816 213.567C180.055 213.567 180.214 213.647 180.294 213.886C180.374 214.045 180.374 214.284 180.214 214.443L172.095 221.766L176.553 231.716C176.632 231.875 176.632 232.114 176.473 232.273C176.314 232.433 176.075 232.433 175.916 232.353L166.444 226.861L158.324 234.184C158.165 234.184 158.086 234.184 157.926 234.263ZM152.116 217.388L160.553 222.323C160.712 222.403 160.872 222.642 160.792 222.881L158.722 232.433L165.966 225.905C166.125 225.746 166.364 225.746 166.523 225.826L174.961 230.761L170.981 221.846C170.901 221.687 170.901 221.448 171.06 221.289L178.304 214.761L168.593 215.796C168.354 215.796 168.195 215.717 168.115 215.478L164.135 206.563L162.066 216.115C161.986 216.353 161.827 216.513 161.668 216.513L152.116 217.388Z" fill="#231F20"/>
<path d="M193.985 275.098C193.985 275.098 189.448 275.655 186.742 274.143C184.035 272.631 177.747 269.526 179.498 272.551C181.249 275.576 184.115 277.009 183.478 277.009C182.841 277.009 166.523 275.496 166.285 277.964C166.046 280.431 170.503 282.183 173.051 283.854C175.598 285.526 195.259 286.163 195.259 286.163L193.985 275.098Z" fill="white"/>
<path d="M195.339 286.64C193.349 286.561 175.518 286.003 172.892 284.252C172.334 283.854 171.618 283.456 170.902 283.058C168.354 281.625 165.728 280.113 165.887 277.884C165.966 276.611 168.036 275.417 182.284 276.372C181.011 275.337 179.976 274.143 179.1 272.71C178.623 271.994 178.623 271.357 179.021 271.039C180.135 269.845 185.468 272.79 187.06 273.665C189.528 275.098 193.906 274.541 193.986 274.541C194.145 274.541 194.224 274.541 194.384 274.621C194.463 274.7 194.543 274.78 194.543 274.939L195.896 286.003C195.896 286.163 195.896 286.322 195.737 286.401C195.578 286.561 195.498 286.64 195.339 286.64ZM173.449 277.009C167.001 277.009 166.842 277.884 166.842 277.964C166.762 279.556 169.15 280.989 171.3 282.183C172.016 282.581 172.732 282.979 173.369 283.456C175.28 284.73 188.971 285.446 194.782 285.685L193.508 275.655C192.234 275.735 188.732 275.894 186.503 274.621C183.558 272.949 180.454 271.675 179.737 271.835C179.817 271.994 179.896 272.153 179.976 272.312C180.852 273.745 182.046 275.019 183.399 276.053C184.036 276.531 184.274 276.77 184.115 277.168C184.036 277.407 183.797 277.486 183.558 277.486L182.762 277.407C178.702 277.088 175.757 277.009 173.449 277.009Z" fill="#231F20"/>
<path d="M169.787 248.193C170.105 248.591 169.787 249.149 169.468 249.547C168.434 250.979 167.24 252.253 165.807 253.288C167.001 252.412 168.354 251.775 169.787 251.616C170.344 251.537 171.06 251.696 171.06 252.253C170.981 252.412 170.901 252.651 170.742 252.731C169.707 253.765 168.672 254.721 167.558 255.676C168.911 255.039 170.662 254.402 171.856 255.278C172.016 255.358 172.175 255.596 172.175 255.755C172.254 256.074 171.936 256.392 171.697 256.631C170.583 257.507 169.468 258.303 168.274 259.019C169.548 258.382 170.981 258.303 172.334 258.86C172.573 258.94 172.732 259.099 172.812 259.258C172.891 259.417 172.812 259.656 172.732 259.815C171.856 262.521 169.389 264.352 166.921 265.705C165.727 266.342 164.294 266.979 163.021 266.501C159.359 265.228 159.439 257.268 160.235 254.243C160.712 252.651 161.747 251.298 163.18 250.343C164.135 249.706 168.752 246.601 169.787 248.193Z" fill="white"/>
<path d="M164.056 267.297C163.658 267.297 163.26 267.218 162.941 267.138C158.882 265.705 159.041 257.347 159.837 254.243C160.394 252.571 161.509 251.059 162.941 250.104C163.021 250.104 167.001 246.999 169.23 247.318C169.628 247.397 170.026 247.636 170.265 247.955C170.503 248.353 170.663 248.91 169.946 249.865C169.548 250.422 169.15 250.9 168.752 251.377C169.071 251.298 169.469 251.218 169.787 251.139C170.344 251.059 170.901 251.218 171.299 251.537C171.538 251.775 171.618 252.014 171.618 252.333C171.538 252.651 171.379 252.89 171.14 253.129C170.663 253.606 170.265 254.004 169.787 254.482C170.583 254.323 171.459 254.482 172.175 254.959C172.493 255.119 172.653 255.437 172.732 255.755C172.732 256.313 172.494 256.79 172.016 257.029C171.618 257.347 171.22 257.666 170.742 257.984C171.379 257.984 171.936 258.143 172.493 258.382C172.812 258.462 173.13 258.78 173.289 259.099C173.369 259.417 173.369 259.735 173.21 259.974C172.414 262.362 170.424 264.352 167.16 266.183C166.285 266.82 165.17 267.138 164.056 267.297ZM168.832 248.273C167.32 248.273 164.454 250.104 163.578 250.82C162.305 251.696 161.27 252.969 160.792 254.402C160.076 257.347 159.996 264.909 163.26 266.103C164.374 266.501 165.727 265.944 166.762 265.387C169.867 263.715 171.697 261.885 172.334 259.735C172.414 259.576 172.414 259.497 172.414 259.497C172.414 259.497 172.414 259.417 172.175 259.337C170.981 258.86 169.707 258.939 168.593 259.497C168.354 259.656 168.036 259.576 167.956 259.337C167.797 259.099 167.877 258.78 168.115 258.701C169.309 257.984 170.424 257.268 171.459 256.392C171.777 256.153 171.777 255.994 171.777 255.994C171.777 255.994 171.777 255.915 171.618 255.835C170.663 255.119 169.071 255.676 167.877 256.233C167.638 256.313 167.32 256.153 167.24 255.915C167.16 255.755 167.24 255.596 167.319 255.437C168.434 254.561 169.469 253.527 170.503 252.492C170.583 252.412 170.663 252.333 170.663 252.253C170.424 252.173 170.185 252.094 169.946 252.173C168.673 252.333 167.479 252.81 166.444 253.606L166.205 253.765C165.966 253.925 165.648 253.845 165.489 253.686C165.329 253.447 165.409 253.129 165.568 252.969L165.807 252.81C167.081 251.855 168.195 250.661 169.071 249.387C169.309 248.989 169.469 248.671 169.309 248.591C169.23 248.432 169.071 248.353 168.911 248.353C168.991 248.273 168.912 248.273 168.832 248.273Z" fill="#231F20"/>
<path d="M208.95 270.083C208.711 270.083 208.473 269.845 208.473 269.606V202.901C208.473 202.662 208.711 202.423 208.95 202.423C209.189 202.423 209.428 202.662 209.428 202.901V269.606C209.507 269.845 209.269 270.083 208.95 270.083Z" fill="#231F20"/>
<path d="M209.666 185.469C207.597 185.469 205.607 184.275 204.572 182.444C204.413 182.205 204.492 181.887 204.731 181.727C204.97 181.568 205.288 181.648 205.448 181.887C206.323 183.479 208.074 184.513 209.905 184.434C210.144 184.354 210.462 184.593 210.462 184.832C210.542 185.071 210.303 185.389 210.064 185.389H209.985C210.064 185.469 209.905 185.469 209.666 185.469Z" fill="#231F20"/>
<path d="M171.618 252.651C171.697 253.606 172.095 254.482 172.891 255.039C173.13 255.198 173.449 255.278 173.687 255.198C175.677 254.88 175.837 249.547 174.802 248.193C174.085 247.318 172.812 247.238 171.936 247.875C170.822 248.989 171.459 251.377 171.618 252.651Z" fill="white"/>
<path d="M173.528 255.756C173.21 255.756 172.891 255.676 172.653 255.517C171.777 254.88 171.22 253.845 171.14 252.731L171.061 252.253C170.822 250.82 170.424 248.671 171.618 247.557C172.095 247.159 172.732 246.92 173.369 247C174.085 247.079 174.722 247.398 175.12 247.875C175.996 248.91 176.075 251.935 175.359 253.925C174.881 255.198 174.165 255.596 173.687 255.676C173.687 255.756 173.608 255.756 173.528 255.756ZM172.095 252.572C172.095 253.368 172.493 254.164 173.13 254.641C173.289 254.721 173.369 254.8 173.528 254.721C174.006 254.641 174.324 254.004 174.483 253.606C175.12 251.935 174.961 249.228 174.404 248.512C174.085 248.194 173.687 247.955 173.289 247.955C172.891 247.875 172.493 248.034 172.255 248.273C171.459 248.99 171.857 250.9 172.016 252.014L172.095 252.572Z" fill="#231F20"/>
<path d="M129.429 112.077C129.27 112.077 129.191 111.998 129.111 111.918C128.076 110.724 128.474 108.893 129.509 107.938C130.544 107.063 131.738 106.505 133.011 106.187C134.603 105.63 136.355 105.311 138.026 105.391C138.504 104.515 139.3 103.799 140.175 103.242C141.767 102.446 143.519 101.889 145.349 101.729C145.588 101.729 145.827 101.889 145.907 102.127C145.907 102.366 145.747 102.605 145.509 102.685C143.837 102.844 142.165 103.321 140.653 104.038C140.016 104.436 139.459 104.913 139.061 105.55C140.255 105.869 141.29 106.744 141.927 107.779C142.404 108.575 142.484 109.53 142.245 110.406C142.245 110.485 142.086 110.645 142.006 110.645C141.131 111.043 140.175 111.043 139.379 110.565C138.345 110.087 137.628 109.053 137.469 107.938C137.389 107.381 137.469 106.744 137.628 106.267C136.116 106.267 134.683 106.585 133.25 107.063C132.136 107.301 131.021 107.779 130.146 108.575C129.429 109.291 129.111 110.565 129.748 111.281C129.907 111.441 129.907 111.759 129.748 111.918C129.589 112.077 129.509 112.077 129.429 112.077ZM138.583 106.426C138.424 106.903 138.345 107.381 138.424 107.859C138.583 108.655 139.061 109.371 139.857 109.769C140.335 110.008 140.892 110.087 141.369 109.928C141.449 109.371 141.369 108.734 141.051 108.257C140.573 107.381 139.698 106.744 138.743 106.426H138.583Z" fill="#D1D3D4"/>
<path d="M247.397 110.087C247.317 110.087 247.238 110.087 247.158 110.008C246.919 109.849 246.919 109.61 246.999 109.371C247.795 108.177 247.795 106.585 247.078 105.391C246.919 105.152 246.76 104.993 246.68 104.754C246.362 104.356 246.123 103.958 245.884 103.481C244.85 100.933 247.636 98.7841 250.262 97.7493C250.501 97.6697 250.74 97.7493 250.899 97.9881C250.979 98.2269 250.899 98.4657 250.66 98.6249C248.83 99.3413 245.964 101.093 246.76 103.162C246.919 103.56 247.158 103.879 247.397 104.197C247.556 104.436 247.715 104.595 247.874 104.834C248.83 106.346 248.75 108.336 247.795 109.849C247.636 110.008 247.476 110.087 247.397 110.087Z" fill="#D1D3D4"/>
<path d="M196.134 113.033C195.975 113.033 195.816 112.953 195.736 112.794C194.622 110.645 194.303 108.177 194.94 105.789C195.02 105.55 195.259 105.391 195.497 105.391C195.736 105.471 195.895 105.709 195.895 105.948C195.895 105.948 195.895 105.948 195.895 106.028C195.338 108.177 195.577 110.406 196.612 112.316C196.691 112.555 196.612 112.794 196.453 112.953C196.373 113.033 196.293 113.033 196.134 113.033Z" fill="#D1D3D4"/>
<path d="M150.603 155.857C150.364 155.857 150.125 155.618 150.125 155.38C150.125 155.22 150.205 155.061 150.364 154.982C152.911 153.708 155.777 153.549 158.483 154.504C158.722 154.584 158.802 154.902 158.722 155.141C158.643 155.38 158.404 155.459 158.165 155.38C155.777 154.584 153.071 154.743 150.762 155.857C150.762 155.778 150.683 155.857 150.603 155.857Z" fill="#D1D3D4"/>
<path d="M263.078 140.574C262.839 140.574 262.6 140.415 262.6 140.097C262.6 139.858 262.759 139.619 262.998 139.619L271.276 137.788C271.515 137.709 271.754 137.868 271.834 138.107C271.913 138.345 271.754 138.584 271.436 138.664L263.157 140.495L263.078 140.574Z" fill="#D1D3D4"/>
<path d="M217.069 140.097C215.795 140.097 214.522 139.699 213.407 138.982C211.895 138.027 210.781 136.594 210.383 134.843C210.303 134.604 210.462 134.365 210.781 134.286C211.019 134.206 211.258 134.365 211.338 134.684C212.134 137.709 215.159 139.619 218.263 139.062C218.502 138.982 218.741 139.141 218.82 139.38C218.9 139.619 218.741 139.858 218.502 139.937C217.945 140.017 217.467 140.097 217.069 140.097Z" fill="#D1D3D4"/>
<path d="M300.331 151.32C300.251 151.32 300.171 151.32 300.171 151.241C299.933 151.161 299.853 150.843 299.933 150.604C301.047 148.216 302.878 146.226 305.186 144.873C305.425 144.793 305.664 144.873 305.823 145.111C305.903 145.271 305.823 145.509 305.664 145.669C303.515 146.863 301.843 148.773 300.808 151.002C300.649 151.241 300.49 151.32 300.331 151.32Z" fill="#D1D3D4"/>
<path d="M328.509 234.98C328.35 234.98 328.191 234.9 328.111 234.741C327.952 234.502 328.032 234.263 328.27 234.104C330.42 232.671 333.206 232.592 335.514 233.786C335.753 233.945 335.832 234.184 335.673 234.423C335.514 234.661 335.275 234.741 335.036 234.582C333.046 233.547 330.658 233.627 328.748 234.9C328.748 234.9 328.589 234.98 328.509 234.98Z" fill="#D1D3D4"/>
<path d="M72.8339 285.207C72.7543 285.207 72.6747 285.207 72.6747 285.207C71.2419 284.571 69.5703 284.411 67.9783 284.809C67.7395 284.889 67.5007 284.73 67.4211 284.491C67.3415 284.252 67.5007 284.013 67.7395 283.934C69.4907 283.456 71.4011 283.615 73.0727 284.411C73.3115 284.491 73.3911 284.809 73.3115 285.048C73.2319 285.207 73.0727 285.287 72.8339 285.207Z" fill="#D1D3D4"/>
<path d="M323.415 281.625C323.335 281.625 323.335 281.625 323.256 281.625C323.017 281.546 322.858 281.307 322.937 281.068C323.335 279.556 324.052 278.123 325.086 276.849C326.121 275.735 327.713 275.178 329.226 275.496C330.26 273.984 331.852 272.949 333.604 272.71C333.842 272.71 334.081 272.869 334.161 273.108C334.24 273.347 334.002 273.586 333.763 273.665C332.33 273.904 330.977 274.7 330.101 275.974C330.818 276.451 331.295 277.247 331.454 278.123C331.614 278.919 331.295 279.794 330.658 280.352C330.26 280.67 329.783 280.829 329.226 280.75C328.828 280.75 328.509 280.511 328.27 280.192C328.032 279.874 327.952 279.476 328.032 279.078C328.032 278.202 328.27 277.247 328.668 276.451C327.554 276.372 326.519 276.849 325.723 277.645C324.768 278.76 324.131 280.113 323.813 281.466C323.733 281.546 323.574 281.705 323.415 281.625ZM329.624 276.61C329.226 277.327 329.066 278.123 328.987 278.919C328.987 279.158 328.987 279.317 329.066 279.476C329.146 279.556 329.226 279.635 329.305 279.635C329.544 279.635 329.783 279.556 330.022 279.396C330.42 279.078 330.579 278.521 330.42 278.043C330.42 277.486 330.101 277.008 329.624 276.61Z" fill="#D1D3D4"/>
<path d="M252.412 176.474C252.173 176.474 252.014 176.314 251.934 176.155C251.616 175.041 251.218 173.847 250.342 173.449C249.864 173.29 249.387 173.21 248.83 173.21C248.511 173.21 248.113 173.21 247.795 173.13C245.486 172.653 243.894 170.424 244.213 168.036C244.292 167.797 244.531 167.638 244.77 167.638C245.009 167.638 245.168 167.956 245.168 168.195C245.009 169.071 245.248 170.026 245.805 170.742C246.282 171.459 247.078 172.016 247.954 172.175C248.272 172.255 248.591 172.255 248.83 172.255C249.466 172.255 250.103 172.334 250.66 172.573C251.934 173.21 252.412 174.643 252.81 175.916C252.889 176.155 252.73 176.394 252.491 176.474C252.491 176.474 252.491 176.474 252.412 176.474Z" fill="#D1D3D4"/>
<path d="M173.687 128.555C173.05 128.555 172.493 128.475 171.856 128.395C171.697 128.395 171.538 128.236 171.458 128.077C170.821 126.405 170.105 124.813 169.309 123.221C167.637 123.381 165.966 123.142 164.453 122.585C164.214 122.505 164.055 122.187 164.214 121.948C164.294 121.709 164.533 121.55 164.772 121.709C166.284 122.266 167.956 122.505 169.548 122.266C169.707 122.266 169.946 122.346 170.025 122.505C170.901 124.097 171.697 125.769 172.334 127.52C173.926 127.759 175.597 127.599 177.11 127.042C177.348 126.963 177.587 127.042 177.667 127.281C177.746 127.52 177.587 127.759 177.348 127.918C176.234 128.316 174.96 128.555 173.687 128.555Z" fill="#D1D3D4"/>
<path d="M130.703 138.584C129.35 138.584 128.235 137.47 128.235 136.117C128.235 134.763 129.35 133.649 130.703 133.649C132.056 133.649 133.171 134.763 133.171 136.117C133.171 137.47 132.056 138.584 130.703 138.584ZM130.703 134.604C129.907 134.604 129.191 135.321 129.191 136.117C129.191 136.913 129.907 137.629 130.703 137.629C131.499 137.629 132.215 136.913 132.215 136.117C132.215 135.321 131.579 134.684 130.703 134.604Z" fill="#D1D3D4"/>
<path d="M341.006 254.482C339.812 254.482 338.937 253.526 338.937 252.412C338.937 251.218 339.892 250.342 341.006 250.342C342.121 250.342 343.076 251.298 343.076 252.412C343.076 253.606 342.121 254.482 341.006 254.482ZM341.006 251.218C340.369 251.218 339.892 251.696 339.892 252.412C339.892 253.128 340.369 253.526 341.086 253.526C341.802 253.526 342.2 253.049 342.2 252.412C342.2 251.775 341.643 251.218 341.006 251.218Z" fill="#D1D3D4"/>
<path d="M54.4461 262.919C53.0133 262.919 51.8989 261.805 51.8989 260.372C51.8989 258.939 53.0133 257.825 54.4461 257.825C55.8789 257.825 56.9933 258.939 56.9933 260.372C57.0729 261.725 55.8789 262.919 54.4461 262.919ZM54.4461 258.701C53.5705 258.701 52.8541 259.417 52.8541 260.293C52.8541 261.168 53.5705 261.885 54.4461 261.885C55.3217 261.885 56.0381 261.168 56.0381 260.293C56.0381 259.417 55.4013 258.701 54.4461 258.701Z" fill="#D1D3D4"/>
<path d="M55.8791 220.254C55.6403 220.254 55.4811 220.095 55.4015 219.935C55.0831 218.98 54.2075 218.343 53.2523 217.627C52.9339 217.388 52.6155 217.149 52.2971 216.911C51.3419 216.115 50.7847 215 50.7051 213.806C50.7051 213.169 51.0235 212.533 51.5011 212.135C51.7399 211.975 51.9787 211.975 52.1379 212.214C52.2971 212.453 52.2971 212.692 52.0583 212.851C51.7399 213.09 51.6603 213.408 51.6603 213.806C51.7399 214.761 52.2175 215.637 52.9339 216.194C53.2523 216.433 53.5707 216.672 53.8891 216.911C54.9239 217.627 56.0383 218.423 56.4363 219.697C56.5159 219.935 56.3567 220.174 56.1179 220.254H55.8791Z" fill="#D1D3D4"/>
<path d="M173.369 177.349C173.21 177.349 173.05 177.27 172.971 177.111C172.891 176.872 172.971 176.633 173.21 176.474C175.836 175.121 177.11 172.175 176.394 169.389C176.314 169.151 176.473 168.912 176.792 168.832C177.03 168.753 177.269 168.912 177.349 169.151C178.224 172.414 176.712 175.837 173.687 177.349C173.528 177.349 173.448 177.349 173.369 177.349Z" fill="#D1D3D4"/>
<path d="M346.18 206.96C345.941 206.96 345.703 206.801 345.703 206.562C345.464 205.05 344.111 203.936 342.598 204.095C342.359 204.095 342.121 203.936 342.041 203.697C342.041 203.458 342.2 203.219 342.439 203.14C344.509 202.901 346.339 204.334 346.658 206.403C346.658 206.722 346.499 206.96 346.18 206.96C346.26 206.96 346.26 206.96 346.18 206.96Z" fill="#D1D3D4"/>
<path d="M90.6643 303.038C90.5847 303.038 90.5847 303.038 90.5051 303.038C90.2663 302.958 90.1071 302.719 90.1867 302.481C91.0623 299.535 93.5299 297.466 96.5547 297.068C96.7935 297.068 97.0323 297.227 97.1119 297.466C97.1119 297.705 96.9527 297.943 96.7139 297.943C94.0871 298.262 91.8583 300.093 91.1419 302.64C91.0623 302.879 90.9031 303.038 90.6643 303.038Z" fill="#D1D3D4"/>
<path d="M243.178 134.445C241.267 134.445 239.755 132.933 239.755 131.022C239.755 129.112 241.267 127.599 243.178 127.599C245.088 127.599 246.6 129.112 246.6 131.022C246.6 132.933 245.088 134.445 243.178 134.445ZM243.178 128.555C241.824 128.555 240.71 129.669 240.71 131.022C240.71 132.375 241.824 133.49 243.178 133.49C244.531 133.49 245.645 132.375 245.645 131.022C245.645 129.669 244.531 128.555 243.178 128.555Z" fill="#D1D3D4"/>
</svg>
