<svg width="20" height="20" viewBox="0 0 20 20" fill="none" xmlns="http://www.w3.org/2000/svg">
<path d="M14.1318 8.125C13.7866 8.12501 13.5068 7.84518 13.5068 7.50001L13.5068 1.66667C13.5068 1.32149 13.7866 1.04167 14.1318 1.04167C14.477 1.04167 14.7568 1.32149 14.7568 1.66667L14.7568 7.50001C14.7568 7.84518 14.477 8.125 14.1318 8.125Z" fill="white"/>
<path fill-rule="evenodd" clip-rule="evenodd" d="M5.83301 4.79167C7.5589 4.79167 8.95801 6.19078 8.95801 7.91667C8.95801 9.64256 7.5589 11.0417 5.83301 11.0417C4.10712 11.0417 2.70801 9.64256 2.70801 7.91667C2.70801 6.19078 4.10712 4.79167 5.83301 4.79167ZM7.70801 7.91667C7.70801 6.88114 6.86854 6.04167 5.83301 6.04167C4.79747 6.04167 3.95801 6.88114 3.95801 7.91667C3.95801 8.95221 4.79747 9.79167 5.83301 9.79167C6.86854 9.79167 7.70801 8.95221 7.70801 7.91667Z" fill="white"/>
<path fill-rule="evenodd" clip-rule="evenodd" d="M14.1663 15.2083C15.8922 15.2083 17.2913 13.8092 17.2913 12.0833C17.2913 10.3574 15.8922 8.95834 14.1663 8.95834C12.4405 8.95834 11.0413 10.3574 11.0413 12.0833C11.0413 13.8092 12.4405 15.2083 14.1663 15.2083ZM16.0413 12.0833C16.0413 13.1189 15.2019 13.9583 14.1663 13.9583C13.1308 13.9583 12.2913 13.1189 12.2913 12.0833C12.2913 11.0478 13.1308 10.2083 14.1663 10.2083C15.2019 10.2083 16.0413 11.0478 16.0413 12.0833Z" fill="white"/>
<path d="M5.17344 12.5C5.17344 12.1548 5.45326 11.875 5.79844 11.875C6.14362 11.875 6.42344 12.1548 6.42344 12.5V18.3333C6.42344 18.6785 6.14362 18.9583 5.79844 18.9583C5.45326 18.9583 5.17344 18.6785 5.17344 18.3333V12.5Z" fill="white"/>
<path d="M14.1318 18.9583C13.7866 18.9583 13.5068 18.6785 13.5068 18.3333V16.6667C13.5068 16.3215 13.7866 16.0417 14.1318 16.0417C14.477 16.0417 14.7568 16.3215 14.7568 16.6667V18.3333C14.7568 18.6785 14.477 18.9583 14.1318 18.9583Z" fill="white"/>
<path d="M5.17344 1.66667C5.17344 1.32149 5.45326 1.04167 5.79844 1.04167C6.14362 1.04167 6.42344 1.32149 6.42344 1.66667V3.33334C6.42344 3.67852 6.14362 3.95834 5.79844 3.95834C5.45326 3.95834 5.17344 3.67852 5.17344 3.33334V1.66667Z" fill="white"/>
</svg>
