<svg width="20" height="20" viewBox="0 0 20 20" fill="none" xmlns="http://www.w3.org/2000/svg">
<path fill-rule="evenodd" clip-rule="evenodd" d="M9.99935 2.29156C5.74215 2.29156 2.29102 5.7427 2.29102 9.9999C2.29102 14.2571 5.74215 17.7082 9.99935 17.7082C14.2565 17.7082 17.7077 14.2571 17.7077 9.9999C17.7077 5.7427 14.2565 2.29156 9.99935 2.29156ZM1.04102 9.9999C1.04102 5.05235 5.0518 1.04156 9.99935 1.04156C14.9469 1.04156 18.9577 5.05235 18.9577 9.9999C18.9577 14.9474 14.9469 18.9582 9.99935 18.9582C5.0518 18.9582 1.04102 14.9474 1.04102 9.9999ZM9.99935 6.45823C9.48158 6.45823 9.06185 6.87796 9.06185 7.39573C9.06185 7.74091 8.78203 8.02073 8.43685 8.02073C8.09167 8.02073 7.81185 7.74091 7.81185 7.39573C7.81185 6.18761 8.79123 5.20823 9.99935 5.20823C11.2075 5.20823 12.1868 6.18761 12.1868 7.39573C12.1868 8.19851 11.7541 8.89954 11.1121 9.27937C10.9481 9.37637 10.8128 9.48229 10.7246 9.5862C10.639 9.68709 10.6243 9.7529 10.6243 9.79156V10.8332C10.6243 11.1784 10.3445 11.4582 9.99935 11.4582C9.65417 11.4582 9.37435 11.1784 9.37435 10.8332V9.79156C9.37435 9.36999 9.55891 9.02793 9.77151 8.77741C9.98154 8.52992 10.2434 8.3409 10.4756 8.20356C10.753 8.03939 10.9368 7.73869 10.9368 7.39573C10.9368 6.87796 10.5171 6.45823 9.99935 6.45823ZM9.99935 14.1666C10.4596 14.1666 10.8327 13.7935 10.8327 13.3332C10.8327 12.873 10.4596 12.4999 9.99935 12.4999C9.53911 12.4999 9.16602 12.873 9.16602 13.3332C9.16602 13.7935 9.53911 14.1666 9.99935 14.1666Z" fill="white"/>
</svg>
