<svg width="18" height="18" viewBox="0 0 18 18" fill="none" xmlns="http://www.w3.org/2000/svg">
<path d="M6.87257 11.8313C6.59526 11.6257 6.20383 11.6839 5.99829 11.9612C5.79274 12.2385 5.85091 12.6299 6.12821 12.8355C6.93856 13.4361 7.92958 13.7917 9.00039 13.7917C10.0712 13.7917 11.0622 13.4361 11.8726 12.8355C12.1499 12.6299 12.208 12.2385 12.0025 11.9612C11.7969 11.6839 11.4055 11.6257 11.1282 11.8313C10.5213 12.2811 9.78864 12.5417 9.00039 12.5417C8.21214 12.5417 7.47952 12.2811 6.87257 11.8313Z" fill="white" fill-opacity="0.5"/>
<path fill-rule="evenodd" clip-rule="evenodd" d="M9.00033 0.0418701C8.39611 0.0418701 7.84483 0.207797 7.24139 0.489456C6.65726 0.762106 5.98176 1.1645 5.13519 1.66881L3.92217 2.39139C2.98958 2.94692 2.24645 3.3896 1.68378 3.8129C1.10294 4.24989 0.666983 4.69987 0.382885 5.29247C0.0986471 5.88536 0.0216093 6.50587 0.0463203 7.23007C0.0702391 7.93106 0.192868 8.78325 0.346629 9.85178L0.590257 11.5449C0.788081 12.9199 0.945063 14.0109 1.17959 14.8603C1.42135 15.736 1.76437 16.431 2.38337 16.964C3.00186 17.4965 3.74186 17.7347 4.64728 17.8483C5.52661 17.9586 6.636 17.9585 8.03558 17.9585H9.96505C11.3646 17.9585 12.474 17.9586 13.3534 17.8483C14.2588 17.7347 14.9988 17.4965 15.6173 16.964C16.2363 16.431 16.5793 15.736 16.8211 14.8603C17.0556 14.0109 17.2126 12.9199 17.4104 11.545L17.654 9.85175C17.8078 8.78324 17.9304 7.93105 17.9543 7.23007C17.979 6.50587 17.902 5.88536 17.6178 5.29247C17.3337 4.69987 16.8977 4.24989 16.3169 3.8129C15.7542 3.3896 15.0111 2.94692 14.0785 2.3914L12.8655 1.66881C12.0189 1.1645 11.3434 0.762106 10.7593 0.489456C10.1558 0.207797 9.60455 0.0418701 9.00033 0.0418701ZM5.74664 2.75955C6.6279 2.23459 7.24969 1.86505 7.77008 1.62215C8.27767 1.38523 8.64262 1.29187 9.00033 1.29187C9.35804 1.29187 9.72299 1.38523 10.2306 1.62215C10.751 1.86504 11.3728 2.23459 12.254 2.75954L13.408 3.44699C14.3783 4.02497 15.063 4.43382 15.5654 4.81179C16.0558 5.18072 16.3243 5.48599 16.4906 5.83284C16.6568 6.17941 16.7259 6.57801 16.7051 7.18744C16.6837 7.81232 16.5717 8.59713 16.4116 9.70942L16.1793 11.3239C15.9739 12.7515 15.8271 13.7637 15.6161 14.5277C15.41 15.2743 15.1619 15.7066 14.8017 16.0167C14.4409 16.3274 13.9733 16.5107 13.1978 16.608C12.4053 16.7074 11.3743 16.7085 9.92206 16.7085H8.0786C6.62636 16.7085 5.59537 16.7074 4.80282 16.608C4.02737 16.5107 3.55973 16.3274 3.199 16.0167C2.83878 15.7066 2.59064 15.2743 2.38451 14.5277C2.17358 13.7637 2.02675 12.7515 1.82132 11.3239L1.58902 9.70941C1.42897 8.59712 1.31691 7.81231 1.29559 7.18744C1.2748 6.57801 1.3439 6.17941 1.51005 5.83284C1.67633 5.48599 1.94489 5.18072 2.43527 4.81179C2.93767 4.43382 3.62235 4.02498 4.59261 3.447L5.74664 2.75955Z" fill="white" fill-opacity="0.5"/>
</svg>
