<svg width="20" height="20" viewBox="0 0 20 20" fill="none" xmlns="http://www.w3.org/2000/svg">
<path fill-rule="evenodd" clip-rule="evenodd" d="M10.9216 18.3334H9.07811C6.20598 18.3334 4.76991 18.3334 3.79069 17.4902C2.81147 16.647 2.60838 15.2356 2.2022 12.4127L1.9699 10.7982C1.65369 8.6007 1.49559 7.50193 1.94598 6.56247C2.39636 5.62302 3.35499 5.05197 5.27226 3.90986L6.42629 3.22241C8.16737 2.18526 9.03791 1.66669 9.99984 1.66669C10.9618 1.66669 11.8323 2.18526 13.5734 3.22241L14.7274 3.90986C16.6447 5.05197 17.6033 5.62302 18.0537 6.56247C18.5041 7.50193 18.346 8.6007 18.0298 10.7982L17.7975 12.4127C17.3913 15.2356 17.1882 16.647 16.209 17.4902C15.2298 18.3334 13.7937 18.3334 10.9216 18.3334ZM6.99782 12.961C7.20336 12.6837 7.59479 12.6255 7.8721 12.8311C8.47905 13.281 9.21167 13.5415 9.99992 13.5415C10.7882 13.5415 11.5208 13.281 12.1277 12.8311C12.405 12.6255 12.7965 12.6837 13.002 12.961C13.2076 13.2383 13.1494 13.6297 12.8721 13.8353C12.0618 14.4359 11.0707 14.7915 9.99992 14.7915C8.92911 14.7915 7.93809 14.4359 7.12774 13.8353C6.85044 13.6297 6.79227 13.2383 6.99782 12.961Z" fill="#EC78D5"/>
</svg>
