<svg width="398" height="398" viewBox="0 0 398 398" fill="none" xmlns="http://www.w3.org/2000/svg">
<path d="M252.085 282.055C252.085 282.055 281.537 271.015 284.849 235.887L266.398 216.067L241.045 265.021" fill="white"/>
<path d="M252.085 282.628C251.948 282.633 251.814 282.588 251.707 282.503C251.6 282.417 251.527 282.295 251.502 282.16C251.477 282.025 251.502 281.886 251.571 281.767C251.64 281.649 251.749 281.559 251.878 281.514C260.836 277.511 268.561 271.187 274.253 263.195C279.945 255.204 283.397 245.836 284.252 236.062L266.533 217.03L241.562 265.26C241.493 265.396 241.372 265.499 241.226 265.546C241.081 265.593 240.922 265.58 240.786 265.51C240.65 265.441 240.547 265.32 240.5 265.174C240.453 265.029 240.466 264.87 240.535 264.734L265.864 215.78C265.906 215.699 265.967 215.629 266.042 215.576C266.117 215.523 266.203 215.49 266.294 215.478C266.386 215.462 266.48 215.47 266.567 215.501C266.655 215.531 266.734 215.584 266.796 215.653L285.247 235.473C285.303 235.532 285.345 235.603 285.371 235.68C285.397 235.757 285.406 235.838 285.398 235.919C282.079 271.023 252.555 282.477 252.261 282.589C252.205 282.614 252.146 282.627 252.085 282.628Z" fill="#231F20"/>
<path d="M309.246 312.319L365.038 311.237L364.266 240.99L282.342 243.943L270.943 312.319H309.246Z" fill="#231F20"/>
<path d="M309.246 312.876H270.942C270.862 312.876 270.782 312.858 270.709 312.824C270.636 312.79 270.572 312.74 270.521 312.677C270.469 312.615 270.431 312.542 270.409 312.464C270.387 312.386 270.382 312.304 270.393 312.224L281.784 243.855C281.806 243.728 281.871 243.612 281.968 243.526C282.065 243.441 282.188 243.391 282.317 243.386L364.242 240.433C364.388 240.432 364.53 240.485 364.64 240.584C364.695 240.634 364.739 240.696 364.769 240.764C364.799 240.833 364.815 240.907 364.815 240.982L365.611 311.229C365.611 311.376 365.553 311.517 365.451 311.623C365.348 311.728 365.209 311.79 365.061 311.794L309.278 312.876H309.246ZM271.603 311.762H309.246L364.472 310.687L363.716 241.563L282.819 244.484L271.603 311.762Z" fill="#231F20"/>
<path d="M375.792 163.054C370.793 156.256 358.853 152.706 350.805 151.4C343.052 150.174 335.307 151.4 327.53 150.739C320.408 150.319 313.264 151.015 306.357 152.801C280.399 159.997 256.312 197.552 256.312 197.552L282.763 198.953C282.763 198.953 278.926 226.622 267.894 287.261C313.847 288.893 367.306 293.462 367.306 293.462C367.306 293.462 367.537 280.774 368.102 268.285C372.249 264.408 372.082 258.231 372.878 254.665C373.857 250.064 371.875 200.028 371.875 200.028L377.901 197.743C377.901 197.743 377.973 166.015 375.792 163.054Z" fill="#EC78D5"/>
<path d="M326.91 89.0256C325.127 88.9395 323.343 89.1823 321.648 89.742C319.141 90.8166 316.705 96.7229 314.962 105.949C313.441 113.929 312.787 122.05 313.011 130.171C313.034 130.89 313.228 131.594 313.577 132.224C313.926 132.854 314.42 133.391 315.017 133.793C322.762 139.365 349.285 132.559 352.103 131.811C353.432 129.247 365.635 105.248 359.617 98.8005C354.332 93.133 336.621 89.0256 326.91 89.0256Z" fill="white"/>
<path d="M325.413 137.12C320.836 137.12 316.784 136.483 314.348 134.732C313.611 134.229 313.002 133.56 312.57 132.779C312.139 131.998 311.897 131.126 311.865 130.234C311.212 117.666 314.699 91.4851 321.194 88.6911C327.562 85.9688 353.527 90.5856 360.461 98.0202C367.394 105.455 353.591 131.452 353.002 132.575C352.965 132.644 352.914 132.705 352.853 132.755C352.791 132.804 352.72 132.84 352.644 132.861C351.776 133.092 336.931 137.12 325.413 137.12ZM326.909 89.0254C325.126 88.9393 323.343 89.1821 321.648 89.7418C319.14 90.8164 316.705 96.7228 314.961 105.948C313.44 113.929 312.786 122.05 313.011 130.171C313.034 130.89 313.228 131.594 313.577 132.224C313.926 132.853 314.419 133.391 315.017 133.792C322.762 139.364 349.285 132.559 352.103 131.81C353.432 129.247 365.635 105.248 359.617 98.8003C354.331 93.1328 336.62 89.0254 326.909 89.0254Z" fill="#231F20"/>
<path d="M313.974 162.345L293.812 294.951L317.883 297.371L345.265 162.067L313.974 162.345Z" fill="#231F20"/>
<path d="M317.883 297.928H317.827L293.756 295.54C293.682 295.533 293.609 295.512 293.543 295.476C293.478 295.441 293.42 295.392 293.374 295.333C293.327 295.272 293.294 295.203 293.274 295.129C293.255 295.055 293.251 294.978 293.263 294.903L313.425 162.297C313.445 162.166 313.511 162.046 313.612 161.959C313.713 161.873 313.842 161.826 313.975 161.828L345.257 161.549C345.34 161.547 345.422 161.565 345.497 161.601C345.572 161.637 345.637 161.69 345.687 161.756C345.741 161.819 345.78 161.893 345.801 161.973C345.821 162.053 345.823 162.137 345.807 162.218L318.424 297.538C318.388 297.652 318.316 297.752 318.218 297.823C318.121 297.893 318.003 297.93 317.883 297.928ZM294.449 294.449L317.437 296.766L344.581 162.632L314.46 162.894L294.449 294.449Z" fill="#231F20"/>
<path d="M317.549 145.724L314.086 162.385C314.086 162.385 317.772 173.425 328.947 172.263C332.25 171.886 335.428 170.779 338.25 169.022C341.073 167.266 343.469 164.903 345.265 162.106L349.245 131.548C349.245 131.548 341.795 126.191 346.491 109.077C337.126 111.698 327.227 111.747 317.835 109.22C317.835 109.22 310.385 127.464 310.568 136.021C310.751 144.578 317.549 145.724 317.549 145.724Z" fill="white"/>
<path d="M327.339 172.884C317.119 172.884 313.576 162.632 313.545 162.536C313.521 162.437 313.521 162.333 313.545 162.234L316.896 146.146C315.168 145.613 310.162 143.432 310.01 136.005C309.827 127.425 317.007 109.737 317.318 108.941C317.371 108.813 317.469 108.709 317.593 108.647C317.718 108.586 317.86 108.571 317.994 108.607C327.26 111.074 337.014 111.036 346.26 108.496C346.359 108.461 346.466 108.454 346.569 108.477C346.671 108.499 346.766 108.55 346.841 108.623C346.916 108.694 346.971 108.784 346.999 108.884C347.027 108.983 347.027 109.088 347 109.188C342.463 125.729 349.468 130.991 349.532 131.038C349.616 131.099 349.683 131.181 349.725 131.276C349.767 131.372 349.783 131.476 349.77 131.58L345.79 162.138C345.784 162.214 345.759 162.288 345.719 162.353C343.894 165.235 341.444 167.67 338.55 169.476C335.657 171.283 332.394 172.415 329.003 172.789C328.45 172.851 327.895 172.882 327.339 172.884ZM314.683 162.305C315.16 163.619 318.854 172.653 328.891 171.65C338.929 170.647 344.127 162.815 344.708 161.875L348.648 131.755C347.311 130.585 341.898 124.758 345.687 109.873C336.664 112.152 327.216 112.152 318.193 109.873C317.039 112.77 311.029 128.388 311.157 135.982C311.324 143.942 317.413 145.12 317.668 145.159C317.819 145.191 317.953 145.279 318.042 145.406C318.085 145.469 318.116 145.541 318.131 145.616C318.146 145.691 318.145 145.769 318.129 145.844L314.683 162.305Z" fill="#231F20"/>
<path d="M342.957 130.123C343.528 128.688 344.547 127.477 345.862 126.668C347.123 125.974 348.493 125.5 349.914 125.267C350.676 125.055 351.476 125.019 352.254 125.164C352.789 125.333 353.286 125.603 353.719 125.96C354.809 126.689 355.603 127.785 355.955 129.048C356.12 130.092 356.027 131.161 355.685 132.161C355.403 133.274 354.975 134.344 354.411 135.345C353.825 136.326 353.049 137.182 352.13 137.862C351.211 138.543 350.166 139.034 349.056 139.308C347.945 139.582 346.792 139.633 345.661 139.458C344.531 139.283 343.447 138.886 342.471 138.29" fill="white"/>
<path d="M346.993 140.097C345.284 140.1 343.609 139.629 342.153 138.736C342.023 138.655 341.93 138.527 341.895 138.378C341.86 138.23 341.886 138.073 341.966 137.944C342.046 137.814 342.175 137.721 342.323 137.686C342.472 137.651 342.628 137.676 342.758 137.757C344.604 138.87 346.813 139.215 348.911 138.72C351.005 138.194 352.805 136.861 353.918 135.01C354.455 134.055 354.861 133.033 355.128 131.97C355.445 131.061 355.538 130.089 355.398 129.136C355.062 128.012 354.348 127.039 353.376 126.382C353.003 126.077 352.573 125.85 352.111 125.713C351.419 125.597 350.709 125.635 350.033 125.825C348.678 126.041 347.369 126.488 346.165 127.146C344.951 127.888 344.012 129.006 343.49 130.33C343.434 130.471 343.324 130.585 343.185 130.645C343.045 130.706 342.887 130.708 342.746 130.652C342.604 130.596 342.491 130.487 342.431 130.347C342.37 130.207 342.368 130.049 342.423 129.908C343.035 128.351 344.139 127.037 345.568 126.167C346.882 125.437 348.311 124.939 349.794 124.694C350.643 124.464 351.534 124.432 352.397 124.599C353.002 124.777 353.566 125.068 354.061 125.458C355.269 126.267 356.143 127.486 356.521 128.889C356.7 130.023 356.605 131.183 356.242 132.272C355.945 133.433 355.496 134.549 354.905 135.591C354.092 136.966 352.935 138.105 351.547 138.896C350.16 139.686 348.59 140.1 346.993 140.097Z" fill="#231F20"/>
<path d="M316.211 154.035C316.211 154.035 322.396 155.873 327.785 151.909C333.174 147.945 333.111 145.231 333.111 145.231C333.111 145.231 324.856 148.415 317.987 146.027L316.211 154.035Z" fill="#231F20"/>
<path d="M319.753 155.022C318.508 155.032 317.266 154.879 316.06 154.568C315.925 154.527 315.811 154.438 315.739 154.317C315.667 154.196 315.642 154.053 315.67 153.915L317.413 145.955C317.429 145.879 317.462 145.806 317.509 145.743C317.555 145.68 317.615 145.627 317.684 145.589C317.75 145.55 317.825 145.526 317.902 145.519C317.979 145.512 318.057 145.522 318.13 145.549C324.768 147.834 332.832 144.753 332.911 144.753C332.995 144.723 333.084 144.711 333.173 144.721C333.261 144.731 333.346 144.761 333.421 144.809C333.496 144.859 333.558 144.926 333.601 145.005C333.644 145.084 333.667 145.173 333.667 145.263C333.667 145.382 333.667 148.32 328.095 152.427C325.664 154.162 322.74 155.071 319.753 155.022ZM316.872 153.629C318.69 154.008 320.567 154.012 322.387 153.641C324.208 153.27 325.933 152.532 327.459 151.472C330.746 149.084 331.916 147.133 332.33 146.099C329.99 146.839 323.893 148.415 318.368 146.767L316.872 153.629Z" fill="#231F20"/>
<path d="M327.523 120.842C327.523 120.842 320.446 128.308 321.537 129.996C322.627 131.683 326.543 131.357 326.543 131.357" fill="white"/>
<path d="M325.715 131.946C324.394 131.946 321.99 131.739 321.067 130.298C319.865 128.435 324.896 122.8 327.116 120.459C327.168 120.406 327.23 120.364 327.298 120.336C327.367 120.307 327.44 120.292 327.514 120.292C327.588 120.292 327.662 120.307 327.73 120.336C327.799 120.364 327.86 120.406 327.912 120.459C327.966 120.511 328.009 120.572 328.039 120.641C328.068 120.709 328.083 120.783 328.083 120.857C328.083 120.932 328.068 121.005 328.039 121.074C328.009 121.142 327.966 121.204 327.912 121.255C324.306 125.068 321.544 129.024 321.998 129.725C322.738 130.879 325.564 130.911 326.487 130.839C326.563 130.826 326.641 130.829 326.716 130.848C326.791 130.866 326.861 130.9 326.922 130.947C326.983 130.995 327.034 131.054 327.07 131.121C327.107 131.189 327.13 131.264 327.136 131.34C327.143 131.417 327.134 131.495 327.109 131.568C327.084 131.641 327.044 131.708 326.992 131.764C326.94 131.821 326.877 131.867 326.807 131.898C326.736 131.929 326.66 131.945 326.583 131.946C326.48 131.922 326.161 131.946 325.715 131.946Z" fill="#231F20"/>
<path d="M338.424 122.759C338.834 121.739 338.578 120.676 337.852 120.383C337.126 120.091 336.205 120.681 335.795 121.701C335.384 122.72 335.64 123.784 336.366 124.076C337.092 124.368 338.013 123.778 338.424 122.759Z" fill="#231F20"/>
<path d="M322.944 119.223C323.351 118.201 323.091 117.137 322.363 116.848C321.635 116.558 320.716 117.152 320.309 118.174C319.902 119.196 320.163 120.26 320.89 120.549C321.618 120.839 322.538 120.245 322.944 119.223Z" fill="#231F20"/>
<path d="M326.528 141.347C325.956 141.342 325.388 141.272 324.832 141.14C317.135 139.277 317.31 130.274 317.31 130.187C317.31 130.039 317.369 129.897 317.473 129.793C317.578 129.688 317.719 129.63 317.867 129.63C318.015 129.63 318.157 129.688 318.261 129.793C318.366 129.897 318.424 130.039 318.424 130.187C318.424 130.521 318.281 138.378 325.095 140.017C331.909 141.657 335.299 130.871 335.331 130.76C335.376 130.618 335.474 130.5 335.606 130.432C335.737 130.363 335.89 130.349 336.032 130.394C336.173 130.438 336.291 130.537 336.36 130.668C336.429 130.799 336.442 130.953 336.398 131.094C336.255 131.572 333.134 141.347 326.528 141.347Z" fill="#231F20"/>
<path d="M82.9595 167.065L124.614 213.742L182.897 234.128L175.455 249.53C175.455 249.53 137.613 243.823 122.72 242.143C107.827 240.464 88.9852 218.104 88.9852 218.104L82.9595 167.065Z" fill="white"/>
<path d="M175.455 250.087H175.367C174.993 250.032 137.374 244.364 122.656 242.709C107.707 241.021 89.3353 219.386 88.5552 218.462C88.4869 218.378 88.4453 218.276 88.4358 218.168L82.4022 167.16C82.3885 167.042 82.4127 166.923 82.4714 166.82C82.5301 166.717 82.6202 166.635 82.7285 166.587C82.8362 166.537 82.9572 166.523 83.0734 166.547C83.1897 166.572 83.2949 166.633 83.3733 166.722L124.972 213.257L183.08 233.602C183.155 233.628 183.223 233.668 183.281 233.722C183.338 233.775 183.384 233.84 183.415 233.913C183.448 233.984 183.465 234.061 183.465 234.14C183.465 234.218 183.448 234.296 183.415 234.366L175.972 249.769C175.926 249.867 175.852 249.949 175.76 250.005C175.669 250.062 175.562 250.09 175.455 250.087ZM89.4866 217.865C91.0786 219.664 108.813 240.018 122.751 241.586C136.689 243.154 170.965 248.296 175.096 248.917L182.093 234.446L124.399 214.267C124.31 214.234 124.231 214.18 124.168 214.108L83.6837 168.736L89.4866 217.865Z" fill="#231F20"/>
<path d="M281.848 99.4447H125.187V266.692H281.848V99.4447Z" fill="#272727"/>
<path d="M281.848 267.241H125.187C125.039 267.241 124.898 267.183 124.793 267.078C124.689 266.974 124.63 266.832 124.63 266.684V99.4446C124.63 99.2968 124.689 99.1551 124.793 99.0506C124.898 98.9461 125.039 98.8874 125.187 98.8874H281.848C281.996 98.8874 282.137 98.9461 282.242 99.0506C282.346 99.1551 282.405 99.2968 282.405 99.4446V266.66C282.408 266.735 282.396 266.81 282.37 266.881C282.343 266.951 282.303 267.016 282.251 267.07C282.198 267.124 282.136 267.167 282.067 267.197C281.998 267.226 281.923 267.241 281.848 267.241ZM125.768 266.127H281.291V100.002H125.768V266.127Z" fill="white" fill-opacity="0.1"/>
<path d="M271.731 112.308H135.304V235.083H271.731V112.308Z" fill="#272727"/>
<path d="M271.731 235.616H135.32C135.173 235.616 135.031 235.558 134.926 235.453C134.822 235.349 134.763 235.207 134.763 235.059V112.308C134.763 112.16 134.822 112.019 134.926 111.914C135.031 111.81 135.173 111.751 135.32 111.751H271.731C271.879 111.751 272.02 111.81 272.125 111.914C272.229 112.019 272.288 112.16 272.288 112.308V235.083C272.282 235.227 272.221 235.362 272.117 235.462C272.013 235.561 271.875 235.617 271.731 235.616ZM135.862 234.502H271.182V112.865H135.862V234.502Z" fill="white" fill-opacity="0.1"/>
<path d="M270.72 247.461H155.22C155.147 247.461 155.075 247.446 155.007 247.418C154.939 247.39 154.878 247.349 154.826 247.298C154.775 247.246 154.734 247.184 154.705 247.117C154.677 247.049 154.663 246.977 154.663 246.904C154.663 246.83 154.677 246.758 154.705 246.69C154.734 246.623 154.775 246.561 154.826 246.51C154.878 246.458 154.939 246.417 155.007 246.389C155.075 246.361 155.147 246.346 155.22 246.346H270.72C270.793 246.346 270.866 246.361 270.933 246.389C271.001 246.417 271.062 246.458 271.114 246.51C271.166 246.561 271.207 246.623 271.235 246.69C271.263 246.758 271.277 246.83 271.277 246.904C271.277 246.977 271.263 247.049 271.235 247.117C271.207 247.184 271.166 247.246 271.114 247.298C271.062 247.349 271.001 247.39 270.933 247.418C270.866 247.446 270.793 247.461 270.72 247.461Z" fill="white" fill-opacity="0.1"/>
<path d="M241.984 256.137H155.22C155.073 256.137 154.931 256.078 154.826 255.974C154.722 255.869 154.663 255.728 154.663 255.58C154.663 255.432 154.722 255.29 154.826 255.186C154.931 255.081 155.073 255.023 155.22 255.023H241.984C242.132 255.023 242.274 255.081 242.378 255.186C242.483 255.29 242.541 255.432 242.541 255.58C242.541 255.728 242.483 255.869 242.378 255.974C242.274 256.078 242.132 256.137 241.984 256.137Z" fill="white" fill-opacity="0.1"/>
<path d="M141.728 255.58C145.276 255.58 148.152 252.704 148.152 249.156C148.152 245.609 145.276 242.733 141.728 242.733C138.18 242.733 135.304 245.609 135.304 249.156C135.304 252.704 138.18 255.58 141.728 255.58Z" fill="#272727"/>
<path d="M141.728 256.137C140.347 256.137 138.998 255.728 137.85 254.961C136.702 254.193 135.807 253.103 135.278 251.828C134.75 250.552 134.612 249.148 134.881 247.794C135.151 246.44 135.815 245.196 136.792 244.22C137.768 243.244 139.012 242.579 140.366 242.309C141.72 242.04 143.124 242.178 144.399 242.707C145.675 243.235 146.765 244.13 147.532 245.278C148.299 246.426 148.709 247.775 148.709 249.156C148.709 250.073 148.528 250.981 148.178 251.828C147.827 252.675 147.312 253.444 146.664 254.092C146.016 254.741 145.246 255.255 144.399 255.606C143.553 255.956 142.645 256.137 141.728 256.137ZM141.728 243.29C140.568 243.29 139.433 243.634 138.469 244.278C137.504 244.923 136.752 245.839 136.308 246.911C135.864 247.983 135.748 249.163 135.974 250.301C136.201 251.439 136.759 252.484 137.58 253.304C138.4 254.125 139.445 254.684 140.583 254.91C141.721 255.136 142.901 255.02 143.973 254.576C145.045 254.132 145.961 253.38 146.606 252.415C147.25 251.451 147.595 250.316 147.595 249.156C147.592 247.601 146.974 246.11 145.874 245.01C144.774 243.91 143.283 243.292 141.728 243.29Z" fill="white" fill-opacity="0.1"/>
<path d="M103.21 143.933C102.629 140.016 101.053 136.331 99.8108 132.574C96.802 123.476 96.3642 114.083 93.212 105.008C89.1683 93.3469 81.3994 84.8456 67.8116 85.3232C65.0847 85.3395 62.423 86.1581 60.1582 87.677C57.8934 89.1958 56.1257 91.3477 55.0756 93.8643C48.644 90.3221 40.079 97.5339 39.7765 104.125C39.3308 113.86 39.9516 122.154 35.7249 131.372C32.5409 138.369 27.542 144.904 27.1281 152.617C26.7221 160.155 31.1081 167.486 37.3169 171.721C43.5257 175.956 51.422 177.389 58.9522 176.823C66.4823 176.258 73.7498 173.862 80.7307 170.989C84.1701 169.662 87.4686 167.995 90.5772 166.014C97.6696 161.278 104.547 152.983 103.21 143.933Z" fill="white"/>
<path d="M55.8318 177.508C48.6678 177.508 42.0929 175.661 36.9905 172.191C30.2484 167.614 26.1569 159.916 26.5549 152.593C26.8574 146.918 29.6036 141.823 32.2543 136.896C33.2732 135.018 34.3159 133.075 35.2075 131.141C38.6462 123.643 38.8213 116.917 39.0362 109.124C39.084 107.484 39.1238 105.812 39.2034 104.101C39.3785 100.264 42.2521 96.0454 46.1923 93.8405C49.1773 92.1609 52.21 91.9142 54.805 93.1082C55.9474 90.6238 57.7768 88.5182 60.0773 87.04C62.3778 85.5618 65.0533 84.7728 67.7877 84.7661C80.0939 84.3681 89.033 91.2694 93.7373 104.825C95.2334 109.476 96.3854 114.23 97.184 119.05C97.9492 123.565 99.0129 128.024 100.368 132.399C100.671 133.33 101.005 134.253 101.331 135.185C102.424 137.989 103.245 140.892 103.783 143.853C105.176 153.27 98.0357 161.723 90.8956 166.491C87.7567 168.494 84.4263 170.179 80.9536 171.522C75.0871 173.91 67.2863 176.784 58.9999 177.397C57.9173 177.508 56.8666 177.508 55.8318 177.508ZM51.3822 93.4823C49.7443 93.5194 48.1434 93.9772 46.7335 94.8116C43.1197 96.8414 40.477 100.678 40.3178 104.149C40.2382 105.86 40.1904 107.516 40.1506 109.148C39.9437 116.733 39.7526 123.905 36.2184 131.603C35.3109 133.569 34.2602 135.535 33.2413 137.422C30.6464 142.245 27.9559 147.228 27.6693 152.649C27.2952 159.598 31.1956 166.905 37.6193 171.275C43.2471 175.104 50.8011 176.887 58.8885 176.282C66.9758 175.677 74.7129 172.867 80.5078 170.487C83.9087 169.17 87.172 167.523 90.2509 165.568C97.1124 160.983 103.974 152.92 102.653 144.012C102.131 141.124 101.332 138.293 100.265 135.559C99.9302 134.62 99.6039 133.688 99.2934 132.749C97.9328 128.314 96.8691 123.793 96.1094 119.217C95.3191 114.452 94.1832 109.751 92.7105 105.152C88.1176 91.9142 79.7755 85.4268 67.8514 85.8407C65.2266 85.8522 62.6636 86.6377 60.4831 88.0989C58.3026 89.5601 56.6016 91.6321 55.593 94.0554C55.5618 94.1257 55.5158 94.1884 55.4581 94.2393C55.4004 94.2901 55.3324 94.3279 55.2587 94.3499C55.19 94.3814 55.1154 94.3977 55.0398 94.3977C54.9642 94.3977 54.8896 94.3814 54.8209 94.3499C53.7666 93.7742 52.5834 93.4756 51.3822 93.4823Z" fill="#231F20"/>
<path d="M103.393 174.069C102.923 172.231 102.422 170.4 101.872 168.585C100.392 163.713 98.6883 156.645 95.162 152.776C89.5184 146.52 76.7983 146.313 69.0692 146.273C57.1292 146.209 44.8946 149.019 35.1198 155.897C20.0674 166.483 17.2257 181.846 19.0087 198.984C20.9987 218.152 23.4902 237.272 26.1727 256.36C26.4434 258.326 29.6592 287.483 31.1159 287.499C31.2114 287.499 130.274 287.587 127.129 289.887C122.72 274.413 119.329 258.74 115.739 243.067C114.982 239.763 113.637 236.699 112.809 233.443C111.615 228.739 112.157 223.573 111.735 218.765C110.764 207.621 108.415 196.652 106.075 185.731C105.223 181.854 104.38 177.946 103.393 174.069Z" fill="#EC78D5"/>
<path d="M131.475 312.693L120.125 262.855L28.4094 270.409L27.2393 312.693H131.475Z" fill="#231F20"/>
<path d="M131.476 313.25H27.2396C27.09 313.249 26.9469 313.189 26.8416 313.083C26.7891 313.029 26.7479 312.966 26.7206 312.896C26.6932 312.826 26.6802 312.752 26.6824 312.677L27.8604 270.393C27.8638 270.256 27.9177 270.125 28.0117 270.025C28.1057 269.926 28.2332 269.864 28.3699 269.852L120.085 262.298C120.218 262.29 120.349 262.329 120.457 262.407C120.564 262.486 120.641 262.599 120.674 262.728L132.025 312.565C132.044 312.647 132.045 312.732 132.026 312.814C132.008 312.896 131.972 312.973 131.92 313.038C131.868 313.104 131.801 313.157 131.726 313.194C131.65 313.231 131.568 313.25 131.484 313.25H131.476ZM27.8127 312.136H130.775L119.687 263.476L28.943 270.943L27.8127 312.136Z" fill="#231F20"/>
<path d="M77.0691 188.238C77.3772 188.36 77.7019 188.435 78.0322 188.461C80.1178 188.62 81.7496 186.678 82.6092 184.776C84.5276 180.533 84.5276 175.701 84.2012 171.061C84.0022 168.338 83.6759 165.56 82.4819 163.101C81.4568 161.147 80.0776 159.4 78.4143 157.95C75.4452 155.188 71.8394 152.88 67.8036 152.378C63.7679 151.877 57.9014 154.05 56.6596 158.46C55.3622 163.236 60.377 168.012 62.8048 171.546C66.3163 176.609 70.1503 181.44 74.2831 186.009C75.0298 186.955 75.9827 187.717 77.0691 188.238Z" fill="#231F20"/>
<path d="M78.2788 189.034H77.9922C77.6074 189.007 77.2289 188.921 76.8699 188.779C75.7149 188.232 74.6997 187.429 73.9008 186.431C69.7515 181.852 65.9016 177.01 62.3747 171.936C61.9051 171.252 61.324 170.503 60.7031 169.715C58.1798 166.531 55.0435 162.48 56.15 158.388C57.3917 153.827 63.2105 151.344 67.8671 151.893C71.5207 152.323 75.1903 154.241 78.7882 157.576C80.5014 159.072 81.9189 160.875 82.9672 162.894C84.2488 165.52 84.5592 168.466 84.7423 171.06C85.0687 175.478 85.1244 180.612 83.1503 185.038C82.6807 185.97 81.0727 189.034 78.2788 189.034ZM77.2679 187.721C77.5227 187.821 77.791 187.882 78.0639 187.904C79.8151 188.055 81.3195 186.256 82.0916 184.545C84.002 180.318 83.9383 175.375 83.6279 171.1C83.4448 168.633 83.1503 165.791 81.9643 163.347C80.9624 161.449 79.6122 159.756 77.9843 158.356C74.5694 155.172 71.1068 153.365 67.692 152.959C63.5846 152.482 58.2594 154.695 57.1927 158.643C56.2216 162.193 59.1748 165.958 61.5469 168.991C62.1677 169.787 62.7647 170.583 63.2583 171.259C66.7543 176.303 70.5724 181.116 74.6888 185.667C75.3861 186.534 76.2669 187.235 77.2679 187.721Z" fill="#231F20"/>
<path d="M88.6826 110.111C88.6826 110.111 94.3103 123.086 92.6626 133.338C92.2723 136.202 91.0544 138.89 89.1582 141.072C87.262 143.254 84.7701 144.835 81.9882 145.62L83.1504 163.499C83.1504 163.499 83.835 172.645 72.5318 171.96C69.2604 171.756 66.0951 170.721 63.3346 168.954C60.5742 167.186 58.3097 164.744 56.755 161.859L53.3481 129.056C53.3481 129.056 65.5667 120.921 63.6961 109.156C63.7359 109.188 79.3057 115.508 88.6826 110.111Z" fill="white"/>
<path d="M73.7495 172.549C73.3515 172.549 72.9535 172.549 72.5317 172.549C61.0374 171.849 56.333 162.201 56.2853 162.129C56.2621 162.071 56.2461 162.009 56.2375 161.946L52.8307 129.111C52.8193 129.012 52.8356 128.91 52.8777 128.819C52.9198 128.728 52.9861 128.65 53.0694 128.594C53.1888 128.514 65.0094 120.515 63.1866 109.275C63.1703 109.178 63.1801 109.078 63.2151 108.985C63.25 108.893 63.3089 108.812 63.3856 108.75C63.4623 108.687 63.5548 108.646 63.6531 108.632C63.7513 108.618 63.8516 108.631 63.9428 108.67C64.0941 108.734 79.3693 114.823 88.4039 109.625C88.4719 109.584 88.5482 109.557 88.6275 109.548C88.7067 109.539 88.787 109.547 88.8628 109.572C88.9385 109.597 89.0079 109.638 89.0661 109.693C89.1244 109.747 89.17 109.814 89.1999 109.888C89.4307 110.421 94.8754 123.133 93.1799 133.426C92.771 136.308 91.5612 139.018 89.6882 141.247C87.8152 143.476 85.3542 145.135 82.5851 146.034L83.7154 163.467C83.7617 164.642 83.5745 165.815 83.1646 166.918C82.7547 168.02 82.1303 169.031 81.3274 169.89C79.6001 171.658 77.0689 172.549 73.7495 172.549ZM57.3121 161.7C58.8409 164.466 61.0399 166.804 63.7075 168.5C66.375 170.195 69.4256 171.193 72.5794 171.403C76.1534 171.618 78.836 170.846 80.5394 169.11C81.9244 167.592 82.6613 165.592 82.5931 163.538L81.4628 145.668C81.454 145.535 81.4934 145.403 81.5737 145.296C81.6541 145.19 81.7701 145.115 81.9006 145.087C82.2508 145.007 90.5212 143.002 92.1053 133.259C93.5222 124.503 89.4387 113.494 88.4039 110.899C80.0777 115.213 67.8034 111.289 64.4045 110.047C65.4393 120.499 55.752 128.037 53.9689 129.326L57.3121 161.7Z" fill="#231F20"/>
<path d="M59.4218 126.333C59.4218 126.333 53.0538 114.282 47.3783 122.52C41.7028 130.759 51.2946 138.735 56.7631 137.644" fill="white"/>
<path d="M55.7201 138.305C52.5839 138.305 48.8427 136.124 46.7412 132.924C45.6379 131.344 45.0643 129.455 45.1029 127.528C45.1415 125.601 45.7904 123.737 46.9562 122.202C48.4686 120.021 50.18 118.978 52.0585 119.09C56.3728 119.352 59.8116 125.8 59.9548 126.079C59.9894 126.143 60.0109 126.213 60.018 126.286C60.0251 126.358 60.0176 126.431 59.9962 126.501C59.9747 126.571 59.9395 126.635 59.8928 126.691C59.8461 126.747 59.7887 126.793 59.724 126.827C59.6573 126.867 59.583 126.893 59.5059 126.903C59.4287 126.913 59.3503 126.907 59.2756 126.885C59.2009 126.863 59.1314 126.827 59.0716 126.777C59.0118 126.727 58.9629 126.665 58.928 126.596C58.928 126.532 55.6405 120.427 51.9471 120.228C50.4745 120.14 49.1054 121.024 47.8318 122.863C46.8009 124.218 46.2263 125.864 46.1905 127.566C46.1548 129.269 46.6597 130.938 47.6328 132.335C49.7422 135.519 53.7938 137.692 56.6594 137.111C56.804 137.083 56.9538 137.113 57.0761 137.195C57.1984 137.277 57.2833 137.404 57.3121 137.549C57.3271 137.621 57.3277 137.695 57.3137 137.766C57.2997 137.838 57.2715 137.907 57.2307 137.967C57.1899 138.028 57.1373 138.08 57.0761 138.121C57.0149 138.161 56.9463 138.188 56.8743 138.202C56.494 138.274 56.1073 138.309 55.7201 138.305Z" fill="#231F20"/>
<path d="M84.0181 133.258C83.1099 133.259 82.2038 133.173 81.3117 133.004C81.1758 132.966 81.0591 132.879 80.9849 132.76C80.9107 132.64 80.8847 132.496 80.9119 132.358C80.9391 132.22 81.0176 132.097 81.1317 132.015C81.2457 131.932 81.3868 131.896 81.5266 131.913C81.5266 131.913 85.1404 132.606 86.8439 131.579C87.0906 130.178 83.6599 125.505 81.1604 122.608C81.0633 122.496 81.0146 122.35 81.0251 122.202C81.0355 122.054 81.1043 121.917 81.2161 121.82C81.328 121.723 81.4739 121.674 81.6217 121.684C81.7695 121.695 81.9071 121.764 82.0042 121.875C83.0708 123.109 88.3722 129.374 87.9821 131.666C87.958 131.844 87.8948 132.014 87.7971 132.164C87.6993 132.314 87.5695 132.44 87.417 132.534C86.3658 133.065 85.1946 133.315 84.0181 133.258Z" fill="#231F20"/>
<path d="M81.9882 145.62C81.9882 145.62 72.5158 147.451 66.9438 146.416C66.9438 146.416 73.8452 160.116 82.9275 159.447L81.9882 145.62Z" fill="#231F20"/>
<path d="M82.3066 159.996C73.3198 159.996 66.7607 147.196 66.4742 146.639C66.4308 146.546 66.4136 146.442 66.4246 146.34C66.4356 146.238 66.4743 146.141 66.5366 146.059C66.5988 145.977 66.6823 145.913 66.7779 145.875C66.8735 145.837 66.9776 145.826 67.0791 145.843C72.484 146.854 81.821 145.087 81.9166 145.047C81.9939 145.034 82.0732 145.036 82.1494 145.055C82.2256 145.074 82.297 145.108 82.3592 145.156C82.4213 145.204 82.4728 145.265 82.5104 145.333C82.5479 145.402 82.5707 145.478 82.5772 145.557L83.5165 159.367C83.5233 159.514 83.4734 159.658 83.3771 159.769C83.2808 159.88 83.1455 159.95 82.9991 159.964L82.3066 159.996ZM67.9786 147.101C69.698 150.078 75.3496 158.882 82.3066 158.882H82.3544L81.5026 146.265C79.4569 146.639 72.8262 147.682 68.0025 147.117L67.9786 147.101Z" fill="#231F20"/>
<path d="M76.0602 122.994C76.8284 122.901 77.3193 121.73 77.1568 120.377C76.9943 119.023 76.2397 118.001 75.4715 118.094C74.7033 118.186 74.2123 119.358 74.3749 120.711C74.5374 122.064 75.2919 123.086 76.0602 122.994Z" fill="#231F20"/>
<path d="M88.2896 122.542C89.0578 122.449 89.5488 121.278 89.3863 119.924C89.2237 118.571 88.4692 117.549 87.701 117.642C86.9328 117.734 86.4418 118.906 86.6044 120.259C86.7669 121.612 87.5214 122.634 88.2896 122.542Z" fill="#231F20"/>
<path d="M78.3824 138.624C77.5609 138.634 76.7467 138.468 75.9944 138.138C73.28 136.952 71.5368 133.649 70.8124 128.315C70.7942 128.169 70.834 128.021 70.9232 127.904C71.0124 127.786 71.1441 127.708 71.29 127.687C71.3623 127.677 71.4358 127.681 71.5062 127.7C71.5767 127.718 71.6428 127.751 71.7006 127.795C71.7584 127.84 71.8067 127.895 71.8429 127.959C71.879 128.022 71.9021 128.092 71.9109 128.164C72.5875 133.083 74.1079 136.124 76.4322 137.119C79.258 138.361 82.442 136.188 82.4659 136.172C82.5252 136.125 82.5934 136.091 82.6662 136.072C82.739 136.053 82.815 136.048 82.8896 136.059C82.9642 136.07 83.0358 136.096 83.1001 136.135C83.1644 136.174 83.2201 136.226 83.2638 136.288C83.3074 136.349 83.3381 136.419 83.3541 136.493C83.3701 136.566 83.3709 136.642 83.3566 136.716C83.3423 136.79 83.3131 136.861 83.2708 136.923C83.2286 136.985 83.1741 137.039 83.1106 137.079C81.7066 138.019 80.0705 138.553 78.3824 138.624Z" fill="#231F20"/>
<path d="M52.5364 184.402C52.5364 184.402 74.0284 224.297 74.5935 225.849C74.7925 226.375 118.875 202.765 120.491 199.581C119.957 195.968 120.313 192.28 121.526 188.835C122.242 186.941 123.548 186.71 125.116 185.389C124.917 187.742 124.869 190.106 124.972 192.465C127.929 189.339 131.122 186.446 134.524 183.813C135.32 183.184 136.371 182.531 137.334 182.905C137.81 183.11 138.216 183.447 138.504 183.876C143.073 190.308 139.261 198.029 135.981 204.039C129.812 215.374 120.563 222.403 110.732 230.307C104.187 235.543 97.3743 240.438 90.3225 244.969C84.8142 248.519 79.0989 251.958 73.0015 254.386C69.3638 255.835 64.3411 257.705 60.4964 255.922C46.5027 249.435 30.4713 216.289 26.0933 201.715" fill="white"/>
<path d="M64.0941 257.243C62.7749 257.262 61.4678 256.99 60.2653 256.447C52.3053 252.778 44.4329 241.212 39.2032 232.153C32.6362 220.779 27.6214 208.759 25.5597 201.905C25.5177 201.764 25.5334 201.612 25.6036 201.482C25.6737 201.352 25.7925 201.255 25.9338 201.213C26.0033 201.191 26.0765 201.183 26.1492 201.189C26.2218 201.196 26.2924 201.217 26.3569 201.251C26.4213 201.285 26.4783 201.331 26.5246 201.388C26.5709 201.444 26.6055 201.509 26.6264 201.579C31.1317 216.584 47.2428 249.196 60.727 255.444C64.2214 257.036 68.7905 255.5 72.7944 253.9C79.0191 251.417 84.7344 247.93 90.0198 244.531C97.0524 240.008 103.849 235.127 110.381 229.909L112.077 228.54C121.159 221.288 129.748 214.387 135.495 203.776C138.95 197.408 142.285 190.156 138.05 184.202C137.831 183.843 137.517 183.551 137.143 183.359C136.435 183.088 135.551 183.661 134.866 184.194C131.485 186.809 128.31 189.68 125.37 192.783C125.296 192.861 125.201 192.917 125.097 192.942C124.992 192.967 124.883 192.962 124.781 192.926C124.68 192.891 124.592 192.827 124.527 192.742C124.462 192.657 124.423 192.555 124.415 192.449C124.327 191.414 124.335 188.429 124.415 186.519L124.017 186.789C123.106 187.249 122.393 188.024 122.011 188.97C120.845 192.321 120.501 195.903 121.008 199.414C121.025 199.533 121.008 199.654 120.96 199.764C120.021 201.635 107.731 208.743 97.5818 214.379C91.7949 217.563 75.6281 226.382 74.5615 226.382C74.4504 226.376 74.3434 226.339 74.2531 226.274C74.1628 226.209 74.093 226.12 74.052 226.016C73.5983 224.814 59.4454 198.419 52.0188 184.624C51.948 184.494 51.9318 184.342 51.9736 184.2C52.0154 184.058 52.1118 183.939 52.2416 183.868C52.3715 183.797 52.5241 183.781 52.6659 183.823C52.8077 183.865 52.9271 183.961 52.9978 184.091C53.8336 185.683 72.5794 220.476 74.8719 225.149C79.7673 223.246 117.498 202.502 119.886 199.39C119.375 195.746 119.749 192.033 120.976 188.564C121.44 187.399 122.304 186.437 123.412 185.85C123.872 185.556 124.313 185.235 124.733 184.887C124.82 184.815 124.927 184.771 125.039 184.761C125.151 184.75 125.264 184.774 125.362 184.83C125.461 184.885 125.54 184.968 125.59 185.07C125.639 185.171 125.657 185.285 125.641 185.396C125.477 187.278 125.416 189.167 125.458 191.056C128.195 188.273 131.12 185.683 134.214 183.303C135.129 182.594 136.339 181.838 137.565 182.308C138.148 182.575 138.64 183.007 138.982 183.55C143.973 190.57 139.292 199.167 136.498 204.301C130.632 215.071 121.971 222.02 112.801 229.367L111.098 230.736C104.537 235.981 97.7119 240.886 90.6486 245.431C85.3314 248.861 79.5444 252.38 73.2322 254.895C70.287 256.097 67.0791 257.243 64.0941 257.243Z" fill="#231F20"/>
<path d="M52.5362 184.958C52.4382 184.957 52.3421 184.931 52.2571 184.882C52.1721 184.834 52.101 184.764 52.0506 184.68L41.2569 166.268C41.1841 166.141 41.1642 165.991 41.2015 165.85C41.2387 165.708 41.3301 165.587 41.4559 165.512C41.5199 165.469 41.5924 165.439 41.6687 165.425C41.745 165.412 41.8233 165.414 41.8985 165.433C41.9737 165.452 42.044 165.486 42.105 165.534C42.1659 165.582 42.2159 165.643 42.2519 165.711L53.0058 184.115C53.0483 184.179 53.0769 184.252 53.0898 184.328C53.1028 184.404 53.0998 184.482 53.0811 184.556C53.0624 184.631 53.0284 184.701 52.9811 184.762C52.9339 184.823 52.8746 184.874 52.8068 184.911C52.7216 184.948 52.6289 184.964 52.5362 184.958Z" fill="#231F20"/>
<path d="M344.668 205.041L342.981 230.513C342.981 230.513 290.596 189.273 281.832 187.529V194.749C281.832 194.749 267.265 192.958 266.103 195.879C264.941 198.801 266.899 209.785 270.712 212.022C272.972 213.359 291.758 213.479 291.758 213.479C291.758 213.479 294.417 219.998 320.414 243.934C346.411 267.87 370.801 280.653 372.329 258.262C373.857 235.87 375.8 198.06 375.8 198.06" fill="white"/>
<path d="M362.721 270.441C353.496 270.441 338.3 261.239 319.992 244.372C297.155 223.325 292.275 215.716 291.392 214.068C288.287 214.068 272.638 213.845 270.409 212.532C266.246 210.072 264.312 198.793 265.554 195.68C266.74 192.719 277.732 193.714 281.251 194.088V187.537C281.252 187.453 281.271 187.369 281.307 187.292C281.343 187.216 281.394 187.147 281.458 187.091C281.524 187.039 281.602 187.002 281.684 186.983C281.767 186.964 281.852 186.963 281.935 186.98C290.222 188.644 335.411 223.883 342.431 229.423L344.023 205.001C344.028 204.926 344.048 204.853 344.082 204.785C344.115 204.717 344.162 204.657 344.219 204.607C344.276 204.558 344.342 204.52 344.414 204.496C344.485 204.472 344.561 204.463 344.636 204.468C344.711 204.472 344.785 204.491 344.852 204.524C344.92 204.557 344.98 204.602 345.03 204.659C345.079 204.715 345.117 204.781 345.141 204.852C345.165 204.923 345.175 204.998 345.17 205.073L343.482 230.585C343.473 230.689 343.437 230.788 343.377 230.873C343.316 230.958 343.234 231.025 343.139 231.068C343.044 231.11 342.939 231.126 342.835 231.114C342.732 231.102 342.634 231.062 342.551 230.999C342.041 230.593 292.642 191.764 282.333 188.293V194.757C282.332 194.838 282.315 194.918 282.282 194.991C282.249 195.065 282.202 195.132 282.142 195.187C282.081 195.241 282.009 195.281 281.93 195.304C281.852 195.328 281.77 195.334 281.689 195.322C275.822 194.606 267.249 194.367 266.565 196.118C265.506 198.761 267.44 209.491 270.927 211.553C272.519 212.476 284.204 212.882 291.686 212.93C291.8 212.931 291.91 212.965 292.003 213.029C292.097 213.093 292.169 213.183 292.212 213.288C292.212 213.344 295.3 220.125 320.709 243.536C341.532 262.727 358.065 271.897 366.081 268.713C369.408 267.384 371.286 263.866 371.653 258.23C373.165 236.085 375.107 198.419 375.123 198.044C375.131 197.892 375.199 197.748 375.313 197.645C375.426 197.543 375.575 197.489 375.728 197.495C375.803 197.499 375.877 197.518 375.945 197.551C376.013 197.583 376.074 197.629 376.124 197.685C376.175 197.741 376.213 197.807 376.238 197.878C376.263 197.949 376.274 198.025 376.269 198.1C376.269 198.474 374.311 236.157 372.799 258.31C372.385 264.423 370.26 268.275 366.486 269.78C365.283 270.232 364.007 270.456 362.721 270.441Z" fill="#231F20"/>
<path d="M355.557 240.479C355.431 240.481 355.308 240.442 355.207 240.368L342.654 231.007C342.534 230.916 342.453 230.782 342.431 230.633C342.409 230.484 342.446 230.332 342.535 230.211C342.626 230.092 342.76 230.013 342.909 229.991C343.057 229.968 343.208 230.004 343.331 230.091L355.892 239.452C355.989 239.524 356.061 239.624 356.098 239.74C356.135 239.855 356.134 239.979 356.096 240.094C356.058 240.209 355.985 240.309 355.887 240.379C355.788 240.45 355.67 240.487 355.549 240.487L355.557 240.479Z" fill="#231F20"/>
<path d="M344.668 205.614C344.517 205.598 344.378 205.523 344.281 205.406C344.184 205.288 344.137 205.137 344.151 204.985L346.539 179.131C346.557 178.98 346.632 178.841 346.749 178.744C346.866 178.646 347.015 178.597 347.168 178.606C347.243 178.613 347.316 178.635 347.383 178.67C347.45 178.706 347.509 178.754 347.557 178.813C347.605 178.871 347.641 178.939 347.663 179.011C347.685 179.083 347.693 179.16 347.685 179.235L345.297 205.089C345.291 205.165 345.27 205.239 345.235 205.307C345.2 205.375 345.152 205.435 345.093 205.484C345.034 205.533 344.967 205.57 344.894 205.592C344.821 205.614 344.744 205.622 344.668 205.614Z" fill="#231F20"/>
<path d="M228.094 267.265C227.908 266.03 227.788 264.787 227.736 263.539C227.654 260.95 228.059 258.369 228.93 255.93C229.2 254.842 229.797 253.864 230.641 253.128C231.074 252.781 231.623 252.611 232.177 252.652C232.731 252.694 233.249 252.943 233.626 253.351C234.199 254.147 233.952 255.237 233.737 256.2C233.155 258.785 233.023 261.451 233.347 264.081C233.769 260.546 234.231 256.869 236.165 253.876C236.564 253.177 237.137 252.592 237.829 252.181C238.177 251.977 238.574 251.873 238.977 251.88C239.38 251.887 239.773 252.005 240.113 252.22C241.1 252.945 241.021 254.409 240.909 255.627C240.599 258.745 240.647 261.889 241.053 264.996C240.829 262.265 241.03 259.515 241.65 256.845C242.048 255.094 242.844 253.168 244.539 252.61C244.91 252.48 245.309 252.455 245.693 252.539C246.078 252.668 246.42 252.899 246.683 253.208C246.947 253.516 247.122 253.89 247.19 254.29C247.315 255.081 247.315 255.887 247.19 256.678C246.863 259.815 246.959 262.983 247.476 266.095C247.079 263.366 247.182 260.588 247.779 257.896C247.938 256.814 248.368 255.79 249.029 254.919C249.366 254.492 249.827 254.18 250.349 254.028C250.871 253.875 251.428 253.889 251.942 254.067C252.315 254.264 252.637 254.545 252.883 254.887C253.129 255.23 253.292 255.625 253.359 256.041C253.492 256.873 253.521 257.718 253.446 258.556C253.372 261.734 253.96 264.892 255.174 267.83C256.185 270.274 257.482 272.972 257.251 275.71C257.02 278.449 254.76 280.972 252.109 282.031C249.387 282.97 246.453 283.108 243.656 282.429C234.438 280.598 226.828 276.212 223.564 267.392" fill="white"/>
<path d="M247.5 283.431C246.163 283.423 244.83 283.285 243.52 283.017C232.91 280.908 226.008 275.734 223.007 267.623C222.981 267.552 222.968 267.477 222.97 267.402C222.973 267.326 222.99 267.252 223.021 267.183C223.052 267.115 223.096 267.053 223.151 267.001C223.206 266.949 223.271 266.909 223.342 266.883C223.412 266.856 223.487 266.843 223.563 266.846C223.638 266.848 223.712 266.865 223.781 266.896C223.85 266.927 223.912 266.972 223.963 267.027C224.015 267.082 224.055 267.146 224.082 267.217C226.94 274.93 233.554 279.865 243.743 281.887C246.927 282.524 249.665 282.397 251.87 281.521C254.521 280.462 256.447 278.114 256.646 275.686C256.837 273.378 255.85 271.077 254.935 268.857L254.608 268.061C253.372 265.048 252.77 261.812 252.841 258.556V258.158C252.893 257.497 252.864 256.831 252.754 256.176C252.706 255.845 252.583 255.529 252.394 255.253C252.205 254.977 251.955 254.748 251.663 254.584C251.26 254.463 250.83 254.466 250.428 254.592C250.026 254.719 249.672 254.963 249.411 255.293C248.82 256.091 248.437 257.024 248.296 258.007C247.712 260.62 247.61 263.317 247.994 265.967C248.015 266.118 247.977 266.27 247.888 266.393C247.799 266.517 247.666 266.601 247.516 266.628C247.366 266.649 247.213 266.611 247.09 266.522C246.967 266.433 246.883 266.3 246.855 266.15C246.34 262.993 246.244 259.781 246.569 256.598V256.399C246.68 255.727 246.68 255.041 246.569 254.369C246.523 254.075 246.4 253.798 246.213 253.566C246.026 253.334 245.781 253.155 245.502 253.048C245.224 252.992 244.935 253.011 244.666 253.104C243.488 253.494 242.645 254.775 242.151 256.925C241.55 259.532 241.354 262.217 241.57 264.885C241.583 265.034 241.538 265.183 241.442 265.299C241.347 265.415 241.21 265.489 241.061 265.505C240.912 265.519 240.765 265.476 240.648 265.384C240.531 265.292 240.453 265.159 240.432 265.012C240.015 261.86 239.965 258.671 240.28 255.508C240.392 254.385 240.456 253.12 239.723 252.618C239.47 252.47 239.181 252.392 238.887 252.392C238.594 252.392 238.305 252.47 238.052 252.618C237.448 252.991 236.948 253.508 236.595 254.123C234.701 257.06 234.263 260.793 233.873 264.089C233.857 264.227 233.791 264.355 233.686 264.448C233.582 264.54 233.447 264.591 233.308 264.59C233.168 264.591 233.033 264.54 232.929 264.448C232.824 264.355 232.758 264.227 232.742 264.089C232.406 261.393 232.538 258.66 233.132 256.009C233.331 255.11 233.538 254.202 233.132 253.621C233.037 253.498 232.917 253.395 232.78 253.32C232.643 253.245 232.492 253.198 232.336 253.183C231.839 253.111 231.333 253.237 230.927 253.534C230.187 254.202 229.665 255.079 229.431 256.049C228.571 258.413 228.174 260.921 228.261 263.436C228.261 263.818 228.317 264.168 228.34 264.495C228.378 265.369 228.468 266.241 228.611 267.105C228.624 267.18 228.622 267.256 228.606 267.329C228.59 267.403 228.559 267.472 228.516 267.534C228.473 267.596 228.418 267.649 228.354 267.689C228.291 267.729 228.22 267.757 228.145 267.77C228.071 267.783 227.995 267.781 227.922 267.765C227.848 267.749 227.778 267.718 227.717 267.675C227.655 267.632 227.602 267.577 227.562 267.513C227.521 267.45 227.494 267.379 227.481 267.304C227.331 266.398 227.232 265.484 227.186 264.566C227.186 264.248 227.146 263.905 227.115 263.523C227.018 260.858 227.434 258.199 228.34 255.691C228.638 254.487 229.306 253.406 230.251 252.602C230.904 252.125 231.719 251.925 232.519 252.045C232.822 252.088 233.112 252.19 233.374 252.346C233.637 252.502 233.866 252.708 234.048 252.953C234.764 253.948 234.478 255.221 234.255 256.24L234.207 256.423C234.568 255.398 235.046 254.418 235.632 253.502C236.087 252.721 236.733 252.069 237.51 251.607C237.953 251.352 238.457 251.225 238.968 251.24C239.478 251.256 239.974 251.413 240.4 251.695C241.554 252.531 241.554 254.083 241.467 255.173C242.103 253.47 243.059 252.411 244.308 251.989C244.782 251.826 245.292 251.798 245.781 251.91C246.269 252.063 246.705 252.347 247.042 252.732C247.379 253.117 247.604 253.587 247.691 254.091C247.801 254.614 247.833 255.15 247.787 255.683C247.977 255.267 248.224 254.878 248.519 254.529C248.936 254.005 249.508 253.627 250.152 253.447C250.796 253.267 251.481 253.294 252.109 253.526C252.565 253.761 252.959 254.1 253.262 254.514C253.564 254.929 253.767 255.408 253.852 255.914C253.984 256.66 254.021 257.419 253.964 258.174V258.564C253.89 261.66 254.462 264.737 255.643 267.599L255.97 268.395C256.909 270.64 257.976 273.171 257.761 275.766C257.56 277.288 256.949 278.726 255.993 279.927C255.036 281.127 253.771 282.044 252.332 282.58C250.791 283.171 249.151 283.46 247.5 283.431Z" fill="#231F20"/>
<path d="M256.471 155.221C254.513 157.386 252.635 159.623 250.589 161.7C245.224 167.161 239.787 172.542 234.383 177.955C234.191 178.146 234.04 178.408 233.817 178.504C232.854 178.918 231.565 179.857 230.952 179.539C230.516 179.2 230.159 178.77 229.906 178.28C229.653 177.789 229.51 177.249 229.487 176.697C229.328 172.518 229.415 168.331 229.415 163.865C227.664 163.865 226.001 163.802 224.337 163.865C218.064 164.16 212.023 165.418 206.57 168.641C199.613 172.797 195.784 178.989 195.347 187.069C195.235 189.091 195.888 191.176 196.334 193.206C196.565 194.241 197.13 195.483 195.84 195.841C195.356 195.84 194.879 195.717 194.455 195.483C194.031 195.25 193.672 194.913 193.412 194.504C191.884 191.065 190.157 187.61 189.345 183.972C185.588 166.986 194.917 151.424 211.776 146.091C216.638 144.541 221.71 143.749 226.813 143.743H229.415C229.415 140.479 229.415 137.375 229.415 134.254C229.384 132.757 229.485 131.26 229.718 129.781C230.052 128.085 231.119 127.679 232.623 128.523C233.235 128.903 233.792 129.363 234.279 129.892C241.077 136.69 247.864 143.498 254.641 150.318C255.314 151.108 255.926 151.949 256.471 152.833V155.221Z" fill="white"/>
<path d="M171.626 216.449C167.813 215.542 164.366 214.014 161.747 210.933C159.234 208.037 157.864 204.324 157.895 200.49C157.895 185.708 157.815 170.926 157.895 156.137C157.95 147.197 164.764 140.479 173.727 140.272C176.473 140.209 179.22 140.217 181.966 140.272C184.211 140.272 185.596 141.594 185.58 143.536C185.564 145.478 184.187 146.585 182.014 146.6C179.331 146.6 176.649 146.6 173.966 146.6C172.687 146.561 171.413 146.78 170.221 147.246C169.029 147.711 167.944 148.413 167.031 149.31C166.117 150.206 165.395 151.278 164.907 152.46C164.419 153.643 164.175 154.913 164.191 156.192C164.143 171.051 164.143 185.91 164.191 200.768C164.192 202.017 164.441 203.253 164.923 204.404C165.404 205.556 166.11 206.601 166.998 207.478C167.887 208.356 168.94 209.048 170.098 209.515C171.256 209.983 172.495 210.216 173.743 210.201C188.39 210.201 213.662 210.201 228.317 210.201C234.072 210.201 238.06 206.221 238.155 200.498C238.227 195.857 238.155 191.208 238.155 186.568C238.155 184.323 239.111 183.153 240.926 182.898C242.438 182.691 244.229 183.742 244.237 185.286C244.293 191.487 244.699 197.759 243.942 203.881C243.146 210.551 237.925 215.025 231.206 216.282C230.959 216.353 230.72 216.446 230.49 216.561L171.626 216.449Z" fill="white"/>
</svg>
