<svg width="20" height="20" viewBox="0 0 20 20" fill="none" xmlns="http://www.w3.org/2000/svg">
<path fill-rule="evenodd" clip-rule="evenodd" d="M7.67335 2.65155C7.46325 2.71812 7.25575 2.79377 7.05145 2.87839C6.11623 3.26577 5.26647 3.83356 4.55069 4.54934C3.8349 5.26513 3.26711 6.11489 2.87973 7.05011C2.5723 7.7923 2.38328 8.57679 2.31835 9.37496H6.05208C6.07875 8.46171 6.16379 7.56171 6.30511 6.70877C6.47839 5.66294 6.7344 4.69924 7.06398 3.87528C7.24392 3.42543 7.44722 3.01364 7.67335 2.65155ZM10.0013 1.04163C8.82488 1.04163 7.65997 1.27334 6.5731 1.72354C5.48622 2.17374 4.49866 2.8336 3.6668 3.66546C2.83495 4.49732 2.17508 5.48488 1.72488 6.57175C1.27468 7.65863 1.04297 8.82353 1.04297 9.99996C1.04297 11.1764 1.27468 12.3413 1.72488 13.4282C2.17508 14.515 2.83495 15.5026 3.6668 16.3345C4.49866 17.1663 5.48622 17.8262 6.5731 18.2764C7.65997 18.7266 8.82488 18.9583 10.0013 18.9583C11.1777 18.9583 12.3426 18.7266 13.4295 18.2764C14.5164 17.8262 15.5039 17.1663 16.3358 16.3345C17.1677 15.5026 17.8275 14.515 18.2777 13.4282C18.7279 12.3413 18.9596 11.1764 18.9596 9.99996C18.9596 8.82353 18.7279 7.65863 18.2777 6.57175C17.8275 5.48488 17.1677 4.49732 16.3358 3.66546C15.5039 2.8336 14.5164 2.17374 13.4295 1.72354C12.3426 1.27334 11.1777 1.04163 10.0013 1.04163ZM10.0013 2.29163C9.78359 2.29163 9.50233 2.39645 9.17528 2.73512C8.84581 3.0763 8.51598 3.61101 8.22458 4.33952C7.9351 5.0632 7.70005 5.93682 7.5383 6.91309C7.40852 7.69637 7.32894 8.52756 7.30265 9.37496L12.7 9.37496C12.6737 8.52757 12.5941 7.69637 12.4643 6.91309C12.3026 5.93682 12.0675 5.06321 11.778 4.33952C11.4866 3.61101 11.1568 3.0763 10.8273 2.73512C10.5003 2.39645 10.219 2.29163 10.0013 2.29163ZM13.9505 9.37496C13.9239 8.46171 13.8388 7.56171 13.6975 6.70877C13.5242 5.66295 13.2682 4.69924 12.9386 3.87528C12.7587 3.42543 12.5554 3.01364 12.3293 2.65155C12.5394 2.71811 12.7469 2.79377 12.9512 2.87839C13.8864 3.26577 14.7361 3.83356 15.4519 4.54935C16.1677 5.26513 16.7355 6.11489 17.1229 7.05011C17.4303 7.79231 17.6193 8.57679 17.6843 9.37496H13.9505ZM12.7 10.625L7.30265 10.625C7.32894 11.4724 7.40852 12.3036 7.5383 13.0868C7.70005 14.0631 7.9351 14.9367 8.22458 15.6604C8.51598 16.3889 8.84581 16.9236 9.17528 17.2648C9.50233 17.6035 9.78359 17.7083 10.0013 17.7083C10.219 17.7083 10.5003 17.6035 10.8273 17.2648C11.1568 16.9236 11.4866 16.3889 11.778 15.6604C12.0675 14.9367 12.3026 14.0631 12.4643 13.0868C12.5941 12.3036 12.6737 11.4724 12.7 10.625ZM12.3293 17.3484C12.5554 16.9863 12.7587 16.5745 12.9386 16.1246C13.2682 15.3007 13.5242 14.337 13.6975 13.2911C13.8388 12.4382 13.9239 11.5382 13.9505 10.625H17.6843C17.6193 11.4231 17.4303 12.2076 17.1229 12.9498C16.7355 13.885 16.1677 14.7348 15.4519 15.4506C14.7361 16.1664 13.8864 16.7342 12.9512 17.1215C12.7469 17.2062 12.5394 17.2818 12.3293 17.3484ZM7.67335 17.3484C7.44722 16.9863 7.24392 16.5745 7.06398 16.1246C6.7344 15.3007 6.47839 14.337 6.30511 13.2911C6.16379 12.4382 6.07875 11.5382 6.05208 10.625H2.31835C2.38328 11.4231 2.5723 12.2076 2.87973 12.9498C3.26711 13.885 3.8349 14.7348 4.55069 15.4506C5.26647 16.1664 6.11623 16.7341 7.05145 17.1215C7.25575 17.2062 7.46324 17.2818 7.67335 17.3484Z" fill="white"/>
</svg>
