<svg width="20" height="20" viewBox="0 0 20 20" fill="none" xmlns="http://www.w3.org/2000/svg">
<path fill-rule="evenodd" clip-rule="evenodd" d="M10.0013 1.04163C10.3465 1.04163 10.6263 1.32145 10.6263 1.66663V2.49996C10.6263 2.84514 10.3465 3.12496 10.0013 3.12496C9.65612 3.12496 9.3763 2.84514 9.3763 2.49996V1.66663C9.3763 1.32145 9.65612 1.04163 10.0013 1.04163ZM3.66681 3.66547C3.91089 3.42139 4.30662 3.42139 4.55069 3.66547L4.87806 3.99283C5.12214 4.23691 5.12214 4.63264 4.87806 4.87672C4.63398 5.12079 4.23825 5.12079 3.99417 4.87672L3.66681 4.54935C3.42273 4.30527 3.42273 3.90955 3.66681 3.66547ZM16.3356 3.66568C16.5797 3.90976 16.5797 4.30549 16.3356 4.54957L16.0082 4.87693C15.7641 5.12101 15.3684 5.12101 15.1243 4.87693C14.8803 4.63285 14.8803 4.23713 15.1243 3.99305L15.4517 3.66568C15.6958 3.42161 16.0915 3.42161 16.3356 3.66568ZM10.0013 5.62496C7.58506 5.62496 5.6263 7.58371 5.6263 9.99996C5.6263 12.4162 7.58506 14.375 10.0013 14.375C12.4175 14.375 14.3763 12.4162 14.3763 9.99996C14.3763 7.58371 12.4175 5.62496 10.0013 5.62496ZM4.3763 9.99996C4.3763 6.89336 6.8947 4.37496 10.0013 4.37496C13.1079 4.37496 15.6263 6.89336 15.6263 9.99996C15.6263 13.1066 13.1079 15.625 10.0013 15.625C6.8947 15.625 4.3763 13.1066 4.3763 9.99996ZM1.04297 9.99996C1.04297 9.65478 1.32279 9.37496 1.66797 9.37496H2.5013C2.84648 9.37496 3.1263 9.65478 3.1263 9.99996C3.1263 10.3451 2.84648 10.625 2.5013 10.625H1.66797C1.32279 10.625 1.04297 10.3451 1.04297 9.99996ZM16.8763 9.99996C16.8763 9.65478 17.1561 9.37496 17.5013 9.37496H18.3346C18.6798 9.37496 18.9596 9.65478 18.9596 9.99996C18.9596 10.3451 18.6798 10.625 18.3346 10.625H17.5013C17.1561 10.625 16.8763 10.3451 16.8763 9.99996ZM15.1243 15.123C15.3684 14.8789 15.7641 14.8789 16.0082 15.123L16.3356 15.4504C16.5797 15.6944 16.5797 16.0902 16.3356 16.3342C16.0915 16.5783 15.6958 16.5783 15.4517 16.3342L15.1243 16.0069C14.8803 15.7628 14.8803 15.3671 15.1243 15.123ZM4.87806 15.1232C5.12214 15.3673 5.12214 15.763 4.87806 16.0071L4.55069 16.3345C4.30662 16.5785 3.91089 16.5785 3.66681 16.3345C3.42273 16.0904 3.42273 15.6946 3.66681 15.4506L3.99417 15.1232C4.23825 14.8791 4.63398 14.8791 4.87806 15.1232ZM10.0013 16.875C10.3465 16.875 10.6263 17.1548 10.6263 17.5V18.3333C10.6263 18.6785 10.3465 18.9583 10.0013 18.9583C9.65612 18.9583 9.3763 18.6785 9.3763 18.3333V17.5C9.3763 17.1548 9.65612 16.875 10.0013 16.875Z" fill="white"/>
</svg>
