<svg width="24" height="24" viewBox="0 0 24 24" fill="none" xmlns="http://www.w3.org/2000/svg">
<path d="M8.99805 12.0039C8.99805 12.5562 8.55033 13.0039 7.99805 13.0039C7.44576 13.0039 6.99805 12.5562 6.99805 12.0039C6.99805 11.4516 7.44576 11.0039 7.99805 11.0039C8.55033 11.0039 8.99805 11.4516 8.99805 12.0039Z" fill="white"/>
<path d="M12.998 12.0039C12.998 12.5562 12.5503 13.0039 11.998 13.0039C11.4458 13.0039 10.998 12.5562 10.998 12.0039C10.998 11.4516 11.4458 11.0039 11.998 11.0039C12.5503 11.0039 12.998 11.4516 12.998 12.0039Z" fill="white"/>
<path d="M16.998 12.0039C16.998 12.5562 16.5503 13.0039 15.998 13.0039C15.4458 13.0039 14.998 12.5562 14.998 12.0039C14.998 11.4516 15.4458 11.0039 15.998 11.0039C16.5503 11.0039 16.998 11.4516 16.998 12.0039Z" fill="white"/>
<path fill-rule="evenodd" clip-rule="evenodd" d="M22.748 12.0039C22.748 6.06684 17.9351 1.25391 11.998 1.25391C6.06099 1.25391 1.24805 6.06684 1.24805 12.0039C1.24805 13.7222 1.65175 15.3484 2.37017 16.7908C2.47738 17.006 2.50012 17.2258 2.45065 17.4107L1.85504 19.6367C1.44732 21.1605 2.84141 22.5546 4.36525 22.1469L6.59129 21.5513C6.77618 21.5018 6.99595 21.5246 7.2112 21.6318C8.65357 22.3502 10.2797 22.7539 11.998 22.7539C17.9351 22.7539 22.748 17.941 22.748 12.0039ZM11.998 2.75391C17.1067 2.75391 21.248 6.89527 21.248 12.0039C21.248 17.1125 17.1067 21.2539 11.998 21.2539C10.517 21.2539 9.11925 20.9064 7.87995 20.2891C7.38255 20.0414 6.78778 19.946 6.20358 20.1023L3.97754 20.6979C3.56871 20.8073 3.19468 20.4332 3.30407 20.0244L3.89968 17.7984C4.05599 17.2142 3.96059 16.6194 3.71284 16.122C3.09557 14.8827 2.74805 13.485 2.74805 12.0039C2.74805 6.89527 6.88941 2.75391 11.998 2.75391Z" fill="white"/>
</svg>
