<svg width="20" height="20" viewBox="0 0 20 20" fill="none" xmlns="http://www.w3.org/2000/svg">
<path d="M5.20846 1.85139C4.18952 2.01327 3.45721 2.31705 2.88718 2.88708C2.31715 3.4571 2.01338 4.18941 1.85149 5.20835H5.20846V1.85139Z" fill="#EC78D5"/>
<path d="M1.72407 6.45835C1.67545 7.27599 1.6681 8.23654 1.66699 9.37502H5.20846V6.45835H1.72407Z" fill="#EC78D5"/>
<path d="M1.66699 10.625C1.6681 11.7635 1.67545 12.724 1.72407 13.5417H5.20846V10.625H1.66699Z" fill="#EC78D5"/>
<path d="M1.85149 14.7917C2.01338 15.8106 2.31715 16.5429 2.88718 17.113C3.45721 17.683 4.18952 17.9868 5.20846 18.1487V14.7917H1.85149Z" fill="#EC78D5"/>
<path d="M6.45846 18.2761C7.42163 18.3334 8.58309 18.3334 10.0001 18.3334C11.4172 18.3334 12.5786 18.3334 13.5418 18.2761V10.625H6.45846V18.2761Z" fill="#EC78D5"/>
<path d="M14.7918 18.1487C15.8107 17.9868 16.543 17.683 17.1131 17.113C17.6831 16.5429 17.9869 15.8106 18.1488 14.7917H14.7918V18.1487Z" fill="#EC78D5"/>
<path d="M18.2762 13.5417C18.3248 12.724 18.3322 11.7635 18.3333 10.625H14.7918V13.5417H18.2762Z" fill="#EC78D5"/>
<path d="M18.3333 9.37502C18.3322 8.23654 18.3248 7.27599 18.2762 6.45835H14.7918V9.37502H18.3333Z" fill="#EC78D5"/>
<path d="M18.1488 5.20835C17.9869 4.18941 17.6831 3.4571 17.1131 2.88708C16.543 2.31705 15.8107 2.01327 14.7918 1.85139V5.20835H18.1488Z" fill="#EC78D5"/>
<path d="M13.5418 1.72397C12.5786 1.66669 11.4172 1.66669 10.0001 1.66669C8.58309 1.66669 7.42163 1.66669 6.45846 1.72397V9.37502H13.5418V1.72397Z" fill="#EC78D5"/>
</svg>
