<svg width="20" height="20" viewBox="0 0 20 20" fill="none" xmlns="http://www.w3.org/2000/svg">
<path fill-rule="evenodd" clip-rule="evenodd" d="M9.95202 1.04169H10.0477C11.9713 1.04168 13.4788 1.04167 14.6551 1.19981C15.859 1.36168 16.809 1.69946 17.5547 2.44513C18.3004 3.19081 18.6382 4.14083 18.8 5.34478C18.9582 6.52102 18.9582 8.02855 18.9582 9.95221V10.0478C18.9582 11.9715 18.9582 13.479 18.8 14.6553C18.6382 15.8592 18.3004 16.8092 17.5547 17.5549C16.809 18.3006 15.859 18.6384 14.6551 18.8002C13.4788 18.9584 11.9713 18.9584 10.0476 18.9584H9.95203C8.02836 18.9584 6.52083 18.9584 5.34459 18.8002C4.14065 18.6384 3.19063 18.3006 2.44495 17.5549C1.69928 16.8092 1.36149 15.8592 1.19963 14.6553C1.04148 13.479 1.04149 11.9715 1.0415 10.0478V9.9522C1.04149 8.02854 1.04148 6.52101 1.19963 5.34478C1.36149 4.14083 1.69928 3.19081 2.44495 2.44513C3.19063 1.69946 4.14065 1.36168 5.34459 1.19981C6.52083 1.04167 8.02836 1.04168 9.95202 1.04169ZM5.20817 2.48486C4.32081 2.63757 3.75675 2.9011 3.32883 3.32902C2.90092 3.75693 2.63739 4.32099 2.48468 5.20835H5.20817V2.48486ZM6.45817 2.35V9.37502H13.5415V2.35C12.6033 2.2924 11.4513 2.29169 9.99984 2.29169C8.54836 2.29169 7.39637 2.2924 6.45817 2.35ZM14.7915 2.48486V5.20835H17.515C17.3623 4.32099 17.0988 3.75693 16.6708 3.32902C16.2429 2.9011 15.6789 2.63757 14.7915 2.48486ZM17.6499 6.45835H14.7915V9.37502H17.7079C17.7067 8.21227 17.6989 7.25771 17.6499 6.45835ZM17.7079 10.625H14.7915V13.5417H17.6499C17.6989 12.7423 17.7067 11.7878 17.7079 10.625ZM17.515 14.7917H14.7915V17.5152C15.6789 17.3625 16.2429 17.0989 16.6708 16.671C17.0988 16.2431 17.3623 15.679 17.515 14.7917ZM13.5415 17.65V10.625H6.45817V17.65C7.39637 17.7076 8.54836 17.7084 9.99984 17.7084C11.4513 17.7084 12.6033 17.7076 13.5415 17.65ZM5.20817 17.5152V14.7917H2.48468C2.63739 15.679 2.90092 16.2431 3.32883 16.671C3.75675 17.0989 4.32081 17.3625 5.20817 17.5152ZM2.34981 13.5417H5.20817V10.625H2.29173C2.29296 11.7878 2.30074 12.7423 2.34981 13.5417ZM2.29173 9.37502H5.20817V6.45835H2.34981C2.30074 7.25771 2.29296 8.21227 2.29173 9.37502Z" fill="white" fill-opacity="0.5"/>
</svg>
