<svg width="20" height="20" viewBox="0 0 20 20" fill="none" xmlns="http://www.w3.org/2000/svg">
<path fill-rule="evenodd" clip-rule="evenodd" d="M9.99987 1.04166C6.43303 1.04166 3.54154 3.93315 3.54154 7.49999V8.08674C3.54154 8.66751 3.36963 9.23528 3.04748 9.71851L2.09031 11.1543C0.979394 12.8206 1.82748 15.0857 3.75964 15.6126C4.38932 15.7843 5.02431 15.9296 5.66299 16.0484L5.66457 16.0527C6.3054 17.7626 8.01816 18.9583 9.99982 18.9583C11.9815 18.9583 13.6942 17.7626 14.3351 16.0527L14.3366 16.0484C14.9754 15.9296 15.6104 15.7843 16.2401 15.6126C18.1723 15.0857 19.0203 12.8206 17.9094 11.1543L16.9523 9.71851C16.6301 9.23528 16.4582 8.66751 16.4582 8.08674V7.49999C16.4582 3.93315 13.5667 1.04166 9.99987 1.04166ZM12.8135 16.2808C10.9444 16.5041 9.05521 16.5041 7.18608 16.2808C7.77854 17.1321 8.80901 17.7083 9.99982 17.7083C11.1906 17.7083 12.2211 17.1321 12.8135 16.2808ZM4.79154 7.49999C4.79154 4.62351 7.12339 2.29166 9.99987 2.29166C12.8764 2.29166 15.2082 4.62351 15.2082 7.49999V8.08674C15.2082 8.91429 15.4532 9.72332 15.9122 10.4119L16.8694 11.8476C17.507 12.8041 17.0202 14.1042 15.9112 14.4066C12.041 15.4622 7.95875 15.4622 4.08854 14.4066C2.97951 14.1042 2.49273 12.8041 3.13037 11.8476L4.08754 10.4119C4.54658 9.72332 4.79154 8.91429 4.79154 8.08674V7.49999Z" fill="white"/>
</svg>
