<svg width="20" height="20" viewBox="0 0 20 20" fill="none" xmlns="http://www.w3.org/2000/svg">
<path fill-rule="evenodd" clip-rule="evenodd" d="M9.12464 1.03906H10.878C11.6267 1.03904 12.251 1.03902 12.7467 1.10566C13.2699 1.17599 13.7422 1.33072 14.1218 1.71028C14.5013 2.08984 14.656 2.56217 14.7264 3.08533C14.793 3.58098 14.793 4.20533 14.793 4.95407L14.793 6.03911C15.2734 6.03949 15.6806 6.04315 16.0171 6.07738C16.4117 6.11752 16.7778 6.20478 17.1078 6.42528C17.358 6.59248 17.5729 6.80732 17.7401 7.05755C17.9606 7.38755 18.0478 7.75369 18.088 8.14825C18.1263 8.5252 18.1263 8.99081 18.1263 9.5488V17.7057H18.3346C18.6798 17.7057 18.9596 17.9856 18.9596 18.3307C18.9596 18.6759 18.6798 18.9557 18.3346 18.9557H1.66797C1.32279 18.9557 1.04297 18.6759 1.04297 18.3307C1.04297 17.9856 1.32279 17.7057 1.66797 17.7057H1.8763L1.8763 9.54878C1.87629 8.99079 1.87628 8.52519 1.91462 8.14825C1.95476 7.75369 2.04202 7.38755 2.26252 7.05755C2.42971 6.80732 2.64456 6.59248 2.89479 6.42528C3.22478 6.20478 3.59092 6.11752 3.98549 6.07738C4.32199 6.04315 4.72916 6.03949 5.20964 6.03911L5.20963 4.95407C5.20961 4.20533 5.20959 3.58098 5.27623 3.08533C5.34657 2.56217 5.50129 2.08984 5.88085 1.71028C6.26041 1.33072 6.73274 1.17599 7.2559 1.10566C7.75155 1.03902 8.3759 1.03904 9.12464 1.03906ZM5.20964 7.28915C4.72415 7.28969 4.38118 7.29358 4.11199 7.32097C3.81627 7.35105 3.67963 7.40423 3.58925 7.46462C3.47551 7.54062 3.37785 7.63827 3.30185 7.75201C3.24147 7.84239 3.18829 7.97903 3.1582 8.27475C3.12706 8.58092 3.1263 8.98253 3.1263 9.58073V17.7057H5.20964V7.28915ZM6.45964 17.7057H9.3763V15.8307C9.3763 15.4856 9.65612 15.2057 10.0013 15.2057C10.3465 15.2057 10.6263 15.4856 10.6263 15.8307V17.7057H13.543V4.9974C13.543 4.19405 13.5416 3.65442 13.4875 3.25189C13.4358 2.86734 13.3465 2.70276 13.2379 2.59416C13.1293 2.48556 12.9647 2.39621 12.5801 2.34451C12.1776 2.29039 11.638 2.28906 10.8346 2.28906H9.16797C8.36463 2.28906 7.82499 2.29039 7.42246 2.34451C7.03791 2.39621 6.87333 2.48556 6.76473 2.59416C6.65614 2.70276 6.56678 2.86734 6.51508 3.25189C6.46096 3.65442 6.45964 4.19405 6.45964 4.9974V17.7057ZM14.793 17.7057H16.8763V9.58073C16.8763 8.98253 16.8755 8.58092 16.8444 8.27475C16.8143 7.97903 16.7611 7.84239 16.7007 7.75201C16.6247 7.63827 16.5271 7.54062 16.4134 7.46462C16.323 7.40423 16.1863 7.35105 15.8906 7.32097C15.6214 7.29358 15.2785 7.28969 14.793 7.28915V17.7057ZM7.70964 4.16406C7.70964 3.81889 7.98946 3.53906 8.33464 3.53906H11.668C12.0131 3.53906 12.293 3.81889 12.293 4.16406C12.293 4.50924 12.0131 4.78906 11.668 4.78906H8.33464C7.98946 4.78906 7.70964 4.50924 7.70964 4.16406ZM7.70964 6.66406C7.70964 6.31889 7.98946 6.03906 8.33464 6.03906H11.668C12.0131 6.03906 12.293 6.31889 12.293 6.66406C12.293 7.00924 12.0131 7.28906 11.668 7.28906H8.33464C7.98946 7.28906 7.70964 7.00924 7.70964 6.66406ZM7.70964 9.16406C7.70964 8.81889 7.98946 8.53906 8.33464 8.53906H11.668C12.0131 8.53906 12.293 8.81889 12.293 9.16406C12.293 9.50924 12.0131 9.78906 11.668 9.78906H8.33464C7.98946 9.78906 7.70964 9.50924 7.70964 9.16406ZM7.70964 11.6641C7.70964 11.3189 7.98946 11.0391 8.33464 11.0391H11.668C12.0131 11.0391 12.293 11.3189 12.293 11.6641C12.293 12.0092 12.0131 12.2891 11.668 12.2891H8.33464C7.98946 12.2891 7.70964 12.0092 7.70964 11.6641Z" fill="white" fill-opacity="0.5"/>
</svg>
