<svg width="20" height="20" viewBox="0 0 20 20" fill="none" xmlns="http://www.w3.org/2000/svg">
<path fill-rule="evenodd" clip-rule="evenodd" d="M13.125 1.66666C13.125 1.32148 12.8452 1.04166 12.5 1.04166C12.1548 1.04166 11.875 1.32148 11.875 1.66666V3.33347C11.875 3.33391 11.875 3.33436 11.875 3.33481V16.6652C11.875 16.6656 11.875 16.6661 11.875 16.6665V18.3333C11.875 18.6785 12.1548 18.9583 12.5 18.9583C12.8452 18.9583 13.125 18.6785 13.125 18.3333V17.2871C14.1329 17.2767 14.9751 17.2423 15.6741 17.1237C16.5307 16.9783 17.2339 16.6974 17.799 16.1323C18.4226 15.5087 18.6994 14.7179 18.8307 13.7408C18.9584 12.7915 18.9584 11.5785 18.9584 10.047V9.95298C18.9584 8.42153 18.9584 7.20848 18.8307 6.25914C18.6994 5.28212 18.4226 4.49133 17.799 3.86769C17.2339 3.30263 16.5307 3.02166 15.6741 2.8763C14.9751 2.7577 14.1329 2.72326 13.125 2.7129V1.66666ZM13.125 3.96306V16.0369C14.1135 16.0264 14.8659 15.9929 15.465 15.8913C16.1665 15.7723 16.5943 15.5693 16.9151 15.2484C17.2678 14.8957 17.4792 14.4127 17.5919 13.5743C17.707 12.7179 17.7084 11.589 17.7084 9.99999C17.7084 8.41097 17.707 7.28208 17.5919 6.4257C17.4792 5.58729 17.2678 5.10425 16.9151 4.75158C16.5943 4.43073 16.1665 4.22773 15.465 4.10869C14.8659 4.00704 14.1135 3.97362 13.125 3.96306Z" fill="white" fill-opacity="0.5"/>
<path d="M8.28634 2.70832C6.75487 2.70831 5.54185 2.7083 4.5925 2.83594C3.61548 2.96729 2.82469 3.24406 2.20106 3.86769C1.57742 4.49133 1.30066 5.28212 1.1693 6.25914C1.04166 7.20848 1.04167 8.4215 1.04169 9.95296V10.047C1.04167 11.5785 1.04166 12.7915 1.1693 13.7408C1.30066 14.7179 1.57742 15.5087 2.20106 16.1323C2.82469 16.7559 3.61548 17.0327 4.5925 17.164C5.54184 17.2917 6.75486 17.2917 8.28631 17.2917H10C10.3452 17.2917 10.625 17.0118 10.625 16.6667C10.625 16.3215 10.3452 16.0417 10 16.0417H8.33335C6.74434 16.0417 5.61545 16.0403 4.75906 15.9252C3.92065 15.8125 3.43762 15.6011 3.08494 15.2484C2.73227 14.8957 2.52087 14.4127 2.40815 13.5743C2.29302 12.7179 2.29169 11.589 2.29169 9.99999C2.29169 8.41097 2.29302 7.28208 2.40815 6.4257C2.52087 5.58729 2.73227 5.10425 3.08494 4.75158C3.43762 4.3989 3.92065 4.18751 4.75906 4.07479C5.61545 3.95965 6.74434 3.95832 8.33335 3.95832H10C10.3452 3.95832 10.625 3.6785 10.625 3.33332C10.625 2.98815 10.3452 2.70832 10 2.70832L8.28634 2.70832Z" fill="white" fill-opacity="0.5"/>
<path d="M6.66669 10.8333C7.12693 10.8333 7.50002 10.4602 7.50002 9.99999C7.50002 9.53975 7.12693 9.16666 6.66669 9.16666C6.20645 9.16666 5.83335 9.53975 5.83335 9.99999C5.83335 10.4602 6.20645 10.8333 6.66669 10.8333Z" fill="white" fill-opacity="0.5"/>
<path d="M10.8334 9.99999C10.8334 10.4602 10.4603 10.8333 10 10.8333C9.53978 10.8333 9.16669 10.4602 9.16669 9.99999C9.16669 9.53975 9.53978 9.16666 10 9.16666C10.4603 9.16666 10.8334 9.53975 10.8334 9.99999Z" fill="white" fill-opacity="0.5"/>
</svg>
