<svg width="20" height="20" viewBox="0 0 20 20" fill="none" xmlns="http://www.w3.org/2000/svg">
<path fill-rule="evenodd" clip-rule="evenodd" d="M6.8763 7.50008C6.8763 5.77419 8.27541 4.37508 10.0013 4.37508C11.7272 4.37508 13.1263 5.77419 13.1263 7.50008C13.1263 9.22597 11.7272 10.6251 10.0013 10.6251C8.27541 10.6251 6.8763 9.22597 6.8763 7.50008ZM10.0013 5.62508C8.96577 5.62508 8.1263 6.46455 8.1263 7.50008C8.1263 8.53561 8.96577 9.37508 10.0013 9.37508C11.0368 9.37508 11.8763 8.53561 11.8763 7.50008C11.8763 6.46455 11.0368 5.62508 10.0013 5.62508Z" fill="white"/>
<path fill-rule="evenodd" clip-rule="evenodd" d="M1.04297 10.0001C1.04297 5.05253 5.05375 1.04175 10.0013 1.04175C14.9489 1.04175 18.9596 5.05253 18.9596 10.0001C18.9596 14.9476 14.9489 18.9584 10.0013 18.9584C5.05375 18.9584 1.04297 14.9476 1.04297 10.0001ZM10.0013 2.29175C5.74411 2.29175 2.29297 5.74289 2.29297 10.0001C2.29297 12.1214 3.14986 14.0426 4.53639 15.4364C4.68672 14.6254 4.98209 13.8608 5.57494 13.246C6.46174 12.3263 7.87977 11.8751 10.0013 11.8751C12.1227 11.8751 13.5408 12.3263 14.4276 13.246C15.0205 13.8608 15.3158 14.6255 15.4661 15.4364C16.8527 14.0426 17.7096 12.1214 17.7096 10.0001C17.7096 5.74289 14.2585 2.29175 10.0013 2.29175ZM14.3294 16.3796C14.2445 15.3696 14.0252 14.6295 13.5278 14.1137C12.9865 13.5524 11.9837 13.1251 10.0013 13.1251C8.0188 13.1251 7.01598 13.5524 6.47476 14.1137C5.97736 14.6295 5.75806 15.3696 5.67316 16.3795C6.907 17.2183 8.39691 17.7084 10.0013 17.7084C11.6057 17.7084 13.0955 17.2183 14.3294 16.3796Z" fill="white"/>
</svg>
