<svg width="20" height="20" viewBox="0 0 20 20" fill="none" xmlns="http://www.w3.org/2000/svg">
<path fill-rule="evenodd" clip-rule="evenodd" d="M4.77728 1.7025C5.79172 0.693819 7.46203 0.873365 8.31146 2.00802L9.36228 3.41169C10.0534 4.33492 9.99245 5.62526 9.17203 6.44103L8.97306 6.63887C8.96437 6.66412 8.94329 6.74346 8.96668 6.89425C9.01937 7.23383 9.30293 7.95417 10.4934 9.13785C11.6834 10.3211 12.4088 10.6044 12.7532 10.6572C12.9093 10.6811 12.9909 10.6588 13.0162 10.65L13.3562 10.312C14.0855 9.58675 15.2063 9.45119 16.1093 9.94208L17.7014 10.8076C19.0647 11.5487 19.4091 13.4018 18.2922 14.5123L17.1084 15.6894C16.7354 16.0603 16.2338 16.3695 15.6217 16.4266C14.1141 16.5671 10.599 16.3878 6.90554 12.7153C3.45727 9.28666 2.79555 6.29667 2.71183 4.82348L3.33582 4.78802L2.71183 4.82348C2.6695 4.07855 3.02151 3.4483 3.46928 3.00308L4.77728 1.7025ZM7.3108 2.75714C6.88861 2.19318 6.10171 2.14834 5.65864 2.5889L4.35064 3.88947C4.07571 4.16285 3.94342 4.46412 3.95982 4.75255C4.02634 5.92305 4.56075 8.62112 7.7869 11.8289C11.1714 15.1943 14.2974 15.2946 15.5056 15.182C15.7525 15.159 15.998 15.0307 16.227 14.803L17.4108 13.626C17.892 13.1475 17.7859 12.2763 17.1044 11.9058L15.5123 11.0403C15.0726 10.8013 14.5576 10.8802 14.2376 11.1983L13.858 11.5757L13.4173 11.1325C13.858 11.5757 13.8574 11.5763 13.8568 11.5769L13.8556 11.5781L13.8531 11.5806L13.8477 11.5858L13.8355 11.5972C13.8267 11.6052 13.8167 11.6139 13.8053 11.6233C13.7827 11.642 13.7549 11.6633 13.7216 11.6856C13.6549 11.7303 13.5668 11.7789 13.4561 11.8201C13.2304 11.9042 12.9327 11.9494 12.5637 11.8928C11.8414 11.782 10.8845 11.2895 9.612 10.0242C8.33993 8.75939 7.84333 7.80695 7.73146 7.08588C7.67426 6.71717 7.71988 6.41942 7.80499 6.19354C7.8467 6.08284 7.89585 5.99482 7.94096 5.92824C7.96346 5.89504 7.98487 5.86728 8.00376 5.84474C8.01321 5.83346 8.02204 5.82348 8.03007 5.81475L8.04151 5.8026L8.04675 5.79721L8.04925 5.79469L8.05046 5.79348C8.05106 5.79288 8.05165 5.79229 8.49234 6.23549L8.05165 5.79229L8.29067 5.55463C8.64784 5.19949 8.69786 4.60995 8.36162 4.16081L7.3108 2.75714Z" fill="white" fill-opacity="0.5"/>
</svg>
