<svg width="20" height="20" viewBox="0 0 20 20" fill="none" xmlns="http://www.w3.org/2000/svg">
<path fill-rule="evenodd" clip-rule="evenodd" d="M7.70964 13.3334C7.70964 12.0678 8.73565 11.0417 10.0013 11.0417C11.267 11.0417 12.293 12.0678 12.293 13.3334C12.293 14.5991 11.267 15.6251 10.0013 15.6251C8.73565 15.6251 7.70964 14.5991 7.70964 13.3334ZM10.0013 12.2917C9.42601 12.2917 8.95964 12.7581 8.95964 13.3334C8.95964 13.9087 9.42601 14.3751 10.0013 14.3751C10.5766 14.3751 11.043 13.9087 11.043 13.3334C11.043 12.7581 10.5766 12.2917 10.0013 12.2917Z" fill="white"/>
<path fill-rule="evenodd" clip-rule="evenodd" d="M4.3763 7.75239V6.66675C4.3763 3.56015 6.8947 1.04175 10.0013 1.04175C13.1079 1.04175 15.6263 3.56015 15.6263 6.66675V7.75239C15.8153 7.76568 15.9935 7.78298 16.1611 7.80552C16.9112 7.90636 17.5427 8.12211 18.0443 8.62371C18.5459 9.1253 18.7617 9.75687 18.8625 10.507C18.9597 11.2294 18.9597 12.148 18.9596 13.2877V13.3791C18.9597 14.5188 18.9597 15.4374 18.8625 16.1599C18.7617 16.91 18.5459 17.5415 18.0443 18.0431C17.5427 18.5447 16.9112 18.7605 16.1611 18.8613C15.4386 18.9584 14.52 18.9584 13.3804 18.9584H6.62225C5.48259 18.9584 4.56398 18.9584 3.84151 18.8613C3.09142 18.7605 2.45986 18.5447 1.95826 18.0431C1.45666 17.5415 1.24092 16.91 1.14007 16.1599C1.04294 15.4374 1.04295 14.5188 1.04297 13.3792V13.2877C1.04295 12.148 1.04294 11.2294 1.14007 10.507C1.24092 9.75686 1.45666 9.1253 1.95826 8.62371C2.45986 8.12211 3.09142 7.90636 3.84151 7.80552C4.00912 7.78298 4.18728 7.76568 4.3763 7.75239ZM5.6263 6.66675C5.6263 4.2505 7.58506 2.29175 10.0013 2.29175C12.4175 2.29175 14.3763 4.2505 14.3763 6.66675V7.71128C14.065 7.7084 13.7333 7.70841 13.3804 7.70841H6.62224C6.26931 7.70841 5.93758 7.7084 5.6263 7.71128V6.66675ZM4.00807 9.04437C3.39659 9.12658 3.07278 9.27695 2.84214 9.50759C2.61151 9.73822 2.46114 10.062 2.37893 10.6735C2.2943 11.303 2.29297 12.1372 2.29297 13.3334C2.29297 14.5296 2.2943 15.3639 2.37893 15.9933C2.46114 16.6048 2.61151 16.9286 2.84214 17.1592C3.07278 17.3899 3.39659 17.5402 4.00807 17.6225C4.63753 17.7071 5.47179 17.7084 6.66797 17.7084H13.3346C14.5308 17.7084 15.3651 17.7071 15.9945 17.6225C16.606 17.5402 16.9298 17.3899 17.1605 17.1592C17.3911 16.9286 17.5415 16.6048 17.6237 15.9933C17.7083 15.3639 17.7096 14.5296 17.7096 13.3334C17.7096 12.1372 17.7083 11.303 17.6237 10.6735C17.5415 10.062 17.3911 9.73822 17.1605 9.50759C16.9298 9.27695 16.606 9.12658 15.9945 9.04437C15.3651 8.95974 14.5308 8.95841 13.3346 8.95841H6.66797C5.47179 8.95841 4.63753 8.95974 4.00807 9.04437Z" fill="white"/>
</svg>
