<svg width="20" height="20" viewBox="0 0 20 20" fill="none" xmlns="http://www.w3.org/2000/svg">
<path fill-rule="evenodd" clip-rule="evenodd" d="M9.58366 2.29167C5.55658 2.29167 2.29199 5.55626 2.29199 9.58334C2.29199 13.6104 5.55658 16.875 9.58366 16.875C13.6107 16.875 16.8753 13.6104 16.8753 9.58334C16.8753 5.55626 13.6107 2.29167 9.58366 2.29167ZM1.04199 9.58334C1.04199 4.86591 4.86623 1.04167 9.58366 1.04167C14.3011 1.04167 18.1253 4.86591 18.1253 9.58334C18.1253 14.3008 14.3011 18.125 9.58366 18.125C4.86623 18.125 1.04199 14.3008 1.04199 9.58334ZM16.225 16.2247C16.4691 15.9807 16.8649 15.9807 17.1089 16.2247L18.7756 17.8914C19.0197 18.1355 19.0197 18.5312 18.7756 18.7753C18.5315 19.0194 18.1358 19.0194 17.8917 18.7753L16.225 17.1086C15.981 16.8645 15.981 16.4688 16.225 16.2247Z" fill="white" fill-opacity="0.5"/>
</svg>
