<svg width="20" height="20" viewBox="0 0 20 20" fill="none" xmlns="http://www.w3.org/2000/svg">
<path d="M15.5647 12.1091C15.9756 11.6992 16.2329 11.4583 16.7942 11.4583C17.2893 11.4583 17.739 11.6561 18.1127 11.9144C17.2477 15.594 13.9439 18.3333 10.0003 18.3333C6.22339 18.3333 3.03332 15.8206 2.01053 12.3757C2.6982 12.753 3.58436 13.125 4.44348 13.125C5.12155 13.125 5.80579 12.8944 6.38128 12.6268C6.82479 12.4206 7.23344 12.1782 7.56637 11.9601C8.1392 12.6705 9.01669 13.125 10.0003 13.125C10.6268 13.125 11.2102 12.9406 11.6992 12.6232C12.1775 12.9037 12.7703 13.125 13.4525 13.125C14.5468 13.125 15.1242 12.5487 15.5471 12.1267L15.5647 12.1091Z" fill="#EC78D5"/>
<path d="M8.12533 9.99996C8.12533 8.96443 8.96479 8.12496 10.0003 8.12496C11.0359 8.12496 11.8753 8.96443 11.8753 9.99996C11.8753 11.0355 11.0359 11.875 10.0003 11.875C8.96479 11.875 8.12533 11.0355 8.12533 9.99996Z" fill="#EC78D5"/>
<path fill-rule="evenodd" clip-rule="evenodd" d="M10.0003 6.87496C8.27444 6.87496 6.87533 8.27407 6.87533 9.99996C6.87533 10.2918 6.91533 10.5743 6.99014 10.8422C6.67457 11.0549 6.2779 11.2964 5.85426 11.4933C5.35097 11.7274 4.85918 11.875 4.44348 11.875C3.8103 11.875 3.03179 11.5361 2.34955 11.1297C2.09962 10.9808 1.87657 10.8314 1.69628 10.7036C1.67688 10.4716 1.66699 10.2369 1.66699 9.99996C1.66699 7.49836 2.76927 5.25422 4.51463 3.72672C4.52822 3.74346 4.5428 3.75966 4.55838 3.77523L5.39172 4.60857C5.63579 4.85265 6.03152 4.85265 6.2756 4.60857C6.51968 4.36449 6.51968 3.96876 6.2756 3.72468L5.52194 2.97103C6.81537 2.14522 8.35196 1.66663 10.0003 1.66663C12.5019 1.66663 14.7461 2.76891 16.2736 4.51426C16.2568 4.52785 16.2406 4.54244 16.225 4.55802L15.3917 5.39135C15.1476 5.63543 15.1476 6.03116 15.3917 6.27523C15.6358 6.51931 16.0315 6.51931 16.2756 6.27523L17.0293 5.52158C17.8551 6.81501 18.3337 8.35159 18.3337 9.99996C18.3337 10.1959 18.3269 10.3902 18.3136 10.5827C17.8776 10.3636 17.3669 10.2083 16.7942 10.2083C15.6998 10.2083 15.1224 10.7845 14.6995 11.2066L14.6819 11.2241C14.271 11.634 14.0137 11.875 13.4525 11.875C13.1605 11.875 12.8833 11.8066 12.626 11.6952C12.9419 11.2069 13.1253 10.6248 13.1253 9.99996C13.1253 8.27407 11.7262 6.87496 10.0003 6.87496ZM13.7087 3.66663C13.9848 3.87373 14.0408 4.26548 13.8337 4.54163L12.5837 6.20829C12.3766 6.48443 11.9848 6.5404 11.7087 6.33329C11.4325 6.12619 11.3766 5.73443 11.5837 5.45829L12.8337 3.79163C13.0408 3.51548 13.4325 3.45952 13.7087 3.66663ZM8.72505 2.89135C8.48097 3.13543 8.48097 3.53116 8.72505 3.77523L9.55838 4.60857C9.80246 4.85265 10.1982 4.85265 10.4423 4.60857C10.6863 4.36449 10.6863 3.96876 10.4423 3.72468L9.60893 2.89135C9.36486 2.64727 8.96913 2.64727 8.72505 2.89135ZM7.00827 6.30008C7.09761 6.63349 7.44032 6.83136 7.77373 6.74202L8.91209 6.437C9.2455 6.34766 9.44337 6.00495 9.35403 5.67153C9.26469 5.33811 8.92198 5.14025 8.58856 5.22959L7.45021 5.53461C7.11679 5.62395 6.91893 5.96666 7.00827 6.30008ZM13.9599 9.2819C14.3047 9.2657 14.571 8.97305 14.5548 8.62825L14.4995 7.45104C14.4833 7.10624 14.1907 6.83986 13.8459 6.85607C13.5011 6.87227 13.2347 7.16492 13.2509 7.50972L13.3062 8.68693C13.3224 9.03173 13.6151 9.29811 13.9599 9.2819ZM15.7847 9.62822C16.0129 9.88726 16.4078 9.91232 16.6668 9.68418L17.6448 8.87318C17.9039 8.64505 17.9289 8.25012 17.7008 7.99107C17.4727 7.73203 17.0777 7.70698 16.8187 7.93511L15.8407 8.74611C15.5817 8.97424 15.5566 9.36918 15.7847 9.62822ZM4.91437 5.97799C4.60014 6.12083 4.46119 6.49137 4.60403 6.8056L5.09172 7.87847C5.23456 8.19271 5.6051 8.33165 5.91933 8.18881C6.23357 8.04597 6.37251 7.67544 6.22967 7.3612L5.74198 6.28833C5.59914 5.9741 5.22861 5.83515 4.91437 5.97799ZM5.78623 9.07907C6.06477 9.28294 6.12532 9.674 5.92146 9.95255L5.22543 10.9036C5.02157 11.1821 4.6305 11.2427 4.35195 11.0388C4.0734 10.8349 4.01286 10.4439 4.21672 10.1653L4.91275 9.2143C5.11661 8.93576 5.50768 8.87521 5.78623 9.07907ZM2.96894 6.82399C2.6243 6.84319 2.36047 7.13814 2.37967 7.48279L2.44523 8.65947C2.46443 9.00412 2.75938 9.26794 3.10402 9.24874C3.44867 9.22954 3.71249 8.93459 3.69329 8.58994L3.62774 7.41326C3.60854 7.06861 3.31358 6.80479 2.96894 6.82399Z" fill="#EC78D5"/>
</svg>
