<svg width="20" height="20" viewBox="0 0 20 20" fill="none" xmlns="http://www.w3.org/2000/svg">
<path fill-rule="evenodd" clip-rule="evenodd" d="M2.43618 8.506C2.34126 8.98933 2.2915 9.48887 2.2915 10C2.2915 10.1887 2.29828 10.3758 2.31161 10.5611C2.32913 10.5754 2.34757 10.5902 2.36687 10.6057C2.55032 10.7524 2.80895 10.9475 3.10973 11.1415C3.741 11.5487 4.44299 11.875 4.99984 11.875C5.36284 11.875 5.803 11.7344 6.26481 11.5019C6.54542 11.3606 6.81361 11.1959 7.05041 11.0353C6.93668 10.7113 6.87484 10.3629 6.87484 10C6.87484 8.27413 8.27395 6.87502 9.99984 6.87502C11.7257 6.87502 13.1248 8.27413 13.1248 10C13.1248 10.6425 12.9309 11.2398 12.5984 11.7364C12.7841 11.8247 12.9759 11.875 13.1709 11.875C13.5568 11.875 13.739 11.6923 14.1014 11.2634C14.1101 11.253 14.119 11.2425 14.1279 11.2319C14.4291 10.8746 14.8689 10.3529 15.6497 10.2334C15.5427 10.2007 15.4432 10.1389 15.3638 10.0488C15.1357 9.78977 15.1608 9.39484 15.4198 9.16671L16.8182 7.93517C16.9802 7.79252 17.1953 7.74886 17.3895 7.7995C17.1969 7.15162 16.9213 6.53941 16.5752 5.97517L16.2751 6.2753C16.031 6.51937 15.6353 6.51937 15.3912 6.2753C15.1472 6.03122 15.1472 5.63549 15.3912 5.39141L15.8279 4.95478C14.4145 3.32353 12.3277 2.29169 9.99984 2.29169C8.52477 2.29169 7.14648 2.70601 5.97499 3.42462L6.27511 3.72475C6.51919 3.96882 6.51919 4.36455 6.27511 4.60863C6.03103 4.85271 5.63531 4.85271 5.39123 4.60863L4.9546 4.172C4.11688 4.89784 3.43724 5.80128 2.97425 6.82375C3.3164 6.80781 3.60816 7.07061 3.62725 7.41332L3.6928 8.59C3.712 8.93465 3.44818 9.2296 3.10353 9.2488C2.75889 9.268 2.46394 9.00418 2.44474 8.65953L2.43618 8.506ZM17.6284 8.88724L16.2459 10.1048C16.195 10.1496 16.1388 10.1847 16.0797 10.2101C16.7095 10.2341 17.2442 10.4993 17.6654 10.8165C17.6937 10.5482 17.7082 10.2758 17.7082 10C17.7082 9.62213 17.681 9.25058 17.6284 8.88724ZM17.3754 12.2475C17.0076 11.832 16.516 11.4584 15.9867 11.4584C15.6009 11.4584 15.4186 11.641 15.0563 12.07C15.0475 12.0803 15.0387 12.0908 15.0297 12.1015C14.6877 12.5072 14.1669 13.125 13.1709 13.125C12.5816 13.125 12.0748 12.9109 11.6693 12.6422C11.1864 12.948 10.6138 13.125 9.99984 13.125C9.08676 13.125 8.26515 12.7334 7.69379 12.109C7.43499 12.2818 7.14054 12.4605 6.82697 12.6184C6.29261 12.8874 5.64683 13.125 4.99984 13.125C4.15603 13.125 3.2944 12.7186 2.64917 12.3277C3.63608 15.4472 6.5539 17.7084 9.99984 17.7084C13.4752 17.7084 16.4135 15.4084 17.3754 12.2475ZM1.0415 10C1.0415 5.05247 5.05229 1.04169 9.99984 1.04169C14.9474 1.04169 18.9582 5.05247 18.9582 10C18.9582 14.9476 14.9474 18.9584 9.99984 18.9584C5.05229 18.9584 1.0415 14.9476 1.0415 10ZM8.72456 2.89141C8.96864 2.64733 9.36437 2.64733 9.60845 2.89141L10.4418 3.72475C10.6859 3.96882 10.6859 4.36455 10.4418 4.60863C10.1977 4.85271 9.80197 4.85271 9.5579 4.60863L8.72456 3.7753C8.48048 3.53122 8.48048 3.13549 8.72456 2.89141ZM13.7082 3.66669C13.9843 3.87379 14.0403 4.26554 13.8332 4.54169L12.5832 6.20835C12.3761 6.4845 11.9843 6.54046 11.7082 6.33335C11.432 6.12625 11.3761 5.7345 11.5832 5.45835L12.8332 3.79169C13.0403 3.51554 13.432 3.45958 13.7082 3.66669ZM9.35354 5.67159C9.44288 6.00501 9.24501 6.34772 8.9116 6.43706L7.77324 6.74208C7.43983 6.83142 7.09712 6.63355 7.00778 6.30014C6.91844 5.96672 7.1163 5.62401 7.44972 5.53467L8.58807 5.22965C8.92149 5.14031 9.2642 5.33818 9.35354 5.67159ZM4.91389 5.97805C5.22812 5.83521 5.59866 5.97416 5.7415 6.28839L6.22918 7.36126C6.37202 7.6755 6.23308 8.04603 5.91884 8.18887C5.60461 8.33171 5.23407 8.19277 5.09123 7.87853L4.60355 6.80566C4.46071 6.49143 4.59965 6.12089 4.91389 5.97805ZM13.8454 6.85613C14.1902 6.83992 14.4828 7.1063 14.499 7.4511L14.5544 8.62831C14.5706 8.97311 14.3042 9.26576 13.9594 9.28196C13.6146 9.29817 13.3219 9.03179 13.3057 8.68699L13.2504 7.50978C13.2342 7.16498 13.5006 6.87233 13.8454 6.85613ZM9.99984 8.12502C8.9643 8.12502 8.12484 8.96449 8.12484 10C8.12484 11.0356 8.9643 11.875 9.99984 11.875C11.0354 11.875 11.8748 11.0356 11.8748 10C11.8748 8.96449 11.0354 8.12502 9.99984 8.12502ZM5.78574 9.07913C6.06429 9.283 6.12483 9.67407 5.92097 9.95261L5.22494 10.9036C5.02108 11.1822 4.63001 11.2427 4.35146 11.0389C4.07292 10.835 4.01237 10.4439 4.21623 10.1654L4.91226 9.21436C5.11612 8.93582 5.50719 8.87527 5.78574 9.07913Z" fill="white" fill-opacity="0.5"/>
</svg>
