<svg width="18" height="18" viewBox="0 0 18 18" fill="none" xmlns="http://www.w3.org/2000/svg">
<path fill-rule="evenodd" clip-rule="evenodd" d="M1.43667 7.506C1.34174 7.98933 1.29199 8.48887 1.29199 9.00002C1.29199 9.18871 1.29877 9.37582 1.3121 9.56112C1.32962 9.57536 1.34806 9.59024 1.36735 9.60567C1.55081 9.75239 1.80944 9.94746 2.11022 10.1415C2.74149 10.5487 3.44348 10.875 4.00033 10.875C4.36333 10.875 4.80349 10.7344 5.26529 10.5019C5.5459 10.3606 5.8141 10.1959 6.0509 10.0353C5.93717 9.7113 5.87533 9.36288 5.87533 9.00002C5.87533 7.27413 7.27444 5.87502 9.00033 5.87502C10.7262 5.87502 12.1253 7.27413 12.1253 9.00002C12.1253 9.64254 11.9314 10.2398 11.5989 10.7364C11.7845 10.8247 11.9764 10.875 12.1714 10.875C12.5572 10.875 12.7395 10.6923 13.1019 10.2634C13.1106 10.253 13.1194 10.2425 13.1284 10.2319C13.4296 9.87463 13.8694 9.35291 14.6502 9.23338C14.5432 9.2007 14.4437 9.13891 14.3643 9.04882C14.1362 8.78977 14.1612 8.39484 14.4203 8.16671L15.8187 6.93517C15.9807 6.79252 16.1958 6.74886 16.39 6.7995C16.1974 6.15162 15.9218 5.53941 15.5757 4.97517L15.2756 5.2753C15.0315 5.51937 14.6358 5.51937 14.3917 5.2753C14.1476 5.03122 14.1476 4.63549 14.3917 4.39141L14.8283 3.95478C13.415 2.32353 11.3281 1.29169 9.00033 1.29169C7.52526 1.29169 6.14697 1.70601 4.97548 2.42462L5.2756 2.72475C5.51968 2.96882 5.51968 3.36455 5.2756 3.60863C5.03152 3.85271 4.63579 3.85271 4.39172 3.60863L3.95509 3.172C3.11736 3.89784 2.43772 4.80128 1.97473 5.82375C2.31688 5.80781 2.60865 6.07061 2.62774 6.41332L2.69329 7.59C2.71249 7.93465 2.44867 8.2296 2.10402 8.2488C1.75938 8.268 1.46443 8.00418 1.44523 7.65953L1.43667 7.506ZM16.6289 7.88724L15.2464 9.10478C15.1955 9.14963 15.1393 9.1847 15.0802 9.21013C15.71 9.23414 16.2447 9.4993 16.6659 9.8165C16.6942 9.5482 16.7087 9.2758 16.7087 9.00002C16.7087 8.62213 16.6815 8.25058 16.6289 7.88724ZM16.3759 11.2475C16.0081 10.832 15.5165 10.4584 14.9872 10.4584C14.6014 10.4584 14.4191 10.641 14.0568 11.07C14.048 11.0803 14.0392 11.0908 14.0302 11.1015C13.6882 11.5072 13.1674 12.125 12.1714 12.125C11.5821 12.125 11.0753 11.9109 10.6698 11.6422C10.1869 11.948 9.61427 12.125 9.00033 12.125C8.08725 12.125 7.26564 11.7334 6.69428 11.109C6.43548 11.2818 6.14103 11.4605 5.82745 11.6184C5.2931 11.8874 4.64731 12.125 4.00033 12.125C3.15652 12.125 2.29489 11.7186 1.64966 11.3277C2.63657 14.4472 5.55439 16.7084 9.00033 16.7084C12.4757 16.7084 15.4139 14.4084 16.3759 11.2475ZM0.0419922 9.00002C0.0419922 4.05247 4.05277 0.041687 9.00033 0.041687C13.9479 0.041687 17.9587 4.05247 17.9587 9.00002C17.9587 13.9476 13.9479 17.9584 9.00033 17.9584C4.05277 17.9584 0.0419922 13.9476 0.0419922 9.00002ZM7.72505 1.89141C7.96913 1.64733 8.36486 1.64733 8.60893 1.89141L9.44227 2.72475C9.68634 2.96882 9.68634 3.36455 9.44227 3.60863C9.19819 3.85271 8.80246 3.85271 8.55838 3.60863L7.72505 2.7753C7.48097 2.53122 7.48097 2.13549 7.72505 1.89141ZM12.7087 2.66669C12.9848 2.87379 13.0408 3.26554 12.8337 3.54169L11.5837 5.20835C11.3766 5.4845 10.9848 5.54046 10.7087 5.33335C10.4325 5.12625 10.3766 4.7345 10.5837 4.45835L11.8337 2.79169C12.0408 2.51554 12.4325 2.45958 12.7087 2.66669ZM8.35403 4.67159C8.44337 5.00501 8.2455 5.34772 7.91209 5.43706L6.77373 5.74208C6.44032 5.83142 6.09761 5.63355 6.00827 5.30014C5.91893 4.96672 6.11679 4.62401 6.45021 4.53467L7.58856 4.22965C7.92198 4.14031 8.26469 4.33818 8.35403 4.67159ZM3.91437 4.97805C4.22861 4.83521 4.59914 4.97416 4.74198 5.28839L5.22967 6.36126C5.37251 6.6755 5.23357 7.04603 4.91933 7.18887C4.6051 7.33171 4.23456 7.19277 4.09172 6.87853L3.60403 5.80566C3.46119 5.49143 3.60014 5.12089 3.91437 4.97805ZM12.8459 5.85613C13.1907 5.83992 13.4833 6.1063 13.4995 6.4511L13.5548 7.62831C13.571 7.97311 13.3047 8.26576 12.9599 8.28196C12.6151 8.29817 12.3224 8.03179 12.3062 7.68699L12.2509 6.50978C12.2347 6.16498 12.5011 5.87233 12.8459 5.85613ZM9.00033 7.12502C7.96479 7.12502 7.12533 7.96449 7.12533 9.00002C7.12533 10.0356 7.96479 10.875 9.00033 10.875C10.0359 10.875 10.8753 10.0356 10.8753 9.00002C10.8753 7.96449 10.0359 7.12502 9.00033 7.12502ZM4.78623 8.07913C5.06477 8.283 5.12532 8.67407 4.92146 8.95261L4.22543 9.90363C4.02157 10.1822 3.6305 10.2427 3.35195 10.0389C3.0734 9.835 3.01286 9.44393 3.21672 9.16538L3.91275 8.21436C4.11661 7.93582 4.50768 7.87527 4.78623 8.07913Z" fill="white" fill-opacity="0.5"/>
</svg>
