<svg width="32" height="32" viewBox="0 0 32 32" fill="none" xmlns="http://www.w3.org/2000/svg">
<g clip-path="url(#clip0_1_19585)">
<path d="M15.9732 30.3761H15.6006C14.0032 30.3761 13.2045 29.8436 12.2461 29.045C11.554 28.5125 10.915 27.9801 10.1696 27.8203C9.79691 27.7671 9.42416 27.7138 9.10469 27.7138C8.46575 27.7138 7.98655 27.8203 7.61386 27.9268C7.4009 27.98 7.18788 28.0333 7.02815 28.0333C6.86841 28.0333 6.70868 27.9801 6.65546 27.7138C6.60223 27.4476 6.54895 27.2346 6.49572 27.0216C6.38921 26.4359 6.28276 26.0632 6.06974 26.01C3.56723 25.584 2.82184 24.9451 2.66211 24.5192V24.3062C2.66211 24.1465 2.76862 23.9868 2.87507 23.9868C6.70868 23.2413 8.46575 18.6623 8.51898 18.5026C8.73193 17.9702 8.78522 17.491 8.67871 17.065C8.41247 16.3195 7.56057 16.0001 6.97486 15.7871C6.81513 15.7339 6.70862 15.6806 6.60217 15.6274C5.48403 15.095 5.37752 14.5625 5.43081 14.2963C5.48403 13.8171 6.06974 13.4976 6.49572 13.4976C6.60223 13.4976 6.70868 13.4976 6.81519 13.5508C7.34762 13.8171 7.77359 13.9768 8.19957 13.9768C8.732 13.9768 8.99824 13.7106 8.99824 13.6574C8.99824 13.3379 8.94502 13.0184 8.94502 12.6989C8.83851 10.5692 8.67877 7.96016 9.26448 6.46933C10.9683 1.99665 14.6422 1.62396 15.7603 1.62396H16.2927C17.3576 1.62396 21.0315 1.99665 22.7886 6.4692C23.3743 7.96003 23.2146 10.6223 23.108 12.6988V12.8053C23.108 13.1248 23.0548 13.391 23.0548 13.6572C23.108 13.7105 23.3211 13.9235 23.8003 13.9767C24.173 13.9767 24.5989 13.817 25.0781 13.5507C25.2379 13.4975 25.3976 13.4442 25.5041 13.4442C25.6638 13.4442 25.8236 13.4974 25.9833 13.5507C26.356 13.7105 26.6223 14.0299 26.6223 14.3494C26.6223 14.6689 26.4093 15.1481 25.3976 15.574C25.2911 15.6273 25.1846 15.6805 25.0249 15.7338C24.4392 15.9467 23.5873 16.2662 23.3211 17.0116C23.1613 17.3843 23.2146 17.8635 23.4808 18.4492C23.534 18.6622 25.1846 23.2413 29.0715 23.9867C29.2312 24.0399 29.3377 24.1464 29.2844 24.3062C29.2844 24.3594 29.2844 24.4127 29.2312 24.5191C29.0715 24.9451 28.4326 25.5308 25.93 26.01C25.7171 26.0632 25.6638 26.3294 25.5041 27.0216C25.4508 27.2345 25.3975 27.5008 25.3443 27.7137C25.2911 27.9267 25.1846 28.0332 24.9716 28.0332H24.9184C24.8119 28.0332 24.5989 27.98 24.3327 27.9267C23.9067 27.8202 23.4275 27.767 22.8419 27.767C22.4692 27.767 22.0964 27.8202 21.777 27.8735C21.0315 28.0332 20.3926 28.5656 19.7004 29.0981C18.7952 29.8969 17.5706 30.3761 15.9732 30.3761Z" fill="#FFE100"/>
<path d="M6.6554 27.7138C6.60218 27.4476 6.54889 27.2346 6.49567 27.0216C6.38916 26.4359 6.28271 26.0632 6.06969 26.01C3.56717 25.584 2.82179 24.9451 2.66205 24.5192V24.3062C2.66205 24.1465 2.76856 23.9868 2.87501 23.9868C6.70862 23.2413 8.4657 18.6623 8.51892 18.5026C8.73188 17.9702 8.78516 17.491 8.67865 17.065C8.41241 16.3195 7.56052 16.0001 6.97481 15.7871C6.81507 15.7339 6.70856 15.6806 6.60211 15.6274C5.48398 15.095 5.37747 14.5625 5.43075 14.2963C5.48398 14.0833 5.59049 13.9236 5.75022 13.7639C5.59049 13.7106 5.43075 13.6574 5.32424 13.5509C5.21773 13.4977 5.11129 13.4977 4.95155 13.4977C4.47235 13.4977 3.83341 13.8171 3.7269 14.2964C3.67368 14.5626 3.78013 15.095 5.11128 15.6274C5.21779 15.6807 5.37753 15.734 5.53726 15.7872C6.1762 16.0001 7.18783 16.3196 7.50729 17.0651C7.66703 17.4377 7.6138 17.9169 7.34756 18.5027C7.24105 18.7156 5.27102 23.2947 0.79847 23.9868C0.638737 23.9868 0.532227 24.1466 0.532227 24.3063C0.532227 24.3595 0.532227 24.4128 0.58545 24.5193C0.745184 24.9452 1.59708 25.5842 4.52557 26.0101C4.79182 26.0633 4.84504 26.4361 5.00478 27.0217C5.058 27.2347 5.11129 27.5009 5.16451 27.7139C5.27102 27.9801 5.43075 28.0333 5.64371 28.0333C5.80344 28.0333 6.0164 27.9801 6.28265 27.9268C6.38916 27.9268 6.54889 27.8736 6.70862 27.8203C6.70862 27.8203 6.6554 27.767 6.6554 27.7138Z" fill="white"/>
<path d="M22.7888 6.4692C23.3745 7.96003 23.2148 10.6223 23.1083 12.6988V12.8053C23.1083 13.1248 23.0551 13.391 23.0551 13.6572C23.1083 13.7105 23.3213 13.9235 23.8005 13.9767C24.0135 13.9767 24.2265 13.9235 24.4395 13.8702C24.2797 13.817 24.1732 13.7105 24.1732 13.7105C24.1732 13.4442 24.2264 13.1247 24.2264 12.8586V12.752C24.3329 10.6223 24.5459 8.01325 23.8537 6.52243C21.8304 1.99665 17.5708 1.62396 16.3462 1.62396H16.293C17.3579 1.62396 21.0318 1.99665 22.7888 6.4692Z" fill="#FFA800"/>
<path d="M7.88001 13.6572C7.88001 13.6572 7.7735 13.7637 7.56055 13.8702C7.7735 13.9234 7.98652 13.9767 8.19948 13.9767C8.73191 13.9767 8.99815 13.7105 8.99815 13.6572C8.99815 13.3378 8.94493 13.0183 8.94493 12.6988C8.83842 10.5691 8.67868 7.96003 9.2644 6.4692C10.9682 1.99665 14.6421 1.62396 15.7603 1.62396H15.9732H15.707C14.4291 1.62396 10.1695 1.99665 8.19948 6.4692C7.50732 7.96003 7.72028 10.6223 7.82679 12.6988C7.82679 13.0715 7.88001 13.391 7.88001 13.6572Z" fill="white"/>
<path d="M30.9885 23.9867C26.516 23.2413 24.5992 18.6623 24.546 18.4492C24.2797 17.9168 24.2265 17.4376 24.3862 17.0116C24.7057 16.2662 25.7173 15.9467 26.3562 15.7338C26.516 15.6806 26.6757 15.6273 26.7822 15.574C27.9536 15.0948 28.1666 14.6689 28.1666 14.3494C28.1666 14.0299 27.8471 13.7105 27.4212 13.5507C27.2614 13.4975 27.0485 13.4442 26.8887 13.4442C26.7822 13.4442 26.5693 13.4442 26.4095 13.5507C26.303 13.6039 26.1966 13.6572 26.0368 13.7105C26.3031 13.8702 26.4628 14.1364 26.4628 14.4026C26.4628 14.7221 26.2499 15.2013 25.2382 15.6273C25.1317 15.6805 25.0252 15.7338 24.8655 15.787C24.2798 16 23.4279 16.3194 23.1616 17.0649C23.0019 17.4376 23.0551 17.9168 23.3214 18.5025C23.3746 18.7154 25.0252 23.2945 28.9121 24.0399C29.0718 24.0932 29.1783 24.1997 29.125 24.3594C29.125 24.4126 29.125 24.4659 29.0718 24.5724C28.9121 24.9983 28.2731 25.584 25.7706 26.0632C25.5576 26.1164 25.5044 26.4359 25.3446 27.0748C25.2914 27.2878 25.2381 27.554 25.1849 27.767C25.1849 27.8202 25.1317 27.8735 25.1317 27.9267C25.2914 27.9267 25.4511 27.9799 25.6109 28.0332C25.8771 28.0864 26.0901 28.1397 26.2498 28.1397H26.303C26.516 28.1397 26.6757 28.0332 26.729 27.8203C26.7822 27.554 26.8355 27.3411 26.8887 27.1281C27.0485 26.4892 27.1017 26.1697 27.3679 26.1165C30.2964 25.6905 30.9886 25.0516 31.2016 24.6256C31.2548 24.5724 31.2548 24.5191 31.2548 24.4127C31.2548 24.1464 31.1483 23.9867 30.9885 23.9867Z" fill="#FFA800"/>
<path d="M15.9734 30.9085H15.6007C13.5242 30.9085 12.5125 30.3228 11.3944 29.5241C10.6489 28.9917 9.95679 28.5125 9.21134 28.406C8.78536 28.2995 8.41267 28.2463 7.98669 28.2463C7.29453 28.2463 6.76205 28.3528 6.33613 28.4592C6.06989 28.5124 5.80371 28.5657 5.59069 28.5657C4.95175 28.5657 4.68551 28.1397 4.63228 27.8736C4.57906 27.6073 4.52577 27.3411 4.47255 27.1281C4.41932 26.9684 4.36604 26.6489 4.31281 26.4892C1.8103 26.0632 0.425978 25.5308 0.10651 24.6789C0.0532238 24.5724 0 24.4659 0 24.3062C0 23.8802 0.266244 23.5075 0.692159 23.401C4.89846 22.7089 6.76205 18.396 6.86856 18.2363C7.08151 17.8103 7.1348 17.4376 7.02829 17.2247C6.81533 16.7455 5.91015 16.426 5.37773 16.2663C5.16477 16.213 5.00504 16.1598 4.89853 16.1065C3.30119 15.4676 3.08823 14.7222 3.19468 14.1897C3.35441 13.2313 4.79202 12.7521 5.53746 13.0716C6.06989 13.3378 6.49586 13.4443 6.92184 13.4443C7.08158 13.4443 7.24131 13.3911 7.34782 13.3911C7.34782 13.1781 7.34782 12.9651 7.2946 12.7521C7.13486 10.5691 6.97513 7.8536 7.72057 6.25626C9.85034 1.46424 14.3762 1.09155 15.7073 1.09155H16.3462C17.6773 1.09155 22.2031 1.46424 24.3861 6.25626C25.1316 7.8536 24.9185 10.5691 24.8121 12.7521V12.8586C24.8121 13.0716 24.8121 13.2313 24.7589 13.3911C24.8654 13.4443 24.9718 13.4443 25.0783 13.4443C25.3978 13.4443 25.8238 13.2846 26.3562 13.0716C26.6225 12.9651 26.8886 12.9119 27.0484 12.9119C27.3146 12.9119 27.5808 12.9651 27.7938 13.0716C28.4328 13.2846 28.8587 13.817 28.8587 14.3495C28.8587 15.0416 28.273 15.6273 27.1549 16.1065C27.0484 16.1598 26.8886 16.213 26.7289 16.2663C26.1432 16.426 25.2381 16.7455 25.0251 17.2247C24.9185 17.4909 24.9718 17.8104 25.1848 18.2363V18.2895C25.3977 18.7687 27.2081 22.8153 31.2547 23.5075C31.6807 23.5607 32.0001 23.9867 32.0001 24.4127C32.0001 24.5192 31.9469 24.6789 31.8936 24.7854C31.5209 25.5841 30.2963 26.1698 27.7938 26.5425C27.7405 26.7022 27.6872 27.0217 27.634 27.1282C27.5808 27.3944 27.5275 27.6074 27.4743 27.8736C27.3678 28.2996 26.9951 28.5658 26.5691 28.5658C26.3562 28.5658 26.0899 28.5126 25.7704 28.4593C25.2912 28.3528 24.7588 28.2995 24.1199 28.2995C23.7472 28.2995 23.3212 28.3528 22.9485 28.406C22.2031 28.5126 21.5109 29.045 20.7655 29.5242C19.381 30.4293 17.7837 30.9085 15.9734 30.9085ZM15.7604 29.8436H15.9734C17.5707 29.8436 18.9018 29.4709 20.0732 28.6189C20.8719 28.0332 21.7238 27.4476 22.6822 27.2878C23.1614 27.2346 23.5874 27.1813 24.0133 27.1813C24.7588 27.1813 25.3444 27.2878 25.8769 27.3943C26.1431 27.4475 26.3029 27.4475 26.4093 27.4475C26.4625 27.2346 26.5158 27.0215 26.569 26.8618C26.7288 26.1696 26.8353 25.5307 27.4742 25.4774C29.7637 25.1047 30.5092 24.6788 30.7754 24.4658C26.3561 23.5606 24.3861 19.1946 24.1731 18.6622C23.8536 17.97 23.7471 17.3311 24.0134 16.7986C24.4393 15.8402 25.6107 15.4675 26.3029 15.2545C26.4626 15.2012 26.6223 15.1479 26.7288 15.0947C27.5807 14.7753 27.7938 14.4558 27.7938 14.3493C27.7938 14.2961 27.6872 14.1363 27.4211 14.0298C27.2081 13.9233 26.9419 13.9233 26.8354 13.9766C26.1964 14.2428 25.664 14.4026 25.1315 14.4558C24.3328 14.4026 23.9601 14.0831 23.8536 13.9766C23.7471 13.8701 23.6939 13.7103 23.6939 13.5506C23.6939 13.2844 23.7471 13.0182 23.7471 12.6987V12.5922C23.8536 10.5157 24.0134 7.95992 23.4277 6.57554C21.5109 2.47568 17.5175 2.15622 16.3461 2.15622H15.7605C14.5891 2.15622 10.5958 2.47568 8.7322 6.68199C8.09327 8.06637 8.253 10.6221 8.41273 12.6987C8.41273 13.0181 8.46596 13.3376 8.46596 13.6571C8.46596 13.8168 8.41273 13.9233 8.30622 14.0297C8.19971 14.1363 7.7738 14.5089 6.97513 14.5089C6.4427 14.5089 5.80377 14.3492 5.16483 14.0297H5.0051C4.68563 14.0297 4.31294 14.2427 4.31294 14.4024C4.31294 14.4557 4.47267 14.7751 5.37785 15.1479C5.48436 15.2011 5.59081 15.2544 5.75054 15.2544C6.49599 15.4674 7.66735 15.8401 8.09333 16.7985C8.30629 17.3309 8.25306 17.9699 7.9336 18.6621C7.66735 19.2478 5.6441 23.5073 1.278 24.4125C1.54424 24.6255 2.34291 25.1047 4.68563 25.4241C5.32457 25.5306 5.43108 26.1696 5.59081 26.8617L5.75054 27.5007C5.91028 27.5007 6.07001 27.4475 6.28297 27.3942C6.70895 27.2877 7.34788 27.1812 8.14655 27.1812C8.57253 27.1812 9.05173 27.2344 9.47765 27.2877C10.4893 27.4475 11.2879 28.0332 12.0866 28.6188C13.0982 29.311 13.9502 29.8435 15.7073 29.8435C15.6007 29.8436 15.6539 29.8436 15.7604 29.8436C15.7071 29.8436 15.7071 29.8436 15.7604 29.8436Z" fill="black"/>
</g>
<defs>
<clipPath id="clip0_1_19585">
<rect width="32" height="32" fill="white"/>
</clipPath>
</defs>
</svg>
