<svg width="14" height="14" viewBox="0 0 14 14" fill="none" xmlns="http://www.w3.org/2000/svg">
<path opacity="0.2" d="M12.5272 5.94948L9.86396 8.24636L10.6777 11.6802C10.6992 11.7684 10.6941 11.8611 10.663 11.9464C10.6318 12.0317 10.5761 12.1059 10.5028 12.1596C10.4296 12.2133 10.342 12.244 10.2513 12.2479C10.1605 12.2519 10.0707 12.2288 9.99302 12.1817L7.00052 10.3409L4.00802 12.1811C3.93038 12.2283 3.8405 12.2513 3.74976 12.2474C3.65901 12.2435 3.57147 12.2127 3.49819 12.159C3.42492 12.1054 3.3692 12.0312 3.33807 11.9459C3.30695 11.8605 3.30182 11.7679 3.32333 11.6796L4.13708 8.24581L1.4738 5.94894C1.4059 5.88931 1.35694 5.81111 1.33297 5.72398C1.30901 5.63685 1.31108 5.54461 1.33894 5.45864C1.3668 5.37268 1.41923 5.29676 1.48974 5.24025C1.56026 5.18374 1.64578 5.14912 1.73575 5.14066L5.23083 4.85628L6.57724 1.59691C6.61156 1.51282 6.67015 1.44086 6.74554 1.39021C6.82093 1.33955 6.90969 1.3125 7.00052 1.3125C7.09134 1.3125 7.18011 1.33955 7.2555 1.39021C7.33088 1.44086 7.38948 1.51282 7.4238 1.59691L8.77021 4.85628L12.2653 5.14066C12.3554 5.14902 12.441 5.18361 12.5117 5.24015C12.5823 5.29669 12.6348 5.37271 12.6627 5.45878C12.6906 5.54486 12.6926 5.63722 12.6685 5.72444C12.6444 5.81165 12.5953 5.8899 12.5272 5.94948Z" fill="#EC78D5"/>
<path d="M13.0798 5.31883C13.0251 5.15068 12.9218 5.00248 12.7831 4.8929C12.6443 4.78332 12.4762 4.71726 12.2999 4.70305L9.07336 4.44274L7.82758 1.43C7.76021 1.26584 7.64554 1.12542 7.49816 1.02659C7.35077 0.927767 7.17733 0.875 6.99988 0.875C6.82243 0.875 6.64899 0.927767 6.50161 1.02659C6.35423 1.12542 6.23956 1.26584 6.17219 1.43L4.9275 4.44219L1.6993 4.70305C1.52275 4.71798 1.35454 4.78468 1.21574 4.89479C1.07693 5.0049 0.973706 5.15352 0.918994 5.32203C0.864282 5.49055 0.860517 5.67146 0.908169 5.84211C0.955821 6.01275 1.05277 6.16554 1.18688 6.28133L3.64781 8.40485L2.89805 11.58C2.85611 11.7525 2.86638 11.9336 2.92754 12.1002C2.98871 12.2669 3.09801 12.4116 3.24157 12.516C3.38514 12.6204 3.55649 12.6798 3.73388 12.6867C3.91127 12.6936 4.08669 12.6476 4.23789 12.5545L6.99961 10.8548L9.76297 12.5545C9.91422 12.6465 10.0893 12.6916 10.2661 12.6842C10.443 12.6768 10.6137 12.6173 10.7567 12.5131C10.8998 12.4089 11.0089 12.2647 11.0702 12.0987C11.1315 11.9326 11.1422 11.7522 11.1012 11.58L10.3487 8.4043L12.8096 6.28078C12.9448 6.16519 13.0426 6.01207 13.0907 5.84082C13.1388 5.66957 13.135 5.48791 13.0798 5.31883ZM12.2409 5.61797L9.57758 7.91485C9.51684 7.9672 9.47166 8.03523 9.44697 8.11152C9.42228 8.18781 9.41903 8.26941 9.43758 8.34742L10.2513 11.7818C10.2534 11.7865 10.2536 11.7919 10.2519 11.7968C10.2502 11.8017 10.2466 11.8057 10.242 11.808C10.2322 11.8157 10.2295 11.8141 10.2213 11.808L7.22875 9.96781C7.15983 9.92544 7.08051 9.90301 6.99961 9.90301C6.91871 9.90301 6.83939 9.92544 6.77047 9.96781L3.77797 11.8091C3.76977 11.8141 3.76758 11.8157 3.75719 11.8091C3.75257 11.8068 3.74903 11.8028 3.74731 11.7979C3.74558 11.793 3.74579 11.7876 3.74789 11.7829L4.56164 8.34852C4.58019 8.27051 4.57694 8.1889 4.55225 8.11261C4.52756 8.03633 4.48238 7.96829 4.42164 7.91594L1.75836 5.61906C1.7518 5.6136 1.74578 5.60867 1.75125 5.59172C1.75672 5.57477 1.76109 5.57696 1.7693 5.57586L5.26492 5.29367C5.3451 5.2868 5.42183 5.25794 5.48666 5.21028C5.5515 5.16261 5.60194 5.09799 5.63242 5.02352L6.97883 1.7636C6.9832 1.7543 6.98484 1.74992 6.99797 1.74992C7.01109 1.74992 7.01273 1.7543 7.01711 1.7636L8.3668 5.02352C8.39757 5.09802 8.44833 5.16257 8.51346 5.21005C8.5786 5.25753 8.65559 5.28609 8.73594 5.29258L12.2316 5.57477C12.2398 5.57477 12.2447 5.57477 12.2496 5.59063C12.2545 5.60649 12.2496 5.6125 12.2409 5.61797Z" fill="#EC78D5"/>
</svg>
