<svg width="20" height="20" viewBox="0 0 20 20" fill="none" xmlns="http://www.w3.org/2000/svg">
<path fill-rule="evenodd" clip-rule="evenodd" d="M9.11965 1.04169H10.8803C12.4118 1.04167 13.6248 1.04166 14.5742 1.1693C15.5512 1.30066 16.342 1.57742 16.9656 2.20106C17.5893 2.82469 17.866 3.61548 17.9974 4.5925C18.125 5.54185 18.125 6.75488 18.125 8.28635V11.7137C18.125 13.2452 18.125 14.4582 17.9974 15.4075C17.866 16.3846 17.5893 17.1753 16.9656 17.799C16.342 18.4226 15.5512 18.6994 14.5742 18.8307C13.6248 18.9584 12.4118 18.9584 10.8803 18.9584H9.11966C7.58819 18.9584 6.37516 18.9584 5.42581 18.8307C4.4488 18.6994 3.65801 18.4226 3.03437 17.799C2.41073 17.1753 2.13397 16.3846 2.00261 15.4075C1.87498 14.4582 1.87499 13.2452 1.875 11.7137V8.28634C1.87499 6.75487 1.87498 5.54185 2.00261 4.5925C2.13397 3.61548 2.41073 2.82469 3.03437 2.20106C3.65801 1.57742 4.4488 1.30066 5.42581 1.1693C6.37516 1.04166 7.58819 1.04167 9.11965 1.04169ZM5.59237 2.40815C4.75397 2.52087 4.27093 2.73227 3.91825 3.08494C3.56558 3.43761 3.35419 3.92065 3.24147 4.75906C3.12633 5.61545 3.125 6.74434 3.125 8.33335V11.6667C3.125 13.2557 3.12633 14.3846 3.24147 15.241C3.35419 16.0794 3.56558 16.5624 3.91825 16.9151C4.27093 17.2678 4.75397 17.4792 5.59237 17.5919C6.44876 17.707 7.57765 17.7084 9.16667 17.7084H10.8333C12.4224 17.7084 13.5512 17.707 14.4076 17.5919C15.246 17.4792 15.7291 17.2678 16.0817 16.9151C16.4344 16.5624 16.6458 16.0794 16.7585 15.241C16.8737 14.3846 16.875 13.2557 16.875 11.6667V8.33335C16.875 6.74434 16.8737 5.61545 16.7585 4.75906C16.6458 3.92065 16.4344 3.43761 16.0817 3.08494C15.7291 2.73227 15.246 2.52087 14.4076 2.40815C13.5512 2.29301 12.4224 2.29169 10.8333 2.29169H9.16667C7.57765 2.29169 6.44876 2.29301 5.59237 2.40815ZM6.04167 6.66669C6.04167 6.32151 6.32149 6.04169 6.66667 6.04169H13.3333C13.6785 6.04169 13.9583 6.32151 13.9583 6.66669C13.9583 7.01187 13.6785 7.29169 13.3333 7.29169H6.66667C6.32149 7.29169 6.04167 7.01187 6.04167 6.66669ZM6.04167 10C6.04167 9.65484 6.32149 9.37502 6.66667 9.37502H13.3333C13.6785 9.37502 13.9583 9.65484 13.9583 10C13.9583 10.3452 13.6785 10.625 13.3333 10.625H6.66667C6.32149 10.625 6.04167 10.3452 6.04167 10ZM6.04167 13.3334C6.04167 12.9882 6.32149 12.7084 6.66667 12.7084H10.8333C11.1785 12.7084 11.4583 12.9882 11.4583 13.3334C11.4583 13.6785 11.1785 13.9584 10.8333 13.9584H6.66667C6.32149 13.9584 6.04167 13.6785 6.04167 13.3334Z" fill="white"/>
</svg>
