<svg width="32" height="32" viewBox="0 0 32 32" fill="none" xmlns="http://www.w3.org/2000/svg">
<path d="M11.3811 16.5875C8.84357 16.5875 6.79357 18.6375 6.83107 21.15C6.85607 22.7625 7.74357 24.1625 9.04982 24.9438C8.60607 24.2625 8.34357 23.4562 8.33107 22.5875C8.29357 20.075 10.3436 18.025 12.8811 18.025C13.3811 18.025 13.8623 18.1063 14.3123 18.25V13.2188C13.8436 13.15 13.3623 13.1125 12.8811 13.1125H12.8123V16.8125C12.3623 16.6687 11.8811 16.5875 11.3811 16.5875ZM22.3498 1.5H21.0123C21.3873 3.38125 22.4436 5.01875 23.9186 6.13125C22.9498 4.85 22.3623 3.25 22.3498 1.5Z" fill="#F00044"/>
<path d="M29.9998 9.15624C29.5061 9.15624 29.0311 9.10624 28.5623 9.01874L20.8748 10.0062L12.8123 30.3875C12.3436 30.4562 11.8623 30.4937 11.3811 30.4937C9.24355 30.4937 7.20605 29.8 5.5498 28.5187C5.7373 28.7437 5.9373 28.9625 6.15605 29.175C7.95605 30.95 10.3436 31.9312 12.8873 31.9312C13.3686 31.9312 13.8498 31.8937 14.3186 31.825C16.3186 31.5312 18.1623 30.6125 19.6186 29.175C21.4061 27.4062 22.3936 25.0625 22.4061 22.5625L22.3123 11.4437C23.1623 12.1 24.0936 12.65 25.0998 13.0687C26.6561 13.725 28.3061 14.0625 29.9998 14.0625" fill="#F00044"/>
<path d="M6.13733 15.8812C7.91858 14.1125 10.2873 13.1312 12.8123 13.1125V11.7812C12.3436 11.7125 11.8623 11.675 11.3811 11.675C8.83108 11.675 6.43733 12.6562 4.63733 14.4437C2.86858 16.2 1.85608 18.6 1.86233 21.0937C1.86233 23.6062 2.85608 25.9625 4.64983 27.7437C4.93733 28.025 5.23108 28.2875 5.54358 28.525C4.13108 26.8437 3.36233 24.7437 3.35608 22.5312C3.36233 20.0375 4.36858 17.6375 6.13733 15.8812ZM28.5623 9.01873V7.68123H28.5498C26.8123 7.68123 25.2123 7.10623 23.9248 6.13123C25.0436 7.60623 26.6811 8.65623 28.5623 9.01873Z" fill="#08FFF9"/>
<path d="M12.6248 27.0125C13.2186 27.0438 13.7873 26.9625 14.3123 26.7938C16.1248 26.2 17.4311 24.5125 17.4311 22.525L17.4373 15.0875V1.5H21.0123C20.9186 1.03125 20.8686 0.55625 20.8623 0.0625H15.9373V13.6438L15.9311 21.0812C15.9311 23.0687 14.6248 24.7563 12.8123 25.35C12.2873 25.525 11.7186 25.6063 11.1248 25.5688C10.3686 25.525 9.6623 25.3 9.0498 24.9375C9.81855 26.125 11.1311 26.9313 12.6248 27.0125Z" fill="#08FFF9"/>
<path d="M12.8123 30.3875C14.8123 30.0938 16.6561 29.175 18.1123 27.7375C19.8998 25.9688 20.8873 23.625 20.8998 21.125L20.8748 10.0063C21.7248 10.6625 22.6561 11.2125 23.6623 11.6313C25.2186 12.2875 26.8686 12.625 28.5623 12.625V9.01875C26.6811 8.65625 25.0436 7.60625 23.9248 6.13125C22.4498 5.01875 21.3873 3.38125 21.0186 1.5H17.4373V15.0813L17.4311 22.5187C17.4311 24.5062 16.1248 26.1938 14.3123 26.7875C13.7873 26.9625 13.2186 27.0438 12.6248 27.0063C11.1248 26.925 9.81858 26.1187 9.04983 24.9375C7.74358 24.1625 6.85608 22.7562 6.83108 21.1437C6.79358 18.6312 8.84358 16.5812 11.3811 16.5812C11.8811 16.5812 12.3623 16.6625 12.8123 16.8062V13.1062C10.2873 13.125 7.91858 14.1062 6.13733 15.875C4.36858 17.6313 3.35608 20.0312 3.36233 22.5187C3.36233 24.7312 4.13108 26.8313 5.54983 28.5125C7.21233 29.7938 9.24358 30.4875 11.3811 30.4875C11.8623 30.4937 12.3436 30.4563 12.8123 30.3875Z" fill="black"/>
</svg>
