<svg width="18" height="18" viewBox="0 0 18 18" fill="none" xmlns="http://www.w3.org/2000/svg">
<path fill-rule="evenodd" clip-rule="evenodd" d="M3.80901 3.80175C6.65551 0.95926 11.2827 0.989484 14.1466 3.85339C17.0118 6.71854 17.0408 11.3485 14.1946 14.1947C11.3484 17.0409 6.71845 17.0119 3.8533 14.1467C2.15542 12.4489 1.45428 10.1325 1.75535 7.93598C1.79754 7.6282 2.08125 7.41289 2.38903 7.45508C2.69681 7.49727 2.91212 7.78097 2.86993 8.08876C2.61495 9.94899 3.20837 11.9108 4.6488 13.3512C7.08216 15.7846 10.9998 15.7985 13.3991 13.3992C15.7985 10.9999 15.7845 7.08225 13.3512 4.64889C10.919 2.21677 7.00417 2.2016 4.60451 4.59724L5.16529 4.60006C5.47594 4.60162 5.72651 4.85472 5.72495 5.16538C5.72339 5.47603 5.47029 5.7266 5.15963 5.72504L3.25047 5.71545C2.94202 5.7139 2.69235 5.46423 2.6908 5.15578L2.68121 3.24662C2.67965 2.93596 2.93022 2.68286 3.24088 2.6813C3.55153 2.67974 3.80463 2.93031 3.8062 3.24097L3.80901 3.80175ZM8.99991 5.4375C9.31057 5.4375 9.56241 5.68934 9.56241 6V8.76701L11.2727 10.4773C11.4923 10.6969 11.4923 11.0531 11.2727 11.2727C11.053 11.4924 10.6968 11.4924 10.4772 11.2727L8.43741 9.233V6C8.43741 5.68934 8.68925 5.4375 8.99991 5.4375Z" fill="white" fill-opacity="0.5"/>
</svg>
