<svg width="398" height="398" viewBox="0 0 398 398" fill="none" xmlns="http://www.w3.org/2000/svg">
<path d="M100.853 121.549H174.722C176.712 121.549 178.304 123.141 178.304 125.131V232.512C178.304 234.502 176.712 236.094 174.722 236.094H100.853C98.8632 236.094 97.2712 234.502 97.2712 232.512V125.131C97.2712 123.141 98.8632 121.549 100.853 121.549Z" fill="white"/>
<path d="M174.722 236.651H100.853C98.5449 236.651 96.7141 234.82 96.7141 232.512V125.131C96.7141 122.823 98.5449 120.992 100.853 120.992H174.722C177.031 120.992 178.861 122.823 178.861 125.131V232.591C178.782 234.82 176.951 236.651 174.722 236.651ZM100.853 122.106C99.1817 122.106 97.8285 123.46 97.8285 125.131V232.591C97.8285 234.263 99.1817 235.616 100.853 235.616H174.722C176.394 235.616 177.747 234.263 177.747 232.591V125.131C177.747 123.46 176.394 122.106 174.722 122.106H100.853Z" fill="#231F20"/>
<path d="M171.06 128.713H104.515V145.111H171.06V128.713Z" fill="white"/>
<path d="M171.06 145.668H104.515C104.196 145.668 103.958 145.429 103.958 145.111V128.713C103.958 128.395 104.196 128.156 104.515 128.156H171.06C171.379 128.156 171.618 128.395 171.618 128.713V145.111C171.538 145.429 171.299 145.668 171.06 145.668ZM105.072 144.553H170.503V129.27H105.072V144.553Z" fill="#D1D3D4"/>
<path d="M113.271 140.335C115.161 140.335 116.694 138.802 116.694 136.912C116.694 135.022 115.161 133.489 113.271 133.489C111.38 133.489 109.848 135.022 109.848 136.912C109.848 138.802 111.38 140.335 113.271 140.335Z" fill="#D1D3D4"/>
<path d="M164.931 134.922H136.036C135.718 134.922 135.479 134.683 135.479 134.365C135.479 134.046 135.718 133.807 136.036 133.807H164.931C165.25 133.807 165.488 134.046 165.488 134.365C165.488 134.683 165.25 134.922 164.931 134.922Z" fill="#D1D3D4"/>
<path d="M164.931 140.016H136.036C135.718 140.016 135.479 139.777 135.479 139.459C135.479 139.141 135.718 138.902 136.036 138.902H164.931C165.25 138.902 165.488 139.141 165.488 139.459C165.488 139.777 165.25 140.016 164.931 140.016Z" fill="#D1D3D4"/>
<path d="M129.748 140.573H120.276C119.957 140.573 119.719 140.335 119.719 140.016V133.807C119.719 133.489 119.957 133.25 120.276 133.25H129.748C130.067 133.25 130.305 133.489 130.305 133.807V140.016C130.305 140.335 130.067 140.573 129.748 140.573ZM120.833 139.459H129.191V134.365H120.833V139.459Z" fill="#D1D3D4"/>
<path d="M171.06 148.534H104.515V164.931H171.06V148.534Z" fill="white"/>
<path d="M171.06 165.488H104.515C104.196 165.488 103.958 165.249 103.958 164.931V148.533C103.958 148.215 104.196 147.976 104.515 147.976H171.06C171.379 147.976 171.618 148.215 171.618 148.533V164.931C171.618 165.249 171.299 165.488 171.06 165.488ZM105.072 164.374H170.503V149.091H105.072V164.374Z" fill="#D1D3D4"/>
<path d="M113.271 160.155C115.161 160.155 116.694 158.623 116.694 156.732C116.694 154.842 115.161 153.31 113.271 153.31C111.38 153.31 109.848 154.842 109.848 156.732C109.848 158.623 111.38 160.155 113.271 160.155Z" fill="#D1D3D4"/>
<path d="M164.931 154.742H136.036C135.718 154.742 135.479 154.503 135.479 154.185C135.479 153.867 135.718 153.628 136.036 153.628H164.931C165.25 153.628 165.488 153.867 165.488 154.185C165.488 154.503 165.25 154.742 164.931 154.742Z" fill="#D1D3D4"/>
<path d="M164.931 159.837H136.036C135.718 159.837 135.479 159.598 135.479 159.279C135.479 158.961 135.718 158.722 136.036 158.722H164.931C165.25 158.722 165.488 158.961 165.488 159.279C165.488 159.598 165.25 159.837 164.931 159.837Z" fill="#D1D3D4"/>
<path d="M129.748 160.394H120.276C119.957 160.394 119.719 160.155 119.719 159.836V153.628C119.719 153.309 119.957 153.07 120.276 153.07H129.748C130.067 153.07 130.305 153.309 130.305 153.628V159.836C130.305 160.155 130.067 160.394 129.748 160.394ZM120.833 159.279H129.191V154.185H120.833V159.279Z" fill="#D1D3D4"/>
<path d="M171.06 168.354H104.515V184.751H171.06V168.354Z" fill="white"/>
<path d="M171.06 185.308H104.515C104.196 185.308 103.958 185.07 103.958 184.751V168.354C103.958 168.035 104.196 167.796 104.515 167.796H171.06C171.379 167.796 171.618 168.035 171.618 168.354V184.751C171.618 185.07 171.299 185.308 171.06 185.308ZM105.072 184.194H170.503V168.911H105.072V184.194Z" fill="#D1D3D4"/>
<path d="M113.271 179.975C115.161 179.975 116.694 178.443 116.694 176.553C116.694 174.662 115.161 173.13 113.271 173.13C111.38 173.13 109.848 174.662 109.848 176.553C109.848 178.443 111.38 179.975 113.271 179.975Z" fill="#D1D3D4"/>
<path d="M164.931 174.563H136.036C135.718 174.563 135.479 174.324 135.479 174.005C135.479 173.687 135.718 173.448 136.036 173.448H164.931C165.25 173.448 165.488 173.687 165.488 174.005C165.488 174.324 165.25 174.563 164.931 174.563Z" fill="#D1D3D4"/>
<path d="M164.931 179.657H136.036C135.718 179.657 135.479 179.418 135.479 179.1C135.479 178.781 135.718 178.542 136.036 178.542H164.931C165.25 178.542 165.488 178.781 165.488 179.1C165.488 179.418 165.25 179.657 164.931 179.657Z" fill="#D1D3D4"/>
<path d="M129.748 180.214H120.276C119.957 180.214 119.719 179.976 119.719 179.657V173.448C119.719 173.13 119.957 172.891 120.276 172.891H129.748C130.067 172.891 130.305 173.13 130.305 173.448V179.657C130.305 179.976 130.067 180.214 129.748 180.214ZM120.833 179.1H129.191V174.006H120.833V179.1Z" fill="#D1D3D4"/>
<path d="M171.06 188.174H104.515V204.572H171.06V188.174Z" fill="white"/>
<path d="M171.06 205.129H104.515C104.196 205.129 103.958 204.89 103.958 204.572V188.174C103.958 187.856 104.196 187.617 104.515 187.617H171.06C171.379 187.617 171.618 187.856 171.618 188.174V204.572C171.618 204.89 171.379 205.129 171.06 205.129ZM105.072 204.015H170.503V188.732H105.072V204.015Z" fill="#D1D3D4"/>
<path d="M113.271 199.796C115.161 199.796 116.694 198.263 116.694 196.373C116.694 194.483 115.161 192.95 113.271 192.95C111.38 192.95 109.848 194.483 109.848 196.373C109.848 198.263 111.38 199.796 113.271 199.796Z" fill="#D1D3D4"/>
<path d="M164.931 194.383H136.036C135.718 194.383 135.479 194.144 135.479 193.826C135.479 193.507 135.718 193.268 136.036 193.268H164.931C165.25 193.268 165.488 193.507 165.488 193.826C165.488 194.144 165.25 194.383 164.931 194.383Z" fill="#D1D3D4"/>
<path d="M164.931 199.478H136.036C135.718 199.478 135.479 199.239 135.479 198.92C135.479 198.602 135.718 198.363 136.036 198.363H164.931C165.25 198.363 165.488 198.602 165.488 198.92C165.488 199.239 165.25 199.478 164.931 199.478Z" fill="#D1D3D4"/>
<path d="M129.748 200.035H120.276C119.957 200.035 119.719 199.796 119.719 199.477V193.269C119.719 192.95 119.957 192.711 120.276 192.711H129.748C130.067 192.711 130.305 192.95 130.305 193.269V199.477C130.305 199.796 130.067 200.035 129.748 200.035ZM120.833 198.92H129.191V193.826H120.833V198.92Z" fill="#D1D3D4"/>
<path d="M171.06 207.994H104.515V224.392H171.06V207.994Z" fill="white"/>
<path d="M171.06 224.949H104.515C104.196 224.949 103.958 224.711 103.958 224.392V207.995C103.958 207.676 104.196 207.438 104.515 207.438H171.06C171.379 207.438 171.618 207.676 171.618 207.995V224.392C171.618 224.711 171.299 224.949 171.06 224.949ZM105.072 223.835H170.503V208.552H105.072V223.835Z" fill="#D1D3D4"/>
<path d="M113.271 219.616C115.161 219.616 116.694 218.084 116.694 216.193C116.694 214.303 115.161 212.77 113.271 212.77C111.38 212.77 109.848 214.303 109.848 216.193C109.848 218.084 111.38 219.616 113.271 219.616Z" fill="#D1D3D4"/>
<path d="M164.931 214.204H136.036C135.718 214.204 135.479 213.965 135.479 213.646C135.479 213.328 135.718 213.089 136.036 213.089H164.931C165.25 213.089 165.488 213.328 165.488 213.646C165.488 213.965 165.25 214.204 164.931 214.204Z" fill="#D1D3D4"/>
<path d="M164.931 219.298H136.036C135.718 219.298 135.479 219.059 135.479 218.741C135.479 218.422 135.718 218.184 136.036 218.184H164.931C165.25 218.184 165.488 218.422 165.488 218.741C165.488 219.059 165.25 219.298 164.931 219.298Z" fill="#D1D3D4"/>
<path d="M129.748 219.855H120.276C119.957 219.855 119.719 219.616 119.719 219.298V213.089C119.719 212.771 119.957 212.532 120.276 212.532H129.748C130.067 212.532 130.305 212.771 130.305 213.089V219.298C130.305 219.616 130.067 219.855 129.748 219.855ZM120.833 218.82H129.191V213.726H120.833V218.82Z" fill="#D1D3D4"/>
<path d="M267.695 207.04C266.58 205.926 265.625 205.05 264.67 204.174C260.451 199.876 254.083 198.602 248.591 200.99C243.019 203.378 239.596 209.11 240.153 215.159C240.233 216.592 239.755 217.07 238.482 217.388C226.86 220.413 219.855 232.353 222.88 243.974C225.427 253.606 234.183 260.372 244.133 260.292C273.744 260.292 303.276 260.292 332.887 260.292C334.002 260.292 335.116 260.213 336.31 260.054C345.782 258.621 352.867 250.502 352.946 240.95C353.026 231.159 346.101 222.721 336.628 221.288C334.479 220.97 332.25 220.97 330.022 220.811C333.763 201.15 320.788 186.822 307.654 183.319C300.729 181.329 293.326 181.807 286.64 184.593C276.69 188.891 270.64 196.692 267.695 207.04Z" fill="#272727"/>
<path d="M278.6 260.85H244.133C231.875 261.088 221.686 251.298 221.527 238.96C221.527 238.402 221.527 237.845 221.527 237.288C222.004 227.497 228.85 219.139 238.322 216.751C239.437 216.433 239.676 216.194 239.596 215.08C239.039 208.791 242.541 202.821 248.352 200.354C254.083 197.886 260.77 199.16 265.068 203.697C265.705 204.334 266.262 204.891 266.978 205.528L267.376 205.926C270.64 195.418 277.008 188.095 286.321 184.036C300.49 178.066 316.967 182.921 325.564 195.657C330.499 202.821 332.25 211.736 330.658 220.254C331.136 220.254 331.614 220.333 332.091 220.333C333.604 220.333 335.196 220.492 336.708 220.652C346.419 222.084 353.583 230.761 353.504 240.87C353.424 250.74 346.101 259.019 336.39 260.452C335.275 260.611 334.081 260.69 332.887 260.69L278.6 260.85ZM254.242 200.274C252.332 200.274 250.501 200.672 248.83 201.468C243.496 203.776 240.233 209.269 240.71 215.159C240.87 217.07 239.994 217.627 238.641 217.945C229.566 220.174 223.119 228.134 222.641 237.447C222.004 249.069 230.92 259.098 242.541 259.735C243.098 259.735 243.576 259.815 244.133 259.735C273.744 259.735 303.276 259.735 332.887 259.735C334.002 259.735 335.116 259.656 336.23 259.496C345.464 258.143 352.31 250.263 352.389 240.95C352.469 231.398 345.703 223.199 336.549 221.846C335.036 221.686 333.604 221.527 332.091 221.527L330.022 221.448C329.862 221.448 329.703 221.368 329.624 221.209C329.544 221.05 329.464 220.89 329.544 220.731C333.206 201.627 320.947 187.458 307.574 183.876C300.729 181.886 293.485 182.364 286.958 185.15C277.565 189.21 271.436 196.374 268.332 207.199C268.252 207.518 267.934 207.677 267.615 207.597C267.536 207.597 267.456 207.518 267.376 207.438L266.342 206.403C265.625 205.766 265.068 205.13 264.431 204.572C261.645 201.866 258.063 200.274 254.242 200.274Z" fill="white" fill-opacity="0.1"/>
<path d="M167.319 95.5201H279.078C282.023 95.5201 284.49 97.9081 284.49 100.933V263.397C284.49 266.342 282.103 268.809 279.078 268.809H167.319C164.374 268.809 161.906 266.421 161.906 263.397V100.853C161.906 97.9081 164.374 95.5201 167.319 95.5201Z" fill="white"/>
<path d="M279.078 269.287H167.319C164.056 269.287 161.349 266.66 161.349 263.317V100.853C161.349 97.5896 163.976 94.8832 167.319 94.9628H279.078C282.341 94.9628 284.968 97.5896 285.048 100.853V263.317C285.048 266.66 282.341 269.287 279.078 269.287ZM167.319 96.0772C164.692 96.0772 162.543 98.2264 162.464 100.853V263.396C162.464 266.023 164.613 268.172 167.319 268.172H279.078C281.704 268.172 283.854 266.023 283.854 263.396V100.853C283.854 98.2264 281.704 96.0772 279.078 96.0772H167.319Z" fill="#231F20"/>
<path d="M273.506 106.266H172.891V131.101H273.506V106.266Z" fill="white"/>
<path d="M273.506 131.658H172.891C172.573 131.658 172.334 131.42 172.334 131.101V106.266C172.334 105.948 172.573 105.709 172.891 105.709H273.506C273.824 105.709 274.063 105.948 274.063 106.266V131.101C274.063 131.42 273.824 131.658 273.506 131.658ZM173.448 130.544H272.948V106.823H173.448V130.544Z" fill="#D1D3D4"/>
<path d="M186.184 123.858C189.042 123.858 191.358 121.541 191.358 118.684C191.358 115.826 189.042 113.51 186.184 113.51C183.327 113.51 181.01 115.826 181.01 118.684C181.01 121.541 183.327 123.858 186.184 123.858Z" fill="#D1D3D4"/>
<path d="M264.352 115.42H220.572C220.253 115.42 220.014 115.181 220.014 114.863C220.014 114.545 220.253 114.306 220.572 114.306H264.352C264.67 114.306 264.909 114.545 264.909 114.863C264.909 115.181 264.59 115.42 264.352 115.42Z" fill="#D1D3D4"/>
<path d="M264.352 123.062H220.572C220.253 123.062 220.014 122.823 220.014 122.505C220.014 122.186 220.253 121.948 220.572 121.948H264.352C264.67 121.948 264.909 122.186 264.909 122.505C264.909 122.823 264.59 123.062 264.352 123.062Z" fill="#D1D3D4"/>
<path d="M211.02 124.017H196.692C196.373 124.017 196.135 123.778 196.135 123.46V113.987C196.135 113.669 196.373 113.43 196.692 113.43H211.02C211.338 113.43 211.577 113.669 211.577 113.987V123.46C211.577 123.699 211.338 124.017 211.02 124.017ZM197.249 122.903H210.463V114.545H197.249V122.903Z" fill="#D1D3D4"/>
<path d="M273.506 136.276H172.891V161.111H273.506V136.276Z" fill="white"/>
<path d="M273.506 161.668H172.891C172.573 161.668 172.334 161.429 172.334 161.111V136.275C172.334 135.957 172.573 135.718 172.891 135.718H273.506C273.824 135.718 274.063 135.957 274.063 136.275V161.111C274.063 161.429 273.824 161.668 273.506 161.668ZM173.448 160.553H272.948V136.833H173.448V160.553Z" fill="#D1D3D4"/>
<path d="M186.184 153.867C189.042 153.867 191.358 151.55 191.358 148.693C191.358 145.835 189.042 143.519 186.184 143.519C183.327 143.519 181.01 145.835 181.01 148.693C181.01 151.55 183.327 153.867 186.184 153.867Z" fill="#D1D3D4"/>
<path d="M264.352 145.429H220.572C220.253 145.429 220.014 145.19 220.014 144.872C220.014 144.554 220.253 144.315 220.572 144.315H264.352C264.67 144.315 264.909 144.554 264.909 144.872C264.909 145.19 264.59 145.429 264.352 145.429Z" fill="#D1D3D4"/>
<path d="M264.352 153.071H220.572C220.253 153.071 220.014 152.832 220.014 152.514C220.014 152.195 220.253 151.956 220.572 151.956H264.352C264.67 151.956 264.909 152.195 264.909 152.514C264.909 152.832 264.59 153.071 264.352 153.071Z" fill="#D1D3D4"/>
<path d="M211.02 153.947H196.692C196.373 153.947 196.135 153.708 196.135 153.389V143.917C196.135 143.599 196.373 143.36 196.692 143.36H211.02C211.338 143.36 211.577 143.599 211.577 143.917V153.389C211.577 153.708 211.338 153.947 211.02 153.947ZM197.249 152.832H210.463V144.554H197.249V152.832Z" fill="#D1D3D4"/>
<path d="M273.506 166.284H172.891V191.12H273.506V166.284Z" fill="white"/>
<path d="M273.506 191.677H172.891C172.573 191.677 172.334 191.438 172.334 191.12V166.285C172.334 165.966 172.573 165.728 172.891 165.728H273.506C273.824 165.728 274.063 165.966 274.063 166.285V191.12C274.063 191.438 273.824 191.677 273.506 191.677ZM173.448 190.563H272.948V166.842H173.448V190.563Z" fill="#D1D3D4"/>
<path d="M186.184 183.876C189.042 183.876 191.358 181.56 191.358 178.702C191.358 175.845 189.042 173.528 186.184 173.528C183.327 173.528 181.01 175.845 181.01 178.702C181.01 181.56 183.327 183.876 186.184 183.876Z" fill="#D1D3D4"/>
<path d="M264.352 175.439H220.572C220.253 175.439 220.014 175.2 220.014 174.881C220.014 174.563 220.253 174.324 220.572 174.324H264.352C264.67 174.324 264.909 174.563 264.909 174.881C264.909 175.12 264.59 175.359 264.352 175.439Z" fill="#D1D3D4"/>
<path d="M264.352 183.08H220.572C220.253 183.08 220.014 182.841 220.014 182.523C220.014 182.205 220.253 181.966 220.572 181.966H264.352C264.67 181.966 264.909 182.205 264.909 182.523C264.909 182.841 264.59 183.08 264.352 183.08Z" fill="#D1D3D4"/>
<path d="M211.02 183.956H196.692C196.373 183.956 196.135 183.717 196.135 183.398V173.926C196.135 173.608 196.373 173.369 196.692 173.369H211.02C211.338 173.369 211.577 173.608 211.577 173.926V183.398C211.577 183.717 211.338 183.956 211.02 183.956ZM197.249 182.841H210.463V174.483H197.249V182.841Z" fill="#D1D3D4"/>
<path d="M273.506 196.214H172.891V221.049H273.506V196.214Z" fill="white"/>
<path d="M273.506 221.606H172.891C172.573 221.606 172.334 221.368 172.334 221.049V196.214C172.334 195.896 172.573 195.657 172.891 195.657H273.506C273.824 195.657 274.063 195.896 274.063 196.214V221.049C274.063 221.368 273.824 221.606 273.506 221.606ZM173.448 220.492H272.948V196.771H173.448V220.492Z" fill="#D1D3D4"/>
<path d="M186.184 213.806C189.042 213.806 191.358 211.489 191.358 208.632C191.358 205.774 189.042 203.458 186.184 203.458C183.327 203.458 181.01 205.774 181.01 208.632C181.01 211.489 183.327 213.806 186.184 213.806Z" fill="#D1D3D4"/>
<path d="M264.352 205.368H220.572C220.253 205.368 220.014 205.129 220.014 204.811C220.014 204.493 220.253 204.254 220.572 204.254H264.352C264.67 204.254 264.909 204.493 264.909 204.811C264.909 205.129 264.59 205.368 264.352 205.368Z" fill="#D1D3D4"/>
<path d="M264.352 213.089H220.572C220.253 213.089 220.014 212.85 220.014 212.532C220.014 212.214 220.253 211.975 220.572 211.975H264.352C264.67 211.975 264.909 212.214 264.909 212.532C264.909 212.85 264.67 213.089 264.352 213.089Z" fill="#D1D3D4"/>
<path d="M211.02 213.965H196.692C196.373 213.965 196.135 213.726 196.135 213.408V204.015C196.135 203.697 196.373 203.458 196.692 203.458H211.02C211.338 203.458 211.577 203.697 211.577 204.015V213.487C211.577 213.726 211.338 213.965 211.02 213.965ZM197.249 212.851H210.463V204.572H197.249V212.851Z" fill="#D1D3D4"/>
<path d="M273.506 226.224H172.891V251.059H273.506V226.224Z" fill="white"/>
<path d="M273.506 251.616H172.891C172.573 251.616 172.334 251.377 172.334 251.059V226.223C172.334 225.905 172.573 225.666 172.891 225.666H273.506C273.824 225.666 274.063 225.905 274.063 226.223V251.059C274.063 251.377 273.824 251.616 273.506 251.616ZM173.448 250.501H272.948V226.781H173.448V250.501Z" fill="#D1D3D4"/>
<path d="M186.184 243.815C189.042 243.815 191.358 241.498 191.358 238.641C191.358 235.783 189.042 233.467 186.184 233.467C183.327 233.467 181.01 235.783 181.01 238.641C181.01 241.498 183.327 243.815 186.184 243.815Z" fill="#D1D3D4"/>
<path d="M264.352 235.377H220.572C220.253 235.377 220.014 235.138 220.014 234.82C220.014 234.502 220.253 234.263 220.572 234.263H264.352C264.67 234.263 264.909 234.502 264.909 234.82C264.909 235.138 264.59 235.377 264.352 235.377Z" fill="#D1D3D4"/>
<path d="M264.352 243.099H220.572C220.253 243.099 220.014 242.86 220.014 242.541C220.014 242.223 220.253 241.984 220.572 241.984H264.352C264.67 241.984 264.909 242.223 264.909 242.541C264.909 242.78 264.59 243.019 264.352 243.099Z" fill="#D1D3D4"/>
<path d="M211.02 243.974H196.692C196.373 243.974 196.135 243.735 196.135 243.417V233.945C196.135 233.626 196.373 233.388 196.692 233.388H211.02C211.338 233.388 211.577 233.626 211.577 233.945V243.417C211.577 243.656 211.338 243.974 211.02 243.974ZM197.249 242.86H210.463V234.502H197.249V242.86Z" fill="#D1D3D4"/>
<path d="M100.641 218.619C99.2873 217.266 98.0933 216.231 97.0585 215.196C92.0437 209.943 84.2429 208.43 77.6361 211.296C70.8701 214.241 66.8105 221.166 67.4473 228.41C67.6065 230.161 67.0493 230.718 65.3777 231.116C54.1541 233.982 46.1145 243.773 45.5573 255.315C45.0001 270.837 56.6217 283.016 72.2233 283.016C107.964 283.016 143.704 283.016 179.445 283.016C180.798 283.016 182.231 282.936 183.584 282.697C195.046 280.946 203.563 271.235 203.723 259.613C203.882 247.832 195.444 237.564 183.982 235.892C181.355 235.494 178.649 235.494 176.022 235.335C180.559 211.614 164.878 194.262 148.958 189.963C140.281 187.655 131.844 187.973 123.565 191.555C111.466 196.729 104.302 206.122 100.641 218.619Z" fill="#272727"/>
<path d="M114.57 283.573H72.2232C57.4176 283.812 45.2388 272.031 45 257.305C45 256.668 45 255.952 45 255.315C45.5572 243.534 53.756 233.505 65.2184 230.639C66.6512 230.241 66.9696 229.923 66.8104 228.49C66.1736 220.928 70.3924 213.843 77.3176 210.819C84.1632 207.794 92.2028 209.386 97.3768 214.799C98.0932 215.515 98.8892 216.231 99.6852 217.027L100.322 217.585C104.222 204.849 111.944 195.933 123.247 191.078C140.281 183.834 160.102 189.725 170.529 205.087C174.668 211.137 179.046 221.167 176.579 234.858L178.489 234.937C180.32 234.937 182.23 235.097 184.061 235.335C195.683 237.087 204.359 247.514 204.28 259.613C204.12 271.474 195.364 281.503 183.663 283.175C182.31 283.334 180.877 283.493 179.524 283.493L114.57 283.573ZM84.4816 210.341C82.1732 210.341 79.9444 210.819 77.8748 211.774C71.3476 214.639 67.3676 221.326 68.0044 228.41C68.1636 230.639 67.2084 231.276 65.5368 231.674C54.552 234.38 46.6716 244.012 46.1144 255.315C45.3184 269.484 56.144 281.583 70.2332 282.379C70.87 282.379 71.5068 282.459 72.1436 282.379C107.884 282.379 143.624 282.379 179.365 282.379C180.718 282.379 182.071 282.299 183.424 282.061C194.648 280.389 202.926 270.837 203.086 259.534C203.245 247.992 194.966 238.042 183.822 236.37C181.992 236.131 180.24 235.972 178.41 235.972C177.534 235.972 176.738 235.893 175.862 235.893C175.544 235.893 175.305 235.574 175.305 235.256C175.305 235.256 175.305 235.256 175.305 235.176C179.763 212.013 164.878 194.819 148.639 190.521C140.361 188.133 131.525 188.69 123.645 192.033C112.262 196.889 104.859 205.645 101.118 218.699C101.038 219.017 100.72 219.177 100.402 219.097C100.322 219.097 100.242 219.017 100.163 218.938L98.8892 217.744C98.0136 216.948 97.2972 216.231 96.5808 215.515C93.4764 212.251 89.0984 210.421 84.4816 210.341Z" fill="white" fill-opacity="0.1"/>
<path d="M132.64 288.986V251.574H139.326L126.272 237.246L113.217 251.574H119.904V288.986" fill="#EC78D5"/>
<path d="M132.64 289.543C132.321 289.543 132.083 289.304 132.083 288.986V251.574C132.083 251.255 132.321 251.016 132.64 251.016H138.053L126.272 238.042L114.491 251.016H119.904C120.222 251.016 120.461 251.255 120.461 251.574V288.986C120.461 289.304 120.222 289.543 119.904 289.543C119.585 289.543 119.347 289.304 119.347 288.986V252.131H113.217C112.979 252.131 112.819 251.972 112.74 251.812C112.66 251.574 112.66 251.414 112.819 251.176L125.874 236.848C126.113 236.609 126.431 236.609 126.67 236.848L139.724 251.176C139.883 251.335 139.883 251.574 139.804 251.812C139.724 252.051 139.485 252.131 139.326 252.131H133.197V288.986C133.197 289.224 132.958 289.463 132.64 289.543Z" fill="white" fill-opacity="0.1"/>
<path d="M243.735 210.382C236.412 207.278 228.213 206.72 220.572 208.949C206.085 212.85 191.677 228.69 195.816 250.421C193.349 250.58 190.881 250.58 188.493 250.898C178.065 252.49 170.344 261.804 170.503 272.629C170.663 283.216 178.463 292.131 188.891 293.723C190.165 293.882 191.359 293.962 192.632 293.962C225.268 293.962 257.984 293.962 290.62 293.962C304.789 293.962 315.535 282.818 314.977 268.649C314.42 258.142 307.097 249.147 296.908 246.52C295.396 246.122 294.918 245.645 295.077 244.053C295.635 237.366 291.893 231.078 285.764 228.372C279.715 225.745 272.551 227.178 268.013 231.954C266.979 232.909 265.944 233.944 264.75 235.138C261.327 223.675 254.72 215.078 243.735 210.382Z" fill="#EC78D5"/>
<path d="M252.253 294.519H192.632C191.359 294.519 190.085 294.44 188.811 294.201C178.065 292.609 170.026 283.455 169.946 272.55C169.867 261.485 177.747 251.854 188.413 250.262C190.085 250.023 191.757 249.943 193.508 249.864L195.179 249.784C192.951 237.287 196.931 228.133 200.751 222.561C210.224 208.472 228.373 203.138 243.974 209.745C254.322 214.203 261.327 222.322 264.909 233.944L265.387 233.466C266.183 232.75 266.819 232.113 267.456 231.396C272.232 226.461 279.555 225.028 285.844 227.735C292.212 230.521 296.112 237.048 295.475 243.973C295.396 245.247 295.635 245.565 296.908 245.884C307.415 248.51 314.898 257.664 315.455 268.49C316.251 282.022 305.903 293.564 292.371 294.36C291.734 294.36 291.177 294.44 290.54 294.36H252.253V294.519ZM230.363 208.153C227.099 208.153 223.835 208.631 220.731 209.506C205.925 213.486 192.314 229.088 196.373 250.262C196.373 250.421 196.373 250.58 196.294 250.739C196.214 250.898 196.055 250.978 195.896 250.978C195.1 251.058 194.383 251.058 193.587 251.058C191.916 251.137 190.324 251.217 188.652 251.456C178.543 252.968 170.981 262.042 171.061 272.629C171.14 282.977 178.782 291.654 188.971 293.166C190.165 293.325 191.438 293.405 192.632 293.405C225.268 293.405 257.984 293.405 290.62 293.405C303.515 293.644 314.181 283.375 314.42 270.4C314.42 269.843 314.42 269.206 314.42 268.649C313.943 258.301 306.779 249.545 296.749 247.078C295.157 246.68 294.361 246.043 294.441 244.053C294.998 237.605 291.416 231.476 285.446 228.929C279.555 226.382 272.71 227.735 268.252 232.352C267.536 233.068 266.899 233.705 266.103 234.421L264.909 235.536C264.75 235.695 264.591 235.695 264.352 235.695C264.193 235.615 264.033 235.456 263.954 235.297C260.531 223.357 253.765 215.397 243.417 210.939C239.357 209.108 234.9 208.153 230.363 208.153Z" fill="white" fill-opacity="0.1"/>
<path d="M236.571 250.739V288.151H229.965L242.939 302.479L255.994 288.151H249.307V250.739" fill="white"/>
<path d="M242.939 303.037C242.78 303.037 242.621 302.957 242.541 302.877L229.487 288.549C229.248 288.311 229.328 287.992 229.487 287.753C229.566 287.674 229.726 287.594 229.885 287.594H236.014V250.739C236.014 250.421 236.253 250.182 236.571 250.182C236.89 250.182 237.129 250.421 237.129 250.739V288.151C237.129 288.47 236.89 288.709 236.571 288.709H231.159L242.939 301.683L254.72 288.709H249.307C248.989 288.709 248.75 288.47 248.75 288.151V250.739C248.75 250.421 248.989 250.182 249.307 250.182C249.626 250.182 249.865 250.421 249.865 250.739V287.594H255.994C256.312 287.594 256.551 287.833 256.551 288.151C256.551 288.311 256.471 288.39 256.392 288.549L243.337 302.877C243.258 302.957 243.099 303.037 242.939 303.037Z" fill="white" fill-opacity="0.1"/>
</svg>
