<svg width="20" height="20" viewBox="0 0 20 20" fill="none" xmlns="http://www.w3.org/2000/svg">
<path fill-rule="evenodd" clip-rule="evenodd" d="M10 1.04169C7.81389 1.04169 6.04169 2.81389 6.04169 5.00002C6.04169 7.18615 7.81389 8.95835 10 8.95835C12.1861 8.95835 13.9584 7.18615 13.9584 5.00002C13.9584 2.81389 12.1861 1.04169 10 1.04169ZM7.29169 5.00002C7.29169 3.50425 8.50425 2.29169 10 2.29169C11.4958 2.29169 12.7084 3.50425 12.7084 5.00002C12.7084 6.49579 11.4958 7.70835 10 7.70835C8.50425 7.70835 7.29169 6.49579 7.29169 5.00002Z" fill="white"/>
<path fill-rule="evenodd" clip-rule="evenodd" d="M10 10.2084C8.30057 10.2084 6.73128 10.6006 5.56514 11.267C4.41668 11.9233 3.54169 12.9251 3.54169 14.1667C3.54169 15.4082 4.41668 16.4101 5.56514 17.0664C6.73128 17.7327 8.30057 18.125 10 18.125C11.6995 18.125 13.2688 17.7327 14.4349 17.0664C15.5834 16.4101 16.4584 15.4082 16.4584 14.1667C16.4584 12.9251 15.5834 11.9233 14.4349 11.267C13.2688 10.6006 11.6995 10.2084 10 10.2084ZM4.79169 14.1667C4.79169 13.5673 5.22253 12.9025 6.18532 12.3523C7.13043 11.8123 8.4778 11.4584 10 11.4584C11.5222 11.4584 12.8696 11.8123 13.8147 12.3523C14.7775 12.9025 15.2084 13.5673 15.2084 14.1667C15.2084 14.7661 14.7775 15.4309 13.8147 15.9811C12.8696 16.5211 11.5222 16.875 10 16.875C8.4778 16.875 7.13043 16.5211 6.18532 15.9811C5.22253 15.4309 4.79169 14.7661 4.79169 14.1667Z" fill="white"/>
</svg>
