<svg width="32" height="32" viewBox="0 0 32 32" fill="none" xmlns="http://www.w3.org/2000/svg">
<g clip-path="url(#clip0_1_19574)">
<path d="M0.680886 32C0.576141 32 0.47281 31.9758 0.378931 31.9294C0.285052 31.8829 0.203156 31.8154 0.139612 31.7322C0.0760693 31.6489 0.0325925 31.5521 0.0125641 31.4493C-0.00746429 31.3465 -0.00350432 31.2404 0.024136 31.1394L2.10445 23.5427C0.809261 21.2006 0.126386 18.5513 0.127386 15.8618C0.131073 7.1155 7.2487 0 15.9943 0C20.2363 0.0016875 24.2221 1.65406 27.2179 4.65212C30.2133 7.65037 31.8623 11.636 31.8611 15.8745C31.8571 24.6211 24.7394 31.7371 15.9943 31.7371H15.9874C13.4331 31.7361 10.9006 31.1135 8.6457 29.9343L0.853448 31.9778C0.796323 31.9927 0.738261 32 0.680886 32Z" fill="#E5E5E5"/>
<path d="M0.680664 31.3191L2.83491 23.4522C1.5061 21.1497 0.807102 18.5378 0.808039 15.8621C0.811539 7.49122 7.62348 0.680969 15.9941 0.680969C20.0561 0.682657 23.8689 2.26372 26.736 5.13334C29.603 8.00297 31.1814 11.8174 31.1799 15.8743C31.1762 24.2449 24.3632 31.0562 15.9941 31.0562C15.9936 31.0562 15.9944 31.0562 15.9941 31.0562H15.9875C13.446 31.0552 10.9489 30.4178 8.73091 29.208L0.680664 31.3191ZM9.10379 26.4597L9.56491 26.733C11.5024 27.8828 13.7239 28.491 15.9892 28.4922H15.9941C22.9507 28.4922 28.6128 22.8311 28.6157 15.8733C28.6169 12.5015 27.3054 9.33084 24.9223 6.94584C22.539 4.56084 19.3703 3.24659 15.9987 3.24516C9.0366 3.24516 3.37473 8.90553 3.37204 15.8631C3.37104 18.2473 4.03804 20.5691 5.30173 22.5784L5.60204 23.0559L4.3266 27.7122L9.10379 26.4597Z" fill="white"/>
<path d="M1.20898 30.7891L3.2888 23.1941C2.00561 20.9714 1.33105 18.4497 1.3318 15.8669C1.33492 7.78586 7.91136 1.21143 15.9917 1.21143C19.9135 1.21311 23.5945 2.73949 26.3618 5.50974C29.1299 8.27999 30.6533 11.9624 30.6518 15.8784C30.6484 23.9597 24.0718 30.5349 15.9924 30.5349C15.9917 30.5349 15.9927 30.5349 15.9924 30.5349H15.9858C13.5325 30.5339 11.1215 29.9182 8.98049 28.7512L1.20898 30.7891Z" fill="#64B161"/>
<path d="M0.680664 31.3191L2.83491 23.4522C1.5061 21.1497 0.807102 18.5378 0.808039 15.8621C0.811539 7.49122 7.62348 0.680969 15.9941 0.680969C20.0561 0.682657 23.8689 2.26372 26.736 5.13334C29.603 8.00297 31.1814 11.8174 31.1799 15.8743C31.1762 24.2449 24.3632 31.0562 15.9941 31.0562C15.9936 31.0562 15.9944 31.0562 15.9941 31.0562H15.9875C13.446 31.0552 10.9489 30.4178 8.73091 29.208L0.680664 31.3191ZM9.10379 26.4597L9.56491 26.733C11.5024 27.8828 13.7239 28.491 15.9892 28.4922H15.9941C22.9507 28.4922 28.6128 22.8311 28.6157 15.8733C28.6169 12.5015 27.3054 9.33084 24.9223 6.94584C22.539 4.56084 19.3703 3.24659 15.9987 3.24516C9.0366 3.24516 3.37473 8.90553 3.37204 15.8631C3.37104 18.2473 4.03804 20.5691 5.30173 22.5784L5.60204 23.0559L4.3266 27.7122L9.10379 26.4597Z" fill="white"/>
<path fill-rule="evenodd" clip-rule="evenodd" d="M12.1985 9.5154C11.9143 8.88352 11.615 8.8709 11.3445 8.8599C11.1233 8.85033 10.8702 8.85083 10.6175 8.85083C10.3645 8.85083 9.95341 8.94608 9.60572 9.32571C9.25784 9.70533 8.27734 10.6233 8.27734 12.4903C8.27734 14.3575 9.63722 16.1614 9.82691 16.4148C10.0166 16.668 12.4519 20.6216 16.3086 22.1426C19.5139 23.4068 20.1661 23.1553 20.8618 23.0921C21.5577 23.0288 23.1067 22.1741 23.4228 21.2881C23.7393 20.4021 23.7393 19.6428 23.6443 19.4839C23.5493 19.326 23.2964 19.231 22.917 19.0413C22.5377 18.8516 20.6722 17.9334 20.3242 17.8069C19.9763 17.6802 19.7234 17.6172 19.4705 17.9971C19.2173 18.3765 18.4907 19.231 18.2693 19.484C18.0478 19.7376 17.8264 19.7693 17.447 19.5794C17.0677 19.3892 15.8455 18.9888 14.3958 17.6961C13.2678 16.6905 12.5061 15.4483 12.2847 15.0684C12.0635 14.689 12.281 14.5015 12.4514 14.2942C12.7583 13.9209 13.2732 13.2498 13.3997 12.9968C13.5262 12.7435 13.4629 12.522 13.3682 12.332C13.2732 12.1423 12.5357 10.2659 12.1985 9.5154Z" fill="white"/>
</g>
<defs>
<clipPath id="clip0_1_19574">
<rect width="32" height="32" fill="white"/>
</clipPath>
</defs>
</svg>
